<svg version="1.1" xmlns="http://www.w3.org/2000/svg" viewBox="0 0 667.8678922308618 220.45223340564615" width="667.8678922308618" height="220.45223340564615" class="excalidraw-svg">
  <!-- svg-source:excalidraw -->
  
  <defs>
    <style class="style-fonts">
      @font-face {
        font-family: "Virgil";
        src: url("https://excalidraw.com/Virgil.woff2");
      }
      @font-face {
        font-family: "Cascadia";
        src: url("https://excalidraw.com/Cascadia.woff2");
      }
      @font-face {
        font-family: "Assistant";
        src: url("https://excalidraw.com/Assistant-Regular.woff2");
      }
    </style>
    
  </defs>
  <g transform="translate(10.785430908203125 27.00407217297692) rotate(0 9.49462890625 16.373099909978976)"><text x="0" y="26.197516007457878" font-family="Helvetica, Segoe UI Emoji" font-size="28.47495636518084px" fill="#1e1e1e" text-anchor="start" style="white-space: pre;" direction="ltr" dominant-baseline="alphabetic">A</text></g><g transform="translate(10.785430908203125 93.58704155448521) rotate(0 9.49462890625 16.373099909978976)"><text x="0" y="26.197516007457878" font-family="Helvetica, Segoe UI Emoji" font-size="28.47495636518084px" fill="#1e1e1e" text-anchor="start" style="white-space: pre;" direction="ltr" dominant-baseline="alphabetic">B</text></g><g transform="translate(618.2907285345727 111.40147903785117) rotate(0 19.78858184814453 16.373099909978976)"><text x="0" y="26.197516007457878" font-family="Helvetica, Segoe UI Emoji" font-size="28.47495636518084px" fill="#1e1e1e" text-anchor="start" style="white-space: pre;" direction="ltr" dominant-baseline="alphabetic">out</text></g><g stroke-linecap="round"><g transform="translate(45.95474586015871 41.07801794796973) rotate(0 29.962318765760273 0)"><path d="M0 0 C9.99 0, 49.94 0, 59.92 0 M0 0 C9.99 0, 49.94 0, 59.92 0" stroke="#1e1e1e" stroke-width="4" fill="none"/></g></g><mask/><g stroke-linecap="round"><g transform="translate(44.29015495693375 106.55127771280507) rotate(0 32.18175919262512 0)"><path d="M0 0 C10.73 0, 53.64 0, 64.36 0 M0 0 C10.73 0, 53.64 0, 64.36 0" stroke="#1e1e1e" stroke-width="4" fill="none"/></g></g><mask/><g stroke-linecap="round"><g transform="translate(261.7945124758929 78.25350751796458) rotate(0 67.13782950190759 0)"><path d="M0 0 C22.38 0, 111.9 0, 134.28 0 M0 0 C22.38 0, 111.9 0, 134.28 0" stroke="#1e1e1e" stroke-width="4" fill="none"/></g></g><mask/><g stroke-linecap="round"><g transform="translate(43.05412895325594 170.35994657441523) rotate(0 175.67572581161357 0)"><path d="M0 0 C58.56 0, 292.79 0, 351.35 0 M0 0 C58.56 0, 292.79 0, 351.35 0" stroke="#1e1e1e" stroke-width="4" fill="none"/></g></g><mask/><g stroke-linecap="round"><g transform="translate(546.7140607601219 131.65858906518196) rotate(0 29.962318765760273 0)"><path d="M0 0 C9.99 0, 49.94 0, 59.92 0 M0 0 C9.99 0, 49.94 0, 59.92 0" stroke="#1e1e1e" stroke-width="4" fill="none"/></g></g><mask/><g transform="translate(10 154.25115885379017) rotate(0 10.280059814453125 16.373099909978976)"><text x="0" y="26.197516007457878" font-family="Helvetica, Segoe UI Emoji" font-size="28.47495636518084px" fill="#1e1e1e" text-anchor="start" style="white-space: pre;" direction="ltr" dominant-baseline="alphabetic">C</text></g><g stroke-linecap="round"><g transform="translate(370.3498207488961 53.87780518724179) rotate(0 94.86208522138483 78.28721410920218)" fill-rule="evenodd"><path d="M0 0 L7.83 9.54 L7.83 9.54 L8.08 9.86 L8.78 10.8 L11.29 14.47 L14.83 20.39 L18.9 28.41 L22.96 38.37 L26.51 50.1 L29.02 63.46 L29.97 78.29 L29.02 93.11 L26.51 106.47 L22.96 118.21 L18.9 128.16 L14.83 136.18 L11.29 142.11 L8.78 145.78 L8.08 146.72 L7.83 147.03 L0 156.57 L12.35 156.57 L67.16 156.57 L67.16 156.57 L71.2 156.56 L76.2 156.44 L82.05 156.1 L88.64 155.43 L95.89 154.32 L103.68 152.64 L111.91 150.29 L120.49 147.16 L129.31 143.12 L138.27 138.07 L147.29 131.91 L156.26 124.55 L165.08 115.89 L173.67 105.82 L181.91 94.26 L189.72 81.1 L184.59 78.29 L189.72 75.47 L189.72 75.47 L181.91 62.33 L173.64 50.8 L165.03 40.8 L156.18 32.2 L147.18 24.9 L138.13 18.8 L129.14 13.78 L120.3 9.75 L111.71 6.59 L103.49 4.2 L95.71 2.47 L88.49 1.3 L81.92 0.57 L76.11 0.18 L71.16 0.03 L67.16 0 L12.35 0 L0 0 L0 0" stroke="none" stroke-width="0" fill="black" fill-rule="evenodd"/><path d="M0 0 C2.68 3.26, 5.35 6.52, 7.83 9.54 M0 0 C2.81 3.43, 5.62 6.85, 7.83 9.54 M7.83 9.54 C7.83 9.54, 7.83 9.54, 7.83 9.54 M7.83 9.54 C7.83 9.54, 7.83 9.54, 7.83 9.54 M7.83 9.54 C7.92 9.65, 8 9.77, 8.08 9.86 M7.83 9.54 C7.89 9.62, 7.94 9.69, 8.08 9.86 M8.08 9.86 C8.29 10.14, 8.5 10.43, 8.78 10.8 M8.08 9.86 C8.31 10.18, 8.55 10.49, 8.78 10.8 M8.78 10.8 C9.56 11.93, 10.33 13.07, 11.29 14.47 M8.78 10.8 C9.77 12.24, 10.75 13.68, 11.29 14.47 M11.29 14.47 C12.59 16.65, 13.9 18.83, 14.83 20.39 M11.29 14.47 C12.12 15.85, 12.94 17.23, 14.83 20.39 M14.83 20.39 C15.92 22.54, 17.01 24.68, 18.9 28.41 M14.83 20.39 C16.46 23.59, 18.08 26.8, 18.9 28.41 M18.9 28.41 C20.51 32.35, 22.12 36.29, 22.96 38.37 M18.9 28.41 C20.09 31.33, 21.29 34.26, 22.96 38.37 M22.96 38.37 C23.84 41.27, 24.72 44.17, 26.51 50.1 M22.96 38.37 C23.76 41.02, 24.57 43.67, 26.51 50.1 M26.51 50.1 C27.07 53.08, 27.63 56.06, 29.02 63.46 M26.51 50.1 C27.41 54.89, 28.31 59.68, 29.02 63.46 M29.02 63.46 C29.34 68.41, 29.65 73.36, 29.97 78.29 M29.02 63.46 C29.36 68.74, 29.7 74.02, 29.97 78.29 M29.97 78.29 C29.78 81.31, 29.58 84.33, 29.02 93.11 M29.97 78.29 C29.66 83.17, 29.34 88.06, 29.02 93.11 M29.02 93.11 C28.08 98.12, 27.14 103.13, 26.51 106.47 M29.02 93.11 C28.3 96.92, 27.59 100.73, 26.51 106.47 M26.51 106.47 C25.42 110.07, 24.33 113.67, 22.96 118.21 M26.51 106.47 C25.55 109.64, 24.6 112.81, 22.96 118.21 M22.96 118.21 C21.81 121.03, 20.66 123.85, 18.9 128.16 M22.96 118.21 C22.07 120.39, 21.18 122.57, 18.9 128.16 M18.9 128.16 C18.03 129.88, 17.16 131.59, 14.83 136.18 M18.9 128.16 C17.67 130.59, 16.44 133.02, 14.83 136.18 M14.83 136.18 C13.64 138.17, 12.45 140.16, 11.29 142.11 M14.83 136.18 C13.51 138.4, 12.18 140.62, 11.29 142.11 M11.29 142.11 C10.74 142.91, 10.18 143.72, 8.78 145.78 M11.29 142.11 C10.5 143.26, 9.71 144.41, 8.78 145.78 M8.78 145.78 C8.59 146.03, 8.4 146.29, 8.08 146.72 M8.78 145.78 C8.58 146.04, 8.39 146.3, 8.08 146.72 M8.08 146.72 C7.99 146.82, 7.91 146.93, 7.83 147.03 M8.08 146.72 C8.02 146.79, 7.95 146.87, 7.83 147.03 M7.83 147.03 C4.7 150.84, 1.58 154.65, 0 156.57 M7.83 147.03 C5.71 149.62, 3.59 152.2, 0 156.57 M0 156.57 C4.8 156.57, 9.6 156.57, 12.35 156.57 M0 156.57 C2.62 156.57, 5.25 156.57, 12.35 156.57 M12.35 156.57 C27.88 156.57, 43.41 156.57, 67.16 156.57 M12.35 156.57 C23.34 156.57, 34.33 156.57, 67.16 156.57 M67.16 156.57 C67.16 156.57, 67.16 156.57, 67.16 156.57 M67.16 156.57 C67.16 156.57, 67.16 156.57, 67.16 156.57 M67.16 156.57 C68.2 156.57, 69.25 156.57, 71.2 156.56 M67.16 156.57 C68.48 156.57, 69.81 156.56, 71.2 156.56 M71.2 156.56 C72.51 156.53, 73.82 156.5, 76.2 156.44 M71.2 156.56 C72.51 156.53, 73.82 156.5, 76.2 156.44 M76.2 156.44 C78.08 156.33, 79.96 156.22, 82.05 156.1 M76.2 156.44 C77.51 156.36, 78.83 156.29, 82.05 156.1 M82.05 156.1 C84.04 155.9, 86.04 155.7, 88.64 155.43 M82.05 156.1 C83.8 155.93, 85.54 155.75, 88.64 155.43 M88.64 155.43 C90.34 155.17, 92.03 154.91, 95.89 154.32 M88.64 155.43 C90.63 155.13, 92.61 154.82, 95.89 154.32 M95.89 154.32 C98.34 153.79, 100.8 153.26, 103.68 152.64 M95.89 154.32 C98.49 153.76, 101.09 153.2, 103.68 152.64 M103.68 152.64 C105.48 152.13, 107.29 151.61, 111.91 150.29 M103.68 152.64 C106.7 151.78, 109.73 150.92, 111.91 150.29 M111.91 150.29 C114.44 149.37, 116.96 148.45, 120.49 147.16 M111.91 150.29 C114.32 149.41, 116.72 148.54, 120.49 147.16 M120.49 147.16 C122.85 146.07, 125.21 144.99, 129.31 143.12 M120.49 147.16 C122.34 146.31, 124.2 145.46, 129.31 143.12 M129.31 143.12 C131.54 141.86, 133.77 140.6, 138.27 138.07 M129.31 143.12 C131.78 141.72, 134.25 140.33, 138.27 138.07 M138.27 138.07 C140.37 136.64, 142.46 135.21, 147.29 131.91 M138.27 138.07 C140.24 136.72, 142.21 135.38, 147.29 131.91 M147.29 131.91 C149.99 129.7, 152.69 127.48, 156.26 124.55 M147.29 131.91 C150.46 129.31, 153.63 126.71, 156.26 124.55 M156.26 124.55 C159.17 121.69, 162.08 118.84, 165.08 115.89 M156.26 124.55 C158.17 122.68, 160.08 120.8, 165.08 115.89 M165.08 115.89 C168.41 111.98, 171.74 108.08, 173.67 105.82 M165.08 115.89 C167.73 112.79, 170.38 109.68, 173.67 105.82 M173.67 105.82 C175.66 103.02, 177.66 100.22, 181.91 94.26 M173.67 105.82 C176.49 101.86, 179.32 97.9, 181.91 94.26 M181.91 94.26 C184.73 89.52, 187.54 84.78, 189.72 81.1 M181.91 94.26 C185 89.07, 188.08 83.87, 189.72 81.1 M189.72 81.1 C188.62 80.5, 187.52 79.89, 184.59 78.29 M189.72 81.1 C187.95 80.13, 186.18 79.16, 184.59 78.29 M184.59 78.29 C186.04 77.49, 187.49 76.69, 189.72 75.47 M184.59 78.29 C185.76 77.64, 186.94 77, 189.72 75.47 M189.72 75.47 C189.72 75.47, 189.72 75.47, 189.72 75.47 M189.72 75.47 C189.72 75.47, 189.72 75.47, 189.72 75.47 M189.72 75.47 C187.11 71.07, 184.49 66.67, 181.91 62.33 M189.72 75.47 C187.48 71.69, 185.23 67.92, 181.91 62.33 M181.91 62.33 C179.1 58.41, 176.29 54.5, 173.64 50.8 M181.91 62.33 C180.06 59.75, 178.21 57.18, 173.64 50.8 M173.64 50.8 C170.98 47.71, 168.32 44.62, 165.03 40.8 M173.64 50.8 C171.85 48.72, 170.05 46.63, 165.03 40.8 M165.03 40.8 C162.34 38.18, 159.65 35.57, 156.18 32.2 M165.03 40.8 C161.93 37.78, 158.82 34.77, 156.18 32.2 M156.18 32.2 C153.37 29.92, 150.55 27.64, 147.18 24.9 M156.18 32.2 C153.56 30.07, 150.93 27.95, 147.18 24.9 M147.18 24.9 C144.01 22.76, 140.84 20.63, 138.13 18.8 M147.18 24.9 C144.87 23.34, 142.56 21.79, 138.13 18.8 M138.13 18.8 C135.74 17.46, 133.34 16.13, 129.14 13.78 M138.13 18.8 C134.58 16.82, 131.03 14.84, 129.14 13.78 M129.14 13.78 C126.98 12.8, 124.83 11.82, 120.3 9.75 M129.14 13.78 C127.02 12.82, 124.9 11.85, 120.3 9.75 M120.3 9.75 C118.54 9.1, 116.77 8.45, 111.71 6.59 M120.3 9.75 C118.24 8.99, 116.18 8.23, 111.71 6.59 M111.71 6.59 C109.13 5.84, 106.54 5.09, 103.49 4.2 M111.71 6.59 C109.92 6.07, 108.14 5.55, 103.49 4.2 M103.49 4.2 C100.53 3.55, 97.58 2.89, 95.71 2.47 M103.49 4.2 C101.09 3.67, 98.69 3.13, 95.71 2.47 M95.71 2.47 C93.14 2.05, 90.57 1.64, 88.49 1.3 M95.71 2.47 C94.17 2.22, 92.62 1.97, 88.49 1.3 M88.49 1.3 C86.18 1.04, 83.87 0.79, 81.92 0.57 M88.49 1.3 C86.24 1.05, 83.98 0.8, 81.92 0.57 M81.92 0.57 C80.03 0.44, 78.13 0.32, 76.11 0.18 M81.92 0.57 C80.39 0.47, 78.86 0.37, 76.11 0.18 M76.11 0.18 C74.63 0.14, 73.15 0.09, 71.16 0.03 M76.11 0.18 C74.89 0.14, 73.66 0.11, 71.16 0.03 M71.16 0.03 C70.16 0.02, 69.17 0.01, 67.16 0 M71.16 0.03 C69.9 0.02, 68.64 0.01, 67.16 0 M67.16 0 C49.94 0, 32.73 0, 12.35 0 M67.16 0 C46.07 0, 24.98 0, 12.35 0 M12.35 0 C8.58 0, 4.8 0, 0 0 M12.35 0 C8.37 0, 4.39 0, 0 0 M0 0 C0 0, 0 0, 0 0 M0 0 C0 0, 0 0, 0 0 M0 0 C0 0, 0 0, 0 0 M0 0 C0 0, 0 0, 0 0" stroke="#000000" stroke-width="1" fill="none"/></g></g><mask/><g stroke-linecap="round"><g transform="translate(393.3466898934742 65.62088730362206) rotate(0 76.81932884465465 66.54413199282185)" fill-rule="evenodd"><path d="M0 0 L44.16 0 L44.16 0 L47.99 0.01 L52.57 0.11 L63.67 0.97 L76.86 3.37 L84.06 5.41 L91.56 8.13 L99.29 11.63 L107.18 16.02 L115.15 21.4 L123.12 27.86 L131.03 35.5 L138.81 44.43 L146.37 54.75 L153.64 66.54 L146.47 78.17 L139.01 88.35 L131.34 97.19 L123.51 104.78 L115.6 111.22 L107.68 116.59 L99.83 121 L92.11 124.53 L84.41 127.36 L77.09 129.49 L63.8 132.03 L52.68 132.96 L44.16 133.09 L0.12 133.09 L0.12 133.09 L3.03 128.01 L6.12 121.93 L9.23 114.89 L12.17 106.92 L14.77 98.07 L16.84 88.36 L18.22 77.84 L18.72 66.54 L18.21 55.22 L16.82 44.69 L14.73 34.97 L12.11 26.12 L9.14 18.16 L6.02 11.13 L2.91 5.06 L0 0 L0 0" stroke="none" stroke-width="0" fill="#FFFFFF" fill-rule="evenodd"/><path d="M0 0 C15.38 0, 30.77 0, 44.16 0 M0 0 C10.86 0, 21.73 0, 44.16 0 M44.16 0 C44.16 0, 44.16 0, 44.16 0 M44.16 0 C44.16 0, 44.16 0, 44.16 0 M44.16 0 C45.26 0, 46.35 0.01, 47.99 0.01 M44.16 0 C45.22 0, 46.29 0.01, 47.99 0.01 M47.99 0.01 C49.72 0.05, 51.44 0.08, 52.57 0.11 M47.99 0.01 C49.18 0.04, 50.36 0.06, 52.57 0.11 M52.57 0.11 C56.27 0.39, 59.96 0.68, 63.67 0.97 M52.57 0.11 C55.08 0.3, 57.58 0.5, 63.67 0.97 M63.67 0.97 C66.31 1.45, 68.95 1.93, 76.86 3.37 M63.67 0.97 C66.39 1.46, 69.1 1.96, 76.86 3.37 M76.86 3.37 C78.98 3.97, 81.1 4.57, 84.06 5.41 M76.86 3.37 C79.14 4.02, 81.41 4.66, 84.06 5.41 M84.06 5.41 C86.33 6.23, 88.6 7.05, 91.56 8.13 M84.06 5.41 C85.65 5.98, 87.24 6.56, 91.56 8.13 M91.56 8.13 C93.8 9.14, 96.04 10.16, 99.29 11.63 M91.56 8.13 C93.37 8.95, 95.19 9.77, 99.29 11.63 M99.29 11.63 C102.43 13.38, 105.57 15.13, 107.18 16.02 M99.29 11.63 C101.31 12.76, 103.33 13.88, 107.18 16.02 M107.18 16.02 C109.19 17.38, 111.21 18.74, 115.15 21.4 M107.18 16.02 C109 17.25, 110.82 18.48, 115.15 21.4 M115.15 21.4 C117.26 23.11, 119.37 24.82, 123.12 27.86 M115.15 21.4 C116.97 22.87, 118.79 24.35, 123.12 27.86 M123.12 27.86 C124.95 29.63, 126.79 31.4, 131.03 35.5 M123.12 27.86 C124.75 29.43, 126.38 31.01, 131.03 35.5 M131.03 35.5 C132.93 37.69, 134.83 39.87, 138.81 44.43 M131.03 35.5 C132.82 37.56, 134.61 39.62, 138.81 44.43 M138.81 44.43 C140.98 47.4, 143.15 50.36, 146.37 54.75 M138.81 44.43 C140.59 46.87, 142.38 49.31, 146.37 54.75 M146.37 54.75 C148.87 58.8, 151.37 62.86, 153.64 66.54 M146.37 54.75 C148.36 57.97, 150.35 61.2, 153.64 66.54 M153.64 66.54 C150.8 71.15, 147.96 75.76, 146.47 78.17 M153.64 66.54 C151.85 69.45, 150.06 72.36, 146.47 78.17 M146.47 78.17 C143.99 81.56, 141.5 84.95, 139.01 88.35 M146.47 78.17 C143.63 82.05, 140.78 85.94, 139.01 88.35 M139.01 88.35 C136.34 91.43, 133.67 94.51, 131.34 97.19 M139.01 88.35 C136.42 91.33, 133.83 94.32, 131.34 97.19 M131.34 97.19 C129.4 99.07, 127.47 100.94, 123.51 104.78 M131.34 97.19 C129.08 99.38, 126.83 101.56, 123.51 104.78 M123.51 104.78 C121.55 106.37, 119.6 107.96, 115.6 111.22 M123.51 104.78 C121.53 106.39, 119.55 108.01, 115.6 111.22 M115.6 111.22 C113.36 112.74, 111.12 114.26, 107.68 116.59 M115.6 111.22 C112.93 113.03, 110.26 114.84, 107.68 116.59 M107.68 116.59 C106.03 117.52, 104.38 118.44, 99.83 121 M107.68 116.59 C105.31 117.92, 102.94 119.25, 99.83 121 M99.83 121 C97.48 122.07, 95.12 123.15, 92.11 124.53 M99.83 121 C96.85 122.36, 93.87 123.72, 92.11 124.53 M92.11 124.53 C90.03 125.29, 87.95 126.06, 84.41 127.36 M92.11 124.53 C90.06 125.28, 88.01 126.04, 84.41 127.36 M84.41 127.36 C81.93 128.08, 79.45 128.8, 77.09 129.49 M84.41 127.36 C82.21 128, 80 128.64, 77.09 129.49 M77.09 129.49 C73.45 130.18, 69.82 130.88, 63.8 132.03 M77.09 129.49 C73.4 130.19, 69.71 130.9, 63.8 132.03 M63.8 132.03 C60.74 132.28, 57.69 132.54, 52.68 132.96 M63.8 132.03 C60.91 132.27, 58.03 132.51, 52.68 132.96 M52.68 132.96 C49.44 133.01, 46.2 133.06, 44.16 133.09 M52.68 132.96 C49.85 133, 47.02 133.04, 44.16 133.09 M44.16 133.09 C27.94 133.09, 11.73 133.09, 0.12 133.09 M44.16 133.09 C33.13 133.09, 22.1 133.09, 0.12 133.09 M0.12 133.09 C0.12 133.09, 0.12 133.09, 0.12 133.09 M0.12 133.09 C0.12 133.09, 0.12 133.09, 0.12 133.09 M0.12 133.09 C1.1 131.37, 2.08 129.66, 3.03 128.01 M0.12 133.09 C1.21 131.19, 2.29 129.3, 3.03 128.01 M3.03 128.01 C4 126.11, 4.96 124.21, 6.12 121.93 M3.03 128.01 C3.82 126.45, 4.62 124.89, 6.12 121.93 M6.12 121.93 C6.95 120.06, 7.78 118.19, 9.23 114.89 M6.12 121.93 C7.17 119.55, 8.22 117.17, 9.23 114.89 M9.23 114.89 C10.2 112.26, 11.17 109.62, 12.17 106.92 M9.23 114.89 C10.18 112.32, 11.13 109.74, 12.17 106.92 M12.17 106.92 C12.95 104.26, 13.73 101.61, 14.77 98.07 M12.17 106.92 C13.12 103.67, 14.08 100.41, 14.77 98.07 M14.77 98.07 C15.25 95.81, 15.73 93.55, 16.84 88.36 M14.77 98.07 C15.23 95.89, 15.7 93.7, 16.84 88.36 M16.84 88.36 C17.32 84.67, 17.81 80.97, 18.22 77.84 M16.84 88.36 C17.24 85.28, 17.65 82.2, 18.22 77.84 M18.22 77.84 C18.34 75.02, 18.47 72.2, 18.72 66.54 M18.22 77.84 C18.4 73.76, 18.58 69.67, 18.72 66.54 M18.72 66.54 C18.52 62.09, 18.32 57.63, 18.21 55.22 M18.72 66.54 C18.59 63.62, 18.46 60.7, 18.21 55.22 M18.21 55.22 C17.76 51.79, 17.31 48.35, 16.82 44.69 M18.21 55.22 C17.66 51.06, 17.11 46.9, 16.82 44.69 M16.82 44.69 C16.05 41.12, 15.28 37.55, 14.73 34.97 M16.82 44.69 C16.37 42.58, 15.91 40.47, 14.73 34.97 M14.73 34.97 C14.15 33.02, 13.57 31.06, 12.11 26.12 M14.73 34.97 C13.82 31.9, 12.91 28.82, 12.11 26.12 M12.11 26.12 C11.29 23.93, 10.48 21.74, 9.14 18.16 M12.11 26.12 C11.41 24.25, 10.71 22.38, 9.14 18.16 M9.14 18.16 C8.5 16.71, 7.85 15.26, 6.02 11.13 M9.14 18.16 C8.2 16.04, 7.26 13.92, 6.02 11.13 M6.02 11.13 C5.14 9.41, 4.26 7.69, 2.91 5.06 M6.02 11.13 C4.81 8.77, 3.6 6.42, 2.91 5.06 M2.91 5.06 C1.83 3.19, 0.76 1.32, 0 0 M2.91 5.06 C2.03 3.53, 1.15 2, 0 0 M0 0 C0 0, 0 0, 0 0 M0 0 C0 0, 0 0, 0 0 M0 0 C0 0, 0 0, 0 0 M0 0 C0 0, 0 0, 0 0" stroke="#000000" stroke-width="1" fill="none"/></g></g><mask/><g stroke-linecap="round" transform="translate(549.0033027754059 128.0642836816507) rotate(0 5.212648821966297 3.9397899181641662)"><path d="M10.43 3.94 C10.43 4.17, 10.4 4.4, 10.35 4.62 C10.29 4.85, 10.21 5.07, 10.11 5.29 C10.01 5.5, 9.88 5.71, 9.73 5.91 C9.58 6.11, 9.4 6.3, 9.21 6.47 C9.01 6.65, 8.79 6.81, 8.56 6.96 C8.33 7.1, 8.08 7.24, 7.82 7.35 C7.56 7.47, 7.28 7.56, 7 7.64 C6.71 7.72, 6.41 7.78, 6.12 7.82 C5.82 7.86, 5.51 7.88, 5.21 7.88 C4.91 7.88, 4.6 7.86, 4.31 7.82 C4.01 7.78, 3.71 7.72, 3.43 7.64 C3.15 7.56, 2.87 7.47, 2.61 7.35 C2.35 7.24, 2.09 7.1, 1.86 6.96 C1.63 6.81, 1.41 6.65, 1.22 6.47 C1.03 6.3, 0.85 6.11, 0.7 5.91 C0.55 5.71, 0.42 5.5, 0.31 5.29 C0.21 5.07, 0.13 4.85, 0.08 4.62 C0.03 4.4, 0 4.17, 0 3.94 C0 3.71, 0.03 3.48, 0.08 3.26 C0.13 3.03, 0.21 2.81, 0.31 2.59 C0.42 2.38, 0.55 2.17, 0.7 1.97 C0.85 1.77, 1.03 1.58, 1.22 1.41 C1.41 1.23, 1.63 1.07, 1.86 0.92 C2.09 0.78, 2.35 0.64, 2.61 0.53 C2.87 0.41, 3.15 0.32, 3.43 0.24 C3.71 0.16, 4.01 0.1, 4.31 0.06 C4.6 0.02, 4.91 0, 5.21 0 C5.51 0, 5.82 0.02, 6.12 0.06 C6.41 0.1, 6.71 0.16, 7 0.24 C7.28 0.32, 7.56 0.41, 7.82 0.53 C8.08 0.64, 8.33 0.78, 8.56 0.92 C8.79 1.07, 9.01 1.23, 9.21 1.41 C9.4 1.58, 9.58 1.77, 9.73 1.97 C9.88 2.17, 10.01 2.38, 10.11 2.59 C10.21 2.81, 10.29 3.03, 10.35 3.26 C10.4 3.48, 10.41 3.83, 10.43 3.94 C10.44 4.05, 10.44 3.83, 10.43 3.94" stroke="none" stroke-width="0" fill="black"/><path d="M10.43 3.94 C10.43 4.17, 10.4 4.4, 10.35 4.62 C10.29 4.85, 10.21 5.07, 10.11 5.29 C10.01 5.5, 9.88 5.71, 9.73 5.91 C9.58 6.11, 9.4 6.3, 9.21 6.47 C9.01 6.65, 8.79 6.81, 8.56 6.96 C8.33 7.1, 8.08 7.24, 7.82 7.35 C7.56 7.47, 7.28 7.56, 7 7.64 C6.71 7.72, 6.41 7.78, 6.12 7.82 C5.82 7.86, 5.51 7.88, 5.21 7.88 C4.91 7.88, 4.6 7.86, 4.31 7.82 C4.01 7.78, 3.71 7.72, 3.43 7.64 C3.15 7.56, 2.87 7.47, 2.61 7.35 C2.35 7.24, 2.09 7.1, 1.86 6.96 C1.63 6.81, 1.41 6.65, 1.22 6.47 C1.03 6.3, 0.85 6.11, 0.7 5.91 C0.55 5.71, 0.42 5.5, 0.31 5.29 C0.21 5.07, 0.13 4.85, 0.08 4.62 C0.03 4.4, 0 4.17, 0 3.94 C0 3.71, 0.03 3.48, 0.08 3.26 C0.13 3.03, 0.21 2.81, 0.31 2.59 C0.42 2.38, 0.55 2.17, 0.7 1.97 C0.85 1.77, 1.03 1.58, 1.22 1.41 C1.41 1.23, 1.63 1.07, 1.86 0.92 C2.09 0.78, 2.35 0.64, 2.61 0.53 C2.87 0.41, 3.15 0.32, 3.43 0.24 C3.71 0.16, 4.01 0.1, 4.31 0.06 C4.6 0.02, 4.91 0, 5.21 0 C5.51 0, 5.82 0.02, 6.12 0.06 C6.41 0.1, 6.71 0.16, 7 0.24 C7.28 0.32, 7.56 0.41, 7.82 0.53 C8.08 0.64, 8.33 0.78, 8.56 0.92 C8.79 1.07, 9.01 1.23, 9.21 1.41 C9.4 1.58, 9.58 1.77, 9.73 1.97 C9.88 2.17, 10.01 2.38, 10.11 2.59 C10.21 2.81, 10.29 3.03, 10.35 3.26 C10.4 3.48, 10.41 3.83, 10.43 3.94 C10.44 4.05, 10.44 3.83, 10.43 3.94" stroke="#000000" stroke-width="4" fill="none"/></g><g stroke-linecap="round"><g transform="translate(103.54134159567866 135.24248006899114) rotate(0 -1.9569133475627467 -57.54384324081926)" fill-rule="evenodd"><path d="M0 0 L0 0 L-1.88 3.01 L-3.47 5.36 L-5.84 8.43 L-7.19 9.83 L-7.62 10.15 L-19.99 10.15 L-13.22 1.9 L-13.22 1.9 L-13.01 1.63 L-12.4 0.82 L-10.23 -2.36 L-7.16 -7.48 L-3.65 -14.41 L-0.13 -23.02 L2.93 -33.17 L5.1 -44.72 L5.92 -57.54 L5.1 -70.36 L2.93 -81.92 L-0.13 -92.07 L-3.65 -100.68 L-7.16 -107.61 L-10.23 -112.73 L-12.4 -115.9 L-13.01 -116.72 L-13.22 -116.99 L-19.99 -125.24 L-7.62 -125.24 L-7.62 -125.24 L-3.88 -120.68 L-0.11 -115.09 L2.41 -110.71 L5.1 -105.47 L7.8 -99.39 L10.36 -92.5 L12.63 -84.84 L14.44 -76.45 L15.64 -67.33 L16.08 -57.54 L15.64 -47.78 L14.45 -38.68 L12.65 -30.3 L10.39 -22.64 L7.84 -15.75 L5.16 -9.66 L2.49 -4.4 L0 0 L0 0" stroke="none" stroke-width="0" fill="black" fill-rule="evenodd"/><path d="M0 0 C0 0, 0 0, 0 0 M0 0 C0 0, 0 0, 0 0 M0 0 C-0.51 0.82, -1.03 1.64, -1.88 3.01 M0 0 C-0.63 1.01, -1.26 2.02, -1.88 3.01 M-1.88 3.01 C-2.27 3.58, -2.66 4.15, -3.47 5.36 M-1.88 3.01 C-2.37 3.73, -2.86 4.46, -3.47 5.36 M-3.47 5.36 C-4.2 6.31, -4.92 7.25, -5.84 8.43 M-3.47 5.36 C-4.21 6.32, -4.94 7.28, -5.84 8.43 M-5.84 8.43 C-6.33 8.95, -6.83 9.46, -7.19 9.83 M-5.84 8.43 C-6.31 8.93, -6.79 9.42, -7.19 9.83 M-7.19 9.83 C-7.29 9.91, -7.39 9.98, -7.62 10.15 M-7.19 9.83 C-7.29 9.91, -7.4 9.99, -7.62 10.15 M-7.62 10.15 C-10.7 10.15, -13.79 10.15, -19.99 10.15 M-7.62 10.15 C-11.87 10.15, -16.13 10.15, -19.99 10.15 M-19.99 10.15 C-17.68 7.33, -15.36 4.51, -13.22 1.9 M-19.99 10.15 C-18.61 8.47, -17.23 6.79, -13.22 1.9 M-13.22 1.9 C-13.22 1.9, -13.22 1.9, -13.22 1.9 M-13.22 1.9 C-13.22 1.9, -13.22 1.9, -13.22 1.9 M-13.22 1.9 C-13.15 1.81, -13.07 1.71, -13.01 1.63 M-13.22 1.9 C-13.14 1.8, -13.06 1.7, -13.01 1.63 M-13.01 1.63 C-12.78 1.33, -12.56 1.03, -12.4 0.82 M-13.01 1.63 C-12.78 1.32, -12.55 1.02, -12.4 0.82 M-12.4 0.82 C-11.59 -0.37, -10.77 -1.56, -10.23 -2.36 M-12.4 0.82 C-11.67 -0.25, -10.94 -1.32, -10.23 -2.36 M-10.23 -2.36 C-9.5 -3.58, -8.77 -4.8, -7.16 -7.48 M-10.23 -2.36 C-9.07 -4.29, -7.91 -6.23, -7.16 -7.48 M-7.16 -7.48 C-5.86 -10.05, -4.55 -12.63, -3.65 -14.41 M-7.16 -7.48 C-6.44 -8.9, -5.72 -10.32, -3.65 -14.41 M-3.65 -14.41 C-2.52 -17.17, -1.4 -19.93, -0.13 -23.02 M-3.65 -14.41 C-2.79 -16.51, -1.94 -18.6, -0.13 -23.02 M-0.13 -23.02 C0.7 -25.8, 1.54 -28.57, 2.93 -33.17 M-0.13 -23.02 C0.75 -25.95, 1.63 -28.88, 2.93 -33.17 M2.93 -33.17 C3.51 -36.23, 4.08 -39.29, 5.1 -44.72 M2.93 -33.17 C3.48 -36.1, 4.03 -39.02, 5.1 -44.72 M5.1 -44.72 C5.33 -48.25, 5.55 -51.77, 5.92 -57.54 M5.1 -44.72 C5.28 -47.44, 5.45 -50.16, 5.92 -57.54 M5.92 -57.54 C5.73 -60.56, 5.54 -63.58, 5.1 -70.36 M5.92 -57.54 C5.64 -62.04, 5.35 -66.54, 5.1 -70.36 M5.1 -70.36 C4.38 -74.21, 3.66 -78.05, 2.93 -81.92 M5.1 -70.36 C4.64 -72.81, 4.18 -75.25, 2.93 -81.92 M2.93 -81.92 C2.29 -84.04, 1.65 -86.17, -0.13 -92.07 M2.93 -81.92 C2.2 -84.35, 1.46 -86.78, -0.13 -92.07 M-0.13 -92.07 C-1.08 -94.39, -2.03 -96.71, -3.65 -100.68 M-0.13 -92.07 C-0.95 -94.07, -1.77 -96.07, -3.65 -100.68 M-3.65 -100.68 C-4.63 -102.61, -5.61 -104.55, -7.16 -107.61 M-3.65 -100.68 C-4.65 -102.65, -5.65 -104.62, -7.16 -107.61 M-7.16 -107.61 C-8 -109, -8.83 -110.39, -10.23 -112.73 M-7.16 -107.61 C-7.88 -108.81, -8.6 -110, -10.23 -112.73 M-10.23 -112.73 C-10.99 -113.84, -11.74 -114.95, -12.4 -115.9 M-10.23 -112.73 C-10.69 -113.4, -11.14 -114.06, -12.4 -115.9 M-12.4 -115.9 C-12.64 -116.22, -12.87 -116.53, -13.01 -116.72 M-12.4 -115.9 C-12.57 -116.13, -12.74 -116.36, -13.01 -116.72 M-13.01 -116.72 C-13.06 -116.78, -13.11 -116.85, -13.22 -116.99 M-13.01 -116.72 C-13.05 -116.77, -13.09 -116.83, -13.22 -116.99 M-13.22 -116.99 C-14.8 -118.92, -16.38 -120.84, -19.99 -125.24 M-13.22 -116.99 C-14.97 -119.12, -16.72 -121.25, -19.99 -125.24 M-19.99 -125.24 C-15.25 -125.24, -10.52 -125.24, -7.62 -125.24 M-19.99 -125.24 C-17.38 -125.24, -14.77 -125.24, -7.62 -125.24 M-7.62 -125.24 C-7.62 -125.24, -7.62 -125.24, -7.62 -125.24 M-7.62 -125.24 C-7.62 -125.24, -7.62 -125.24, -7.62 -125.24 M-7.62 -125.24 C-6.39 -123.75, -5.17 -122.25, -3.88 -120.68 M-7.62 -125.24 C-6.71 -124.14, -5.81 -123.04, -3.88 -120.68 M-3.88 -120.68 C-2.42 -118.51, -0.96 -116.35, -0.11 -115.09 M-3.88 -120.68 C-2.51 -118.65, -1.14 -116.62, -0.11 -115.09 M-0.11 -115.09 C0.49 -114.05, 1.08 -113.02, 2.41 -110.71 M-0.11 -115.09 C0.56 -113.93, 1.22 -112.78, 2.41 -110.71 M2.41 -110.71 C3.07 -109.43, 3.72 -108.15, 5.1 -105.47 M2.41 -110.71 C2.96 -109.63, 3.51 -108.56, 5.1 -105.47 M5.1 -105.47 C6.13 -103.13, 7.17 -100.8, 7.8 -99.39 M5.1 -105.47 C5.93 -103.59, 6.76 -101.72, 7.8 -99.39 M7.8 -99.39 C8.64 -97.13, 9.48 -94.88, 10.36 -92.5 M7.8 -99.39 C8.32 -98, 8.83 -96.62, 10.36 -92.5 M10.36 -92.5 C10.95 -90.52, 11.54 -88.53, 12.63 -84.84 M10.36 -92.5 C11.19 -89.7, 12.02 -86.91, 12.63 -84.84 M12.63 -84.84 C13.3 -81.73, 13.97 -78.62, 14.44 -76.45 M12.63 -84.84 C13.33 -81.62, 14.02 -78.39, 14.44 -76.45 M14.44 -76.45 C14.76 -74, 15.09 -71.56, 15.64 -67.33 M14.44 -76.45 C14.79 -73.83, 15.13 -71.21, 15.64 -67.33 M15.64 -67.33 C15.76 -64.66, 15.88 -61.99, 16.08 -57.54 M15.64 -67.33 C15.82 -63.42, 15.99 -59.51, 16.08 -57.54 M16.08 -57.54 C15.98 -55.32, 15.88 -53.1, 15.64 -47.78 M16.08 -57.54 C15.95 -54.74, 15.83 -51.93, 15.64 -47.78 M15.64 -47.78 C15.17 -44.17, 14.7 -40.57, 14.45 -38.68 M15.64 -47.78 C15.4 -45.92, 15.16 -44.07, 14.45 -38.68 M14.45 -38.68 C13.96 -36.42, 13.48 -34.16, 12.65 -30.3 M14.45 -38.68 C14.02 -36.68, 13.59 -34.68, 12.65 -30.3 M12.65 -30.3 C12.04 -28.25, 11.44 -26.2, 10.39 -22.64 M12.65 -30.3 C11.83 -27.52, 11.01 -24.74, 10.39 -22.64 M10.39 -22.64 C9.52 -20.29, 8.66 -17.95, 7.84 -15.75 M10.39 -22.64 C9.43 -20.05, 8.47 -17.46, 7.84 -15.75 M7.84 -15.75 C7.1 -14.07, 6.36 -12.38, 5.16 -9.66 M7.84 -15.75 C6.89 -13.59, 5.94 -11.43, 5.16 -9.66 M5.16 -9.66 C4.36 -8.08, 3.55 -6.5, 2.49 -4.4 M5.16 -9.66 C4.1 -7.58, 3.05 -5.5, 2.49 -4.4 M2.49 -4.4 C1.55 -2.73, 0.6 -1.06, 0 0 M2.49 -4.4 C1.82 -3.22, 1.16 -2.04, 0 0 M0 0 C0 0, 0 0, 0 0 M0 0 C0 0, 0 0, 0 0 M0 0 C0 0, 0 0, 0 0 M0 0 C0 0, 0 0, 0 0" stroke="#000000" stroke-width="0.5" fill="none"/></g></g><mask/><g stroke-linecap="round"><g transform="translate(103.01244609633727 10.00000000000017) rotate(0 82.03169194783283 67.6986239156841)" fill-rule="evenodd"><path d="M0 0 L6.77 8.25 L6.77 8.25 L6.98 8.53 L7.59 9.34 L9.76 12.51 L12.83 17.63 L16.34 24.57 L19.86 33.18 L22.92 43.33 L25.09 54.88 L25.92 67.7 L25.09 80.52 L22.92 92.07 L19.86 102.22 L16.34 110.83 L12.83 117.76 L9.76 122.89 L7.59 126.06 L6.98 126.87 L6.77 127.15 L0 135.4 L10.68 135.4 L58.07 135.4 L58.07 135.4 L61.57 135.38 L65.89 135.28 L70.95 134.99 L76.66 134.41 L82.92 133.45 L89.66 132 L96.78 129.96 L104.19 127.25 L111.82 123.76 L119.57 119.39 L127.37 114.07 L135.12 107.71 L142.75 100.21 L150.18 91.51 L157.31 81.51 L164.06 70.13 L159.62 67.7 L164.06 65.27 L164.06 65.27 L157.3 53.9 L150.16 43.93 L142.71 35.28 L135.05 27.84 L127.27 21.53 L119.45 16.25 L111.67 11.92 L104.03 8.43 L96.6 5.7 L89.49 3.63 L82.77 2.14 L76.52 1.12 L70.84 0.49 L65.82 0.16 L61.53 0.02 L58.07 0 L10.68 0 L0 0 L0 0" stroke="none" stroke-width="0" fill="black" fill-rule="evenodd"/><path d="M0 0 C1.54 1.87, 3.07 3.74, 6.77 8.25 M0 0 C2.25 2.74, 4.49 5.47, 6.77 8.25 M6.77 8.25 C6.77 8.25, 6.77 8.25, 6.77 8.25 M6.77 8.25 C6.77 8.25, 6.77 8.25, 6.77 8.25 M6.77 8.25 C6.85 8.36, 6.94 8.47, 6.98 8.53 M6.77 8.25 C6.83 8.32, 6.88 8.39, 6.98 8.53 M6.98 8.53 C7.21 8.83, 7.43 9.13, 7.59 9.34 M6.98 8.53 C7.12 8.71, 7.26 8.89, 7.59 9.34 M7.59 9.34 C8.06 10.02, 8.52 10.7, 9.76 12.51 M7.59 9.34 C8.04 10, 8.49 10.65, 9.76 12.51 M9.76 12.51 C10.54 13.81, 11.32 15.11, 12.83 17.63 M9.76 12.51 C10.38 13.54, 11 14.58, 12.83 17.63 M12.83 17.63 C13.88 19.72, 14.94 21.8, 16.34 24.57 M12.83 17.63 C13.65 19.25, 14.47 20.88, 16.34 24.57 M16.34 24.57 C17.24 26.78, 18.15 28.99, 19.86 33.18 M16.34 24.57 C17.4 27.15, 18.46 29.74, 19.86 33.18 M19.86 33.18 C20.52 35.36, 21.18 37.55, 22.92 43.33 M19.86 33.18 C20.53 35.39, 21.19 37.59, 22.92 43.33 M22.92 43.33 C23.5 46.39, 24.07 49.45, 25.09 54.88 M22.92 43.33 C23.72 47.57, 24.52 51.82, 25.09 54.88 M25.09 54.88 C25.41 59.89, 25.74 64.91, 25.92 67.7 M25.09 54.88 C25.38 59.31, 25.66 63.74, 25.92 67.7 M25.92 67.7 C25.69 71.29, 25.46 74.88, 25.09 80.52 M25.92 67.7 C25.66 71.64, 25.41 75.58, 25.09 80.52 M25.09 80.52 C24.61 83.09, 24.13 85.66, 22.92 92.07 M25.09 80.52 C24.63 83.01, 24.16 85.5, 22.92 92.07 M22.92 92.07 C21.95 95.28, 20.98 98.49, 19.86 102.22 M22.92 92.07 C21.74 96, 20.55 99.92, 19.86 102.22 M19.86 102.22 C18.56 105.4, 17.26 108.58, 16.34 110.83 M19.86 102.22 C18.67 105.12, 17.49 108.03, 16.34 110.83 M16.34 110.83 C15.28 112.93, 14.21 115.03, 12.83 117.76 M16.34 110.83 C15.18 113.13, 14.01 115.43, 12.83 117.76 M12.83 117.76 C12.05 119.07, 11.26 120.38, 9.76 122.89 M12.83 117.76 C12.12 118.94, 11.42 120.12, 9.76 122.89 M9.76 122.89 C8.93 124.1, 8.1 125.32, 7.59 126.06 M9.76 122.89 C9.26 123.62, 8.76 124.35, 7.59 126.06 M7.59 126.06 C7.37 126.36, 7.15 126.66, 6.98 126.87 M7.59 126.06 C7.4 126.32, 7.2 126.59, 6.98 126.87 M6.98 126.87 C6.94 126.93, 6.89 126.99, 6.77 127.15 M6.98 126.87 C6.93 126.94, 6.88 127, 6.77 127.15 M6.77 127.15 C4.35 130.09, 1.94 133.04, 0 135.4 M6.77 127.15 C4.99 129.31, 3.22 131.48, 0 135.4 M0 135.4 C2.83 135.4, 5.67 135.4, 10.68 135.4 M0 135.4 C2.64 135.4, 5.28 135.4, 10.68 135.4 M10.68 135.4 C26.82 135.4, 42.96 135.4, 58.07 135.4 M10.68 135.4 C29.49 135.4, 48.31 135.4, 58.07 135.4 M58.07 135.4 C58.07 135.4, 58.07 135.4, 58.07 135.4 M58.07 135.4 C58.07 135.4, 58.07 135.4, 58.07 135.4 M58.07 135.4 C59.46 135.39, 60.85 135.39, 61.57 135.38 M58.07 135.4 C59.09 135.39, 60.11 135.39, 61.57 135.38 M61.57 135.38 C63.25 135.34, 64.93 135.3, 65.89 135.28 M61.57 135.38 C63.11 135.35, 64.65 135.31, 65.89 135.28 M65.89 135.28 C67.26 135.2, 68.63 135.12, 70.95 134.99 M65.89 135.28 C67.01 135.22, 68.13 135.15, 70.95 134.99 M70.95 134.99 C73.07 134.77, 75.19 134.56, 76.66 134.41 M70.95 134.99 C73.1 134.77, 75.24 134.55, 76.66 134.41 M76.66 134.41 C78.35 134.15, 80.04 133.89, 82.92 133.45 M76.66 134.41 C78.35 134.15, 80.04 133.89, 82.92 133.45 M82.92 133.45 C84.28 133.15, 85.64 132.86, 89.66 132 M82.92 133.45 C84.65 133.07, 86.37 132.7, 89.66 132 M89.66 132 C92.26 131.25, 94.86 130.51, 96.78 129.96 M89.66 132 C91.34 131.52, 93.03 131.04, 96.78 129.96 M96.78 129.96 C99.15 129.1, 101.52 128.23, 104.19 127.25 M96.78 129.96 C98.35 129.39, 99.92 128.82, 104.19 127.25 M104.19 127.25 C106.43 126.23, 108.67 125.2, 111.82 123.76 M104.19 127.25 C106.68 126.11, 109.17 124.97, 111.82 123.76 M111.82 123.76 C114.78 122.09, 117.74 120.43, 119.57 119.39 M111.82 123.76 C113.51 122.81, 115.19 121.86, 119.57 119.39 M119.57 119.39 C121.55 118.04, 123.54 116.68, 127.37 114.07 M119.57 119.39 C121.59 118.01, 123.61 116.63, 127.37 114.07 M127.37 114.07 C130.13 111.8, 132.9 109.53, 135.12 107.71 M127.37 114.07 C129.78 112.09, 132.19 110.12, 135.12 107.71 M135.12 107.71 C136.74 106.11, 138.36 104.52, 142.75 100.21 M135.12 107.71 C137.9 104.98, 140.67 102.26, 142.75 100.21 M142.75 100.21 C144.45 98.23, 146.14 96.25, 150.18 91.51 M142.75 100.21 C144.89 97.71, 147.03 95.21, 150.18 91.51 M150.18 91.51 C153 87.56, 155.81 83.61, 157.31 81.51 M150.18 91.51 C152.17 88.72, 154.16 85.92, 157.31 81.51 M157.31 81.51 C159.29 78.17, 161.28 74.82, 164.06 70.13 M157.31 81.51 C158.71 79.16, 160.11 76.8, 164.06 70.13 M164.06 70.13 C162.31 69.17, 160.55 68.21, 159.62 67.7 M164.06 70.13 C162.92 69.5, 161.77 68.87, 159.62 67.7 M159.62 67.7 C160.8 67.05, 161.98 66.41, 164.06 65.27 M159.62 67.7 C160.9 67, 162.18 66.3, 164.06 65.27 M164.06 65.27 C164.06 65.27, 164.06 65.27, 164.06 65.27 M164.06 65.27 C164.06 65.27, 164.06 65.27, 164.06 65.27 M164.06 65.27 C161.57 61.07, 159.07 56.86, 157.3 53.9 M164.06 65.27 C162.64 62.88, 161.22 60.49, 157.3 53.9 M157.3 53.9 C155.61 51.54, 153.93 49.19, 150.16 43.93 M157.3 53.9 C155.41 51.26, 153.52 48.62, 150.16 43.93 M150.16 43.93 C148.33 41.81, 146.51 39.69, 142.71 35.28 M150.16 43.93 C148.56 42.07, 146.96 40.22, 142.71 35.28 M142.71 35.28 C139.79 32.44, 136.86 29.6, 135.05 27.84 M142.71 35.28 C140.04 32.68, 137.37 30.09, 135.05 27.84 M135.05 27.84 C133.14 26.29, 131.22 24.73, 127.27 21.53 M135.05 27.84 C133.47 26.56, 131.88 25.27, 127.27 21.53 M127.27 21.53 C124.5 19.66, 121.73 17.79, 119.45 16.25 M127.27 21.53 C125.63 20.42, 123.98 19.31, 119.45 16.25 M119.45 16.25 C116.79 14.77, 114.14 13.29, 111.67 11.92 M119.45 16.25 C117.58 15.21, 115.71 14.17, 111.67 11.92 M111.67 11.92 C109.64 10.99, 107.61 10.06, 104.03 8.43 M111.67 11.92 C109.73 11.03, 107.78 10.15, 104.03 8.43 M104.03 8.43 C102.45 7.85, 100.88 7.27, 96.6 5.7 M104.03 8.43 C102.19 7.76, 100.35 7.08, 96.6 5.7 M96.6 5.7 C93.81 4.89, 91.01 4.08, 89.49 3.63 M96.6 5.7 C94.49 5.09, 92.37 4.47, 89.49 3.63 M89.49 3.63 C87.1 3.1, 84.72 2.57, 82.77 2.14 M89.49 3.63 C87.4 3.17, 85.31 2.7, 82.77 2.14 M82.77 2.14 C81.04 1.86, 79.31 1.58, 76.52 1.12 M82.77 2.14 C81.09 1.87, 79.41 1.59, 76.52 1.12 M76.52 1.12 C74.37 0.88, 72.21 0.64, 70.84 0.49 M76.52 1.12 C74.39 0.89, 72.26 0.65, 70.84 0.49 M70.84 0.49 C69.73 0.42, 68.61 0.34, 65.82 0.16 M70.84 0.49 C69.31 0.39, 67.77 0.29, 65.82 0.16 M65.82 0.16 C64.49 0.12, 63.16 0.07, 61.53 0.02 M65.82 0.16 C64.33 0.11, 62.83 0.06, 61.53 0.02 M61.53 0.02 C60.16 0.01, 58.79 0, 58.07 0 M61.53 0.02 C60.64 0.02, 59.75 0.01, 58.07 0 M58.07 0 C44.53 0, 30.98 0, 10.68 0 M58.07 0 C39.27 0, 20.46 0, 10.68 0 M10.68 0 C7.11 0, 3.53 0, 0 0 M10.68 0 C6.56 0, 2.43 0, 0 0 M0 0 C0 0, 0 0, 0 0 M0 0 C0 0, 0 0, 0 0 M0 0 C0 0, 0 0, 0 0 M0 0 C0 0, 0 0, 0 0" stroke="#000000" stroke-width="1" fill="none"/></g></g><mask/><g stroke-linecap="round"><g transform="translate(122.89891687156955 20.154793587352685) rotate(0 66.42927471726502 57.54383032833147)" fill-rule="evenodd"><path d="M0 0 L38.19 0 L38.19 0 L41.5 0.01 L45.46 0.09 L55.06 0.84 L66.47 2.92 L72.69 4.68 L79.18 7.03 L85.86 10.06 L92.68 13.86 L99.57 18.5 L106.47 24.09 L113.31 30.7 L120.03 38.42 L126.57 47.34 L132.86 57.54 L126.66 67.59 L120.21 76.4 L113.57 84.05 L106.8 90.61 L99.96 96.18 L93.12 100.82 L86.33 104.63 L79.65 107.68 L72.99 110.13 L66.66 111.98 L55.17 114.17 L45.55 114.98 L38.19 115.09 L0.11 115.09 L0.11 115.09 L2.62 110.7 L5.29 105.44 L7.98 99.35 L10.52 92.46 L12.77 84.8 L14.56 76.41 L15.75 67.31 L16.18 57.54 L15.75 47.75 L14.55 38.64 L12.73 30.24 L10.47 22.59 L7.91 15.7 L5.2 9.62 L2.52 4.38 L0 0 L0 0" stroke="none" stroke-width="0" fill="#FFFFFF" fill-rule="evenodd"/><path d="M0 0 C10.97 0, 21.93 0, 38.19 0 M0 0 C14.35 0, 28.7 0, 38.19 0 M38.19 0 C38.19 0, 38.19 0, 38.19 0 M38.19 0 C38.19 0, 38.19 0, 38.19 0 M38.19 0 C39.34 0, 40.5 0.01, 41.5 0.01 M38.19 0 C39.13 0, 40.08 0.01, 41.5 0.01 M41.5 0.01 C42.78 0.04, 44.06 0.06, 45.46 0.09 M41.5 0.01 C42.45 0.03, 43.39 0.05, 45.46 0.09 M45.46 0.09 C48.31 0.31, 51.16 0.54, 55.06 0.84 M45.46 0.09 C48.86 0.36, 52.26 0.62, 55.06 0.84 M55.06 0.84 C58.1 1.39, 61.14 1.95, 66.47 2.92 M55.06 0.84 C57.52 1.29, 59.97 1.73, 66.47 2.92 M66.47 2.92 C68.86 3.59, 71.25 4.27, 72.69 4.68 M66.47 2.92 C67.77 3.29, 69.07 3.65, 72.69 4.68 M72.69 4.68 C74.4 5.29, 76.1 5.91, 79.18 7.03 M72.69 4.68 C75.11 5.55, 77.53 6.43, 79.18 7.03 M79.18 7.03 C81.7 8.17, 84.22 9.32, 85.86 10.06 M79.18 7.03 C81.46 8.06, 83.74 9.09, 85.86 10.06 M85.86 10.06 C88.4 11.47, 90.93 12.88, 92.68 13.86 M85.86 10.06 C88.54 11.55, 91.22 13.04, 92.68 13.86 M92.68 13.86 C94.45 15.05, 96.22 16.24, 99.57 18.5 M92.68 13.86 C95.43 15.71, 98.19 17.57, 99.57 18.5 M99.57 18.5 C101.77 20.28, 103.96 22.06, 106.47 24.09 M99.57 18.5 C101.43 20.01, 103.28 21.51, 106.47 24.09 M106.47 24.09 C108.63 26.18, 110.8 28.27, 113.31 30.7 M106.47 24.09 C108.49 26.05, 110.52 28, 113.31 30.7 M113.31 30.7 C115.94 33.72, 118.57 36.75, 120.03 38.42 M113.31 30.7 C114.69 32.29, 116.07 33.88, 120.03 38.42 M120.03 38.42 C121.77 40.79, 123.5 43.16, 126.57 47.34 M120.03 38.42 C122.01 41.12, 123.99 43.82, 126.57 47.34 M126.57 47.34 C128.74 50.86, 130.91 54.38, 132.86 57.54 M126.57 47.34 C128.57 50.58, 130.56 53.82, 132.86 57.54 M132.86 57.54 C130.84 60.82, 128.82 64.1, 126.66 67.59 M132.86 57.54 C130.67 61.09, 128.48 64.64, 126.66 67.59 M126.66 67.59 C124.75 70.2, 122.84 72.81, 120.21 76.4 M126.66 67.59 C124.53 70.51, 122.39 73.43, 120.21 76.4 M120.21 76.4 C117.98 78.97, 115.75 81.54, 113.57 84.05 M120.21 76.4 C117.95 79.01, 115.69 81.61, 113.57 84.05 M113.57 84.05 C112.05 85.53, 110.52 87.01, 106.8 90.61 M113.57 84.05 C111.65 85.91, 109.73 87.77, 106.8 90.61 M106.8 90.61 C105.13 91.97, 103.45 93.34, 99.96 96.18 M106.8 90.61 C105.29 91.84, 103.78 93.07, 99.96 96.18 M99.96 96.18 C98.06 97.47, 96.15 98.77, 93.12 100.82 M99.96 96.18 C98.44 97.21, 96.91 98.25, 93.12 100.82 M93.12 100.82 C91.64 101.65, 90.15 102.49, 86.33 104.63 M93.12 100.82 C91.01 102, 88.9 103.19, 86.33 104.63 M86.33 104.63 C84.55 105.44, 82.78 106.25, 79.65 107.68 M86.33 104.63 C84.27 105.57, 82.22 106.51, 79.65 107.68 M79.65 107.68 C77.42 108.5, 75.19 109.33, 72.99 110.13 M79.65 107.68 C77.09 108.63, 74.52 109.57, 72.99 110.13 M72.99 110.13 C70.72 110.8, 68.45 111.46, 66.66 111.98 M72.99 110.13 C71.04 110.7, 69.09 111.27, 66.66 111.98 M66.66 111.98 C63.35 112.61, 60.04 113.24, 55.17 114.17 M66.66 111.98 C62.26 112.82, 57.85 113.66, 55.17 114.17 M55.17 114.17 C51.35 114.49, 47.54 114.81, 45.55 114.98 M55.17 114.17 C52.24 114.42, 49.3 114.66, 45.55 114.98 M45.55 114.98 C43.46 115.01, 41.36 115.04, 38.19 115.09 M45.55 114.98 C43.32 115.01, 41.08 115.04, 38.19 115.09 M38.19 115.09 C23.7 115.09, 9.22 115.09, 0.11 115.09 M38.19 115.09 C23.32 115.09, 8.45 115.09, 0.11 115.09 M0.11 115.09 C0.11 115.09, 0.11 115.09, 0.11 115.09 M0.11 115.09 C0.11 115.09, 0.11 115.09, 0.11 115.09 M0.11 115.09 C1.05 113.44, 1.99 111.79, 2.62 110.7 M0.11 115.09 C1.03 113.48, 1.95 111.87, 2.62 110.7 M2.62 110.7 C3.17 109.62, 3.72 108.54, 5.29 105.44 M2.62 110.7 C3.18 109.59, 3.75 108.48, 5.29 105.44 M5.29 105.44 C5.86 104.15, 6.43 102.86, 7.98 99.35 M5.29 105.44 C5.96 103.93, 6.62 102.43, 7.98 99.35 M7.98 99.35 C8.53 97.87, 9.07 96.39, 10.52 92.46 M7.98 99.35 C8.49 97.97, 9 96.59, 10.52 92.46 M10.52 92.46 C11.38 89.53, 12.25 86.59, 12.77 84.8 M10.52 92.46 C11.33 89.72, 12.13 86.99, 12.77 84.8 M12.77 84.8 C13.19 82.82, 13.62 80.83, 14.56 76.41 M12.77 84.8 C13.34 82.15, 13.91 79.49, 14.56 76.41 M14.56 76.41 C14.98 73.25, 15.39 70.08, 15.75 67.31 M14.56 76.41 C14.84 74.3, 15.12 72.18, 15.75 67.31 M15.75 67.31 C15.9 63.92, 16.05 60.52, 16.18 57.54 M15.75 67.31 C15.91 63.77, 16.07 60.22, 16.18 57.54 M16.18 57.54 C16.09 55.32, 15.99 53.1, 15.75 47.75 M16.18 57.54 C16.05 54.43, 15.91 51.32, 15.75 47.75 M15.75 47.75 C15.34 44.66, 14.93 41.56, 14.55 38.64 M15.75 47.75 C15.5 45.89, 15.26 44.03, 14.55 38.64 M14.55 38.64 C13.99 36.07, 13.44 33.49, 12.73 30.24 M14.55 38.64 C14.05 36.35, 13.56 34.06, 12.73 30.24 M12.73 30.24 C12.24 28.57, 11.75 26.9, 10.47 22.59 M12.73 30.24 C12.13 28.21, 11.53 26.18, 10.47 22.59 M10.47 22.59 C9.61 20.27, 8.74 17.94, 7.91 15.7 M10.47 22.59 C9.79 20.77, 9.12 18.95, 7.91 15.7 M7.91 15.7 C7.09 13.86, 6.27 12.02, 5.2 9.62 M7.91 15.7 C7.28 14.28, 6.65 12.87, 5.2 9.62 M5.2 9.62 C4.58 8.4, 3.95 7.18, 2.52 4.38 M5.2 9.62 C4.47 8.2, 3.74 6.78, 2.52 4.38 M2.52 4.38 C1.69 2.95, 0.87 1.52, 0 0 M2.52 4.38 C1.62 2.83, 0.73 1.27, 0 0 M0 0 C0 0, 0 0, 0 0 M0 0 C0 0, 0 0, 0 0 M0 0 C0 0, 0 0, 0 0 M0 0 C0 0, 0 0, 0 0" stroke="#000000" stroke-width="1" fill="none"/></g></g><mask/><g transform="translate(149.48951400132106 55.276627918495365) rotate(0 41.07532501220703 21.80303030303031)"><text x="0" y="34.88558907691043" font-family="Helvetica, Segoe UI Emoji" font-size="37.918313570487506px" fill="#1e1e1e" text-anchor="start" style="white-space: pre;" direction="ltr" dominant-baseline="alphabetic">XOR</text></g><g transform="translate(441.53649482775796 105.79681760836286) rotate(0 28.4324951171875 21.80303030303031)"><text x="0" y="34.88558907691043" font-family="Helvetica, Segoe UI Emoji" font-size="37.918313570487506px" fill="#1e1e1e" text-anchor="start" style="white-space: pre;" direction="ltr" dominant-baseline="alphabetic">OR</text></g></svg>