<svg version="1.1" xmlns="http://www.w3.org/2000/svg" viewBox="0 0 669.2273800708366 218.8484931134756" width="669.2273800708366" height="218.8484931134756" class="excalidraw-svg">
  <!-- svg-source:excalidraw -->
  
  <defs>
    <style class="style-fonts">
      @font-face {
        font-family: "Virgil";
        src: url("https://excalidraw.com/Virgil.woff2");
      }
      @font-face {
        font-family: "Cascadia";
        src: url("https://excalidraw.com/Cascadia.woff2");
      }
      @font-face {
        font-family: "Assistant";
        src: url("https://excalidraw.com/Assistant-Regular.woff2");
      }
    </style>
    
  </defs>
  <g stroke-linecap="round"><g transform="translate(394.3719051574385 55.082193546865426) rotate(0 77.79842188446418 76.88314978330509)" fill-rule="evenodd"><path d="M0 0 L0 5.49 L0 148.27 L0 153.77 L5.49 153.77 L78.71 153.77 L78.71 153.77 L86.72 153.37 L94.45 152.2 L101.89 150.29 L109 147.7 L115.74 144.45 L122.08 140.59 L133.4 131.18 L142.69 119.79 L149.68 106.74 L152.21 99.68 L154.07 92.33 L155.21 84.72 L155.6 76.88 L155.21 69.05 L154.07 61.44 L152.21 54.09 L149.68 47.03 L142.69 33.97 L133.4 22.58 L122.08 13.18 L115.74 9.31 L109 6.07 L101.89 3.47 L94.45 1.57 L86.72 0.4 L78.71 0 L78.57 0 L77.57 0 L74.85 0 L72.58 0 L69.56 0 L65.68 0 L60.84 0 L54.92 0 L47.82 0 L39.44 0 L29.66 0 L18.38 0 L5.49 0 L0 0 L0 0" stroke="none" stroke-width="0" fill="black" fill-rule="evenodd"/><path d="M0 0 C0 1.22, 0 2.43, 0 5.49 M0 0 C0 1.36, 0 2.73, 0 5.49 M0 5.49 C0 34.6, 0 63.7, 0 148.27 M0 5.49 C0 35.63, 0 65.76, 0 148.27 M0 148.27 C0 150.4, 0 152.52, 0 153.77 M0 148.27 C0 149.76, 0 151.24, 0 153.77 M0 153.77 C1.38 153.77, 2.77 153.77, 5.49 153.77 M0 153.77 C2.08 153.77, 4.16 153.77, 5.49 153.77 M5.49 153.77 C34.45 153.77, 63.4 153.77, 78.71 153.77 M5.49 153.77 C33.98 153.77, 62.47 153.77, 78.71 153.77 M78.71 153.77 C78.71 153.77, 78.71 153.77, 78.71 153.77 M78.71 153.77 C78.71 153.77, 78.71 153.77, 78.71 153.77 M78.71 153.77 C80.39 153.68, 82.07 153.6, 86.72 153.37 M78.71 153.77 C81.61 153.62, 84.51 153.48, 86.72 153.37 M86.72 153.37 C89.69 152.92, 92.67 152.47, 94.45 152.2 M86.72 153.37 C89.18 152.99, 91.65 152.62, 94.45 152.2 M94.45 152.2 C97.1 151.52, 99.75 150.84, 101.89 150.29 M94.45 152.2 C97.11 151.52, 99.76 150.84, 101.89 150.29 M101.89 150.29 C104.37 149.39, 106.85 148.49, 109 147.7 M101.89 150.29 C104.73 149.26, 107.57 148.22, 109 147.7 M109 147.7 C110.52 146.97, 112.03 146.24, 115.74 144.45 M109 147.7 C110.68 146.89, 112.35 146.08, 115.74 144.45 M115.74 144.45 C117.55 143.35, 119.36 142.25, 122.08 140.59 M115.74 144.45 C117.81 143.19, 119.89 141.92, 122.08 140.59 M122.08 140.59 C126.28 137.09, 130.49 133.6, 133.4 131.18 M122.08 140.59 C125.79 137.5, 129.51 134.41, 133.4 131.18 M133.4 131.18 C135.91 128.11, 138.42 125.03, 142.69 119.79 M133.4 131.18 C136.74 127.08, 140.09 122.99, 142.69 119.79 M142.69 119.79 C144.19 116.99, 145.69 114.19, 149.68 106.74 M142.69 119.79 C145.45 114.64, 148.2 109.5, 149.68 106.74 M149.68 106.74 C150.41 104.68, 151.15 102.63, 152.21 99.68 M149.68 106.74 C150.22 105.23, 150.76 103.72, 152.21 99.68 M152.21 99.68 C152.84 97.2, 153.46 94.73, 154.07 92.33 M152.21 99.68 C152.69 97.79, 153.17 95.89, 154.07 92.33 M154.07 92.33 C154.47 89.67, 154.87 87, 155.21 84.72 M154.07 92.33 C154.49 89.53, 154.91 86.72, 155.21 84.72 M155.21 84.72 C155.36 81.7, 155.51 78.68, 155.6 76.88 M155.21 84.72 C155.3 82.84, 155.39 80.97, 155.6 76.88 M155.6 76.88 C155.46 74.04, 155.32 71.19, 155.21 69.05 M155.6 76.88 C155.46 74.05, 155.32 71.21, 155.21 69.05 M155.21 69.05 C154.79 66.23, 154.36 63.41, 154.07 61.44 M155.21 69.05 C154.9 66.98, 154.59 64.91, 154.07 61.44 M154.07 61.44 C153.58 59.51, 153.09 57.58, 152.21 54.09 M154.07 61.44 C153.52 59.26, 152.97 57.09, 152.21 54.09 M152.21 54.09 C151.28 51.49, 150.34 48.89, 149.68 47.03 M152.21 54.09 C151.2 51.27, 150.19 48.46, 149.68 47.03 M149.68 47.03 C147.64 43.22, 145.6 39.42, 142.69 33.97 M149.68 47.03 C147.36 42.71, 145.05 38.38, 142.69 33.97 M142.69 33.97 C140.68 31.51, 138.66 29.04, 133.4 22.58 M142.69 33.97 C140.14 30.85, 137.59 27.72, 133.4 22.58 M133.4 22.58 C129.9 19.68, 126.4 16.77, 122.08 13.18 M133.4 22.58 C128.98 18.92, 124.57 15.25, 122.08 13.18 M122.08 13.18 C120.68 12.33, 119.29 11.48, 115.74 9.31 M122.08 13.18 C120.4 12.16, 118.73 11.14, 115.74 9.31 M115.74 9.31 C113.8 8.38, 111.86 7.45, 109 6.07 M115.74 9.31 C114.02 8.48, 112.29 7.65, 109 6.07 M109 6.07 C107.27 5.43, 105.53 4.8, 101.89 3.47 M109 6.07 C106.56 5.18, 104.12 4.28, 101.89 3.47 M101.89 3.47 C100.3 3.06, 98.71 2.66, 94.45 1.57 M101.89 3.47 C99.87 2.95, 97.85 2.44, 94.45 1.57 M94.45 1.57 C92.74 1.31, 91.03 1.05, 86.72 0.4 M94.45 1.57 C91.36 1.1, 88.27 0.63, 86.72 0.4 M86.72 0.4 C83.6 0.24, 80.48 0.09, 78.71 0 M86.72 0.4 C84.76 0.3, 82.8 0.2, 78.71 0 M78.71 0 C78.68 0, 78.64 0, 78.57 0 M78.71 0 C78.67 0, 78.62 0, 78.57 0 M78.57 0 C78.24 0, 77.91 0, 77.57 0 M78.57 0 C78.23 0, 77.89 0, 77.57 0 M77.57 0 C76.81 0, 76.05 0, 74.85 0 M77.57 0 C76.63 0, 75.69 0, 74.85 0 M74.85 0 C74.26 0, 73.67 0, 72.58 0 M74.85 0 C73.99 0, 73.12 0, 72.58 0 M72.58 0 C71.85 0, 71.11 0, 69.56 0 M72.58 0 C71.78 0, 70.97 0, 69.56 0 M69.56 0 C68.68 0, 67.81 0, 65.68 0 M69.56 0 C68.16 0, 66.75 0, 65.68 0 M65.68 0 C64.1 0, 62.53 0, 60.84 0 M65.68 0 C64.61 0, 63.55 0, 60.84 0 M60.84 0 C58.56 0, 56.27 0, 54.92 0 M60.84 0 C58.9 0, 56.96 0, 54.92 0 M54.92 0 C52.95 0, 50.97 0, 47.82 0 M54.92 0 C52.43 0, 49.94 0, 47.82 0 M47.82 0 C45.24 0, 42.65 0, 39.44 0 M47.82 0 C45.41 0, 42.99 0, 39.44 0 M39.44 0 C36.34 0, 33.25 0, 29.66 0 M39.44 0 C36.4 0, 33.36 0, 29.66 0 M29.66 0 C26.5 0, 23.34 0, 18.38 0 M29.66 0 C26.11 0, 22.56 0, 18.38 0 M18.38 0 C15.54 0, 12.71 0, 5.49 0 M18.38 0 C13.69 0, 9.01 0, 5.49 0 M5.49 0 C4.39 0, 3.29 0, 0 0 M5.49 0 C4.18 0, 2.87 0, 0 0 M0 0 C0 0, 0 0, 0 0 M0 0 C0 0, 0 0, 0 0 M0 0 C0 0, 0 0, 0 0 M0 0 C0 0, 0 0, 0 0" stroke="#000000" stroke-width="1" fill="none"/></g></g><mask/><g stroke-linecap="round"><g transform="translate(405.3552143642388 66.06550092062861) rotate(0 65.89984790865333 65.89984149302336)" fill-rule="evenodd"><path d="M0 0 L0 0 L10.98 0 L20.91 0 L29.8 0 L37.65 0 L44.45 0 L50.21 0 L54.92 0 L58.58 0 L61.6 0 L63.87 0 L66.59 0 L67.62 0 L67.73 0 L81.26 1.33 L93.57 5.16 L104.49 11.22 L113.84 19.25 L121.42 29 L127.07 40.19 L130.59 52.58 L131.8 65.9 L130.51 79.22 L126.78 91.61 L120.84 102.8 L112.92 112.55 L103.24 120.58 L92.03 126.64 L79.5 130.47 L65.9 131.8 L0 131.8 L0 0 L0 0" stroke="none" stroke-width="0" fill="#FFFFFF" fill-rule="evenodd"/><path d="M0 0 C0 0, 0 0, 0 0 M0 0 C0 0, 0 0, 0 0 M0 0 C4.06 0, 8.12 0, 10.98 0 M0 0 C3.09 0, 6.18 0, 10.98 0 M10.98 0 C13.14 0, 15.3 0, 20.91 0 M10.98 0 C14.19 0, 17.4 0, 20.91 0 M20.91 0 C23.02 0, 25.13 0, 29.8 0 M20.91 0 C23.34 0, 25.77 0, 29.8 0 M29.8 0 C32.04 0, 34.27 0, 37.65 0 M29.8 0 C32.36 0, 34.92 0, 37.65 0 M37.65 0 C39.73 0, 41.82 0, 44.45 0 M37.65 0 C40.33 0, 43 0, 44.45 0 M44.45 0 C46.42 0, 48.4 0, 50.21 0 M44.45 0 C45.92 0, 47.39 0, 50.21 0 M50.21 0 C51.3 0, 52.4 0, 54.92 0 M50.21 0 C51.17 0, 52.13 0, 54.92 0 M54.92 0 C55.71 0, 56.51 0, 58.58 0 M54.92 0 C56.35 0, 57.79 0, 58.58 0 M58.58 0 C59.3 0, 60.02 0, 61.6 0 M58.58 0 C59.42 0, 60.26 0, 61.6 0 M61.6 0 C62.39 0, 63.18 0, 63.87 0 M61.6 0 C62.46 0, 63.31 0, 63.87 0 M63.87 0 C64.43 0, 64.99 0, 66.59 0 M63.87 0 C64.69 0, 65.51 0, 66.59 0 M66.59 0 C66.88 0, 67.18 0, 67.62 0 M66.59 0 C66.91 0, 67.23 0, 67.62 0 M67.62 0 C67.66 0, 67.7 0, 67.73 0 M67.62 0 C67.66 0, 67.7 0, 67.73 0 M67.73 0 C70.52 0.28, 73.32 0.55, 81.26 1.33 M67.73 0 C71.26 0.35, 74.78 0.69, 81.26 1.33 M81.26 1.33 C84.79 2.43, 88.32 3.53, 93.57 5.16 M81.26 1.33 C84.7 2.4, 88.15 3.48, 93.57 5.16 M93.57 5.16 C97.78 7.49, 101.98 9.83, 104.49 11.22 M93.57 5.16 C97.34 7.25, 101.11 9.34, 104.49 11.22 M104.49 11.22 C108.13 14.35, 111.77 17.48, 113.84 19.25 M104.49 11.22 C106.91 13.3, 109.32 15.37, 113.84 19.25 M113.84 19.25 C116.26 22.37, 118.69 25.49, 121.42 29 M113.84 19.25 C115.74 21.7, 117.65 24.15, 121.42 29 M121.42 29 C122.74 31.6, 124.05 34.21, 127.07 40.19 M121.42 29 C122.72 31.57, 124.02 34.15, 127.07 40.19 M127.07 40.19 C127.85 42.94, 128.62 45.68, 130.59 52.58 M127.07 40.19 C128.21 44.21, 129.35 48.23, 130.59 52.58 M130.59 52.58 C130.98 56.87, 131.37 61.15, 131.8 65.9 M130.59 52.58 C130.99 57.02, 131.39 61.46, 131.8 65.9 M131.8 65.9 C131.39 70.08, 130.99 74.25, 130.51 79.22 M131.8 65.9 C131.45 69.51, 131.1 73.13, 130.51 79.22 M130.51 79.22 C129.67 82.01, 128.83 84.79, 126.78 91.61 M130.51 79.22 C129.7 81.91, 128.89 84.61, 126.78 91.61 M126.78 91.61 C124.79 95.35, 122.81 99.1, 120.84 102.8 M126.78 91.61 C125.24 94.51, 123.7 97.42, 120.84 102.8 M120.84 102.8 C118.66 105.49, 116.48 108.17, 112.92 112.55 M120.84 102.8 C118.12 106.15, 115.4 109.49, 112.92 112.55 M112.92 112.55 C110.63 114.45, 108.33 116.35, 103.24 120.58 M112.92 112.55 C110.81 114.3, 108.71 116.04, 103.24 120.58 M103.24 120.58 C100.22 122.21, 97.19 123.85, 92.03 126.64 M103.24 120.58 C100.08 122.29, 96.91 124, 92.03 126.64 M92.03 126.64 C88.43 127.74, 84.84 128.84, 79.5 130.47 M92.03 126.64 C87.84 127.92, 83.65 129.2, 79.5 130.47 M79.5 130.47 C74.48 130.96, 69.46 131.45, 65.9 131.8 M79.5 130.47 C76.56 130.76, 73.61 131.04, 65.9 131.8 M65.9 131.8 C41.82 131.8, 17.73 131.8, 0 131.8 M65.9 131.8 C42.09 131.8, 18.27 131.8, 0 131.8 M0 131.8 C0 79.27, 0 26.74, 0 0 M0 131.8 C0 100.17, 0 68.53, 0 0 M0 0 C0 0, 0 0, 0 0 M0 0 C0 0, 0 0, 0 0 M0 0 C0 0, 0 0, 0 0 M0 0 C0 0, 0 0, 0 0" stroke="#000000" stroke-width="1" fill="none"/></g></g><mask/><g stroke-linecap="round"><g transform="translate(104.90082943565358 135.24248006899114) rotate(0 -1.9569133475627467 -57.54384324081926)" fill-rule="evenodd"><path d="M0 0 L0 0 L-1.88 3.01 L-3.47 5.36 L-5.84 8.43 L-7.19 9.83 L-7.62 10.15 L-19.99 10.15 L-13.22 1.9 L-13.22 1.9 L-13.01 1.63 L-12.4 0.82 L-10.23 -2.36 L-7.16 -7.48 L-3.65 -14.41 L-0.13 -23.02 L2.93 -33.17 L5.1 -44.72 L5.92 -57.54 L5.1 -70.36 L2.93 -81.92 L-0.13 -92.07 L-3.65 -100.68 L-7.16 -107.61 L-10.23 -112.73 L-12.4 -115.9 L-13.01 -116.72 L-13.22 -116.99 L-19.99 -125.24 L-7.62 -125.24 L-7.62 -125.24 L-3.88 -120.68 L-0.11 -115.09 L2.41 -110.71 L5.1 -105.47 L7.8 -99.39 L10.36 -92.5 L12.63 -84.84 L14.44 -76.45 L15.64 -67.33 L16.08 -57.54 L15.64 -47.78 L14.45 -38.68 L12.65 -30.3 L10.39 -22.64 L7.84 -15.75 L5.16 -9.66 L2.49 -4.4 L0 0 L0 0" stroke="none" stroke-width="0" fill="black" fill-rule="evenodd"/><path d="M0 0 C0 0, 0 0, 0 0 M0 0 C0 0, 0 0, 0 0 M0 0 C-0.64 1.02, -1.28 2.05, -1.88 3.01 M0 0 C-0.44 0.71, -0.89 1.42, -1.88 3.01 M-1.88 3.01 C-2.39 3.76, -2.89 4.51, -3.47 5.36 M-1.88 3.01 C-2.31 3.65, -2.74 4.29, -3.47 5.36 M-3.47 5.36 C-4.26 6.38, -5.04 7.4, -5.84 8.43 M-3.47 5.36 C-4.03 6.09, -4.6 6.82, -5.84 8.43 M-5.84 8.43 C-6.17 8.78, -6.5 9.12, -7.19 9.83 M-5.84 8.43 C-6.2 8.81, -6.57 9.19, -7.19 9.83 M-7.19 9.83 C-7.31 9.92, -7.43 10.02, -7.62 10.15 M-7.19 9.83 C-7.27 9.89, -7.36 9.96, -7.62 10.15 M-7.62 10.15 C-12.02 10.15, -16.43 10.15, -19.99 10.15 M-7.62 10.15 C-10.14 10.15, -12.65 10.15, -19.99 10.15 M-19.99 10.15 C-18.54 8.38, -17.08 6.61, -13.22 1.9 M-19.99 10.15 C-17.64 7.28, -15.28 4.41, -13.22 1.9 M-13.22 1.9 C-13.22 1.9, -13.22 1.9, -13.22 1.9 M-13.22 1.9 C-13.22 1.9, -13.22 1.9, -13.22 1.9 M-13.22 1.9 C-13.17 1.84, -13.12 1.78, -13.01 1.63 M-13.22 1.9 C-13.14 1.8, -13.06 1.7, -13.01 1.63 M-13.01 1.63 C-12.83 1.39, -12.65 1.14, -12.4 0.82 M-13.01 1.63 C-12.79 1.34, -12.57 1.05, -12.4 0.82 M-12.4 0.82 C-11.81 -0.05, -11.21 -0.92, -10.23 -2.36 M-12.4 0.82 C-11.73 -0.16, -11.07 -1.13, -10.23 -2.36 M-10.23 -2.36 C-9.55 -3.49, -8.88 -4.62, -7.16 -7.48 M-10.23 -2.36 C-9.48 -3.62, -8.72 -4.88, -7.16 -7.48 M-7.16 -7.48 C-5.8 -10.16, -4.44 -12.85, -3.65 -14.41 M-7.16 -7.48 C-6.2 -9.38, -5.24 -11.28, -3.65 -14.41 M-3.65 -14.41 C-2.55 -17.11, -1.45 -19.8, -0.13 -23.02 M-3.65 -14.41 C-2.91 -16.21, -2.18 -18.01, -0.13 -23.02 M-0.13 -23.02 C0.58 -25.39, 1.3 -27.77, 2.93 -33.17 M-0.13 -23.02 C0.9 -26.44, 1.93 -29.86, 2.93 -33.17 M2.93 -33.17 C3.76 -37.58, 4.59 -41.98, 5.1 -44.72 M2.93 -33.17 C3.49 -36.14, 4.05 -39.11, 5.1 -44.72 M5.1 -44.72 C5.42 -49.72, 5.74 -54.71, 5.92 -57.54 M5.1 -44.72 C5.29 -47.63, 5.47 -50.54, 5.92 -57.54 M5.92 -57.54 C5.6 -62.62, 5.27 -67.69, 5.1 -70.36 M5.92 -57.54 C5.75 -60.27, 5.57 -63, 5.1 -70.36 M5.1 -70.36 C4.57 -73.19, 4.04 -76.01, 2.93 -81.92 M5.1 -70.36 C4.59 -73.07, 4.08 -75.78, 2.93 -81.92 M2.93 -81.92 C1.73 -85.88, 0.54 -89.85, -0.13 -92.07 M2.93 -81.92 C2.28 -84.06, 1.64 -86.21, -0.13 -92.07 M-0.13 -92.07 C-1.2 -94.67, -2.26 -97.28, -3.65 -100.68 M-0.13 -92.07 C-1.23 -94.75, -2.32 -97.43, -3.65 -100.68 M-3.65 -100.68 C-4.93 -103.21, -6.21 -105.73, -7.16 -107.61 M-3.65 -100.68 C-5.04 -103.43, -6.44 -106.18, -7.16 -107.61 M-7.16 -107.61 C-8.03 -109.05, -8.89 -110.5, -10.23 -112.73 M-7.16 -107.61 C-8.3 -109.51, -9.44 -111.41, -10.23 -112.73 M-10.23 -112.73 C-11.06 -113.94, -11.88 -115.15, -12.4 -115.9 M-10.23 -112.73 C-10.72 -113.45, -11.21 -114.16, -12.4 -115.9 M-12.4 -115.9 C-12.53 -116.08, -12.66 -116.25, -13.01 -116.72 M-12.4 -115.9 C-12.63 -116.22, -12.87 -116.53, -13.01 -116.72 M-13.01 -116.72 C-13.06 -116.79, -13.12 -116.86, -13.22 -116.99 M-13.01 -116.72 C-13.09 -116.82, -13.16 -116.92, -13.22 -116.99 M-13.22 -116.99 C-15.56 -119.84, -17.9 -122.69, -19.99 -125.24 M-13.22 -116.99 C-15.21 -119.41, -17.19 -121.83, -19.99 -125.24 M-19.99 -125.24 C-16.2 -125.24, -12.4 -125.24, -7.62 -125.24 M-19.99 -125.24 C-15.18 -125.24, -10.36 -125.24, -7.62 -125.24 M-7.62 -125.24 C-7.62 -125.24, -7.62 -125.24, -7.62 -125.24 M-7.62 -125.24 C-7.62 -125.24, -7.62 -125.24, -7.62 -125.24 M-7.62 -125.24 C-6.26 -123.59, -4.91 -121.93, -3.88 -120.68 M-7.62 -125.24 C-6.53 -123.92, -5.44 -122.59, -3.88 -120.68 M-3.88 -120.68 C-2.9 -119.22, -1.91 -117.77, -0.11 -115.09 M-3.88 -120.68 C-2.66 -118.87, -1.44 -117.07, -0.11 -115.09 M-0.11 -115.09 C0.78 -113.55, 1.66 -112.01, 2.41 -110.71 M-0.11 -115.09 C0.82 -113.48, 1.75 -111.86, 2.41 -110.71 M2.41 -110.71 C3.23 -109.1, 4.06 -107.49, 5.1 -105.47 M2.41 -110.71 C3 -109.55, 3.6 -108.4, 5.1 -105.47 M5.1 -105.47 C6.06 -103.31, 7.01 -101.15, 7.8 -99.39 M5.1 -105.47 C5.99 -103.45, 6.89 -101.43, 7.8 -99.39 M7.8 -99.39 C8.51 -97.47, 9.22 -95.56, 10.36 -92.5 M7.8 -99.39 C8.72 -96.93, 9.63 -94.47, 10.36 -92.5 M10.36 -92.5 C11.09 -90.05, 11.81 -87.6, 12.63 -84.84 M10.36 -92.5 C10.82 -90.95, 11.28 -89.39, 12.63 -84.84 M12.63 -84.84 C13.33 -81.58, 14.04 -78.31, 14.44 -76.45 M12.63 -84.84 C13.3 -81.72, 13.98 -78.59, 14.44 -76.45 M14.44 -76.45 C14.87 -73.18, 15.3 -69.91, 15.64 -67.33 M14.44 -76.45 C14.7 -74.49, 14.96 -72.54, 15.64 -67.33 M15.64 -67.33 C15.76 -64.67, 15.88 -62.01, 16.08 -57.54 M15.64 -67.33 C15.76 -64.72, 15.88 -62.1, 16.08 -57.54 M16.08 -57.54 C15.97 -55.15, 15.87 -52.76, 15.64 -47.78 M16.08 -57.54 C15.94 -54.53, 15.81 -51.51, 15.64 -47.78 M15.64 -47.78 C15.32 -45.32, 15 -42.86, 14.45 -38.68 M15.64 -47.78 C15.28 -45.03, 14.92 -42.28, 14.45 -38.68 M14.45 -38.68 C13.87 -36.01, 13.3 -33.34, 12.65 -30.3 M14.45 -38.68 C14.01 -36.66, 13.58 -34.64, 12.65 -30.3 M12.65 -30.3 C11.87 -27.67, 11.1 -25.04, 10.39 -22.64 M12.65 -30.3 C11.97 -28, 11.3 -25.71, 10.39 -22.64 M10.39 -22.64 C9.42 -20.01, 8.44 -17.37, 7.84 -15.75 M10.39 -22.64 C9.69 -20.74, 8.98 -18.83, 7.84 -15.75 M7.84 -15.75 C6.87 -13.54, 5.89 -11.33, 5.16 -9.66 M7.84 -15.75 C6.92 -13.66, 6 -11.58, 5.16 -9.66 M5.16 -9.66 C4.62 -8.59, 4.07 -7.52, 2.49 -4.4 M5.16 -9.66 C4.38 -8.13, 3.61 -6.61, 2.49 -4.4 M2.49 -4.4 C1.95 -3.45, 1.41 -2.49, 0 0 M2.49 -4.4 C1.8 -3.19, 1.12 -1.97, 0 0 M0 0 C0 0, 0 0, 0 0 M0 0 C0 0, 0 0, 0 0 M0 0 C0 0, 0 0, 0 0 M0 0 C0 0, 0 0, 0 0" stroke="#000000" stroke-width="0.5" fill="none"/></g></g><mask/><g stroke-linecap="round"><g transform="translate(104.37193393631219 10.00000000000017) rotate(0 82.03169194783283 67.6986239156841)" fill-rule="evenodd"><path d="M0 0 L6.77 8.25 L6.77 8.25 L6.98 8.53 L7.59 9.34 L9.76 12.51 L12.83 17.63 L16.34 24.57 L19.86 33.18 L22.92 43.33 L25.09 54.88 L25.92 67.7 L25.09 80.52 L22.92 92.07 L19.86 102.22 L16.34 110.83 L12.83 117.76 L9.76 122.89 L7.59 126.06 L6.98 126.87 L6.77 127.15 L0 135.4 L10.68 135.4 L58.07 135.4 L58.07 135.4 L61.57 135.38 L65.89 135.28 L70.95 134.99 L76.66 134.41 L82.92 133.45 L89.66 132 L96.78 129.96 L104.19 127.25 L111.82 123.76 L119.57 119.39 L127.37 114.07 L135.12 107.71 L142.75 100.21 L150.18 91.51 L157.31 81.51 L164.06 70.13 L159.62 67.7 L164.06 65.27 L164.06 65.27 L157.3 53.9 L150.16 43.93 L142.71 35.28 L135.05 27.84 L127.27 21.53 L119.45 16.25 L111.67 11.92 L104.03 8.43 L96.6 5.7 L89.49 3.63 L82.77 2.14 L76.52 1.12 L70.84 0.49 L65.82 0.16 L61.53 0.02 L58.07 0 L10.68 0 L0 0 L0 0" stroke="none" stroke-width="0" fill="black" fill-rule="evenodd"/><path d="M0 0 C2.2 2.68, 4.4 5.37, 6.77 8.25 M0 0 C2.17 2.64, 4.34 5.29, 6.77 8.25 M6.77 8.25 C6.77 8.25, 6.77 8.25, 6.77 8.25 M6.77 8.25 C6.77 8.25, 6.77 8.25, 6.77 8.25 M6.77 8.25 C6.83 8.33, 6.89 8.4, 6.98 8.53 M6.77 8.25 C6.85 8.35, 6.93 8.45, 6.98 8.53 M6.98 8.53 C7.22 8.83, 7.45 9.14, 7.59 9.34 M6.98 8.53 C7.19 8.8, 7.39 9.06, 7.59 9.34 M7.59 9.34 C8.04 10, 8.49 10.66, 9.76 12.51 M7.59 9.34 C8.29 10.35, 8.98 11.37, 9.76 12.51 M9.76 12.51 C10.44 13.64, 11.11 14.77, 12.83 17.63 M9.76 12.51 C10.6 13.92, 11.45 15.33, 12.83 17.63 M12.83 17.63 C13.61 19.17, 14.39 20.71, 16.34 24.57 M12.83 17.63 C13.76 19.48, 14.7 21.32, 16.34 24.57 M16.34 24.57 C17.24 26.77, 18.14 28.97, 19.86 33.18 M16.34 24.57 C17.51 27.44, 18.68 30.3, 19.86 33.18 M19.86 33.18 C20.51 35.33, 21.16 37.48, 22.92 43.33 M19.86 33.18 C20.57 35.53, 21.28 37.88, 22.92 43.33 M22.92 43.33 C23.64 47.12, 24.35 50.91, 25.09 54.88 M22.92 43.33 C23.53 46.57, 24.14 49.81, 25.09 54.88 M25.09 54.88 C25.42 59.9, 25.74 64.93, 25.92 67.7 M25.09 54.88 C25.35 58.84, 25.6 62.8, 25.92 67.7 M25.92 67.7 C25.71 70.85, 25.51 74, 25.09 80.52 M25.92 67.7 C25.67 71.58, 25.42 75.47, 25.09 80.52 M25.09 80.52 C24.25 85.01, 23.41 89.5, 22.92 92.07 M25.09 80.52 C24.33 84.59, 23.57 88.65, 22.92 92.07 M22.92 92.07 C22.06 94.92, 21.21 97.76, 19.86 102.22 M22.92 92.07 C22.01 95.08, 21.1 98.1, 19.86 102.22 M19.86 102.22 C18.65 105.18, 17.44 108.14, 16.34 110.83 M19.86 102.22 C18.89 104.59, 17.92 106.96, 16.34 110.83 M16.34 110.83 C15.4 112.69, 14.46 114.55, 12.83 117.76 M16.34 110.83 C15.04 113.39, 13.75 115.95, 12.83 117.76 M12.83 117.76 C12.18 118.85, 11.52 119.94, 9.76 122.89 M12.83 117.76 C11.74 119.57, 10.66 121.38, 9.76 122.89 M9.76 122.89 C9.09 123.87, 8.42 124.85, 7.59 126.06 M9.76 122.89 C9.03 123.96, 8.29 125.04, 7.59 126.06 M7.59 126.06 C7.43 126.27, 7.27 126.49, 6.98 126.87 M7.59 126.06 C7.4 126.32, 7.2 126.58, 6.98 126.87 M6.98 126.87 C6.93 126.94, 6.87 127.02, 6.77 127.15 M6.98 126.87 C6.93 126.94, 6.88 127, 6.77 127.15 M6.77 127.15 C4.17 130.31, 1.57 133.48, 0 135.4 M6.77 127.15 C4.86 129.47, 2.96 131.79, 0 135.4 M0 135.4 C2.89 135.4, 5.77 135.4, 10.68 135.4 M0 135.4 C4.24 135.4, 8.48 135.4, 10.68 135.4 M10.68 135.4 C28.11 135.4, 45.54 135.4, 58.07 135.4 M10.68 135.4 C29.02 135.4, 47.36 135.4, 58.07 135.4 M58.07 135.4 C58.07 135.4, 58.07 135.4, 58.07 135.4 M58.07 135.4 C58.07 135.4, 58.07 135.4, 58.07 135.4 M58.07 135.4 C58.87 135.39, 59.67 135.39, 61.57 135.38 M58.07 135.4 C59.33 135.39, 60.58 135.39, 61.57 135.38 M61.57 135.38 C62.63 135.36, 63.69 135.33, 65.89 135.28 M61.57 135.38 C62.59 135.36, 63.62 135.34, 65.89 135.28 M65.89 135.28 C67.36 135.2, 68.83 135.11, 70.95 134.99 M65.89 135.28 C67.8 135.17, 69.7 135.06, 70.95 134.99 M70.95 134.99 C72.63 134.82, 74.31 134.65, 76.66 134.41 M70.95 134.99 C72.37 134.85, 73.8 134.7, 76.66 134.41 M76.66 134.41 C78.5 134.13, 80.35 133.84, 82.92 133.45 M76.66 134.41 C79.05 134.04, 81.44 133.67, 82.92 133.45 M82.92 133.45 C85.22 132.95, 87.52 132.45, 89.66 132 M82.92 133.45 C85.61 132.87, 88.29 132.29, 89.66 132 M89.66 132 C91.76 131.4, 93.87 130.79, 96.78 129.96 M89.66 132 C92.33 131.23, 95 130.47, 96.78 129.96 M96.78 129.96 C99.27 129.05, 101.76 128.14, 104.19 127.25 M96.78 129.96 C98.85 129.21, 100.93 128.45, 104.19 127.25 M104.19 127.25 C106.94 125.99, 109.69 124.73, 111.82 123.76 M104.19 127.25 C106.64 126.13, 109.1 125.01, 111.82 123.76 M111.82 123.76 C114.07 122.49, 116.31 121.23, 119.57 119.39 M111.82 123.76 C114.91 122.02, 118 120.28, 119.57 119.39 M119.57 119.39 C121.69 117.95, 123.8 116.51, 127.37 114.07 M119.57 119.39 C121.47 118.1, 123.36 116.8, 127.37 114.07 M127.37 114.07 C130.31 111.65, 133.26 109.23, 135.12 107.71 M127.37 114.07 C129.47 112.34, 131.57 110.62, 135.12 107.71 M135.12 107.71 C136.83 106.03, 138.54 104.35, 142.75 100.21 M135.12 107.71 C137.61 105.27, 140.09 102.83, 142.75 100.21 M142.75 100.21 C144.59 98.07, 146.42 95.92, 150.18 91.51 M142.75 100.21 C145.17 97.38, 147.59 94.54, 150.18 91.51 M150.18 91.51 C152.53 88.22, 154.87 84.93, 157.31 81.51 M150.18 91.51 C151.7 89.37, 153.23 87.23, 157.31 81.51 M157.31 81.51 C159.3 78.16, 161.29 74.8, 164.06 70.13 M157.31 81.51 C158.67 79.22, 160.03 76.93, 164.06 70.13 M164.06 70.13 C162.68 69.37, 161.3 68.62, 159.62 67.7 M164.06 70.13 C162.66 69.36, 161.26 68.6, 159.62 67.7 M159.62 67.7 C161.37 66.74, 163.12 65.78, 164.06 65.27 M159.62 67.7 C160.72 67.1, 161.81 66.5, 164.06 65.27 M164.06 65.27 C164.06 65.27, 164.06 65.27, 164.06 65.27 M164.06 65.27 C164.06 65.27, 164.06 65.27, 164.06 65.27 M164.06 65.27 C161.53 61, 158.99 56.74, 157.3 53.9 M164.06 65.27 C162.56 62.73, 161.05 60.2, 157.3 53.9 M157.3 53.9 C155.36 51.19, 153.41 48.48, 150.16 43.93 M157.3 53.9 C154.54 50.04, 151.77 46.18, 150.16 43.93 M150.16 43.93 C147.65 41.02, 145.14 38.11, 142.71 35.28 M150.16 43.93 C148.66 42.19, 147.16 40.45, 142.71 35.28 M142.71 35.28 C140.65 33.27, 138.58 31.27, 135.05 27.84 M142.71 35.28 C140.6 33.23, 138.49 31.18, 135.05 27.84 M135.05 27.84 C132.41 25.7, 129.77 23.56, 127.27 21.53 M135.05 27.84 C132.99 26.17, 130.94 24.5, 127.27 21.53 M127.27 21.53 C124.28 19.52, 121.3 17.5, 119.45 16.25 M127.27 21.53 C125.6 20.41, 123.94 19.28, 119.45 16.25 M119.45 16.25 C117.05 14.92, 114.66 13.59, 111.67 11.92 M119.45 16.25 C117.85 15.36, 116.25 14.47, 111.67 11.92 M111.67 11.92 C109.36 10.86, 107.05 9.81, 104.03 8.43 M111.67 11.92 C109.3 10.84, 106.93 9.75, 104.03 8.43 M104.03 8.43 C101.57 7.53, 99.11 6.62, 96.6 5.7 M104.03 8.43 C102.33 7.81, 100.63 7.18, 96.6 5.7 M96.6 5.7 C94.18 5, 91.76 4.29, 89.49 3.63 M96.6 5.7 C94.9 5.21, 93.19 4.71, 89.49 3.63 M89.49 3.63 C87.05 3.09, 84.61 2.55, 82.77 2.14 M89.49 3.63 C87.81 3.26, 86.14 2.89, 82.77 2.14 M82.77 2.14 C80.78 1.81, 78.78 1.49, 76.52 1.12 M82.77 2.14 C80.68 1.8, 78.59 1.46, 76.52 1.12 M76.52 1.12 C74.7 0.92, 72.89 0.72, 70.84 0.49 M76.52 1.12 C74.29 0.87, 72.06 0.63, 70.84 0.49 M70.84 0.49 C69.47 0.4, 68.09 0.31, 65.82 0.16 M70.84 0.49 C69.39 0.4, 67.94 0.3, 65.82 0.16 M65.82 0.16 C64.17 0.11, 62.53 0.05, 61.53 0.02 M65.82 0.16 C64.54 0.12, 63.27 0.08, 61.53 0.02 M61.53 0.02 C60.3 0.02, 59.07 0.01, 58.07 0 M61.53 0.02 C60.64 0.02, 59.75 0.01, 58.07 0 M58.07 0 C43.86 0, 29.64 0, 10.68 0 M58.07 0 C48.06 0, 38.06 0, 10.68 0 M10.68 0 C7.14 0, 3.6 0, 0 0 M10.68 0 C6.87 0, 3.06 0, 0 0 M0 0 C0 0, 0 0, 0 0 M0 0 C0 0, 0 0, 0 0 M0 0 C0 0, 0 0, 0 0 M0 0 C0 0, 0 0, 0 0" stroke="#000000" stroke-width="1" fill="none"/></g></g><mask/><g stroke-linecap="round"><g transform="translate(124.25840471154447 20.154793587352685) rotate(0 66.42927471726502 57.54383032833147)" fill-rule="evenodd"><path d="M0 0 L38.19 0 L38.19 0 L41.5 0.01 L45.46 0.09 L55.06 0.84 L66.47 2.92 L72.69 4.68 L79.18 7.03 L85.86 10.06 L92.68 13.86 L99.57 18.5 L106.47 24.09 L113.31 30.7 L120.03 38.42 L126.57 47.34 L132.86 57.54 L126.66 67.59 L120.21 76.4 L113.57 84.05 L106.8 90.61 L99.96 96.18 L93.12 100.82 L86.33 104.63 L79.65 107.68 L72.99 110.13 L66.66 111.98 L55.17 114.17 L45.55 114.98 L38.19 115.09 L0.11 115.09 L0.11 115.09 L2.62 110.7 L5.29 105.44 L7.98 99.35 L10.52 92.46 L12.77 84.8 L14.56 76.41 L15.75 67.31 L16.18 57.54 L15.75 47.75 L14.55 38.64 L12.73 30.24 L10.47 22.59 L7.91 15.7 L5.2 9.62 L2.52 4.38 L0 0 L0 0" stroke="none" stroke-width="0" fill="#FFFFFF" fill-rule="evenodd"/><path d="M0 0 C14.78 0, 29.56 0, 38.19 0 M0 0 C10.24 0, 20.48 0, 38.19 0 M38.19 0 C38.19 0, 38.19 0, 38.19 0 M38.19 0 C38.19 0, 38.19 0, 38.19 0 M38.19 0 C39.19 0, 40.19 0.01, 41.5 0.01 M38.19 0 C39.02 0, 39.85 0, 41.5 0.01 M41.5 0.01 C43 0.04, 44.5 0.07, 45.46 0.09 M41.5 0.01 C42.57 0.03, 43.63 0.05, 45.46 0.09 M45.46 0.09 C47.98 0.29, 50.5 0.48, 55.06 0.84 M45.46 0.09 C49.07 0.37, 52.68 0.65, 55.06 0.84 M55.06 0.84 C58.56 1.47, 62.05 2.11, 66.47 2.92 M55.06 0.84 C58.86 1.53, 62.66 2.22, 66.47 2.92 M66.47 2.92 C68.81 3.58, 71.14 4.24, 72.69 4.68 M66.47 2.92 C68.34 3.45, 70.21 3.98, 72.69 4.68 M72.69 4.68 C74.3 5.26, 75.9 5.84, 79.18 7.03 M72.69 4.68 C75.21 5.59, 77.72 6.5, 79.18 7.03 M79.18 7.03 C81.29 7.99, 83.41 8.94, 85.86 10.06 M79.18 7.03 C81.16 7.93, 83.14 8.82, 85.86 10.06 M85.86 10.06 C88.56 11.56, 91.25 13.06, 92.68 13.86 M85.86 10.06 C87.71 11.09, 89.55 12.11, 92.68 13.86 M92.68 13.86 C94.21 14.88, 95.73 15.91, 99.57 18.5 M92.68 13.86 C95.04 15.45, 97.41 17.04, 99.57 18.5 M99.57 18.5 C101.34 19.94, 103.11 21.37, 106.47 24.09 M99.57 18.5 C101.51 20.07, 103.44 21.64, 106.47 24.09 M106.47 24.09 C109.15 26.69, 111.84 29.28, 113.31 30.7 M106.47 24.09 C108.06 25.63, 109.65 27.16, 113.31 30.7 M113.31 30.7 C115.68 33.42, 118.05 36.15, 120.03 38.42 M113.31 30.7 C115.17 32.84, 117.03 34.97, 120.03 38.42 M120.03 38.42 C122.62 41.95, 125.2 45.48, 126.57 47.34 M120.03 38.42 C121.78 40.81, 123.53 43.19, 126.57 47.34 M126.57 47.34 C128.57 50.59, 130.58 53.84, 132.86 57.54 M126.57 47.34 C128.96 51.22, 131.35 55.1, 132.86 57.54 M132.86 57.54 C130.63 61.16, 128.39 64.79, 126.66 67.59 M132.86 57.54 C130.62 61.18, 128.38 64.81, 126.66 67.59 M126.66 67.59 C125.35 69.39, 124.03 71.19, 120.21 76.4 M126.66 67.59 C124.9 70, 123.14 72.4, 120.21 76.4 M120.21 76.4 C118.35 78.54, 116.49 80.69, 113.57 84.05 M120.21 76.4 C117.96 79, 115.7 81.6, 113.57 84.05 M113.57 84.05 C111.06 86.49, 108.54 88.92, 106.8 90.61 M113.57 84.05 C111.56 86, 109.55 87.95, 106.8 90.61 M106.8 90.61 C104.66 92.36, 102.51 94.1, 99.96 96.18 M106.8 90.61 C105.18 91.93, 103.55 93.25, 99.96 96.18 M99.96 96.18 C97.23 98.03, 94.5 99.88, 93.12 100.82 M99.96 96.18 C97.52 97.83, 95.08 99.49, 93.12 100.82 M93.12 100.82 C91.21 101.89, 89.29 102.97, 86.33 104.63 M93.12 100.82 C91.75 101.59, 90.39 102.35, 86.33 104.63 M86.33 104.63 C83.8 105.78, 81.28 106.94, 79.65 107.68 M86.33 104.63 C84.89 105.29, 83.46 105.94, 79.65 107.68 M79.65 107.68 C77.18 108.59, 74.71 109.5, 72.99 110.13 M79.65 107.68 C77.07 108.63, 74.49 109.58, 72.99 110.13 M72.99 110.13 C71.64 110.53, 70.29 110.92, 66.66 111.98 M72.99 110.13 C70.47 110.87, 67.95 111.6, 66.66 111.98 M66.66 111.98 C64.01 112.48, 61.35 112.99, 55.17 114.17 M66.66 111.98 C63.61 112.56, 60.55 113.14, 55.17 114.17 M55.17 114.17 C52.04 114.43, 48.91 114.7, 45.55 114.98 M55.17 114.17 C52.35 114.41, 49.53 114.64, 45.55 114.98 M45.55 114.98 C43.51 115.01, 41.47 115.04, 38.19 115.09 M45.55 114.98 C43.23 115.01, 40.91 115.05, 38.19 115.09 M38.19 115.09 C24.95 115.09, 11.72 115.09, 0.11 115.09 M38.19 115.09 C28.82 115.09, 19.45 115.09, 0.11 115.09 M0.11 115.09 C0.11 115.09, 0.11 115.09, 0.11 115.09 M0.11 115.09 C0.11 115.09, 0.11 115.09, 0.11 115.09 M0.11 115.09 C0.68 114.09, 1.25 113.09, 2.62 110.7 M0.11 115.09 C0.77 113.92, 1.44 112.76, 2.62 110.7 M2.62 110.7 C3.69 108.6, 4.76 106.5, 5.29 105.44 M2.62 110.7 C3.41 109.13, 4.21 107.57, 5.29 105.44 M5.29 105.44 C6.17 103.46, 7.05 101.47, 7.98 99.35 M5.29 105.44 C6.15 103.49, 7.02 101.54, 7.98 99.35 M7.98 99.35 C8.55 97.8, 9.13 96.24, 10.52 92.46 M7.98 99.35 C8.86 96.98, 9.73 94.6, 10.52 92.46 M10.52 92.46 C11.24 90.01, 11.96 87.56, 12.77 84.8 M10.52 92.46 C11.07 90.61, 11.61 88.77, 12.77 84.8 M12.77 84.8 C13.37 82, 13.97 79.2, 14.56 76.41 M12.77 84.8 C13.47 81.54, 14.16 78.28, 14.56 76.41 M14.56 76.41 C14.92 73.69, 15.28 70.96, 15.75 67.31 M14.56 76.41 C14.82 74.42, 15.08 72.43, 15.75 67.31 M15.75 67.31 C15.86 64.78, 15.98 62.26, 16.18 57.54 M15.75 67.31 C15.87 64.73, 15.98 62.15, 16.18 57.54 M16.18 57.54 C16.07 54.92, 15.95 52.3, 15.75 47.75 M16.18 57.54 C16.05 54.56, 15.92 51.58, 15.75 47.75 M15.75 47.75 C15.39 45.03, 15.03 42.32, 14.55 38.64 M15.75 47.75 C15.49 45.79, 15.23 43.82, 14.55 38.64 M14.55 38.64 C14.11 36.6, 13.67 34.56, 12.73 30.24 M14.55 38.64 C13.98 36.02, 13.41 33.4, 12.73 30.24 M12.73 30.24 C12.25 28.59, 11.76 26.94, 10.47 22.59 M12.73 30.24 C11.83 27.19, 10.93 24.13, 10.47 22.59 M10.47 22.59 C9.55 20.13, 8.64 17.67, 7.91 15.7 M10.47 22.59 C9.66 20.42, 8.85 18.25, 7.91 15.7 M7.91 15.7 C7 13.65, 6.09 11.61, 5.2 9.62 M7.91 15.7 C6.88 13.38, 5.84 11.06, 5.2 9.62 M5.2 9.62 C4.25 7.75, 3.29 5.89, 2.52 4.38 M5.2 9.62 C4.27 7.8, 3.33 5.97, 2.52 4.38 M2.52 4.38 C1.88 3.27, 1.24 2.17, 0 0 M2.52 4.38 C1.91 3.33, 1.31 2.27, 0 0 M0 0 C0 0, 0 0, 0 0 M0 0 C0 0, 0 0, 0 0 M0 0 C0 0, 0 0, 0 0 M0 0 C0 0, 0 0, 0 0" stroke="#000000" stroke-width="1" fill="none"/></g></g><mask/><g transform="translate(11.664590960176156 27.00407217297692) rotate(0 9.49462890625 16.373099909978976)"><text x="0" y="26.197516007457878" font-family="Helvetica, Segoe UI Emoji" font-size="28.47495636518084px" fill="#1e1e1e" text-anchor="start" style="white-space: pre;" direction="ltr" dominant-baseline="alphabetic">A</text></g><g transform="translate(10 93.5870415544851) rotate(0 9.49462890625 16.373099909978976)"><text x="0" y="26.197516007457878" font-family="Helvetica, Segoe UI Emoji" font-size="28.47495636518084px" fill="#1e1e1e" text-anchor="start" style="white-space: pre;" direction="ltr" dominant-baseline="alphabetic">B</text></g><g transform="translate(619.6502163745475 111.40147903785106) rotate(0 19.78858184814453 16.373099909978976)"><text x="0" y="26.197516007457878" font-family="Helvetica, Segoe UI Emoji" font-size="28.47495636518084px" fill="#1e1e1e" text-anchor="start" style="white-space: pre;" direction="ltr" dominant-baseline="alphabetic">out</text></g><g stroke-linecap="round"><g transform="translate(47.31423370013363 41.07801794796973) rotate(0 29.962318765760273 0)"><path d="M0 0 C9.99 0, 49.94 0, 59.92 0 M0 0 C9.99 0, 49.94 0, 59.92 0" stroke="#1e1e1e" stroke-width="4" fill="none"/></g></g><mask/><g stroke-linecap="round"><g transform="translate(45.649642796908665 106.55127771280496) rotate(0 32.18175919262512 0)"><path d="M0 0 C10.73 0, 53.64 0, 64.36 0 M0 0 C10.73 0, 53.64 0, 64.36 0" stroke="#1e1e1e" stroke-width="4" fill="none"/></g></g><mask/><g stroke-linecap="round"><g transform="translate(263.15400031586773 78.25350751796447) rotate(0 67.13782950190759 0)"><path d="M0 0 C22.38 0, 111.9 0, 134.28 0 M0 0 C22.38 0, 111.9 0, 134.28 0" stroke="#1e1e1e" stroke-width="4" fill="none"/></g></g><mask/><g stroke-linecap="round"><g transform="translate(63.959973403162394 108.21582628372477) rotate(0 0 31.34948490716522)"><path d="M0 0 C0 10.45, 0 52.25, 0 62.7 M0 0 C0 10.45, 0 52.25, 0 62.7" stroke="#1e1e1e" stroke-width="4" fill="none"/></g></g><mask/><g stroke-linecap="round"><g transform="translate(62.85023202357729 170.35994657441523) rotate(0 166.45741819644036 0)"><path d="M0 0 C55.49 0, 277.43 0, 332.91 0 M0 0 C55.49 0, 277.43 0, 332.91 0" stroke="#1e1e1e" stroke-width="4" fill="none"/></g></g><mask/><g stroke-linecap="round"><g transform="translate(548.0735486000967 131.65858906518184) rotate(0 29.962318765760273 0)"><path d="M0 0 C9.99 0, 49.94 0, 59.92 0 M0 0 C9.99 0, 49.94 0, 59.92 0" stroke="#1e1e1e" stroke-width="4" fill="none"/></g></g><mask/><g transform="translate(148.96182296485551 53.00537194507962) rotate(0 40.29521179199219 21.385362051118364)"><text x="0" y="34.217305686750336" font-family="Helvetica, Segoe UI Emoji" font-size="37.191934001944965px" fill="#1e1e1e" text-anchor="start" style="white-space: pre;" direction="ltr" dominant-baseline="alphabetic">XOR</text></g><g transform="translate(423.7904588700062 106.8451539688977) rotate(0 39.26013946533203 21.385362051118364)"><text x="0" y="34.217305686750336" font-family="Helvetica, Segoe UI Emoji" font-size="37.191934001944965px" fill="#1e1e1e" text-anchor="start" style="white-space: pre;" direction="ltr" dominant-baseline="alphabetic">AND</text></g></svg>