<svg version="1.1" xmlns="http://www.w3.org/2000/svg" viewBox="0 0 537.6013881370212 279.7018921744737" width="537.6013881370212" height="279.7018921744737" class="excalidraw-svg">
  <!-- svg-source:excalidraw -->
  
  <defs>
    <style class="style-fonts">
      @font-face {
        font-family: "Virgil";
        src: url("https://excalidraw.com/Virgil.woff2");
      }
      @font-face {
        font-family: "Cascadia";
        src: url("https://excalidraw.com/Cascadia.woff2");
      }
      @font-face {
        font-family: "Assistant";
        src: url("https://excalidraw.com/Assistant-Regular.woff2");
      }
    </style>
    
  </defs>
  <g transform="translate(474.7492479188337 130.6184399078104) rotate(0 21.35944366455078 16.373099909978983)"><text x="0" y="26.197516007457878" font-family="Helvetica, Segoe UI Emoji" font-size="28.47495636518084px" fill="#f08c00" text-anchor="start" style="white-space: pre;" direction="ltr" dominant-baseline="alphabetic">low</text></g><g transform="translate(473.77532307354466 81.41941581925369) rotate(0 26.91303253173828 16.373099909978983)"><text x="0" y="26.197516007457878" font-family="Helvetica, Segoe UI Emoji" font-size="28.47495636518084px" fill="#1e1e1e" text-anchor="start" style="white-space: pre;" direction="ltr" dominant-baseline="alphabetic">high</text></g><g stroke-linecap="round"><g transform="translate(178.39092531328788 111.31568402796574) rotate(0 27.974455197720985 27.674813752807765)"><path d="M0 0 C3.7 6.65, 12.86 30.65, 22.18 39.87 C31.51 49.1, 50.32 52.77, 55.95 55.35 M0 0 C3.7 6.65, 12.86 30.65, 22.18 39.87 C31.51 49.1, 50.32 52.77, 55.95 55.35" stroke="#f08c00" stroke-width="2" fill="none"/></g><g transform="translate(178.39092531328788 111.31568402796574) rotate(0 27.974455197720985 27.674813752807765)"><path d="M55.95 55.35 L41.04 56.96 L45.13 44.96 L55.95 55.35" stroke="none" stroke-width="0" fill="#f08c00" fill-rule="evenodd"/><path d="M55.95 55.35 C51.42 55.84, 46.89 56.32, 41.04 56.96 M55.95 55.35 C52.9 55.68, 49.85 56.01, 41.04 56.96 M41.04 56.96 C41.91 54.39, 42.79 51.83, 45.13 44.96 M41.04 56.96 C42.52 52.61, 44.01 48.26, 45.13 44.96 M45.13 44.96 C47.4 47.13, 49.66 49.31, 55.95 55.35 M45.13 44.96 C48.14 47.85, 51.16 50.75, 55.95 55.35 M55.95 55.35 C55.95 55.35, 55.95 55.35, 55.95 55.35 M55.95 55.35 C55.95 55.35, 55.95 55.35, 55.95 55.35" stroke="#f08c00" stroke-width="2" fill="none"/></g></g><mask/><g stroke-linecap="round"><g transform="translate(168.28756381066216 40.76342297327676) rotate(0 93.50427280560916 25.8109913200869)"><path d="M0 0 C15.52 6.67, 61.94 31.42, 93.11 40.02 C124.28 48.63, 171.36 49.69, 187.01 51.62 M0 0 C15.52 6.67, 61.94 31.42, 93.11 40.02 C124.28 48.63, 171.36 49.69, 187.01 51.62" stroke="#1971c2" stroke-width="2" fill="none"/></g><g transform="translate(168.28756381066216 40.76342297327676) rotate(0 93.50427280560916 25.8109913200869)"><path d="M187.01 51.62 L172.94 56.84 L173.97 44.2 L187.01 51.62" stroke="none" stroke-width="0" fill="#1971c2" fill-rule="evenodd"/><path d="M187.01 51.62 C182.03 53.47, 177.04 55.32, 172.94 56.84 M187.01 51.62 C182.94 53.13, 178.88 54.64, 172.94 56.84 M172.94 56.84 C173.28 52.66, 173.63 48.47, 173.97 44.2 M172.94 56.84 C173.35 51.85, 173.76 46.87, 173.97 44.2 M173.97 44.2 C177.83 46.4, 181.68 48.59, 187.01 51.62 M173.97 44.2 C177.04 45.95, 180.1 47.69, 187.01 51.62 M187.01 51.62 C187.01 51.62, 187.01 51.62, 187.01 51.62 M187.01 51.62 C187.01 51.62, 187.01 51.62, 187.01 51.62" stroke="#1971c2" stroke-width="2" fill="none"/></g></g><mask/><g transform="translate(12.147393785540544 183.614285049403) rotate(0 10.280059814453125 16.373099909978983)"><text x="0" y="26.197516007457878" font-family="Helvetica, Segoe UI Emoji" font-size="28.47495636518084px" fill="#9c36b5" text-anchor="start" style="white-space: pre;" direction="ltr" dominant-baseline="alphabetic">C</text></g><g stroke-linecap="round"><g transform="translate(240.0420612283147 265.96150402794603) rotate(0 -0.7208039657371046 -21.195537586472962)" fill-rule="evenodd"><path d="M0 0 L0 0 L-0.69 1.11 L-1.28 1.98 L-2.15 3.11 L-2.65 3.62 L-2.81 3.74 L-7.36 3.74 L-4.87 0.7 L-4.87 0.7 L-4.79 0.6 L-4.57 0.3 L-3.77 -0.87 L-2.64 -2.75 L-1.34 -5.31 L-0.05 -8.48 L1.08 -12.22 L1.88 -16.47 L2.18 -21.2 L1.88 -25.92 L1.08 -30.17 L-0.05 -33.91 L-1.34 -37.08 L-2.64 -39.64 L-3.77 -41.52 L-4.57 -42.69 L-4.79 -42.99 L-4.87 -43.09 L-7.36 -46.13 L-2.81 -46.13 L-2.81 -46.13 L-1.43 -44.45 L-0.04 -42.39 L0.89 -40.78 L1.88 -38.85 L2.87 -36.61 L3.82 -34.07 L4.65 -31.25 L5.32 -28.16 L5.76 -24.8 L5.92 -21.2 L5.76 -17.6 L5.32 -14.25 L4.66 -11.16 L3.83 -8.34 L2.89 -5.8 L1.9 -3.56 L0.92 -1.62 L0 0 L0 0" stroke="none" stroke-width="0" fill="black" fill-rule="evenodd"/><path d="M0 0 C0 0, 0 0, 0 0 M0 0 C0 0, 0 0, 0 0 M0 0 C-0.25 0.41, -0.51 0.81, -0.69 1.11 M0 0 C-0.21 0.34, -0.43 0.69, -0.69 1.11 M-0.69 1.11 C-0.81 1.29, -0.93 1.46, -1.28 1.98 M-0.69 1.11 C-0.84 1.33, -1 1.56, -1.28 1.98 M-1.28 1.98 C-1.56 2.34, -1.84 2.71, -2.15 3.11 M-1.28 1.98 C-1.5 2.26, -1.71 2.54, -2.15 3.11 M-2.15 3.11 C-2.31 3.27, -2.47 3.44, -2.65 3.62 M-2.15 3.11 C-2.32 3.28, -2.49 3.46, -2.65 3.62 M-2.65 3.62 C-2.69 3.65, -2.74 3.69, -2.81 3.74 M-2.65 3.62 C-2.68 3.64, -2.71 3.67, -2.81 3.74 M-2.81 3.74 C-3.86 3.74, -4.92 3.74, -7.36 3.74 M-2.81 3.74 C-4.48 3.74, -6.15 3.74, -7.36 3.74 M-7.36 3.74 C-6.55 2.75, -5.74 1.76, -4.87 0.7 M-7.36 3.74 C-6.85 3.11, -6.33 2.48, -4.87 0.7 M-4.87 0.7 C-4.87 0.7, -4.87 0.7, -4.87 0.7 M-4.87 0.7 C-4.87 0.7, -4.87 0.7, -4.87 0.7 M-4.87 0.7 C-4.85 0.68, -4.83 0.65, -4.79 0.6 M-4.87 0.7 C-4.84 0.66, -4.81 0.63, -4.79 0.6 M-4.79 0.6 C-4.74 0.53, -4.69 0.47, -4.57 0.3 M-4.79 0.6 C-4.71 0.49, -4.62 0.37, -4.57 0.3 M-4.57 0.3 C-4.27 -0.14, -3.97 -0.58, -3.77 -0.87 M-4.57 0.3 C-4.3 -0.1, -4.03 -0.49, -3.77 -0.87 M-3.77 -0.87 C-3.44 -1.41, -3.12 -1.95, -2.64 -2.75 M-3.77 -0.87 C-3.43 -1.43, -3.09 -1.99, -2.64 -2.75 M-2.64 -2.75 C-2.32 -3.39, -2 -4.02, -1.34 -5.31 M-2.64 -2.75 C-2.26 -3.51, -1.87 -4.27, -1.34 -5.31 M-1.34 -5.31 C-0.93 -6.32, -0.51 -7.34, -0.05 -8.48 M-1.34 -5.31 C-1.06 -5.99, -0.79 -6.68, -0.05 -8.48 M-0.05 -8.48 C0.32 -9.72, 0.7 -10.96, 1.08 -12.22 M-0.05 -8.48 C0.35 -9.81, 0.76 -11.14, 1.08 -12.22 M1.08 -12.22 C1.35 -13.66, 1.62 -15.1, 1.88 -16.47 M1.08 -12.22 C1.32 -13.52, 1.57 -14.83, 1.88 -16.47 M1.88 -16.47 C1.94 -17.48, 2.01 -18.49, 2.18 -21.2 M1.88 -16.47 C1.97 -17.96, 2.07 -19.45, 2.18 -21.2 M2.18 -21.2 C2.09 -22.7, 1.99 -24.2, 1.88 -25.92 M2.18 -21.2 C2.07 -22.92, 1.96 -24.65, 1.88 -25.92 M1.88 -25.92 C1.65 -27.12, 1.43 -28.32, 1.08 -30.17 M1.88 -25.92 C1.6 -27.39, 1.33 -28.85, 1.08 -30.17 M1.08 -30.17 C0.76 -31.24, 0.44 -32.3, -0.05 -33.91 M1.08 -30.17 C0.72 -31.35, 0.37 -32.53, -0.05 -33.91 M-0.05 -33.91 C-0.34 -34.63, -0.64 -35.35, -1.34 -37.08 M-0.05 -33.91 C-0.42 -34.83, -0.8 -35.75, -1.34 -37.08 M-1.34 -37.08 C-1.62 -37.64, -1.91 -38.19, -2.64 -39.64 M-1.34 -37.08 C-1.73 -37.84, -2.12 -38.6, -2.64 -39.64 M-2.64 -39.64 C-3.02 -40.28, -3.41 -40.92, -3.77 -41.52 M-2.64 -39.64 C-3.05 -40.33, -3.47 -41.02, -3.77 -41.52 M-3.77 -41.52 C-4.04 -41.92, -4.32 -42.32, -4.57 -42.69 M-3.77 -41.52 C-4.07 -41.97, -4.38 -42.41, -4.57 -42.69 M-4.57 -42.69 C-4.61 -42.76, -4.66 -42.82, -4.79 -42.99 M-4.57 -42.69 C-4.63 -42.77, -4.69 -42.85, -4.79 -42.99 M-4.79 -42.99 C-4.81 -43.02, -4.83 -43.04, -4.87 -43.09 M-4.79 -42.99 C-4.81 -43.02, -4.83 -43.04, -4.87 -43.09 M-4.87 -43.09 C-5.46 -43.82, -6.06 -44.54, -7.36 -46.13 M-4.87 -43.09 C-5.5 -43.86, -6.14 -44.64, -7.36 -46.13 M-7.36 -46.13 C-5.74 -46.13, -4.12 -46.13, -2.81 -46.13 M-7.36 -46.13 C-5.86 -46.13, -4.35 -46.13, -2.81 -46.13 M-2.81 -46.13 C-2.81 -46.13, -2.81 -46.13, -2.81 -46.13 M-2.81 -46.13 C-2.81 -46.13, -2.81 -46.13, -2.81 -46.13 M-2.81 -46.13 C-2.45 -45.7, -2.09 -45.26, -1.43 -44.45 M-2.81 -46.13 C-2.46 -45.71, -2.12 -45.29, -1.43 -44.45 M-1.43 -44.45 C-0.96 -43.75, -0.49 -43.05, -0.04 -42.39 M-1.43 -44.45 C-1.12 -44, -0.82 -43.54, -0.04 -42.39 M-0.04 -42.39 C0.32 -41.76, 0.68 -41.13, 0.89 -40.78 M-0.04 -42.39 C0.3 -41.79, 0.65 -41.2, 0.89 -40.78 M0.89 -40.78 C1.19 -40.18, 1.5 -39.58, 1.88 -38.85 M0.89 -40.78 C1.18 -40.21, 1.47 -39.64, 1.88 -38.85 M1.88 -38.85 C2.21 -38.09, 2.55 -37.33, 2.87 -36.61 M1.88 -38.85 C2.15 -38.22, 2.43 -37.6, 2.87 -36.61 M2.87 -36.61 C3.09 -36.03, 3.31 -35.44, 3.82 -34.07 M2.87 -36.61 C3.11 -35.97, 3.35 -35.33, 3.82 -34.07 M3.82 -34.07 C4.1 -33.11, 4.38 -32.16, 4.65 -31.25 M3.82 -34.07 C4.05 -33.28, 4.28 -32.5, 4.65 -31.25 M4.65 -31.25 C4.92 -30.02, 5.18 -28.79, 5.32 -28.16 M4.65 -31.25 C4.87 -30.26, 5.08 -29.27, 5.32 -28.16 M5.32 -28.16 C5.49 -26.86, 5.66 -25.56, 5.76 -24.8 M5.32 -28.16 C5.45 -27.13, 5.59 -26.1, 5.76 -24.8 M5.76 -24.8 C5.81 -23.65, 5.86 -22.5, 5.92 -21.2 M5.76 -24.8 C5.81 -23.69, 5.86 -22.58, 5.92 -21.2 M5.92 -21.2 C5.87 -20.04, 5.82 -18.89, 5.76 -17.6 M5.92 -21.2 C5.89 -20.43, 5.85 -19.67, 5.76 -17.6 M5.76 -17.6 C5.67 -16.93, 5.59 -16.26, 5.32 -14.25 M5.76 -17.6 C5.63 -16.62, 5.51 -15.65, 5.32 -14.25 M5.32 -14.25 C5.1 -13.21, 4.88 -12.18, 4.66 -11.16 M5.32 -14.25 C5.14 -13.4, 4.96 -12.54, 4.66 -11.16 M4.66 -11.16 C4.45 -10.47, 4.25 -9.77, 3.83 -8.34 M4.66 -11.16 C4.39 -10.24, 4.12 -9.33, 3.83 -8.34 M3.83 -8.34 C3.57 -7.64, 3.31 -6.94, 2.89 -5.8 M3.83 -8.34 C3.55 -7.58, 3.27 -6.83, 2.89 -5.8 M2.89 -5.8 C2.53 -4.98, 2.17 -4.16, 1.9 -3.56 M2.89 -5.8 C2.56 -5.06, 2.23 -4.32, 1.9 -3.56 M1.9 -3.56 C1.57 -2.9, 1.24 -2.25, 0.92 -1.62 M1.9 -3.56 C1.6 -2.97, 1.3 -2.38, 0.92 -1.62 M0.92 -1.62 C0.67 -1.18, 0.42 -0.75, 0 0 M0.92 -1.62 C0.72 -1.28, 0.53 -0.93, 0 0 M0 0 C0 0, 0 0, 0 0 M0 0 C0 0, 0 0, 0 0 M0 0 C0 0, 0 0, 0 0 M0 0 C0 0, 0 0, 0 0" stroke="#000000" stroke-width="0.5" fill="none"/></g></g><mask/><g stroke-linecap="round"><g transform="translate(239.847249345683 219.83004070847244) rotate(0 30.215322996168872 24.935920976851165)" fill-rule="evenodd"><path d="M0 0 L2.49 3.04 L2.49 3.04 L2.57 3.14 L2.8 3.44 L3.6 4.61 L4.72 6.5 L6.02 9.05 L7.31 12.22 L8.44 15.96 L9.24 20.21 L9.55 24.94 L9.24 29.66 L8.44 33.91 L7.31 37.65 L6.02 40.82 L4.72 43.38 L3.6 45.26 L2.8 46.43 L2.57 46.73 L2.49 46.83 L0 49.87 L3.94 49.87 L21.39 49.87 L21.39 49.87 L22.68 49.87 L24.27 49.83 L26.13 49.72 L28.23 49.51 L30.54 49.15 L33.02 48.62 L35.65 47.87 L38.38 46.87 L41.19 45.58 L44.04 43.98 L46.91 42.02 L49.77 39.67 L52.58 36.91 L55.32 33.71 L57.94 30.02 L60.43 25.83 L58.79 24.94 L60.43 24.04 L60.43 24.04 L57.94 19.85 L55.31 16.18 L52.57 12.99 L49.75 10.26 L46.88 7.93 L44 5.99 L41.13 4.39 L38.32 3.11 L35.58 2.1 L32.96 1.34 L30.49 0.79 L28.19 0.41 L26.09 0.18 L24.24 0.06 L22.66 0.01 L21.39 0 L3.94 0 L0 0 L0 0" stroke="none" stroke-width="0" fill="black" fill-rule="evenodd"/><path d="M0 0 C0.76 0.92, 1.51 1.84, 2.49 3.04 M0 0 C0.81 0.98, 1.61 1.97, 2.49 3.04 M2.49 3.04 C2.49 3.04, 2.49 3.04, 2.49 3.04 M2.49 3.04 C2.49 3.04, 2.49 3.04, 2.49 3.04 M2.49 3.04 C2.52 3.07, 2.54 3.1, 2.57 3.14 M2.49 3.04 C2.51 3.06, 2.53 3.08, 2.57 3.14 M2.57 3.14 C2.63 3.21, 2.68 3.29, 2.8 3.44 M2.57 3.14 C2.65 3.24, 2.72 3.34, 2.8 3.44 M2.8 3.44 C2.99 3.72, 3.18 4, 3.6 4.61 M2.8 3.44 C2.97 3.69, 3.14 3.95, 3.6 4.61 M3.6 4.61 C3.96 5.21, 4.32 5.82, 4.72 6.5 M3.6 4.61 C4.03 5.33, 4.46 6.05, 4.72 6.5 M4.72 6.5 C5.24 7.51, 5.76 8.53, 6.02 9.05 M4.72 6.5 C5.21 7.44, 5.69 8.39, 6.02 9.05 M6.02 9.05 C6.42 10.02, 6.81 10.99, 7.31 12.22 M6.02 9.05 C6.31 9.77, 6.61 10.49, 7.31 12.22 M7.31 12.22 C7.75 13.65, 8.18 15.09, 8.44 15.96 M7.31 12.22 C7.6 13.18, 7.89 14.13, 8.44 15.96 M8.44 15.96 C8.73 17.48, 9.02 19.01, 9.24 20.21 M8.44 15.96 C8.69 17.25, 8.93 18.55, 9.24 20.21 M9.24 20.21 C9.34 21.71, 9.44 23.21, 9.55 24.94 M9.24 20.21 C9.34 21.77, 9.44 23.33, 9.55 24.94 M9.55 24.94 C9.43 26.78, 9.31 28.62, 9.24 29.66 M9.55 24.94 C9.46 26.22, 9.38 27.5, 9.24 29.66 M9.24 29.66 C8.98 31.04, 8.72 32.43, 8.44 33.91 M9.24 29.66 C9.06 30.62, 8.88 31.58, 8.44 33.91 M8.44 33.91 C8.03 35.29, 7.61 36.66, 7.31 37.65 M8.44 33.91 C8.09 35.08, 7.74 36.25, 7.31 37.65 M7.31 37.65 C7.01 38.4, 6.7 39.14, 6.02 40.82 M7.31 37.65 C6.99 38.45, 6.66 39.25, 6.02 40.82 M6.02 40.82 C5.76 41.34, 5.49 41.86, 4.72 43.38 M6.02 40.82 C5.72 41.42, 5.42 42.02, 4.72 43.38 M4.72 43.38 C4.41 43.9, 4.1 44.42, 3.6 45.26 M4.72 43.38 C4.4 43.92, 4.07 44.47, 3.6 45.26 M3.6 45.26 C3.38 45.57, 3.17 45.89, 2.8 46.43 M3.6 45.26 C3.31 45.69, 3.02 46.11, 2.8 46.43 M2.8 46.43 C2.71 46.54, 2.63 46.66, 2.57 46.73 M2.8 46.43 C2.73 46.52, 2.67 46.6, 2.57 46.73 M2.57 46.73 C2.55 46.76, 2.53 46.79, 2.49 46.83 M2.57 46.73 C2.55 46.76, 2.53 46.78, 2.49 46.83 M2.49 46.83 C1.82 47.65, 1.15 48.47, 0 49.87 M2.49 46.83 C1.55 47.98, 0.61 49.13, 0 49.87 M0 49.87 C1.56 49.87, 3.12 49.87, 3.94 49.87 M0 49.87 C1.51 49.87, 3.01 49.87, 3.94 49.87 M3.94 49.87 C10.72 49.87, 17.51 49.87, 21.39 49.87 M3.94 49.87 C10.22 49.87, 16.51 49.87, 21.39 49.87 M21.39 49.87 C21.39 49.87, 21.39 49.87, 21.39 49.87 M21.39 49.87 C21.39 49.87, 21.39 49.87, 21.39 49.87 M21.39 49.87 C21.87 49.87, 22.34 49.87, 22.68 49.87 M21.39 49.87 C21.66 49.87, 21.92 49.87, 22.68 49.87 M22.68 49.87 C23.2 49.85, 23.72 49.84, 24.27 49.83 M22.68 49.87 C23.12 49.86, 23.56 49.85, 24.27 49.83 M24.27 49.83 C24.92 49.79, 25.56 49.75, 26.13 49.72 M24.27 49.83 C24.95 49.79, 25.64 49.75, 26.13 49.72 M26.13 49.72 C26.62 49.67, 27.11 49.62, 28.23 49.51 M26.13 49.72 C26.79 49.65, 27.45 49.59, 28.23 49.51 M28.23 49.51 C28.83 49.42, 29.43 49.32, 30.54 49.15 M28.23 49.51 C28.84 49.42, 29.44 49.32, 30.54 49.15 M30.54 49.15 C31.16 49.02, 31.78 48.89, 33.02 48.62 M30.54 49.15 C31.35 48.98, 32.17 48.8, 33.02 48.62 M33.02 48.62 C33.94 48.36, 34.85 48.1, 35.65 47.87 M33.02 48.62 C34.02 48.33, 35.03 48.05, 35.65 47.87 M35.65 47.87 C36.48 47.57, 37.31 47.26, 38.38 46.87 M35.65 47.87 C36.5 47.56, 37.35 47.25, 38.38 46.87 M38.38 46.87 C39.09 46.55, 39.79 46.22, 41.19 45.58 M38.38 46.87 C39.5 46.36, 40.62 45.85, 41.19 45.58 M41.19 45.58 C42.27 44.97, 43.36 44.36, 44.04 43.98 M41.19 45.58 C42.29 44.97, 43.39 44.35, 44.04 43.98 M44.04 43.98 C44.95 43.36, 45.86 42.74, 46.91 42.02 M44.04 43.98 C44.77 43.48, 45.49 42.99, 46.91 42.02 M46.91 42.02 C47.5 41.54, 48.08 41.06, 49.77 39.67 M46.91 42.02 C47.73 41.34, 48.55 40.67, 49.77 39.67 M49.77 39.67 C50.57 38.89, 51.36 38.11, 52.58 36.91 M49.77 39.67 C50.49 38.96, 51.22 38.25, 52.58 36.91 M52.58 36.91 C53.57 35.75, 54.56 34.59, 55.32 33.71 M52.58 36.91 C53.35 36.01, 54.12 35.11, 55.32 33.71 M55.32 33.71 C55.84 32.97, 56.37 32.23, 57.94 30.02 M55.32 33.71 C55.85 32.96, 56.38 32.22, 57.94 30.02 M57.94 30.02 C58.9 28.4, 59.87 26.78, 60.43 25.83 M57.94 30.02 C58.58 28.95, 59.22 27.88, 60.43 25.83 M60.43 25.83 C59.92 25.55, 59.4 25.27, 58.79 24.94 M60.43 25.83 C60.03 25.61, 59.62 25.39, 58.79 24.94 M58.79 24.94 C59.23 24.7, 59.66 24.46, 60.43 24.04 M58.79 24.94 C59.16 24.74, 59.52 24.54, 60.43 24.04 M60.43 24.04 C60.43 24.04, 60.43 24.04, 60.43 24.04 M60.43 24.04 C60.43 24.04, 60.43 24.04, 60.43 24.04 M60.43 24.04 C59.61 22.66, 58.79 21.27, 57.94 19.85 M60.43 24.04 C59.91 23.16, 59.38 22.28, 57.94 19.85 M57.94 19.85 C57.07 18.64, 56.2 17.42, 55.31 16.18 M57.94 19.85 C57 18.55, 56.07 17.24, 55.31 16.18 M55.31 16.18 C54.28 14.98, 53.25 13.78, 52.57 12.99 M55.31 16.18 C54.26 14.96, 53.21 13.74, 52.57 12.99 M52.57 12.99 C51.9 12.34, 51.23 11.7, 49.75 10.26 M52.57 12.99 C51.7 12.15, 50.83 11.31, 49.75 10.26 M49.75 10.26 C48.77 9.46, 47.79 8.67, 46.88 7.93 M49.75 10.26 C48.83 9.52, 47.92 8.78, 46.88 7.93 M46.88 7.93 C45.88 7.26, 44.89 6.59, 44 5.99 M46.88 7.93 C45.89 7.27, 44.91 6.6, 44 5.99 M44 5.99 C43.37 5.64, 42.75 5.29, 41.13 4.39 M44 5.99 C43.08 5.47, 42.16 4.96, 41.13 4.39 M41.13 4.39 C40.54 4.12, 39.94 3.85, 38.32 3.11 M41.13 4.39 C40.05 3.9, 38.96 3.4, 38.32 3.11 M38.32 3.11 C37.36 2.76, 36.41 2.4, 35.58 2.1 M38.32 3.11 C37.44 2.78, 36.57 2.46, 35.58 2.1 M35.58 2.1 C34.55 1.8, 33.53 1.5, 32.96 1.34 M35.58 2.1 C34.69 1.84, 33.8 1.58, 32.96 1.34 M32.96 1.34 C32.15 1.16, 31.33 0.98, 30.49 0.79 M32.96 1.34 C32.06 1.14, 31.15 0.94, 30.49 0.79 M30.49 0.79 C29.69 0.66, 28.89 0.53, 28.19 0.41 M30.49 0.79 C29.6 0.64, 28.72 0.5, 28.19 0.41 M28.19 0.41 C27.54 0.34, 26.9 0.27, 26.09 0.18 M28.19 0.41 C27.49 0.34, 26.79 0.26, 26.09 0.18 M26.09 0.18 C25.48 0.14, 24.86 0.1, 24.24 0.06 M26.09 0.18 C25.6 0.15, 25.11 0.12, 24.24 0.06 M24.24 0.06 C23.8 0.04, 23.36 0.03, 22.66 0.01 M24.24 0.06 C23.89 0.05, 23.55 0.04, 22.66 0.01 M22.66 0.01 C22.26 0.01, 21.86 0, 21.39 0 M22.66 0.01 C22.4 0.01, 22.14 0.01, 21.39 0 M21.39 0 C14.45 0, 7.5 0, 3.94 0 M21.39 0 C17.02 0, 12.64 0, 3.94 0 M3.94 0 C2.93 0, 1.93 0, 0 0 M3.94 0 C2.36 0, 0.79 0, 0 0 M0 0 C0 0, 0 0, 0 0 M0 0 C0 0, 0 0, 0 0 M0 0 C0 0, 0 0, 0 0 M0 0 C0 0, 0 0, 0 0" stroke="#000000" stroke-width="1" fill="none"/></g></g><mask/><g stroke-linecap="round"><g transform="translate(247.17217613263307 223.57042885500016) rotate(0 24.4683724585352 21.195532830323486)" fill-rule="evenodd"><path d="M0 0 L14.07 0 L14.07 0 L15.29 0 L16.75 0.03 L20.28 0.31 L24.48 1.07 L26.78 1.72 L29.16 2.59 L31.63 3.7 L34.14 5.1 L36.68 6.82 L39.22 8.87 L41.74 11.31 L44.21 14.15 L46.62 17.44 L48.94 21.2 L46.65 24.9 L44.28 28.14 L41.83 30.96 L39.34 33.38 L36.82 35.42 L34.3 37.14 L31.8 38.54 L29.34 39.66 L26.89 40.57 L24.55 41.24 L20.32 42.05 L16.78 42.35 L14.07 42.39 L0.04 42.39 L0.04 42.39 L0.96 40.77 L1.95 38.84 L2.94 36.6 L3.88 34.06 L4.7 31.24 L5.36 28.14 L5.8 24.79 L5.96 21.2 L5.8 17.59 L5.36 14.23 L4.69 11.14 L3.86 8.32 L2.91 5.78 L1.92 3.54 L0.93 1.61 L0 0 L0 0" stroke="none" stroke-width="0" fill="#FFFFFF" fill-rule="evenodd"/><path d="M0 0 C3.69 0, 7.37 0, 14.07 0 M0 0 C5.55 0, 11.11 0, 14.07 0 M14.07 0 C14.07 0, 14.07 0, 14.07 0 M14.07 0 C14.07 0, 14.07 0, 14.07 0 M14.07 0 C14.52 0, 14.98 0, 15.29 0 M14.07 0 C14.32 0, 14.57 0, 15.29 0 M15.29 0 C15.68 0.01, 16.07 0.02, 16.75 0.03 M15.29 0 C15.85 0.02, 16.41 0.03, 16.75 0.03 M16.75 0.03 C18.11 0.14, 19.48 0.25, 20.28 0.31 M16.75 0.03 C17.92 0.13, 19.09 0.22, 20.28 0.31 M20.28 0.31 C21.93 0.61, 23.59 0.91, 24.48 1.07 M20.28 0.31 C21.74 0.57, 23.2 0.84, 24.48 1.07 M24.48 1.07 C24.94 1.2, 25.4 1.33, 26.78 1.72 M24.48 1.07 C24.97 1.21, 25.46 1.35, 26.78 1.72 M26.78 1.72 C27.6 2.02, 28.42 2.32, 29.16 2.59 M26.78 1.72 C27.62 2.03, 28.47 2.34, 29.16 2.59 M29.16 2.59 C29.82 2.89, 30.48 3.19, 31.63 3.7 M29.16 2.59 C29.95 2.94, 30.74 3.3, 31.63 3.7 M31.63 3.7 C32.36 4.11, 33.08 4.52, 34.14 5.1 M31.63 3.7 C32.5 4.19, 33.37 4.68, 34.14 5.1 M34.14 5.1 C34.88 5.61, 35.63 6.11, 36.68 6.82 M34.14 5.1 C34.76 5.52, 35.38 5.94, 36.68 6.82 M36.68 6.82 C37.43 7.43, 38.18 8.03, 39.22 8.87 M36.68 6.82 C37.55 7.53, 38.43 8.24, 39.22 8.87 M39.22 8.87 C40.06 9.68, 40.9 10.5, 41.74 11.31 M39.22 8.87 C39.72 9.36, 40.23 9.85, 41.74 11.31 M41.74 11.31 C42.31 11.97, 42.89 12.63, 44.21 14.15 M41.74 11.31 C42.57 12.27, 43.4 13.22, 44.21 14.15 M44.21 14.15 C44.92 15.12, 45.63 16.09, 46.62 17.44 M44.21 14.15 C45.01 15.24, 45.8 16.32, 46.62 17.44 M46.62 17.44 C47.25 18.46, 47.88 19.47, 48.94 21.2 M46.62 17.44 C47.51 18.88, 48.4 20.33, 48.94 21.2 M48.94 21.2 C48.39 22.08, 47.85 22.96, 46.65 24.9 M48.94 21.2 C48.04 22.65, 47.14 24.11, 46.65 24.9 M46.65 24.9 C45.74 26.14, 44.83 27.38, 44.28 28.14 M46.65 24.9 C45.88 25.95, 45.11 27, 44.28 28.14 M44.28 28.14 C43.61 28.91, 42.94 29.68, 41.83 30.96 M44.28 28.14 C43.6 28.92, 42.92 29.7, 41.83 30.96 M41.83 30.96 C41.23 31.55, 40.62 32.13, 39.34 33.38 M41.83 30.96 C41.17 31.6, 40.5 32.25, 39.34 33.38 M39.34 33.38 C38.68 33.92, 38.01 34.46, 36.82 35.42 M39.34 33.38 C38.61 33.97, 37.88 34.56, 36.82 35.42 M36.82 35.42 C36 35.98, 35.17 36.54, 34.3 37.14 M36.82 35.42 C36.07 35.93, 35.33 36.44, 34.3 37.14 M34.3 37.14 C33.49 37.59, 32.69 38.04, 31.8 38.54 M34.3 37.14 C33.64 37.51, 32.98 37.88, 31.8 38.54 M31.8 38.54 C31.28 38.78, 30.76 39.01, 29.34 39.66 M31.8 38.54 C30.89 38.95, 29.99 39.37, 29.34 39.66 M29.34 39.66 C28.57 39.95, 27.8 40.23, 26.89 40.57 M29.34 39.66 C28.71 39.89, 28.09 40.13, 26.89 40.57 M26.89 40.57 C26.24 40.75, 25.6 40.94, 24.55 41.24 M26.89 40.57 C26.39 40.71, 25.89 40.86, 24.55 41.24 M24.55 41.24 C23.05 41.53, 21.54 41.82, 20.32 42.05 M24.55 41.24 C23.52 41.44, 22.49 41.64, 20.32 42.05 M20.32 42.05 C18.91 42.17, 17.49 42.29, 16.78 42.35 M20.32 42.05 C19.49 42.12, 18.65 42.19, 16.78 42.35 M16.78 42.35 C15.92 42.36, 15.06 42.38, 14.07 42.39 M16.78 42.35 C16.15 42.36, 15.51 42.37, 14.07 42.39 M14.07 42.39 C10.35 42.39, 6.63 42.39, 0.04 42.39 M14.07 42.39 C11.09 42.39, 8.12 42.39, 0.04 42.39 M0.04 42.39 C0.04 42.39, 0.04 42.39, 0.04 42.39 M0.04 42.39 C0.04 42.39, 0.04 42.39, 0.04 42.39 M0.04 42.39 C0.28 41.98, 0.51 41.56, 0.96 40.77 M0.04 42.39 C0.4 41.76, 0.77 41.12, 0.96 40.77 M0.96 40.77 C1.19 40.33, 1.42 39.88, 1.95 38.84 M0.96 40.77 C1.3 40.12, 1.63 39.46, 1.95 38.84 M1.95 38.84 C2.3 38.04, 2.66 37.24, 2.94 36.6 M1.95 38.84 C2.15 38.39, 2.35 37.93, 2.94 36.6 M2.94 36.6 C3.29 35.64, 3.65 34.68, 3.88 34.06 M2.94 36.6 C3.2 35.88, 3.46 35.17, 3.88 34.06 M3.88 34.06 C4.09 33.34, 4.3 32.62, 4.7 31.24 M3.88 34.06 C4.15 33.11, 4.43 32.16, 4.7 31.24 M4.7 31.24 C4.86 30.51, 5.01 29.79, 5.36 28.14 M4.7 31.24 C4.88 30.41, 5.06 29.59, 5.36 28.14 M5.36 28.14 C5.47 27.35, 5.57 26.56, 5.8 24.79 M5.36 28.14 C5.48 27.24, 5.6 26.34, 5.8 24.79 M5.8 24.79 C5.85 23.62, 5.91 22.45, 5.96 21.2 M5.8 24.79 C5.85 23.64, 5.9 22.49, 5.96 21.2 M5.96 21.2 C5.91 20.14, 5.87 19.08, 5.8 17.59 M5.96 21.2 C5.91 19.96, 5.85 18.73, 5.8 17.59 M5.8 17.59 C5.65 16.48, 5.51 15.37, 5.36 14.23 M5.8 17.59 C5.68 16.64, 5.55 15.7, 5.36 14.23 M5.36 14.23 C5.21 13.57, 5.07 12.9, 4.69 11.14 M5.36 14.23 C5.17 13.38, 4.99 12.53, 4.69 11.14 M4.69 11.14 C4.37 10.07, 4.06 9, 3.86 8.32 M4.69 11.14 C4.42 10.23, 4.16 9.33, 3.86 8.32 M3.86 8.32 C3.58 7.57, 3.3 6.82, 2.91 5.78 M3.86 8.32 C3.61 7.67, 3.37 7.02, 2.91 5.78 M2.91 5.78 C2.56 5, 2.21 4.21, 1.92 3.54 M2.91 5.78 C2.69 5.28, 2.46 4.77, 1.92 3.54 M1.92 3.54 C1.69 3.1, 1.46 2.66, 0.93 1.61 M1.92 3.54 C1.67 3.05, 1.41 2.56, 0.93 1.61 M0.93 1.61 C0.57 1, 0.22 0.38, 0 0 M0.93 1.61 C0.64 1.11, 0.35 0.6, 0 0 M0 0 C0 0, 0 0, 0 0 M0 0 C0 0, 0 0, 0 0 M0 0 C0 0, 0 0, 0 0 M0 0 C0 0, 0 0, 0 0" stroke="#000000" stroke-width="1" fill="none"/></g></g><mask/><g stroke-linecap="round"><g transform="translate(298.1814115095649 244.75957461196424) rotate(0 0.25979223930595907 0.05196042994890604)"><path d="M0 0 C0.09 0.02, 0.43 0.09, 0.52 0.1 M0 0 C0.09 0.02, 0.43 0.09, 0.52 0.1" stroke="#000000" stroke-width="4" fill="none"/></g></g><mask/><g transform="translate(258.1801200198948 237.63593051287353) rotate(0 13.597862243652344 7.217701720996693)"><text x="0" y="11.548567920093388" font-family="Helvetica, Segoe UI Emoji" font-size="12.552524732168168px" fill="#f08c00" text-anchor="start" style="white-space: pre;" direction="ltr" dominant-baseline="alphabetic">XOR</text></g><g stroke-linecap="round"><g transform="translate(41.437861075129376 202.307488090626) rotate(0 100.20331574618811 24.144222661525387)"><path d="M0 0 C33.4 8.05, 167.01 40.24, 200.41 48.29 M0 0 C33.4 8.05, 167.01 40.24, 200.41 48.29" stroke="#6741d9" stroke-width="2" fill="none"/></g><g transform="translate(41.437861075129376 202.307488090626) rotate(0 100.20331574618811 24.144222661525387)"><path d="M200.41 48.29 L185.71 51.27 L188.68 38.94 L200.41 48.29" stroke="none" stroke-width="0" fill="#6741d9" fill-rule="evenodd"/><path d="M200.41 48.29 C195.54 49.27, 190.68 50.26, 185.71 51.27 M200.41 48.29 C194.61 49.46, 188.81 50.64, 185.71 51.27 M185.71 51.27 C186.58 47.62, 187.46 43.98, 188.68 38.94 M185.71 51.27 C186.4 48.37, 187.1 45.47, 188.68 38.94 M188.68 38.94 C191.77 41.41, 194.87 43.87, 200.41 48.29 M188.68 38.94 C192.31 41.83, 195.94 44.73, 200.41 48.29 M200.41 48.29 C200.41 48.29, 200.41 48.29, 200.41 48.29 M200.41 48.29 C200.41 48.29, 200.41 48.29, 200.41 48.29" stroke="#6741d9" stroke-width="2" fill="none"/></g></g><mask/><g stroke-linecap="round"><g transform="translate(178.54935132491096 111.01842147531477) rotate(0 30.6511441141719 61.492955857342395)"><path d="M0 0 C3.04 16.78, 8.01 80.15, 18.22 100.65 C28.44 121.15, 54.12 119.26, 61.3 122.99 M0 0 C3.04 16.78, 8.01 80.15, 18.22 100.65 C28.44 121.15, 54.12 119.26, 61.3 122.99" stroke="#f08c00" stroke-width="2" fill="none"/></g><g transform="translate(178.54935132491096 111.01842147531477) rotate(0 30.6511441141719 61.492955857342395)"><path d="M61.3 122.99 L46.59 125.9 L49.61 113.58 L61.3 122.99" stroke="none" stroke-width="0" fill="#f08c00" fill-rule="evenodd"/><path d="M61.3 122.99 C56.15 124.01, 50.99 125.02, 46.59 125.9 M61.3 122.99 C58.17 123.6, 55.04 124.22, 46.59 125.9 M46.59 125.9 C47.74 121.21, 48.89 116.53, 49.61 113.58 M46.59 125.9 C47.47 122.3, 48.36 118.7, 49.61 113.58 M49.61 113.58 C54.2 117.27, 58.78 120.95, 61.3 122.99 M49.61 113.58 C53.06 116.35, 56.5 119.12, 61.3 122.99 M61.3 122.99 C61.3 122.99, 61.3 122.99, 61.3 122.99 M61.3 122.99 C61.3 122.99, 61.3 122.99, 61.3 122.99" stroke="#f08c00" stroke-width="2" fill="none"/></g></g><mask/><g stroke-linecap="round"><g transform="translate(300.55864772293967 245.8119395890352) rotate(0 83.3932157105821 -49.594325408159065)"><path d="M0 0 C27.8 -16.53, 138.99 -82.66, 166.79 -99.19 M0 0 C27.8 -16.53, 138.99 -82.66, 166.79 -99.19" stroke="#f08c00" stroke-width="2" fill="none"/></g><g transform="translate(300.55864772293967 245.8119395890352) rotate(0 83.3932157105821 -49.594325408159065)"><path d="M166.79 -99.19 L158.34 -86.79 L151.86 -97.69 L166.79 -99.19" stroke="none" stroke-width="0" fill="#f08c00" fill-rule="evenodd"/><path d="M166.79 -99.19 C163.69 -94.64, 160.59 -90.09, 158.34 -86.79 M166.79 -99.19 C164.17 -95.34, 161.55 -91.5, 158.34 -86.79 M158.34 -86.79 C157.01 -89.03, 155.68 -91.27, 151.86 -97.69 M158.34 -86.79 C156.66 -89.62, 154.97 -92.45, 151.86 -97.69 M151.86 -97.69 C156.71 -98.18, 161.56 -98.66, 166.79 -99.19 M151.86 -97.69 C155.58 -98.06, 159.3 -98.44, 166.79 -99.19 M166.79 -99.19 C166.79 -99.19, 166.79 -99.19, 166.79 -99.19 M166.79 -99.19 C166.79 -99.19, 166.79 -99.19, 166.79 -99.19" stroke="#f08c00" stroke-width="2" fill="none"/></g></g><mask/><g transform="translate(10.000000000000114 10) rotate(0 9.49462890625 16.37309990997899)"><text x="0" y="26.197516007457878" font-family="Helvetica, Segoe UI Emoji" font-size="28.47495636518084px" fill="#e03131" text-anchor="start" style="white-space: pre;" direction="ltr" dominant-baseline="alphabetic">A</text></g><g transform="translate(10 105.58402338150825) rotate(0 9.49462890625 16.373099909978983)"><text x="0" y="26.197516007457878" font-family="Helvetica, Segoe UI Emoji" font-size="28.47495636518084px" fill="#2f9e44" text-anchor="start" style="white-space: pre;" direction="ltr" dominant-baseline="alphabetic">B</text></g><g stroke-linecap="round"><g transform="translate(112.10187985985738 10.43149284336755) rotate(0 28.19143199851524 27.859769342963133)" fill-rule="evenodd"><path d="M0 0 L0 1.99 L0 53.73 L0 55.72 L1.99 55.72 L28.52 55.72 L28.52 55.72 L31.42 55.58 L34.23 55.15 L36.92 54.46 L39.5 53.52 L41.94 52.34 L44.24 50.94 L48.34 47.54 L51.71 43.41 L54.24 38.68 L55.16 36.12 L55.83 33.46 L56.24 30.7 L56.38 27.86 L56.24 25.02 L55.83 22.26 L55.16 19.6 L54.24 17.04 L51.71 12.31 L48.34 8.18 L44.24 4.77 L41.94 3.38 L39.5 2.2 L36.92 1.26 L34.23 0.57 L31.42 0.14 L28.52 0 L28.47 0 L28.11 0 L27.12 0 L26.3 0 L25.21 0 L23.8 0 L22.05 0 L19.9 0 L17.33 0 L14.29 0 L10.75 0 L6.66 0 L1.99 0 L0 0 L0 0" stroke="none" stroke-width="0" fill="black" fill-rule="evenodd"/><path d="M0 0 C0 0.69, 0 1.38, 0 1.99 M0 0 C0 0.43, 0 0.87, 0 1.99 M0 1.99 C0 18.57, 0 35.15, 0 53.73 M0 1.99 C0 12.7, 0 23.4, 0 53.73 M0 53.73 C0 54.45, 0 55.17, 0 55.72 M0 53.73 C0 54.3, 0 54.87, 0 55.72 M0 55.72 C0.61 55.72, 1.23 55.72, 1.99 55.72 M0 55.72 C0.6 55.72, 1.2 55.72, 1.99 55.72 M1.99 55.72 C11.56 55.72, 21.13 55.72, 28.52 55.72 M1.99 55.72 C11.49 55.72, 21 55.72, 28.52 55.72 M28.52 55.72 C28.52 55.72, 28.52 55.72, 28.52 55.72 M28.52 55.72 C28.52 55.72, 28.52 55.72, 28.52 55.72 M28.52 55.72 C29.65 55.66, 30.78 55.61, 31.42 55.58 M28.52 55.72 C29.21 55.69, 29.89 55.65, 31.42 55.58 M31.42 55.58 C32.26 55.45, 33.1 55.32, 34.23 55.15 M31.42 55.58 C31.99 55.49, 32.56 55.4, 34.23 55.15 M34.23 55.15 C34.88 54.98, 35.53 54.82, 36.92 54.46 M34.23 55.15 C35.16 54.91, 36.09 54.68, 36.92 54.46 M36.92 54.46 C37.74 54.16, 38.57 53.86, 39.5 53.52 M36.92 54.46 C37.53 54.24, 38.13 54.02, 39.5 53.52 M39.5 53.52 C40.4 53.09, 41.3 52.65, 41.94 52.34 M39.5 53.52 C40.06 53.25, 40.63 52.97, 41.94 52.34 M41.94 52.34 C42.72 51.87, 43.49 51.4, 44.24 50.94 M41.94 52.34 C42.53 51.98, 43.13 51.62, 44.24 50.94 M44.24 50.94 C45.75 49.69, 47.27 48.43, 48.34 47.54 M44.24 50.94 C45.34 50.03, 46.45 49.11, 48.34 47.54 M48.34 47.54 C49.58 46.01, 50.83 44.48, 51.71 43.41 M48.34 47.54 C49.09 46.62, 49.84 45.7, 51.71 43.41 M51.71 43.41 C52.45 42.01, 53.2 40.61, 54.24 38.68 M51.71 43.41 C52.6 41.74, 53.49 40.07, 54.24 38.68 M54.24 38.68 C54.54 37.84, 54.84 37, 55.16 36.12 M54.24 38.68 C54.55 37.8, 54.87 36.92, 55.16 36.12 M55.16 36.12 C55.39 35.19, 55.63 34.26, 55.83 33.46 M55.16 36.12 C55.43 35.06, 55.69 33.99, 55.83 33.46 M55.83 33.46 C55.96 32.55, 56.1 31.65, 56.24 30.7 M55.83 33.46 C55.92 32.86, 56.01 32.27, 56.24 30.7 M56.24 30.7 C56.3 29.6, 56.35 28.51, 56.38 27.86 M56.24 30.7 C56.28 29.98, 56.31 29.27, 56.38 27.86 M56.38 27.86 C56.33 26.76, 56.27 25.66, 56.24 25.02 M56.38 27.86 C56.34 27, 56.3 26.13, 56.24 25.02 M56.24 25.02 C56.16 24.44, 56.07 23.86, 55.83 22.26 M56.24 25.02 C56.09 23.98, 55.93 22.95, 55.83 22.26 M55.83 22.26 C55.61 21.39, 55.39 20.52, 55.16 19.6 M55.83 22.26 C55.66 21.6, 55.49 20.93, 55.16 19.6 M55.16 19.6 C54.9 18.88, 54.64 18.16, 54.24 17.04 M55.16 19.6 C54.83 18.68, 54.49 17.76, 54.24 17.04 M54.24 17.04 C53.56 15.77, 52.88 14.5, 51.71 12.31 M54.24 17.04 C53.31 15.32, 52.39 13.59, 51.71 12.31 M51.71 12.31 C51 11.45, 50.3 10.58, 48.34 8.18 M51.71 12.31 C50.98 11.42, 50.24 10.52, 48.34 8.18 M48.34 8.18 C46.97 7.05, 45.61 5.91, 44.24 4.77 M48.34 8.18 C46.96 7.04, 45.58 5.89, 44.24 4.77 M44.24 4.77 C43.66 4.42, 43.08 4.07, 41.94 3.38 M44.24 4.77 C43.59 4.38, 42.94 3.99, 41.94 3.38 M41.94 3.38 C41.1 2.97, 40.26 2.57, 39.5 2.2 M41.94 3.38 C41.15 2.99, 40.36 2.61, 39.5 2.2 M39.5 2.2 C38.92 1.99, 38.34 1.78, 36.92 1.26 M39.5 2.2 C38.69 1.9, 37.88 1.61, 36.92 1.26 M36.92 1.26 C36.04 1.03, 35.15 0.81, 34.23 0.57 M36.92 1.26 C36.22 1.08, 35.52 0.9, 34.23 0.57 M34.23 0.57 C33.14 0.4, 32.05 0.24, 31.42 0.14 M34.23 0.57 C33.12 0.4, 32.01 0.23, 31.42 0.14 M31.42 0.14 C30.81 0.11, 30.19 0.08, 28.52 0 M31.42 0.14 C30.4 0.09, 29.38 0.04, 28.52 0 M28.52 0 C28.5 0, 28.49 0, 28.47 0 M28.52 0 C28.51 0, 28.5 0, 28.47 0 M28.47 0 C28.35 0, 28.24 0, 28.11 0 M28.47 0 C28.33 0, 28.19 0, 28.11 0 M28.11 0 C27.9 0, 27.7 0, 27.12 0 M28.11 0 C27.86 0, 27.6 0, 27.12 0 M27.12 0 C26.88 0, 26.63 0, 26.3 0 M27.12 0 C26.96 0, 26.79 0, 26.3 0 M26.3 0 C25.92 0, 25.54 0, 25.21 0 M26.3 0 C25.95 0, 25.6 0, 25.21 0 M25.21 0 C24.7 0, 24.19 0, 23.8 0 M25.21 0 C24.87 0, 24.54 0, 23.8 0 M23.8 0 C23.36 0, 22.91 0, 22.05 0 M23.8 0 C23.11 0, 22.42 0, 22.05 0 M22.05 0 C21.51 0, 20.98 0, 19.9 0 M22.05 0 C21.2 0, 20.36 0, 19.9 0 M19.9 0 C19.02 0, 18.14 0, 17.33 0 M19.9 0 C19.17 0, 18.43 0, 17.33 0 M17.33 0 C16.43 0, 15.54 0, 14.29 0 M17.33 0 C16.3 0, 15.27 0, 14.29 0 M14.29 0 C13.26 0, 12.22 0, 10.75 0 M14.29 0 C13.18 0, 12.07 0, 10.75 0 M10.75 0 C9.37 0, 7.99 0, 6.66 0 M10.75 0 C9.83 0, 8.91 0, 6.66 0 M6.66 0 C5.15 0, 3.64 0, 1.99 0 M6.66 0 C5.61 0, 4.55 0, 1.99 0 M1.99 0 C1.57 0, 1.14 0, 0 0 M1.99 0 C1.25 0, 0.51 0, 0 0 M0 0 C0 0, 0 0, 0 0 M0 0 C0 0, 0 0, 0 0 M0 0 C0 0, 0 0, 0 0 M0 0 C0 0, 0 0, 0 0" stroke="#000000" stroke-width="1" fill="none"/></g></g><mask/><g stroke-linecap="round"><g transform="translate(36.72739625010172 25.17052771028125) rotate(0 39.921528507649526 40.185463402701316)"><path d="M0 0 C2.79 9.17, 3.44 41.6, 16.75 55 C30.05 68.39, 69.33 76.14, 79.84 80.37 M0 0 C2.79 9.17, 3.44 41.6, 16.75 55 C30.05 68.39, 69.33 76.14, 79.84 80.37" stroke="#e03131" stroke-width="2" fill="none"/></g><g transform="translate(36.72739625010172 25.17052771028125) rotate(0 39.921528507649526 40.185463402701316)"><path d="M79.84 80.37 L64.99 82.46 L68.7 70.33 L79.84 80.37" stroke="none" stroke-width="0" fill="#e03131" fill-rule="evenodd"/><path d="M79.84 80.37 C76.73 80.81, 73.62 81.25, 64.99 82.46 M79.84 80.37 C75.71 80.95, 71.57 81.53, 64.99 82.46 M64.99 82.46 C66.11 78.78, 67.24 75.1, 68.7 70.33 M64.99 82.46 C66.34 78.04, 67.69 73.62, 68.7 70.33 M68.7 70.33 C72.21 73.5, 75.72 76.66, 79.84 80.37 M68.7 70.33 C70.93 72.35, 73.16 74.36, 79.84 80.37 M79.84 80.37 C79.84 80.37, 79.84 80.37, 79.84 80.37 M79.84 80.37 C79.84 80.37, 79.84 80.37, 79.84 80.37" stroke="#e03131" stroke-width="2" fill="none"/></g></g><mask/><g stroke-linecap="round"><g transform="translate(36.62841625941735 25.302503967887105) rotate(0 37.351696599579356 0)"><path d="M0 0 C12.45 0, 62.25 0, 74.7 0 M0 0 C12.45 0, 62.25 0, 74.7 0" stroke="#e03131" stroke-width="2" fill="none"/></g><g transform="translate(36.62841625941735 25.302503967887105) rotate(0 37.351696599579356 0)"><path d="M74.7 0 L61.11 6.34 L61.11 -6.34 L74.7 0" stroke="none" stroke-width="0" fill="#e03131" fill-rule="evenodd"/><path d="M74.7 0 C70.68 1.87, 66.66 3.75, 61.11 6.34 M74.7 0 C71.51 1.49, 68.31 2.98, 61.11 6.34 M61.11 6.34 C61.11 2.99, 61.11 -0.35, 61.11 -6.34 M61.11 6.34 C61.11 2.41, 61.11 -1.51, 61.11 -6.34 M61.11 -6.34 C64.56 -4.73, 68.01 -3.12, 74.7 0 M61.11 -6.34 C65.7 -4.2, 70.29 -2.06, 74.7 0 M74.7 0 C74.7 0, 74.7 0, 74.7 0 M74.7 0 C74.7 0, 74.7 0, 74.7 0" stroke="#e03131" stroke-width="2" fill="none"/></g></g><mask/><g stroke-linecap="round"><g transform="translate(36.749038283992604 119.27435072387061) rotate(0 39.84340272477968 0)"><path d="M0 0 C13.28 0, 66.41 0, 79.69 0 M0 0 C13.28 0, 66.41 0, 79.69 0" stroke="#2f9e44" stroke-width="2" fill="none"/></g><g transform="translate(36.749038283992604 119.27435072387061) rotate(0 39.84340272477968 0)"><path d="M79.69 0 L66.09 6.34 L66.09 -6.34 L79.69 0" stroke="none" stroke-width="0" fill="#2f9e44" fill-rule="evenodd"/><path d="M79.69 0 C74.52 2.41, 69.35 4.82, 66.09 6.34 M79.69 0 C75.71 1.85, 71.74 3.7, 66.09 6.34 M66.09 6.34 C66.09 1.37, 66.09 -3.6, 66.09 -6.34 M66.09 6.34 C66.09 2.6, 66.09 -1.13, 66.09 -6.34 M66.09 -6.34 C69.24 -4.87, 72.38 -3.41, 79.69 0 M66.09 -6.34 C68.83 -5.06, 71.56 -3.79, 79.69 0 M79.69 0 C79.69 0, 79.69 0, 79.69 0 M79.69 0 C79.69 0, 79.69 0, 79.69 0" stroke="#2f9e44" stroke-width="2" fill="none"/></g></g><mask/><g stroke-linecap="round" transform="translate(49.86958737063355 75.89388146329043) rotate(0 1.6705489225456347 1.756220192948497)"><path d="M3.34 1.76 C3.34 1.86, 3.33 1.96, 3.32 2.06 C3.3 2.16, 3.27 2.26, 3.24 2.36 C3.21 2.45, 3.17 2.55, 3.12 2.63 C3.07 2.72, 3.01 2.81, 2.95 2.89 C2.89 2.96, 2.82 3.04, 2.74 3.1 C2.67 3.17, 2.59 3.23, 2.51 3.28 C2.42 3.33, 2.33 3.37, 2.24 3.41 C2.15 3.44, 2.06 3.47, 1.96 3.49 C1.87 3.5, 1.77 3.51, 1.67 3.51 C1.57 3.51, 1.48 3.5, 1.38 3.49 C1.29 3.47, 1.19 3.44, 1.1 3.41 C1.01 3.37, 0.92 3.33, 0.84 3.28 C0.75 3.23, 0.67 3.17, 0.6 3.1 C0.52 3.04, 0.45 2.96, 0.39 2.89 C0.33 2.81, 0.27 2.72, 0.22 2.63 C0.18 2.55, 0.13 2.45, 0.1 2.36 C0.07 2.26, 0.04 2.16, 0.03 2.06 C0.01 1.96, 0 1.86, 0 1.76 C0 1.65, 0.01 1.55, 0.03 1.45 C0.04 1.35, 0.07 1.25, 0.1 1.16 C0.13 1.06, 0.18 0.97, 0.22 0.88 C0.27 0.79, 0.33 0.71, 0.39 0.63 C0.45 0.55, 0.52 0.48, 0.6 0.41 C0.67 0.35, 0.75 0.29, 0.84 0.24 C0.92 0.18, 1.01 0.14, 1.1 0.11 C1.19 0.07, 1.29 0.04, 1.38 0.03 C1.48 0.01, 1.57 0, 1.67 0 C1.77 0, 1.87 0.01, 1.96 0.03 C2.06 0.04, 2.15 0.07, 2.24 0.11 C2.33 0.14, 2.42 0.18, 2.51 0.24 C2.59 0.29, 2.67 0.35, 2.74 0.41 C2.82 0.48, 2.89 0.55, 2.95 0.63 C3.01 0.71, 3.07 0.79, 3.12 0.88 C3.17 0.97, 3.21 1.06, 3.24 1.16 C3.27 1.25, 3.3 1.35, 3.32 1.45 C3.33 1.55, 3.34 1.71, 3.34 1.76 C3.35 1.81, 3.35 1.71, 3.34 1.76" stroke="none" stroke-width="0" fill="#FFFFFF"/><path d="M3.34 1.76 C3.34 1.86, 3.33 1.96, 3.32 2.06 C3.3 2.16, 3.27 2.26, 3.24 2.36 C3.21 2.45, 3.17 2.55, 3.12 2.63 C3.07 2.72, 3.01 2.81, 2.95 2.89 C2.89 2.96, 2.82 3.04, 2.74 3.1 C2.67 3.17, 2.59 3.23, 2.51 3.28 C2.42 3.33, 2.33 3.37, 2.24 3.41 C2.15 3.44, 2.06 3.47, 1.96 3.49 C1.87 3.5, 1.77 3.51, 1.67 3.51 C1.57 3.51, 1.48 3.5, 1.38 3.49 C1.29 3.47, 1.19 3.44, 1.1 3.41 C1.01 3.37, 0.92 3.33, 0.84 3.28 C0.75 3.23, 0.67 3.17, 0.6 3.1 C0.52 3.04, 0.45 2.96, 0.39 2.89 C0.33 2.81, 0.27 2.72, 0.22 2.63 C0.18 2.55, 0.13 2.45, 0.1 2.36 C0.07 2.26, 0.04 2.16, 0.03 2.06 C0.01 1.96, 0 1.86, 0 1.76 C0 1.65, 0.01 1.55, 0.03 1.45 C0.04 1.35, 0.07 1.25, 0.1 1.16 C0.13 1.06, 0.18 0.97, 0.22 0.88 C0.27 0.79, 0.33 0.71, 0.39 0.63 C0.45 0.55, 0.52 0.48, 0.6 0.41 C0.67 0.35, 0.75 0.29, 0.84 0.24 C0.92 0.18, 1.01 0.14, 1.1 0.11 C1.19 0.07, 1.29 0.04, 1.38 0.03 C1.48 0.01, 1.57 0, 1.67 0 C1.77 0, 1.87 0.01, 1.96 0.03 C2.06 0.04, 2.15 0.07, 2.24 0.11 C2.33 0.14, 2.42 0.18, 2.51 0.24 C2.59 0.29, 2.67 0.35, 2.74 0.41 C2.82 0.48, 2.89 0.55, 2.95 0.63 C3.01 0.71, 3.07 0.79, 3.12 0.88 C3.17 0.97, 3.21 1.06, 3.24 1.16 C3.27 1.25, 3.3 1.35, 3.32 1.45 C3.33 1.55, 3.34 1.71, 3.34 1.76 C3.35 1.81, 3.35 1.71, 3.34 1.76" stroke="#ffffff" stroke-width="2" fill="none"/></g><g stroke-linecap="round"><g transform="translate(36.71266044610138 119.23797288597927) rotate(0 36.82181870965405 -37.93943176757928)"><path d="M0 0 C3.85 -9.06, 10.85 -41.68, 23.12 -54.33 C35.39 -66.98, 65.22 -72.29, 73.64 -75.88 M0 0 C3.85 -9.06, 10.85 -41.68, 23.12 -54.33 C35.39 -66.98, 65.22 -72.29, 73.64 -75.88" stroke="#2f9e44" stroke-width="2" fill="none"/></g><g transform="translate(36.71266044610138 119.23797288597927) rotate(0 36.82181870965405 -37.93943176757928)"><path d="M73.64 -75.88 L62.56 -65.77 L58.78 -77.87 L73.64 -75.88" stroke="none" stroke-width="0" fill="#2f9e44" fill-rule="evenodd"/><path d="M73.64 -75.88 C70.54 -73.05, 67.43 -70.22, 62.56 -65.77 M73.64 -75.88 C71.37 -73.8, 69.09 -71.73, 62.56 -65.77 M62.56 -65.77 C61.64 -68.72, 60.72 -71.66, 58.78 -77.87 M62.56 -65.77 C61.3 -69.79, 60.05 -73.81, 58.78 -77.87 M58.78 -77.87 C62.32 -77.4, 65.86 -76.92, 73.64 -75.88 M58.78 -77.87 C62 -77.44, 65.23 -77.01, 73.64 -75.88 M73.64 -75.88 C73.64 -75.88, 73.64 -75.88, 73.64 -75.88 M73.64 -75.88 C73.64 -75.88, 73.64 -75.88, 73.64 -75.88" stroke="#2f9e44" stroke-width="2" fill="none"/></g></g><mask/><g stroke-linecap="round"><g transform="translate(116.08184766797058 14.411459987252101) rotate(0 23.879804191764578 23.879801866964257)" fill-rule="evenodd"><path d="M0 0 L0 0 L3.98 0 L7.58 0 L10.8 0 L13.64 0 L16.11 0 L18.19 0 L19.9 0 L21.23 0 L22.32 0 L23.14 0 L24.13 0 L24.5 0 L24.54 0 L29.44 0.48 L33.91 1.87 L37.86 4.07 L41.25 6.98 L44 10.51 L46.04 14.56 L47.32 19.05 L47.76 23.88 L47.29 28.71 L45.94 33.2 L43.79 37.25 L40.92 40.78 L37.41 43.69 L33.35 45.89 L28.81 47.28 L23.88 47.76 L0 47.76 L0 0 L0 0" stroke="none" stroke-width="0" fill="#FFFFFF" fill-rule="evenodd"/><path d="M0 0 C0 0, 0 0, 0 0 M0 0 C0 0, 0 0, 0 0 M0 0 C1.07 0, 2.14 0, 3.98 0 M0 0 C1.53 0, 3.06 0, 3.98 0 M3.98 0 C5.37 0, 6.77 0, 7.58 0 M3.98 0 C5.17 0, 6.36 0, 7.58 0 M7.58 0 C8.85 0, 10.12 0, 10.8 0 M7.58 0 C8.7 0, 9.81 0, 10.8 0 M10.8 0 C11.37 0, 11.94 0, 13.64 0 M10.8 0 C11.4 0, 12.01 0, 13.64 0 M13.64 0 C14.49 0, 15.34 0, 16.11 0 M13.64 0 C14.52 0, 15.39 0, 16.11 0 M16.11 0 C16.67 0, 17.22 0, 18.19 0 M16.11 0 C16.77 0, 17.44 0, 18.19 0 M18.19 0 C18.69 0, 19.18 0, 19.9 0 M18.19 0 C18.79 0, 19.38 0, 19.9 0 M19.9 0 C20.29 0, 20.68 0, 21.23 0 M19.9 0 C20.22 0, 20.55 0, 21.23 0 M21.23 0 C21.55 0, 21.87 0, 22.32 0 M21.23 0 C21.61 0, 21.98 0, 22.32 0 M22.32 0 C22.6 0, 22.87 0, 23.14 0 M22.32 0 C22.49 0, 22.65 0, 23.14 0 M23.14 0 C23.37 0, 23.6 0, 24.13 0 M23.14 0 C23.48 0, 23.81 0, 24.13 0 M24.13 0 C24.24 0, 24.35 0, 24.5 0 M24.13 0 C24.25 0, 24.38 0, 24.5 0 M24.5 0 C24.51 0, 24.52 0, 24.54 0 M24.5 0 C24.52 0, 24.53 0, 24.54 0 M24.54 0 C25.71 0.12, 26.88 0.23, 29.44 0.48 M24.54 0 C26.47 0.19, 28.41 0.38, 29.44 0.48 M29.44 0.48 C31.15 1.01, 32.86 1.55, 33.91 1.87 M29.44 0.48 C30.89 0.93, 32.34 1.38, 33.91 1.87 M33.91 1.87 C34.99 2.47, 36.07 3.07, 37.86 4.07 M33.91 1.87 C35.01 2.48, 36.1 3.09, 37.86 4.07 M37.86 4.07 C38.69 4.77, 39.51 5.48, 41.25 6.98 M37.86 4.07 C38.77 4.84, 39.67 5.62, 41.25 6.98 M41.25 6.98 C41.97 7.91, 42.7 8.84, 44 10.51 M41.25 6.98 C42.05 8, 42.84 9.02, 44 10.51 M44 10.51 C44.67 11.83, 45.34 13.16, 46.04 14.56 M44 10.51 C44.6 11.71, 45.21 12.91, 46.04 14.56 M46.04 14.56 C46.45 16.01, 46.86 17.45, 47.32 19.05 M46.04 14.56 C46.38 15.75, 46.72 16.93, 47.32 19.05 M47.32 19.05 C47.41 20.07, 47.51 21.09, 47.76 23.88 M47.32 19.05 C47.48 20.83, 47.64 22.61, 47.76 23.88 M47.76 23.88 C47.61 25.39, 47.47 26.9, 47.29 28.71 M47.76 23.88 C47.64 25.11, 47.52 26.35, 47.29 28.71 M47.29 28.71 C46.92 29.94, 46.55 31.18, 45.94 33.2 M47.29 28.71 C47 29.67, 46.71 30.62, 45.94 33.2 M45.94 33.2 C45.18 34.64, 44.41 36.08, 43.79 37.25 M45.94 33.2 C45.41 34.19, 44.89 35.18, 43.79 37.25 M43.79 37.25 C42.64 38.66, 41.5 40.07, 40.92 40.78 M43.79 37.25 C43.11 38.09, 42.44 38.92, 40.92 40.78 M40.92 40.78 C39.8 41.71, 38.69 42.63, 37.41 43.69 M40.92 40.78 C40.1 41.46, 39.28 42.14, 37.41 43.69 M37.41 43.69 C36.33 44.28, 35.26 44.86, 33.35 45.89 M37.41 43.69 C36.55 44.16, 35.69 44.62, 33.35 45.89 M33.35 45.89 C31.9 46.33, 30.46 46.77, 28.81 47.28 M33.35 45.89 C31.77 46.37, 30.19 46.86, 28.81 47.28 M28.81 47.28 C27.55 47.4, 26.29 47.52, 23.88 47.76 M28.81 47.28 C26.87 47.47, 24.94 47.66, 23.88 47.76 M23.88 47.76 C18.36 47.76, 12.85 47.76, 0 47.76 M23.88 47.76 C15.77 47.76, 7.66 47.76, 0 47.76 M0 47.76 C0 30.74, 0 13.72, 0 0 M0 47.76 C0 38.13, 0 28.49, 0 0 M0 0 C0 0, 0 0, 0 0 M0 0 C0 0, 0 0, 0 0 M0 0 C0 0, 0 0, 0 0 M0 0 C0 0, 0 0, 0 0" stroke="#000000" stroke-width="1" fill="none"/></g></g><mask/><g transform="translate(128.58533526035217 33.898530444395874) rotate(0 11.928993225097656 6.502729939670672)"><text x="0" y="10.404588784245487" font-family="Helvetica, Segoe UI Emoji" font-size="11.30909554725335px" fill="#1971c2" text-anchor="start" style="white-space: pre;" direction="ltr" dominant-baseline="alphabetic">AND</text></g><g stroke-linecap="round"><g transform="translate(117.0188981329544 131.7725712480318) rotate(0 -0.7208039657371046 -21.195537586472962)" fill-rule="evenodd"><path d="M0 0 L0 0 L-0.69 1.11 L-1.28 1.98 L-2.15 3.11 L-2.65 3.62 L-2.81 3.74 L-7.36 3.74 L-4.87 0.7 L-4.87 0.7 L-4.79 0.6 L-4.57 0.3 L-3.77 -0.87 L-2.64 -2.75 L-1.34 -5.31 L-0.05 -8.48 L1.08 -12.22 L1.88 -16.47 L2.18 -21.2 L1.88 -25.92 L1.08 -30.17 L-0.05 -33.91 L-1.34 -37.08 L-2.64 -39.64 L-3.77 -41.52 L-4.57 -42.69 L-4.79 -42.99 L-4.87 -43.09 L-7.36 -46.13 L-2.81 -46.13 L-2.81 -46.13 L-1.43 -44.45 L-0.04 -42.39 L0.89 -40.78 L1.88 -38.85 L2.87 -36.61 L3.82 -34.07 L4.65 -31.25 L5.32 -28.16 L5.76 -24.8 L5.92 -21.2 L5.76 -17.6 L5.32 -14.25 L4.66 -11.16 L3.83 -8.34 L2.89 -5.8 L1.9 -3.56 L0.92 -1.62 L0 0 L0 0" stroke="none" stroke-width="0" fill="black" fill-rule="evenodd"/><path d="M0 0 C0 0, 0 0, 0 0 M0 0 C0 0, 0 0, 0 0 M0 0 C-0.22 0.35, -0.44 0.7, -0.69 1.11 M0 0 C-0.14 0.22, -0.28 0.44, -0.69 1.11 M-0.69 1.11 C-0.9 1.41, -1.1 1.71, -1.28 1.98 M-0.69 1.11 C-0.81 1.28, -0.93 1.46, -1.28 1.98 M-1.28 1.98 C-1.6 2.39, -1.92 2.81, -2.15 3.11 M-1.28 1.98 C-1.46 2.21, -1.64 2.44, -2.15 3.11 M-2.15 3.11 C-2.29 3.25, -2.44 3.4, -2.65 3.62 M-2.15 3.11 C-2.31 3.27, -2.46 3.43, -2.65 3.62 M-2.65 3.62 C-2.7 3.66, -2.75 3.7, -2.81 3.74 M-2.65 3.62 C-2.69 3.66, -2.74 3.69, -2.81 3.74 M-2.81 3.74 C-4.21 3.74, -5.61 3.74, -7.36 3.74 M-2.81 3.74 C-3.97 3.74, -5.13 3.74, -7.36 3.74 M-7.36 3.74 C-6.79 3.04, -6.21 2.33, -4.87 0.7 M-7.36 3.74 C-6.44 2.62, -5.52 1.49, -4.87 0.7 M-4.87 0.7 C-4.87 0.7, -4.87 0.7, -4.87 0.7 M-4.87 0.7 C-4.87 0.7, -4.87 0.7, -4.87 0.7 M-4.87 0.7 C-4.84 0.67, -4.82 0.63, -4.79 0.6 M-4.87 0.7 C-4.85 0.67, -4.83 0.65, -4.79 0.6 M-4.79 0.6 C-4.74 0.54, -4.7 0.48, -4.57 0.3 M-4.79 0.6 C-4.73 0.52, -4.67 0.44, -4.57 0.3 M-4.57 0.3 C-4.39 0.05, -4.22 -0.21, -3.77 -0.87 M-4.57 0.3 C-4.31 -0.07, -4.05 -0.45, -3.77 -0.87 M-3.77 -0.87 C-3.52 -1.29, -3.27 -1.71, -2.64 -2.75 M-3.77 -0.87 C-3.34 -1.58, -2.91 -2.3, -2.64 -2.75 M-2.64 -2.75 C-2.37 -3.29, -2.1 -3.83, -1.34 -5.31 M-2.64 -2.75 C-2.34 -3.35, -2.03 -3.95, -1.34 -5.31 M-1.34 -5.31 C-0.84 -6.55, -0.33 -7.79, -0.05 -8.48 M-1.34 -5.31 C-0.85 -6.52, -0.36 -7.72, -0.05 -8.48 M-0.05 -8.48 C0.38 -9.89, 0.8 -11.3, 1.08 -12.22 M-0.05 -8.48 C0.38 -9.91, 0.81 -11.34, 1.08 -12.22 M1.08 -12.22 C1.29 -13.32, 1.49 -14.42, 1.88 -16.47 M1.08 -12.22 C1.36 -13.71, 1.64 -15.2, 1.88 -16.47 M1.88 -16.47 C1.99 -18.27, 2.11 -20.08, 2.18 -21.2 M1.88 -16.47 C1.97 -17.96, 2.07 -19.44, 2.18 -21.2 M2.18 -21.2 C2.11 -22.26, 2.05 -23.32, 1.88 -25.92 M2.18 -21.2 C2.09 -22.56, 2.01 -23.92, 1.88 -25.92 M1.88 -25.92 C1.57 -27.55, 1.27 -29.18, 1.08 -30.17 M1.88 -25.92 C1.68 -26.99, 1.48 -28.06, 1.08 -30.17 M1.08 -30.17 C0.81 -31.07, 0.54 -31.96, -0.05 -33.91 M1.08 -30.17 C0.84 -30.97, 0.6 -31.77, -0.05 -33.91 M-0.05 -33.91 C-0.5 -35.01, -0.95 -36.11, -1.34 -37.08 M-0.05 -33.91 C-0.56 -35.15, -1.06 -36.39, -1.34 -37.08 M-1.34 -37.08 C-1.74 -37.86, -2.13 -38.63, -2.64 -39.64 M-1.34 -37.08 C-1.7 -37.78, -2.05 -38.48, -2.64 -39.64 M-2.64 -39.64 C-3.02 -40.27, -3.39 -40.9, -3.77 -41.52 M-2.64 -39.64 C-2.87 -40.02, -3.09 -40.4, -3.77 -41.52 M-3.77 -41.52 C-4.06 -41.95, -4.36 -42.38, -4.57 -42.69 M-3.77 -41.52 C-3.96 -41.8, -4.14 -42.07, -4.57 -42.69 M-4.57 -42.69 C-4.62 -42.76, -4.66 -42.82, -4.79 -42.99 M-4.57 -42.69 C-4.64 -42.79, -4.71 -42.89, -4.79 -42.99 M-4.79 -42.99 C-4.81 -43.02, -4.83 -43.04, -4.87 -43.09 M-4.79 -42.99 C-4.82 -43.03, -4.85 -43.07, -4.87 -43.09 M-4.87 -43.09 C-5.75 -44.17, -6.64 -45.25, -7.36 -46.13 M-4.87 -43.09 C-5.57 -43.95, -6.28 -44.8, -7.36 -46.13 M-7.36 -46.13 C-6.1 -46.13, -4.84 -46.13, -2.81 -46.13 M-7.36 -46.13 C-6.19 -46.13, -5.02 -46.13, -2.81 -46.13 M-2.81 -46.13 C-2.81 -46.13, -2.81 -46.13, -2.81 -46.13 M-2.81 -46.13 C-2.81 -46.13, -2.81 -46.13, -2.81 -46.13 M-2.81 -46.13 C-2.42 -45.66, -2.03 -45.18, -1.43 -44.45 M-2.81 -46.13 C-2.43 -45.68, -2.06 -45.22, -1.43 -44.45 M-1.43 -44.45 C-0.88 -43.64, -0.34 -42.84, -0.04 -42.39 M-1.43 -44.45 C-0.99 -43.8, -0.56 -43.16, -0.04 -42.39 M-0.04 -42.39 C0.16 -42.04, 0.36 -41.69, 0.89 -40.78 M-0.04 -42.39 C0.24 -41.91, 0.51 -41.44, 0.89 -40.78 M0.89 -40.78 C1.12 -40.33, 1.35 -39.88, 1.88 -38.85 M0.89 -40.78 C1.18 -40.22, 1.46 -39.65, 1.88 -38.85 M1.88 -38.85 C2.17 -38.19, 2.46 -37.53, 2.87 -36.61 M1.88 -38.85 C2.19 -38.14, 2.51 -37.43, 2.87 -36.61 M2.87 -36.61 C3.08 -36.05, 3.29 -35.49, 3.82 -34.07 M2.87 -36.61 C3.15 -35.85, 3.44 -35.1, 3.82 -34.07 M3.82 -34.07 C4.05 -33.3, 4.27 -32.53, 4.65 -31.25 M3.82 -34.07 C4.1 -33.1, 4.39 -32.13, 4.65 -31.25 M4.65 -31.25 C4.87 -30.23, 5.09 -29.21, 5.32 -28.16 M4.65 -31.25 C4.86 -30.27, 5.07 -29.29, 5.32 -28.16 M5.32 -28.16 C5.48 -26.92, 5.65 -25.68, 5.76 -24.8 M5.32 -28.16 C5.46 -27.12, 5.59 -26.09, 5.76 -24.8 M5.76 -24.8 C5.8 -23.94, 5.84 -23.08, 5.92 -21.2 M5.76 -24.8 C5.79 -24.06, 5.83 -23.32, 5.92 -21.2 M5.92 -21.2 C5.87 -19.95, 5.81 -18.7, 5.76 -17.6 M5.92 -21.2 C5.86 -19.87, 5.8 -18.55, 5.76 -17.6 M5.76 -17.6 C5.66 -16.84, 5.56 -16.08, 5.32 -14.25 M5.76 -17.6 C5.59 -16.28, 5.42 -14.96, 5.32 -14.25 M5.32 -14.25 C5.17 -13.56, 5.02 -12.87, 4.66 -11.16 M5.32 -14.25 C5.19 -13.63, 5.06 -13.01, 4.66 -11.16 M4.66 -11.16 C4.43 -10.39, 4.21 -9.63, 3.83 -8.34 M4.66 -11.16 C4.34 -10.07, 4.02 -8.98, 3.83 -8.34 M3.83 -8.34 C3.48 -7.41, 3.14 -6.47, 2.89 -5.8 M3.83 -8.34 C3.54 -7.55, 3.25 -6.77, 2.89 -5.8 M2.89 -5.8 C2.54 -5, 2.18 -4.2, 1.9 -3.56 M2.89 -5.8 C2.63 -5.22, 2.38 -4.64, 1.9 -3.56 M1.9 -3.56 C1.7 -3.17, 1.51 -2.78, 0.92 -1.62 M1.9 -3.56 C1.58 -2.94, 1.27 -2.31, 0.92 -1.62 M0.92 -1.62 C0.58 -1.03, 0.25 -0.44, 0 0 M0.92 -1.62 C0.59 -1.03, 0.25 -0.45, 0 0 M0 0 C0 0, 0 0, 0 0 M0 0 C0 0, 0 0, 0 0 M0 0 C0 0, 0 0, 0 0 M0 0 C0 0, 0 0, 0 0" stroke="#000000" stroke-width="0.5" fill="none"/></g></g><mask/><g stroke-linecap="round"><g transform="translate(116.82408625032281 85.6411079285582) rotate(0 30.21532299616888 24.93592097685116)" fill-rule="evenodd"><path d="M0 0 L2.49 3.04 L2.49 3.04 L2.57 3.14 L2.8 3.44 L3.6 4.61 L4.72 6.5 L6.02 9.05 L7.31 12.22 L8.44 15.96 L9.24 20.21 L9.55 24.94 L9.24 29.66 L8.44 33.91 L7.31 37.65 L6.02 40.82 L4.72 43.38 L3.6 45.26 L2.8 46.43 L2.57 46.73 L2.49 46.83 L0 49.87 L3.94 49.87 L21.39 49.87 L21.39 49.87 L22.68 49.87 L24.27 49.83 L26.13 49.72 L28.23 49.51 L30.54 49.15 L33.02 48.62 L35.65 47.87 L38.38 46.87 L41.19 45.58 L44.04 43.98 L46.91 42.02 L49.77 39.67 L52.58 36.91 L55.32 33.71 L57.94 30.02 L60.43 25.83 L58.79 24.94 L60.43 24.04 L60.43 24.04 L57.94 19.85 L55.31 16.18 L52.57 12.99 L49.75 10.26 L46.88 7.93 L44 5.99 L41.13 4.39 L38.32 3.11 L35.58 2.1 L32.96 1.34 L30.49 0.79 L28.19 0.41 L26.09 0.18 L24.24 0.06 L22.66 0.01 L21.39 0 L3.94 0 L0 0 L0 0" stroke="none" stroke-width="0" fill="black" fill-rule="evenodd"/><path d="M0 0 C0.66 0.8, 1.32 1.6, 2.49 3.04 M0 0 C0.77 0.94, 1.54 1.88, 2.49 3.04 M2.49 3.04 C2.49 3.04, 2.49 3.04, 2.49 3.04 M2.49 3.04 C2.49 3.04, 2.49 3.04, 2.49 3.04 M2.49 3.04 C2.51 3.07, 2.54 3.09, 2.57 3.14 M2.49 3.04 C2.51 3.06, 2.53 3.09, 2.57 3.14 M2.57 3.14 C2.65 3.25, 2.73 3.35, 2.8 3.44 M2.57 3.14 C2.65 3.25, 2.74 3.36, 2.8 3.44 M2.8 3.44 C2.98 3.71, 3.16 3.97, 3.6 4.61 M2.8 3.44 C3.07 3.85, 3.35 4.25, 3.6 4.61 M3.6 4.61 C3.92 5.16, 4.25 5.7, 4.72 6.5 M3.6 4.61 C3.94 5.18, 4.28 5.75, 4.72 6.5 M4.72 6.5 C5.05 7.13, 5.37 7.76, 6.02 9.05 M4.72 6.5 C5.02 7.08, 5.31 7.66, 6.02 9.05 M6.02 9.05 C6.51 10.26, 7.01 11.47, 7.31 12.22 M6.02 9.05 C6.37 9.91, 6.72 10.77, 7.31 12.22 M7.31 12.22 C7.67 13.41, 8.04 14.61, 8.44 15.96 M7.31 12.22 C7.66 13.37, 8.01 14.51, 8.44 15.96 M8.44 15.96 C8.7 17.31, 8.95 18.66, 9.24 20.21 M8.44 15.96 C8.61 16.83, 8.77 17.69, 9.24 20.21 M9.24 20.21 C9.32 21.34, 9.39 22.48, 9.55 24.94 M9.24 20.21 C9.36 22.09, 9.48 23.96, 9.55 24.94 M9.55 24.94 C9.48 26.04, 9.4 27.14, 9.24 29.66 M9.55 24.94 C9.44 26.65, 9.33 28.35, 9.24 29.66 M9.24 29.66 C9 30.97, 8.75 32.28, 8.44 33.91 M9.24 29.66 C8.94 31.29, 8.63 32.92, 8.44 33.91 M8.44 33.91 C8.2 34.72, 7.96 35.53, 7.31 37.65 M8.44 33.91 C8.18 34.77, 7.92 35.63, 7.31 37.65 M7.31 37.65 C7.02 38.37, 6.73 39.09, 6.02 40.82 M7.31 37.65 C6.89 38.68, 6.47 39.71, 6.02 40.82 M6.02 40.82 C5.75 41.35, 5.49 41.87, 4.72 43.38 M6.02 40.82 C5.74 41.37, 5.46 41.93, 4.72 43.38 M4.72 43.38 C4.28 44.12, 3.83 44.87, 3.6 45.26 M4.72 43.38 C4.33 44.04, 3.93 44.7, 3.6 45.26 M3.6 45.26 C3.36 45.6, 3.13 45.94, 2.8 46.43 M3.6 45.26 C3.32 45.67, 3.04 46.08, 2.8 46.43 M2.8 46.43 C2.75 46.5, 2.7 46.56, 2.57 46.73 M2.8 46.43 C2.71 46.54, 2.63 46.65, 2.57 46.73 M2.57 46.73 C2.56 46.75, 2.54 46.78, 2.49 46.83 M2.57 46.73 C2.54 46.77, 2.51 46.81, 2.49 46.83 M2.49 46.83 C1.99 47.45, 1.48 48.07, 0 49.87 M2.49 46.83 C1.6 47.93, 0.7 49.02, 0 49.87 M0 49.87 C1.07 49.87, 2.14 49.87, 3.94 49.87 M0 49.87 C1.2 49.87, 2.4 49.87, 3.94 49.87 M3.94 49.87 C8.38 49.87, 12.83 49.87, 21.39 49.87 M3.94 49.87 C8.67 49.87, 13.4 49.87, 21.39 49.87 M21.39 49.87 C21.39 49.87, 21.39 49.87, 21.39 49.87 M21.39 49.87 C21.39 49.87, 21.39 49.87, 21.39 49.87 M21.39 49.87 C21.88 49.87, 22.37 49.87, 22.68 49.87 M21.39 49.87 C21.82 49.87, 22.24 49.87, 22.68 49.87 M22.68 49.87 C23.18 49.86, 23.68 49.84, 24.27 49.83 M22.68 49.87 C23.02 49.86, 23.36 49.85, 24.27 49.83 M24.27 49.83 C25 49.79, 25.74 49.74, 26.13 49.72 M24.27 49.83 C24.9 49.79, 25.52 49.76, 26.13 49.72 M26.13 49.72 C26.86 49.65, 27.58 49.57, 28.23 49.51 M26.13 49.72 C26.92 49.64, 27.71 49.56, 28.23 49.51 M28.23 49.51 C28.7 49.44, 29.17 49.36, 30.54 49.15 M28.23 49.51 C29.07 49.38, 29.91 49.25, 30.54 49.15 M30.54 49.15 C31.53 48.94, 32.51 48.73, 33.02 48.62 M30.54 49.15 C31.45 48.96, 32.35 48.76, 33.02 48.62 M33.02 48.62 C33.87 48.38, 34.72 48.14, 35.65 47.87 M33.02 48.62 C33.69 48.43, 34.35 48.24, 35.65 47.87 M35.65 47.87 C36.26 47.65, 36.87 47.43, 38.38 46.87 M35.65 47.87 C36.67 47.5, 37.7 47.12, 38.38 46.87 M38.38 46.87 C39.41 46.4, 40.44 45.93, 41.19 45.58 M38.38 46.87 C39.3 46.45, 40.22 46.03, 41.19 45.58 M41.19 45.58 C42.12 45.06, 43.05 44.54, 44.04 43.98 M41.19 45.58 C41.84 45.22, 42.49 44.85, 44.04 43.98 M44.04 43.98 C45.05 43.29, 46.07 42.6, 46.91 42.02 M44.04 43.98 C44.85 43.43, 45.66 42.87, 46.91 42.02 M46.91 42.02 C47.65 41.41, 48.4 40.8, 49.77 39.67 M46.91 42.02 C47.66 41.4, 48.41 40.79, 49.77 39.67 M49.77 39.67 C50.89 38.58, 52 37.48, 52.58 36.91 M49.77 39.67 C50.55 38.91, 51.33 38.14, 52.58 36.91 M52.58 36.91 C53.48 35.86, 54.39 34.8, 55.32 33.71 M52.58 36.91 C53.25 36.13, 53.91 35.35, 55.32 33.71 M55.32 33.71 C55.89 32.9, 56.47 32.09, 57.94 30.02 M55.32 33.71 C55.99 32.76, 56.66 31.82, 57.94 30.02 M57.94 30.02 C58.68 28.79, 59.41 27.55, 60.43 25.83 M57.94 30.02 C58.6 28.92, 59.25 27.82, 60.43 25.83 M60.43 25.83 C60.04 25.62, 59.64 25.4, 58.79 24.94 M60.43 25.83 C60.05 25.62, 59.67 25.42, 58.79 24.94 M58.79 24.94 C59.23 24.7, 59.66 24.46, 60.43 24.04 M58.79 24.94 C59.17 24.73, 59.55 24.52, 60.43 24.04 M60.43 24.04 C60.43 24.04, 60.43 24.04, 60.43 24.04 M60.43 24.04 C60.43 24.04, 60.43 24.04, 60.43 24.04 M60.43 24.04 C59.44 22.37, 58.45 20.7, 57.94 19.85 M60.43 24.04 C59.48 22.44, 58.52 20.83, 57.94 19.85 M57.94 19.85 C57.22 18.85, 56.51 17.85, 55.31 16.18 M57.94 19.85 C56.91 18.42, 55.88 16.98, 55.31 16.18 M55.31 16.18 C54.73 15.51, 54.16 14.85, 52.57 12.99 M55.31 16.18 C54.27 14.97, 53.23 13.76, 52.57 12.99 M52.57 12.99 C51.63 12.08, 50.69 11.17, 49.75 10.26 M52.57 12.99 C51.81 12.26, 51.06 11.53, 49.75 10.26 M49.75 10.26 C49 9.65, 48.24 9.04, 46.88 7.93 M49.75 10.26 C49.17 9.79, 48.59 9.32, 46.88 7.93 M46.88 7.93 C46.04 7.36, 45.2 6.8, 44 5.99 M46.88 7.93 C45.94 7.3, 44.99 6.66, 44 5.99 M44 5.99 C43.22 5.56, 42.45 5.12, 41.13 4.39 M44 5.99 C43.26 5.58, 42.52 5.17, 41.13 4.39 M41.13 4.39 C40.07 3.91, 39.01 3.42, 38.32 3.11 M41.13 4.39 C40.43 4.07, 39.73 3.75, 38.32 3.11 M38.32 3.11 C37.77 2.9, 37.21 2.7, 35.58 2.1 M38.32 3.11 C37.57 2.83, 36.82 2.55, 35.58 2.1 M35.58 2.1 C34.74 1.86, 33.9 1.61, 32.96 1.34 M35.58 2.1 C34.56 1.8, 33.55 1.51, 32.96 1.34 M32.96 1.34 C32.03 1.13, 31.1 0.92, 30.49 0.79 M32.96 1.34 C32.45 1.22, 31.94 1.11, 30.49 0.79 M30.49 0.79 C29.9 0.69, 29.32 0.6, 28.19 0.41 M30.49 0.79 C29.86 0.69, 29.24 0.58, 28.19 0.41 M28.19 0.41 C27.43 0.33, 26.67 0.25, 26.09 0.18 M28.19 0.41 C27.5 0.34, 26.81 0.26, 26.09 0.18 M26.09 0.18 C25.71 0.16, 25.32 0.13, 24.24 0.06 M26.09 0.18 C25.54 0.14, 24.99 0.11, 24.24 0.06 M24.24 0.06 C23.8 0.04, 23.36 0.03, 22.66 0.01 M24.24 0.06 C23.7 0.04, 23.16 0.02, 22.66 0.01 M22.66 0.01 C22.38 0.01, 22.1 0, 21.39 0 M22.66 0.01 C22.35 0.01, 22.04 0, 21.39 0 M21.39 0 C16.02 0, 10.65 0, 3.94 0 M21.39 0 C16.64 0, 11.88 0, 3.94 0 M3.94 0 C3.03 0, 2.13 0, 0 0 M3.94 0 C2.53 0, 1.13 0, 0 0 M0 0 C0 0, 0 0, 0 0 M0 0 C0 0, 0 0, 0 0 M0 0 C0 0, 0 0, 0 0 M0 0 C0 0, 0 0, 0 0" stroke="#000000" stroke-width="1" fill="none"/></g></g><mask/><g stroke-linecap="round"><g transform="translate(124.14901303727288 89.38149607508592) rotate(0 24.4683724585352 21.195532830323483)" fill-rule="evenodd"><path d="M0 0 L14.07 0 L14.07 0 L15.29 0 L16.75 0.03 L20.28 0.31 L24.48 1.07 L26.78 1.72 L29.16 2.59 L31.63 3.7 L34.14 5.1 L36.68 6.82 L39.22 8.87 L41.74 11.31 L44.21 14.15 L46.62 17.44 L48.94 21.2 L46.65 24.9 L44.28 28.14 L41.83 30.96 L39.34 33.38 L36.82 35.42 L34.3 37.14 L31.8 38.54 L29.34 39.66 L26.89 40.57 L24.55 41.24 L20.32 42.05 L16.78 42.35 L14.07 42.39 L0.04 42.39 L0.04 42.39 L0.96 40.77 L1.95 38.84 L2.94 36.6 L3.88 34.06 L4.7 31.24 L5.36 28.14 L5.8 24.79 L5.96 21.2 L5.8 17.59 L5.36 14.23 L4.69 11.14 L3.86 8.32 L2.91 5.78 L1.92 3.54 L0.93 1.61 L0 0 L0 0" stroke="none" stroke-width="0" fill="#FFFFFF" fill-rule="evenodd"/><path d="M0 0 C5.51 0, 11.03 0, 14.07 0 M0 0 C4.14 0, 8.29 0, 14.07 0 M14.07 0 C14.07 0, 14.07 0, 14.07 0 M14.07 0 C14.07 0, 14.07 0, 14.07 0 M14.07 0 C14.46 0, 14.85 0, 15.29 0 M14.07 0 C14.36 0, 14.65 0, 15.29 0 M15.29 0 C15.64 0.01, 16 0.02, 16.75 0.03 M15.29 0 C15.65 0.01, 16.01 0.02, 16.75 0.03 M16.75 0.03 C17.5 0.09, 18.26 0.15, 20.28 0.31 M16.75 0.03 C18.04 0.13, 19.33 0.23, 20.28 0.31 M20.28 0.31 C21.36 0.51, 22.44 0.7, 24.48 1.07 M20.28 0.31 C21.89 0.6, 23.49 0.89, 24.48 1.07 M24.48 1.07 C25.15 1.26, 25.82 1.45, 26.78 1.72 M24.48 1.07 C25 1.22, 25.51 1.37, 26.78 1.72 M26.78 1.72 C27.51 1.99, 28.24 2.25, 29.16 2.59 M26.78 1.72 C27.55 2, 28.32 2.28, 29.16 2.59 M29.16 2.59 C29.74 2.85, 30.32 3.11, 31.63 3.7 M29.16 2.59 C29.87 2.91, 30.57 3.22, 31.63 3.7 M31.63 3.7 C32.46 4.17, 33.3 4.64, 34.14 5.1 M31.63 3.7 C32.29 4.08, 32.96 4.45, 34.14 5.1 M34.14 5.1 C34.81 5.56, 35.49 6.02, 36.68 6.82 M34.14 5.1 C34.75 5.51, 35.36 5.92, 36.68 6.82 M36.68 6.82 C37.38 7.39, 38.09 7.96, 39.22 8.87 M36.68 6.82 C37.63 7.59, 38.59 8.36, 39.22 8.87 M39.22 8.87 C39.89 9.53, 40.57 10.18, 41.74 11.31 M39.22 8.87 C39.99 9.62, 40.76 10.37, 41.74 11.31 M41.74 11.31 C42.68 12.4, 43.63 13.48, 44.21 14.15 M41.74 11.31 C42.47 12.16, 43.21 13, 44.21 14.15 M44.21 14.15 C44.87 15.05, 45.53 15.95, 46.62 17.44 M44.21 14.15 C45 15.22, 45.78 16.29, 46.62 17.44 M46.62 17.44 C47.3 18.54, 47.98 19.64, 48.94 21.2 M46.62 17.44 C47.19 18.36, 47.75 19.27, 48.94 21.2 M48.94 21.2 C48.11 22.54, 47.28 23.88, 46.65 24.9 M48.94 21.2 C48.34 22.16, 47.75 23.12, 46.65 24.9 M46.65 24.9 C45.81 26.05, 44.97 27.2, 44.28 28.14 M46.65 24.9 C45.93 25.88, 45.21 26.87, 44.28 28.14 M44.28 28.14 C43.38 29.18, 42.47 30.22, 41.83 30.96 M44.28 28.14 C43.55 28.98, 42.82 29.82, 41.83 30.96 M41.83 30.96 C41.05 31.72, 40.27 32.48, 39.34 33.38 M41.83 30.96 C40.99 31.77, 40.15 32.59, 39.34 33.38 M39.34 33.38 C38.38 34.15, 37.42 34.93, 36.82 35.42 M39.34 33.38 C38.46 34.09, 37.57 34.81, 36.82 35.42 M36.82 35.42 C36.26 35.8, 35.7 36.18, 34.3 37.14 M36.82 35.42 C36.11 35.91, 35.41 36.39, 34.3 37.14 M34.3 37.14 C33.72 37.46, 33.13 37.79, 31.8 38.54 M34.3 37.14 C33.42 37.63, 32.54 38.12, 31.8 38.54 M31.8 38.54 C30.99 38.91, 30.19 39.28, 29.34 39.66 M31.8 38.54 C31.2 38.81, 30.61 39.08, 29.34 39.66 M29.34 39.66 C28.81 39.86, 28.28 40.05, 26.89 40.57 M29.34 39.66 C28.46 39.99, 27.59 40.31, 26.89 40.57 M26.89 40.57 C25.99 40.83, 25.1 41.09, 24.55 41.24 M26.89 40.57 C26.42 40.7, 25.94 40.84, 24.55 41.24 M24.55 41.24 C22.99 41.54, 21.42 41.84, 20.32 42.05 M24.55 41.24 C23.5 41.45, 22.44 41.65, 20.32 42.05 M20.32 42.05 C19.1 42.16, 17.88 42.26, 16.78 42.35 M20.32 42.05 C19.2 42.15, 18.07 42.24, 16.78 42.35 M16.78 42.35 C15.73 42.37, 14.68 42.38, 14.07 42.39 M16.78 42.35 C16.14 42.36, 15.51 42.37, 14.07 42.39 M14.07 42.39 C10.36 42.39, 6.66 42.39, 0.04 42.39 M14.07 42.39 C11.03 42.39, 7.99 42.39, 0.04 42.39 M0.04 42.39 C0.04 42.39, 0.04 42.39, 0.04 42.39 M0.04 42.39 C0.04 42.39, 0.04 42.39, 0.04 42.39 M0.04 42.39 C0.22 42.07, 0.41 41.74, 0.96 40.77 M0.04 42.39 C0.32 41.9, 0.6 41.42, 0.96 40.77 M0.96 40.77 C1.2 40.32, 1.43 39.87, 1.95 38.84 M0.96 40.77 C1.27 40.17, 1.58 39.57, 1.95 38.84 M1.95 38.84 C2.26 38.14, 2.57 37.44, 2.94 36.6 M1.95 38.84 C2.19 38.28, 2.44 37.73, 2.94 36.6 M2.94 36.6 C3.13 36.07, 3.33 35.54, 3.88 34.06 M2.94 36.6 C3.25 35.76, 3.56 34.92, 3.88 34.06 M3.88 34.06 C4.17 33.05, 4.47 32.05, 4.7 31.24 M3.88 34.06 C4.13 33.2, 4.38 32.35, 4.7 31.24 M4.7 31.24 C4.92 30.23, 5.14 29.22, 5.36 28.14 M4.7 31.24 C4.9 30.33, 5.09 29.42, 5.36 28.14 M5.36 28.14 C5.54 26.81, 5.71 25.47, 5.8 24.79 M5.36 28.14 C5.54 26.83, 5.71 25.52, 5.8 24.79 M5.8 24.79 C5.84 23.92, 5.88 23.05, 5.96 21.2 M5.8 24.79 C5.85 23.64, 5.9 22.49, 5.96 21.2 M5.96 21.2 C5.91 20.11, 5.87 19.03, 5.8 17.59 M5.96 21.2 C5.93 20.44, 5.89 19.69, 5.8 17.59 M5.8 17.59 C5.69 16.73, 5.57 15.87, 5.36 14.23 M5.8 17.59 C5.69 16.72, 5.57 15.85, 5.36 14.23 M5.36 14.23 C5.21 13.54, 5.06 12.84, 4.69 11.14 M5.36 14.23 C5.14 13.23, 4.93 12.23, 4.69 11.14 M4.69 11.14 C4.51 10.52, 4.32 9.89, 3.86 8.32 M4.69 11.14 C4.38 10.08, 4.06 9.02, 3.86 8.32 M3.86 8.32 C3.53 7.46, 3.21 6.59, 2.91 5.78 M3.86 8.32 C3.59 7.61, 3.33 6.9, 2.91 5.78 M2.91 5.78 C2.67 5.25, 2.43 4.71, 1.92 3.54 M2.91 5.78 C2.65 5.2, 2.39 4.61, 1.92 3.54 M1.92 3.54 C1.61 2.94, 1.29 2.33, 0.93 1.61 M1.92 3.54 C1.63 2.98, 1.34 2.42, 0.93 1.61 M0.93 1.61 C0.58 1.01, 0.24 0.42, 0 0 M0.93 1.61 C0.61 1.07, 0.3 0.53, 0 0 M0 0 C0 0, 0 0, 0 0 M0 0 C0 0, 0 0, 0 0 M0 0 C0 0, 0 0, 0 0 M0 0 C0 0, 0 0, 0 0" stroke="#000000" stroke-width="1" fill="none"/></g></g><mask/><g stroke-linecap="round"><g transform="translate(175.15824841420465 110.57064183205) rotate(0 0.2597922393059662 0.05196042994890604)"><path d="M0 0 C0.09 0.02, 0.43 0.09, 0.52 0.1 M0 0 C0.09 0.02, 0.43 0.09, 0.52 0.1" stroke="#000000" stroke-width="4" fill="none"/></g></g><mask/><g transform="translate(135.1569569245346 103.44699773295929) rotate(0 13.597862243652344 7.217701720996693)"><text x="0" y="11.548567920093388" font-family="Helvetica, Segoe UI Emoji" font-size="12.552524732168168px" fill="#f08c00" text-anchor="start" style="white-space: pre;" direction="ltr" dominant-baseline="alphabetic">XOR</text></g><g stroke-linecap="round" transform="translate(187.23239051881387 182.46326168068762) rotate(0 1.670548922545649 1.7562201929484968)"><path d="M3.34 1.76 C3.34 1.86, 3.33 1.96, 3.32 2.06 C3.3 2.16, 3.27 2.26, 3.24 2.36 C3.21 2.45, 3.17 2.55, 3.12 2.63 C3.07 2.72, 3.01 2.81, 2.95 2.89 C2.89 2.96, 2.82 3.04, 2.74 3.1 C2.67 3.17, 2.59 3.23, 2.51 3.28 C2.42 3.33, 2.33 3.37, 2.24 3.41 C2.15 3.44, 2.06 3.47, 1.96 3.49 C1.87 3.5, 1.77 3.51, 1.67 3.51 C1.57 3.51, 1.48 3.5, 1.38 3.49 C1.29 3.47, 1.19 3.44, 1.1 3.41 C1.01 3.37, 0.92 3.33, 0.84 3.28 C0.75 3.23, 0.67 3.17, 0.6 3.1 C0.52 3.04, 0.45 2.96, 0.39 2.89 C0.33 2.81, 0.27 2.72, 0.22 2.63 C0.18 2.55, 0.13 2.45, 0.1 2.36 C0.07 2.26, 0.04 2.16, 0.03 2.06 C0.01 1.96, 0 1.86, 0 1.76 C0 1.65, 0.01 1.55, 0.03 1.45 C0.04 1.35, 0.07 1.25, 0.1 1.16 C0.13 1.06, 0.18 0.97, 0.22 0.88 C0.27 0.79, 0.33 0.71, 0.39 0.63 C0.45 0.55, 0.52 0.48, 0.6 0.41 C0.67 0.35, 0.75 0.29, 0.84 0.24 C0.92 0.18, 1.01 0.14, 1.1 0.11 C1.19 0.07, 1.29 0.04, 1.38 0.03 C1.48 0.01, 1.57 0, 1.67 0 C1.77 0, 1.87 0.01, 1.96 0.03 C2.06 0.04, 2.15 0.07, 2.24 0.11 C2.33 0.14, 2.42 0.18, 2.51 0.24 C2.59 0.29, 2.67 0.35, 2.74 0.41 C2.82 0.48, 2.89 0.55, 2.95 0.63 C3.01 0.71, 3.07 0.79, 3.12 0.88 C3.17 0.97, 3.21 1.06, 3.24 1.16 C3.27 1.25, 3.3 1.35, 3.32 1.45 C3.33 1.55, 3.34 1.71, 3.34 1.76 C3.35 1.81, 3.35 1.71, 3.34 1.76" stroke="none" stroke-width="0" fill="#FFFFFF"/><path d="M3.34 1.76 C3.34 1.86, 3.33 1.96, 3.32 2.06 C3.3 2.16, 3.27 2.26, 3.24 2.36 C3.21 2.45, 3.17 2.55, 3.12 2.63 C3.07 2.72, 3.01 2.81, 2.95 2.89 C2.89 2.96, 2.82 3.04, 2.74 3.1 C2.67 3.17, 2.59 3.23, 2.51 3.28 C2.42 3.33, 2.33 3.37, 2.24 3.41 C2.15 3.44, 2.06 3.47, 1.96 3.49 C1.87 3.5, 1.77 3.51, 1.67 3.51 C1.57 3.51, 1.48 3.5, 1.38 3.49 C1.29 3.47, 1.19 3.44, 1.1 3.41 C1.01 3.37, 0.92 3.33, 0.84 3.28 C0.75 3.23, 0.67 3.17, 0.6 3.1 C0.52 3.04, 0.45 2.96, 0.39 2.89 C0.33 2.81, 0.27 2.72, 0.22 2.63 C0.18 2.55, 0.13 2.45, 0.1 2.36 C0.07 2.26, 0.04 2.16, 0.03 2.06 C0.01 1.96, 0 1.86, 0 1.76 C0 1.65, 0.01 1.55, 0.03 1.45 C0.04 1.35, 0.07 1.25, 0.1 1.16 C0.13 1.06, 0.18 0.97, 0.22 0.88 C0.27 0.79, 0.33 0.71, 0.39 0.63 C0.45 0.55, 0.52 0.48, 0.6 0.41 C0.67 0.35, 0.75 0.29, 0.84 0.24 C0.92 0.18, 1.01 0.14, 1.1 0.11 C1.19 0.07, 1.29 0.04, 1.38 0.03 C1.48 0.01, 1.57 0, 1.67 0 C1.77 0, 1.87 0.01, 1.96 0.03 C2.06 0.04, 2.15 0.07, 2.24 0.11 C2.33 0.14, 2.42 0.18, 2.51 0.24 C2.59 0.29, 2.67 0.35, 2.74 0.41 C2.82 0.48, 2.89 0.55, 2.95 0.63 C3.01 0.71, 3.07 0.79, 3.12 0.88 C3.17 0.97, 3.21 1.06, 3.24 1.16 C3.27 1.25, 3.3 1.35, 3.32 1.45 C3.33 1.55, 3.34 1.71, 3.34 1.76 C3.35 1.81, 3.35 1.71, 3.34 1.76" stroke="#ffffff" stroke-width="2" fill="none"/></g><g stroke-linecap="round"><g transform="translate(40.880666624900414 201.86045793497175) rotate(0 96.8216196495249 -11.676545702487061)"><path d="M0 0 C32.27 -3.89, 161.37 -19.46, 193.64 -23.35 M0 0 C32.27 -3.89, 161.37 -19.46, 193.64 -23.35" stroke="#6741d9" stroke-width="2" fill="none"/></g><g transform="translate(40.880666624900414 201.86045793497175) rotate(0 96.8216196495249 -11.676545702487061)"><path d="M193.64 -23.35 L180.91 -15.43 L179.39 -28.02 L193.64 -23.35" stroke="none" stroke-width="0" fill="#6741d9" fill-rule="evenodd"/><path d="M193.64 -23.35 C189.03 -20.48, 184.42 -17.62, 180.91 -15.43 M193.64 -23.35 C190 -21.09, 186.36 -18.83, 180.91 -15.43 M180.91 -15.43 C180.44 -19.31, 179.97 -23.19, 179.39 -28.02 M180.91 -15.43 C180.45 -19.22, 179.99 -23.01, 179.39 -28.02 M179.39 -28.02 C184.53 -26.34, 189.67 -24.65, 193.64 -23.35 M179.39 -28.02 C184.49 -26.35, 189.6 -24.68, 193.64 -23.35 M193.64 -23.35 C193.64 -23.35, 193.64 -23.35, 193.64 -23.35 M193.64 -23.35 C193.64 -23.35, 193.64 -23.35, 193.64 -23.35" stroke="#6741d9" stroke-width="2" fill="none"/></g></g><mask/><g stroke-linecap="round"><g transform="translate(291.9947773223589 172.29594555143876) rotate(0 31.19365633188933 -35.202120540923886)"><path d="M0 0 C4.54 -8.59, 16.86 -39.82, 27.26 -51.55 C37.66 -63.29, 56.53 -67.26, 62.39 -70.4 M0 0 C4.54 -8.59, 16.86 -39.82, 27.26 -51.55 C37.66 -63.29, 56.53 -67.26, 62.39 -70.4" stroke="#1971c2" stroke-width="2" fill="none"/></g><g transform="translate(291.9947773223589 172.29594555143876) rotate(0 31.19365633188933 -35.202120540923886)"><path d="M62.39 -70.4 L52.07 -59.51 L47.41 -71.31 L62.39 -70.4" stroke="none" stroke-width="0" fill="#1971c2" fill-rule="evenodd"/><path d="M62.39 -70.4 C59.14 -66.97, 55.88 -63.54, 52.07 -59.51 M62.39 -70.4 C60.32 -68.22, 58.25 -66.04, 52.07 -59.51 M52.07 -59.51 C50.45 -63.63, 48.82 -67.74, 47.41 -71.31 M52.07 -59.51 C51.12 -61.92, 50.17 -64.33, 47.41 -71.31 M47.41 -71.31 C52.96 -70.97, 58.5 -70.64, 62.39 -70.4 M47.41 -71.31 C50.48 -71.12, 53.55 -70.94, 62.39 -70.4 M62.39 -70.4 C62.39 -70.4, 62.39 -70.4, 62.39 -70.4 M62.39 -70.4 C62.39 -70.4, 62.39 -70.4, 62.39 -70.4" stroke="#1971c2" stroke-width="2" fill="none"/></g></g><mask/><g stroke-linecap="round"><g transform="translate(235.07724450867676 146.86310127020766) rotate(0 28.19143199851524 27.85976934296313)" fill-rule="evenodd"><path d="M0 0 L0 1.99 L0 53.73 L0 55.72 L1.99 55.72 L28.52 55.72 L28.52 55.72 L31.42 55.58 L34.23 55.15 L36.92 54.46 L39.5 53.52 L41.94 52.34 L44.24 50.94 L48.34 47.54 L51.71 43.41 L54.24 38.68 L55.16 36.12 L55.83 33.46 L56.24 30.7 L56.38 27.86 L56.24 25.02 L55.83 22.26 L55.16 19.6 L54.24 17.04 L51.71 12.31 L48.34 8.18 L44.24 4.77 L41.94 3.38 L39.5 2.2 L36.92 1.26 L34.23 0.57 L31.42 0.14 L28.52 0 L28.47 0 L28.11 0 L27.12 0 L26.3 0 L25.21 0 L23.8 0 L22.05 0 L19.9 0 L17.33 0 L14.29 0 L10.75 0 L6.66 0 L1.99 0 L0 0 L0 0" stroke="none" stroke-width="0" fill="black" fill-rule="evenodd"/><path d="M0 0 C0 0.51, 0 1.01, 0 1.99 M0 0 C0 0.67, 0 1.34, 0 1.99 M0 1.99 C0 15.73, 0 29.46, 0 53.73 M0 1.99 C0 13.91, 0 25.83, 0 53.73 M0 53.73 C0 54.44, 0 55.16, 0 55.72 M0 53.73 C0 54.45, 0 55.18, 0 55.72 M0 55.72 C0.46 55.72, 0.91 55.72, 1.99 55.72 M0 55.72 C0.69 55.72, 1.39 55.72, 1.99 55.72 M1.99 55.72 C9.68 55.72, 17.37 55.72, 28.52 55.72 M1.99 55.72 C10.04 55.72, 18.09 55.72, 28.52 55.72 M28.52 55.72 C28.52 55.72, 28.52 55.72, 28.52 55.72 M28.52 55.72 C28.52 55.72, 28.52 55.72, 28.52 55.72 M28.52 55.72 C29.63 55.66, 30.74 55.61, 31.42 55.58 M28.52 55.72 C29.31 55.68, 30.09 55.64, 31.42 55.58 M31.42 55.58 C32.32 55.44, 33.21 55.3, 34.23 55.15 M31.42 55.58 C32.28 55.44, 33.14 55.31, 34.23 55.15 M34.23 55.15 C35.08 54.93, 35.94 54.71, 36.92 54.46 M34.23 55.15 C34.78 55.01, 35.32 54.87, 36.92 54.46 M36.92 54.46 C37.54 54.24, 38.16 54.01, 39.5 53.52 M36.92 54.46 C37.95 54.09, 38.97 53.71, 39.5 53.52 M39.5 53.52 C40.07 53.25, 40.64 52.97, 41.94 52.34 M39.5 53.52 C40.38 53.1, 41.27 52.67, 41.94 52.34 M41.94 52.34 C42.65 51.91, 43.36 51.48, 44.24 50.94 M41.94 52.34 C42.82 51.81, 43.7 51.27, 44.24 50.94 M44.24 50.94 C45.12 50.21, 46.01 49.47, 48.34 47.54 M44.24 50.94 C45.18 50.16, 46.13 49.38, 48.34 47.54 M48.34 47.54 C49.1 46.6, 49.86 45.67, 51.71 43.41 M48.34 47.54 C49.43 46.2, 50.52 44.86, 51.71 43.41 M51.71 43.41 C52.23 42.44, 52.75 41.47, 54.24 38.68 M51.71 43.41 C52.25 42.39, 52.8 41.37, 54.24 38.68 M54.24 38.68 C54.6 37.67, 54.96 36.66, 55.16 36.12 M54.24 38.68 C54.56 37.78, 54.88 36.88, 55.16 36.12 M55.16 36.12 C55.35 35.35, 55.55 34.57, 55.83 33.46 M55.16 36.12 C55.39 35.19, 55.63 34.26, 55.83 33.46 M55.83 33.46 C55.92 32.85, 56.01 32.25, 56.24 30.7 M55.83 33.46 C55.98 32.43, 56.14 31.41, 56.24 30.7 M56.24 30.7 C56.27 30.09, 56.3 29.47, 56.38 27.86 M56.24 30.7 C56.3 29.6, 56.35 28.5, 56.38 27.86 M56.38 27.86 C56.35 27.28, 56.33 26.71, 56.24 25.02 M56.38 27.86 C56.33 26.84, 56.28 25.82, 56.24 25.02 M56.24 25.02 C56.13 24.27, 56.02 23.52, 55.83 22.26 M56.24 25.02 C56.12 24.18, 55.99 23.34, 55.83 22.26 M55.83 22.26 C55.66 21.58, 55.49 20.91, 55.16 19.6 M55.83 22.26 C55.65 21.54, 55.46 20.82, 55.16 19.6 M55.16 19.6 C54.97 19.07, 54.78 18.54, 54.24 17.04 M55.16 19.6 C54.97 19.07, 54.78 18.55, 54.24 17.04 M54.24 17.04 C53.27 15.24, 52.31 13.43, 51.71 12.31 M54.24 17.04 C53.4 15.48, 52.57 13.92, 51.71 12.31 M51.71 12.31 C50.65 11.01, 49.59 9.72, 48.34 8.18 M51.71 12.31 C50.99 11.43, 50.27 10.56, 48.34 8.18 M48.34 8.18 C46.72 6.84, 45.11 5.5, 44.24 4.77 M48.34 8.18 C46.96 7.04, 45.58 5.89, 44.24 4.77 M44.24 4.77 C43.44 4.29, 42.65 3.81, 41.94 3.38 M44.24 4.77 C43.37 4.25, 42.51 3.72, 41.94 3.38 M41.94 3.38 C41.44 3.14, 40.95 2.9, 39.5 2.2 M41.94 3.38 C41.06 2.95, 40.17 2.52, 39.5 2.2 M39.5 2.2 C38.48 1.82, 37.45 1.45, 36.92 1.26 M39.5 2.2 C38.56 1.86, 37.62 1.51, 36.92 1.26 M36.92 1.26 C36.05 1.04, 35.18 0.81, 34.23 0.57 M36.92 1.26 C36.24 1.08, 35.56 0.91, 34.23 0.57 M34.23 0.57 C33.6 0.47, 32.98 0.38, 31.42 0.14 M34.23 0.57 C33.17 0.41, 32.12 0.25, 31.42 0.14 M31.42 0.14 C30.36 0.09, 29.29 0.04, 28.52 0 M31.42 0.14 C30.47 0.1, 29.52 0.05, 28.52 0 M28.52 0 C28.51 0, 28.49 0, 28.47 0 M28.52 0 C28.51 0, 28.5 0, 28.47 0 M28.47 0 C28.34 0, 28.22 0, 28.11 0 M28.47 0 C28.37 0, 28.27 0, 28.11 0 M28.11 0 C27.85 0, 27.6 0, 27.12 0 M28.11 0 C27.85 0, 27.59 0, 27.12 0 M27.12 0 C26.8 0, 26.47 0, 26.3 0 M27.12 0 C26.9 0, 26.67 0, 26.3 0 M26.3 0 C25.94 0, 25.58 0, 25.21 0 M26.3 0 C26.03 0, 25.77 0, 25.21 0 M25.21 0 C24.9 0, 24.59 0, 23.8 0 M25.21 0 C24.85 0, 24.49 0, 23.8 0 M23.8 0 C23.28 0, 22.76 0, 22.05 0 M23.8 0 C23.34 0, 22.88 0, 22.05 0 M22.05 0 C21.53 0, 21.01 0, 19.9 0 M22.05 0 C21.55 0, 21.05 0, 19.9 0 M19.9 0 C19.22 0, 18.54 0, 17.33 0 M19.9 0 C19.31 0, 18.72 0, 17.33 0 M17.33 0 C16.47 0, 15.61 0, 14.29 0 M17.33 0 C16.14 0, 14.96 0, 14.29 0 M14.29 0 C12.88 0, 11.47 0, 10.75 0 M14.29 0 C12.94 0, 11.58 0, 10.75 0 M10.75 0 C9.63 0, 8.52 0, 6.66 0 M10.75 0 C9.15 0, 7.55 0, 6.66 0 M6.66 0 C5.68 0, 4.7 0, 1.99 0 M6.66 0 C4.89 0, 3.12 0, 1.99 0 M1.99 0 C1.33 0, 0.67 0, 0 0 M1.99 0 C1.46 0, 0.93 0, 0 0 M0 0 C0 0, 0 0, 0 0 M0 0 C0 0, 0 0, 0 0 M0 0 C0 0, 0 0, 0 0 M0 0 C0 0, 0 0, 0 0" stroke="#000000" stroke-width="1" fill="none"/></g></g><mask/><g stroke-linecap="round"><g transform="translate(239.05721231678996 150.84306841409222) rotate(0 23.879804191764578 23.879801866964257)" fill-rule="evenodd"><path d="M0 0 L0 0 L3.98 0 L7.58 0 L10.8 0 L13.64 0 L16.11 0 L18.19 0 L19.9 0 L21.23 0 L22.32 0 L23.14 0 L24.13 0 L24.5 0 L24.54 0 L29.44 0.48 L33.91 1.87 L37.86 4.07 L41.25 6.98 L44 10.51 L46.04 14.56 L47.32 19.05 L47.76 23.88 L47.29 28.71 L45.94 33.2 L43.79 37.25 L40.92 40.78 L37.41 43.69 L33.35 45.89 L28.81 47.28 L23.88 47.76 L0 47.76 L0 0 L0 0" stroke="none" stroke-width="0" fill="#FFFFFF" fill-rule="evenodd"/><path d="M0 0 C0 0, 0 0, 0 0 M0 0 C0 0, 0 0, 0 0 M0 0 C1.28 0, 2.56 0, 3.98 0 M0 0 C0.95 0, 1.89 0, 3.98 0 M3.98 0 C4.86 0, 5.74 0, 7.58 0 M3.98 0 C4.87 0, 5.77 0, 7.58 0 M7.58 0 C8.27 0, 8.96 0, 10.8 0 M7.58 0 C8.76 0, 9.93 0, 10.8 0 M10.8 0 C11.53 0, 12.26 0, 13.64 0 M10.8 0 C11.89 0, 12.97 0, 13.64 0 M13.64 0 C14.36 0, 15.08 0, 16.11 0 M13.64 0 C14.2 0, 14.75 0, 16.11 0 M16.11 0 C16.75 0, 17.39 0, 18.19 0 M16.11 0 C16.78 0, 17.46 0, 18.19 0 M18.19 0 C18.59 0, 18.99 0, 19.9 0 M18.19 0 C18.68 0, 19.17 0, 19.9 0 M19.9 0 C20.34 0, 20.78 0, 21.23 0 M19.9 0 C20.25 0, 20.6 0, 21.23 0 M21.23 0 C21.52 0, 21.81 0, 22.32 0 M21.23 0 C21.49 0, 21.75 0, 22.32 0 M22.32 0 C22.55 0, 22.78 0, 23.14 0 M22.32 0 C22.63 0, 22.94 0, 23.14 0 M23.14 0 C23.41 0, 23.67 0, 24.13 0 M23.14 0 C23.45 0, 23.75 0, 24.13 0 M24.13 0 C24.27 0, 24.41 0, 24.5 0 M24.13 0 C24.24 0, 24.35 0, 24.5 0 M24.5 0 C24.51 0, 24.52 0, 24.54 0 M24.5 0 C24.52 0, 24.53 0, 24.54 0 M24.54 0 C25.98 0.14, 27.41 0.28, 29.44 0.48 M24.54 0 C25.74 0.12, 26.94 0.24, 29.44 0.48 M29.44 0.48 C31.06 0.99, 32.68 1.49, 33.91 1.87 M29.44 0.48 C30.61 0.84, 31.77 1.21, 33.91 1.87 M33.91 1.87 C35.31 2.65, 36.71 3.42, 37.86 4.07 M33.91 1.87 C35.11 2.54, 36.31 3.2, 37.86 4.07 M37.86 4.07 C39.11 5.14, 40.36 6.21, 41.25 6.98 M37.86 4.07 C38.88 4.93, 39.89 5.8, 41.25 6.98 M41.25 6.98 C42.11 8.09, 42.98 9.19, 44 10.51 M41.25 6.98 C42.18 8.17, 43.1 9.36, 44 10.51 M44 10.51 C44.78 12.05, 45.55 13.59, 46.04 14.56 M44 10.51 C44.72 11.93, 45.43 13.35, 46.04 14.56 M46.04 14.56 C46.33 15.56, 46.61 16.55, 47.32 19.05 M46.04 14.56 C46.4 15.82, 46.76 17.08, 47.32 19.05 M47.32 19.05 C47.42 20.18, 47.52 21.3, 47.76 23.88 M47.32 19.05 C47.47 20.75, 47.63 22.44, 47.76 23.88 M47.76 23.88 C47.61 25.46, 47.45 27.04, 47.29 28.71 M47.76 23.88 C47.65 25.05, 47.53 26.21, 47.29 28.71 M47.29 28.71 C47 29.68, 46.71 30.65, 45.94 33.2 M47.29 28.71 C46.81 30.31, 46.33 31.91, 45.94 33.2 M45.94 33.2 C45.11 34.75, 44.29 36.31, 43.79 37.25 M45.94 33.2 C45.51 34.02, 45.07 34.84, 43.79 37.25 M43.79 37.25 C42.73 38.56, 41.67 39.86, 40.92 40.78 M43.79 37.25 C43.07 38.14, 42.35 39.02, 40.92 40.78 M40.92 40.78 C39.71 41.79, 38.5 42.79, 37.41 43.69 M40.92 40.78 C39.8 41.71, 38.69 42.63, 37.41 43.69 M37.41 43.69 C35.84 44.54, 34.27 45.39, 33.35 45.89 M37.41 43.69 C36.46 44.21, 35.51 44.72, 33.35 45.89 M33.35 45.89 C32.15 46.26, 30.95 46.62, 28.81 47.28 M33.35 45.89 C32.37 46.19, 31.38 46.49, 28.81 47.28 M28.81 47.28 C27.28 47.43, 25.76 47.58, 23.88 47.76 M28.81 47.28 C27.15 47.44, 25.48 47.6, 23.88 47.76 M23.88 47.76 C19.1 47.76, 14.32 47.76, 0 47.76 M23.88 47.76 C16.69 47.76, 9.51 47.76, 0 47.76 M0 47.76 C0 36.57, 0 25.37, 0 0 M0 47.76 C0 32.89, 0 18.02, 0 0 M0 0 C0 0, 0 0, 0 0 M0 0 C0 0, 0 0, 0 0 M0 0 C0 0, 0 0, 0 0 M0 0 C0 0, 0 0, 0 0" stroke="#000000" stroke-width="1" fill="none"/></g></g><mask/><g transform="translate(251.56069990917155 170.330138871236) rotate(0 11.928993225097656 6.502729939670675)"><text x="0" y="10.404588784245487" font-family="Helvetica, Segoe UI Emoji" font-size="11.30909554725335px" fill="#1971c2" text-anchor="start" style="white-space: pre;" direction="ltr" dominant-baseline="alphabetic">AND</text></g><g stroke-linecap="round"><g transform="translate(346.35563070554775 72.63629364646431) rotate(0 29.205901472723994 24.102871621590403)" fill-rule="evenodd"><path d="M0 0 L2.41 2.94 L2.41 2.94 L2.49 3.04 L2.7 3.32 L3.48 4.45 L4.57 6.28 L5.82 8.75 L7.07 11.81 L8.16 15.43 L8.93 19.54 L9.23 24.1 L8.93 28.67 L8.16 32.78 L7.07 36.39 L5.82 39.46 L4.57 41.93 L3.48 43.75 L2.7 44.88 L2.49 45.17 L2.41 45.27 L0 48.21 L3.8 48.21 L20.68 48.21 L20.68 48.21 L21.92 48.2 L23.46 48.16 L25.26 48.06 L27.29 47.85 L29.52 47.51 L31.92 46.99 L34.46 46.27 L37.1 45.31 L39.81 44.06 L42.57 42.51 L45.35 40.61 L48.11 38.35 L50.83 35.68 L53.47 32.58 L56.01 29.02 L58.41 24.97 L56.83 24.1 L58.41 23.24 L58.41 23.24 L56 19.19 L53.46 15.64 L50.81 12.56 L48.08 9.91 L45.31 7.67 L42.53 5.79 L39.76 4.24 L37.04 3 L34.39 2.03 L31.86 1.29 L29.47 0.76 L27.24 0.4 L25.22 0.18 L23.43 0.06 L21.91 0.01 L20.68 0 L3.8 0 L0 0 L0 0" stroke="none" stroke-width="0" fill="black" fill-rule="evenodd"/><path d="M0 0 C0.57 0.7, 1.15 1.4, 2.41 2.94 M0 0 C0.52 0.64, 1.05 1.27, 2.41 2.94 M2.41 2.94 C2.41 2.94, 2.41 2.94, 2.41 2.94 M2.41 2.94 C2.41 2.94, 2.41 2.94, 2.41 2.94 M2.41 2.94 C2.44 2.98, 2.47 3.02, 2.49 3.04 M2.41 2.94 C2.44 2.97, 2.47 3.01, 2.49 3.04 M2.49 3.04 C2.55 3.12, 2.62 3.21, 2.7 3.32 M2.49 3.04 C2.54 3.1, 2.59 3.17, 2.7 3.32 M2.7 3.32 C3 3.76, 3.3 4.19, 3.48 4.45 M2.7 3.32 C2.9 3.61, 3.1 3.9, 3.48 4.45 M3.48 4.45 C3.87 5.11, 4.26 5.76, 4.57 6.28 M3.48 4.45 C3.81 5.01, 4.14 5.56, 4.57 6.28 M4.57 6.28 C4.96 7.06, 5.36 7.85, 5.82 8.75 M4.57 6.28 C4.98 7.09, 5.39 7.91, 5.82 8.75 M5.82 8.75 C6.31 9.94, 6.8 11.14, 7.07 11.81 M5.82 8.75 C6.16 9.58, 6.5 10.41, 7.07 11.81 M7.07 11.81 C7.43 12.99, 7.78 14.17, 8.16 15.43 M7.07 11.81 C7.32 12.63, 7.56 13.45, 8.16 15.43 M8.16 15.43 C8.45 16.94, 8.73 18.45, 8.93 19.54 M8.16 15.43 C8.4 16.71, 8.65 18, 8.93 19.54 M8.93 19.54 C9 20.61, 9.07 21.69, 9.23 24.1 M8.93 19.54 C9.01 20.69, 9.08 21.84, 9.23 24.1 M9.23 24.1 C9.17 25.03, 9.11 25.96, 8.93 28.67 M9.23 24.1 C9.16 25.17, 9.09 26.23, 8.93 28.67 M8.93 28.67 C8.72 29.8, 8.51 30.93, 8.16 32.78 M8.93 28.67 C8.71 29.85, 8.49 31.04, 8.16 32.78 M8.16 32.78 C7.87 33.74, 7.58 34.7, 7.07 36.39 M8.16 32.78 C7.77 34.09, 7.37 35.4, 7.07 36.39 M7.07 36.39 C6.6 37.55, 6.13 38.7, 5.82 39.46 M7.07 36.39 C6.71 37.28, 6.35 38.16, 5.82 39.46 M5.82 39.46 C5.48 40.14, 5.13 40.81, 4.57 41.93 M5.82 39.46 C5.5 40.09, 5.18 40.71, 4.57 41.93 M4.57 41.93 C4.27 42.42, 3.98 42.91, 3.48 43.75 M4.57 41.93 C4.15 42.62, 3.74 43.31, 3.48 43.75 M3.48 43.75 C3.17 44.2, 2.86 44.65, 2.7 44.88 M3.48 43.75 C3.18 44.18, 2.88 44.62, 2.7 44.88 M2.7 44.88 C2.62 44.99, 2.53 45.11, 2.49 45.17 M2.7 44.88 C2.63 44.99, 2.55 45.09, 2.49 45.17 M2.49 45.17 C2.46 45.21, 2.43 45.24, 2.41 45.27 M2.49 45.17 C2.47 45.19, 2.45 45.22, 2.41 45.27 M2.41 45.27 C1.52 46.35, 0.63 47.43, 0 48.21 M2.41 45.27 C1.91 45.88, 1.41 46.49, 0 48.21 M0 48.21 C1.24 48.21, 2.49 48.21, 3.8 48.21 M0 48.21 C1.06 48.21, 2.11 48.21, 3.8 48.21 M3.8 48.21 C9.65 48.21, 15.49 48.21, 20.68 48.21 M3.8 48.21 C10 48.21, 16.19 48.21, 20.68 48.21 M20.68 48.21 C20.68 48.21, 20.68 48.21, 20.68 48.21 M20.68 48.21 C20.68 48.21, 20.68 48.21, 20.68 48.21 M20.68 48.21 C21 48.2, 21.32 48.2, 21.92 48.2 M20.68 48.21 C21 48.2, 21.32 48.2, 21.92 48.2 M21.92 48.2 C22.3 48.19, 22.69 48.18, 23.46 48.16 M21.92 48.2 C22.42 48.19, 22.93 48.18, 23.46 48.16 M23.46 48.16 C24.09 48.13, 24.71 48.09, 25.26 48.06 M23.46 48.16 C24.15 48.12, 24.83 48.09, 25.26 48.06 M25.26 48.06 C25.88 48, 26.5 47.93, 27.29 47.85 M25.26 48.06 C25.89 48, 26.53 47.93, 27.29 47.85 M27.29 47.85 C27.85 47.77, 28.42 47.68, 29.52 47.51 M27.29 47.85 C28.18 47.72, 29.07 47.58, 29.52 47.51 M29.52 47.51 C30.43 47.31, 31.34 47.12, 31.92 46.99 M29.52 47.51 C30.45 47.31, 31.37 47.11, 31.92 46.99 M31.92 46.99 C32.72 46.77, 33.52 46.54, 34.46 46.27 M31.92 46.99 C32.56 46.81, 33.2 46.63, 34.46 46.27 M34.46 46.27 C35 46.07, 35.54 45.88, 37.1 45.31 M34.46 46.27 C35.21 45.99, 35.97 45.72, 37.1 45.31 M37.1 45.31 C37.87 44.95, 38.64 44.6, 39.81 44.06 M37.1 45.31 C37.79 44.99, 38.49 44.67, 39.81 44.06 M39.81 44.06 C40.81 43.5, 41.81 42.94, 42.57 42.51 M39.81 44.06 C40.59 43.62, 41.37 43.19, 42.57 42.51 M42.57 42.51 C43.13 42.13, 43.68 41.75, 45.35 40.61 M42.57 42.51 C43.13 42.12, 43.69 41.74, 45.35 40.61 M45.35 40.61 C46.41 39.74, 47.48 38.86, 48.11 38.35 M45.35 40.61 C46.05 40.03, 46.76 39.45, 48.11 38.35 M48.11 38.35 C48.96 37.51, 49.82 36.67, 50.83 35.68 M48.11 38.35 C48.78 37.69, 49.46 37.02, 50.83 35.68 M50.83 35.68 C51.52 34.86, 52.22 34.05, 53.47 32.58 M50.83 35.68 C51.41 34.99, 51.99 34.31, 53.47 32.58 M53.47 32.58 C54.42 31.25, 55.37 29.91, 56.01 29.02 M53.47 32.58 C54.05 31.76, 54.63 30.95, 56.01 29.02 M56.01 29.02 C56.8 27.68, 57.6 26.34, 58.41 24.97 M56.01 29.02 C56.51 28.17, 57.02 27.31, 58.41 24.97 M58.41 24.97 C57.89 24.68, 57.36 24.39, 56.83 24.1 M58.41 24.97 C57.85 24.66, 57.29 24.35, 56.83 24.1 M56.83 24.1 C57.42 23.78, 58.02 23.45, 58.41 23.24 M56.83 24.1 C57.44 23.77, 58.04 23.44, 58.41 23.24 M58.41 23.24 C58.41 23.24, 58.41 23.24, 58.41 23.24 M58.41 23.24 C58.41 23.24, 58.41 23.24, 58.41 23.24 M58.41 23.24 C57.59 21.86, 56.77 20.48, 56 19.19 M58.41 23.24 C57.65 21.95, 56.88 20.66, 56 19.19 M56 19.19 C55.13 17.96, 54.25 16.74, 53.46 15.64 M56 19.19 C55.14 17.98, 54.27 16.77, 53.46 15.64 M53.46 15.64 C52.88 14.97, 52.31 14.3, 50.81 12.56 M53.46 15.64 C52.61 14.65, 51.76 13.66, 50.81 12.56 M50.81 12.56 C50.23 12, 49.66 11.44, 48.08 9.91 M50.81 12.56 C49.76 11.54, 48.71 10.52, 48.08 9.91 M48.08 9.91 C47.12 9.13, 46.15 8.35, 45.31 7.67 M48.08 9.91 C47.2 9.19, 46.31 8.48, 45.31 7.67 M45.31 7.67 C44.22 6.93, 43.13 6.19, 42.53 5.79 M45.31 7.67 C44.36 7.03, 43.41 6.39, 42.53 5.79 M42.53 5.79 C41.61 5.28, 40.7 4.77, 39.76 4.24 M42.53 5.79 C41.51 5.22, 40.5 4.66, 39.76 4.24 M39.76 4.24 C38.82 3.81, 37.87 3.38, 37.04 3 M39.76 4.24 C38.71 3.77, 37.67 3.29, 37.04 3 M37.04 3 C36.22 2.7, 35.41 2.4, 34.39 2.03 M37.04 3 C36.16 2.68, 35.28 2.35, 34.39 2.03 M34.39 2.03 C33.55 1.78, 32.7 1.54, 31.86 1.29 M34.39 2.03 C33.72 1.83, 33.05 1.64, 31.86 1.29 M31.86 1.29 C31.19 1.14, 30.52 1, 29.47 0.76 M31.86 1.29 C31.33 1.18, 30.8 1.06, 29.47 0.76 M29.47 0.76 C28.77 0.65, 28.07 0.53, 27.24 0.4 M29.47 0.76 C29.01 0.69, 28.56 0.61, 27.24 0.4 M27.24 0.4 C26.44 0.31, 25.64 0.22, 25.22 0.18 M27.24 0.4 C26.74 0.34, 26.23 0.29, 25.22 0.18 M25.22 0.18 C24.77 0.14, 24.31 0.11, 23.43 0.06 M25.22 0.18 C24.51 0.13, 23.79 0.08, 23.43 0.06 M23.43 0.06 C23.03 0.04, 22.64 0.03, 21.91 0.01 M23.43 0.06 C22.87 0.04, 22.31 0.02, 21.91 0.01 M21.91 0.01 C21.64 0.01, 21.37 0, 20.68 0 M21.91 0.01 C21.52 0.01, 21.12 0, 20.68 0 M20.68 0 C16.89 0, 13.1 0, 3.8 0 M20.68 0 C14.97 0, 9.25 0, 3.8 0 M3.8 0 C2.78 0, 1.77 0, 0 0 M3.8 0 C3.03 0, 2.25 0, 0 0 M0 0 C0 0, 0 0, 0 0 M0 0 C0 0, 0 0, 0 0 M0 0 C0 0, 0 0, 0 0 M0 0 C0 0, 0 0, 0 0" stroke="#000000" stroke-width="1" fill="none"/></g></g><mask/><g stroke-linecap="round"><g transform="translate(353.43584924438994 76.25172438970287) rotate(0 23.65094277868558 20.48744087835184)" fill-rule="evenodd"><path d="M0 0 L13.6 0 L13.6 0 L14.78 0 L16.19 0.03 L19.6 0.3 L23.66 1.04 L25.88 1.66 L28.19 2.5 L30.57 3.58 L33 4.93 L35.45 6.59 L37.91 8.58 L40.34 10.93 L42.74 13.68 L45.06 16.86 L47.3 20.49 L45.1 24.07 L42.8 27.2 L40.44 29.92 L38.02 32.26 L35.59 34.24 L33.15 35.9 L30.74 37.25 L28.36 38.34 L25.99 39.21 L23.73 39.87 L19.64 40.65 L16.22 40.94 L13.6 40.97 L0.04 40.97 L0.04 40.97 L0.93 39.41 L1.88 37.54 L2.84 35.37 L3.75 32.92 L4.55 30.19 L5.19 27.2 L5.61 23.97 L5.76 20.49 L5.61 17 L5.18 13.76 L4.53 10.77 L3.73 8.04 L2.81 5.59 L1.85 3.43 L0.9 1.56 L0 0 L0 0" stroke="none" stroke-width="0" fill="#FFFFFF" fill-rule="evenodd"/><path d="M0 0 C5.27 0, 10.53 0, 13.6 0 M0 0 C4.5 0, 9 0, 13.6 0 M13.6 0 C13.6 0, 13.6 0, 13.6 0 M13.6 0 C13.6 0, 13.6 0, 13.6 0 M13.6 0 C13.83 0, 14.07 0, 14.78 0 M13.6 0 C13.85 0, 14.1 0, 14.78 0 M14.78 0 C15.26 0.01, 15.75 0.02, 16.19 0.03 M14.78 0 C15.28 0.01, 15.77 0.02, 16.19 0.03 M16.19 0.03 C17.1 0.1, 18.02 0.18, 19.6 0.3 M16.19 0.03 C17.28 0.12, 18.37 0.2, 19.6 0.3 M19.6 0.3 C20.78 0.51, 21.96 0.73, 23.66 1.04 M19.6 0.3 C21.02 0.56, 22.43 0.81, 23.66 1.04 M23.66 1.04 C24.31 1.22, 24.96 1.41, 25.88 1.66 M23.66 1.04 C24.2 1.19, 24.74 1.34, 25.88 1.66 M25.88 1.66 C26.56 1.91, 27.25 2.16, 28.19 2.5 M25.88 1.66 C26.68 1.95, 27.48 2.24, 28.19 2.5 M28.19 2.5 C28.98 2.86, 29.78 3.22, 30.57 3.58 M28.19 2.5 C28.67 2.72, 29.15 2.94, 30.57 3.58 M30.57 3.58 C31.14 3.9, 31.7 4.21, 33 4.93 M30.57 3.58 C31.39 4.04, 32.21 4.49, 33 4.93 M33 4.93 C33.72 5.42, 34.45 5.91, 35.45 6.59 M33 4.93 C33.81 5.48, 34.62 6.03, 35.45 6.59 M35.45 6.59 C36.12 7.13, 36.78 7.67, 37.91 8.58 M35.45 6.59 C36.39 7.35, 37.34 8.12, 37.91 8.58 M37.91 8.58 C38.49 9.14, 39.07 9.7, 40.34 10.93 M37.91 8.58 C38.87 9.5, 39.83 10.43, 40.34 10.93 M40.34 10.93 C41.26 11.98, 42.18 13.04, 42.74 13.68 M40.34 10.93 C41.12 11.82, 41.89 12.71, 42.74 13.68 M42.74 13.68 C43.37 14.55, 44.01 15.42, 45.06 16.86 M42.74 13.68 C43.38 14.56, 44.03 15.44, 45.06 16.86 M45.06 16.86 C45.61 17.74, 46.15 18.62, 47.3 20.49 M45.06 16.86 C45.66 17.83, 46.26 18.8, 47.3 20.49 M47.3 20.49 C46.72 21.43, 46.14 22.37, 45.1 24.07 M47.3 20.49 C46.66 21.53, 46.02 22.56, 45.1 24.07 M45.1 24.07 C44.35 25.09, 43.59 26.12, 42.8 27.2 M45.1 24.07 C44.41 25, 43.73 25.92, 42.8 27.2 M42.8 27.2 C42.04 28.08, 41.28 28.95, 40.44 29.92 M42.8 27.2 C42.18 27.92, 41.55 28.64, 40.44 29.92 M40.44 29.92 C39.93 30.42, 39.42 30.91, 38.02 32.26 M40.44 29.92 C39.55 30.78, 38.66 31.65, 38.02 32.26 M38.02 32.26 C37.26 32.88, 36.5 33.5, 35.59 34.24 M38.02 32.26 C37.4 32.77, 36.78 33.27, 35.59 34.24 M35.59 34.24 C34.92 34.7, 34.25 35.15, 33.15 35.9 M35.59 34.24 C35.07 34.59, 34.55 34.95, 33.15 35.9 M33.15 35.9 C32.29 36.38, 31.43 36.86, 30.74 37.25 M33.15 35.9 C32.56 36.23, 31.97 36.56, 30.74 37.25 M30.74 37.25 C29.79 37.69, 28.84 38.12, 28.36 38.34 M30.74 37.25 C30.17 37.51, 29.61 37.76, 28.36 38.34 M28.36 38.34 C27.61 38.62, 26.85 38.89, 25.99 39.21 M28.36 38.34 C27.81 38.54, 27.25 38.75, 25.99 39.21 M25.99 39.21 C25.39 39.39, 24.79 39.56, 23.73 39.87 M25.99 39.21 C25.51 39.35, 25.03 39.49, 23.73 39.87 M23.73 39.87 C22.43 40.12, 21.13 40.37, 19.64 40.65 M23.73 39.87 C22.31 40.14, 20.88 40.41, 19.64 40.65 M19.64 40.65 C18.77 40.72, 17.89 40.8, 16.22 40.94 M19.64 40.65 C18.3 40.76, 16.95 40.87, 16.22 40.94 M16.22 40.94 C15.61 40.94, 15.01 40.95, 13.6 40.97 M16.22 40.94 C15.33 40.95, 14.44 40.96, 13.6 40.97 M13.6 40.97 C8.76 40.97, 3.93 40.97, 0.04 40.97 M13.6 40.97 C10.86 40.97, 8.13 40.97, 0.04 40.97 M0.04 40.97 C0.04 40.97, 0.04 40.97, 0.04 40.97 M0.04 40.97 C0.04 40.97, 0.04 40.97, 0.04 40.97 M0.04 40.97 C0.26 40.58, 0.49 40.18, 0.93 39.41 M0.04 40.97 C0.34 40.45, 0.64 39.92, 0.93 39.41 M0.93 39.41 C1.15 38.97, 1.38 38.54, 1.88 37.54 M0.93 39.41 C1.19 38.91, 1.44 38.41, 1.88 37.54 M1.88 37.54 C2.11 37.03, 2.34 36.52, 2.84 35.37 M1.88 37.54 C2.14 36.96, 2.4 36.37, 2.84 35.37 M2.84 35.37 C3.14 34.57, 3.43 33.78, 3.75 32.92 M2.84 35.37 C3.13 34.59, 3.42 33.8, 3.75 32.92 M3.75 32.92 C3.98 32.12, 4.21 31.32, 4.55 30.19 M3.75 32.92 C4.02 31.99, 4.29 31.05, 4.55 30.19 M4.55 30.19 C4.76 29.2, 4.97 28.21, 5.19 27.2 M4.55 30.19 C4.73 29.35, 4.91 28.51, 5.19 27.2 M5.19 27.2 C5.28 26.51, 5.37 25.81, 5.61 23.97 M5.19 27.2 C5.3 26.31, 5.42 25.43, 5.61 23.97 M5.61 23.97 C5.67 22.65, 5.73 21.33, 5.76 20.49 M5.61 23.97 C5.66 22.85, 5.71 21.73, 5.76 20.49 M5.76 20.49 C5.72 19.46, 5.67 18.42, 5.61 17 M5.76 20.49 C5.72 19.59, 5.68 18.7, 5.61 17 M5.61 17 C5.46 15.86, 5.31 14.72, 5.18 13.76 M5.61 17 C5.51 16.27, 5.41 15.53, 5.18 13.76 M5.18 13.76 C5.03 13.07, 4.88 12.39, 4.53 10.77 M5.18 13.76 C5.02 13, 4.85 12.24, 4.53 10.77 M4.53 10.77 C4.23 9.73, 3.92 8.69, 3.73 8.04 M4.53 10.77 C4.28 9.91, 4.03 9.06, 3.73 8.04 M3.73 8.04 C3.53 7.52, 3.34 7, 2.81 5.59 M3.73 8.04 C3.45 7.3, 3.17 6.55, 2.81 5.59 M2.81 5.59 C2.48 4.83, 2.14 4.07, 1.85 3.43 M2.81 5.59 C2.51 4.9, 2.2 4.21, 1.85 3.43 M1.85 3.43 C1.62 2.98, 1.39 2.53, 0.9 1.56 M1.85 3.43 C1.64 3.02, 1.43 2.61, 0.9 1.56 M0.9 1.56 C0.54 0.94, 0.18 0.31, 0 0 M0.9 1.56 C0.62 1.09, 0.35 0.62, 0 0 M0 0 C0 0, 0 0, 0 0 M0 0 C0 0, 0 0, 0 0 M0 0 C0 0, 0 0, 0 0 M0 0 C0 0, 0 0, 0 0" stroke="#000000" stroke-width="1" fill="none"/></g></g><mask/><g stroke-linecap="round" transform="translate(402.05864046248485 95.79422794013635) rotate(0 1.2263119359147918 0.926863014688756)"><path d="M2.45 0.93 C2.45 0.98, 2.45 1.03, 2.43 1.09 C2.42 1.14, 2.4 1.19, 2.38 1.24 C2.35 1.29, 2.32 1.34, 2.29 1.39 C2.25 1.44, 2.21 1.48, 2.17 1.52 C2.12 1.56, 2.07 1.6, 2.01 1.64 C1.96 1.67, 1.9 1.7, 1.84 1.73 C1.78 1.76, 1.71 1.78, 1.65 1.8 C1.58 1.82, 1.51 1.83, 1.44 1.84 C1.37 1.85, 1.3 1.85, 1.23 1.85 C1.16 1.85, 1.08 1.85, 1.01 1.84 C0.94 1.83, 0.87 1.82, 0.81 1.8 C0.74 1.78, 0.67 1.76, 0.61 1.73 C0.55 1.7, 0.49 1.67, 0.44 1.64 C0.38 1.6, 0.33 1.56, 0.29 1.52 C0.24 1.48, 0.2 1.44, 0.16 1.39 C0.13 1.34, 0.1 1.29, 0.07 1.24 C0.05 1.19, 0.03 1.14, 0.02 1.09 C0.01 1.03, 0 0.98, 0 0.93 C0 0.87, 0.01 0.82, 0.02 0.77 C0.03 0.71, 0.05 0.66, 0.07 0.61 C0.1 0.56, 0.13 0.51, 0.16 0.46 C0.2 0.42, 0.24 0.37, 0.29 0.33 C0.33 0.29, 0.38 0.25, 0.44 0.22 C0.49 0.18, 0.55 0.15, 0.61 0.12 C0.67 0.1, 0.74 0.07, 0.81 0.06 C0.87 0.04, 0.94 0.02, 1.01 0.01 C1.08 0, 1.16 0, 1.23 0 C1.3 0, 1.37 0, 1.44 0.01 C1.51 0.02, 1.58 0.04, 1.65 0.06 C1.71 0.07, 1.78 0.1, 1.84 0.12 C1.9 0.15, 1.96 0.18, 2.01 0.22 C2.07 0.25, 2.12 0.29, 2.17 0.33 C2.21 0.37, 2.25 0.42, 2.29 0.46 C2.32 0.51, 2.35 0.56, 2.38 0.61 C2.4 0.66, 2.42 0.71, 2.43 0.77 C2.45 0.82, 2.45 0.9, 2.45 0.93 C2.46 0.95, 2.46 0.9, 2.45 0.93" stroke="none" stroke-width="0" fill="black"/><path d="M2.45 0.93 C2.45 0.98, 2.45 1.03, 2.43 1.09 C2.42 1.14, 2.4 1.19, 2.38 1.24 C2.35 1.29, 2.32 1.34, 2.29 1.39 C2.25 1.44, 2.21 1.48, 2.17 1.52 C2.12 1.56, 2.07 1.6, 2.01 1.64 C1.96 1.67, 1.9 1.7, 1.84 1.73 C1.78 1.76, 1.71 1.78, 1.65 1.8 C1.58 1.82, 1.51 1.83, 1.44 1.84 C1.37 1.85, 1.3 1.85, 1.23 1.85 C1.16 1.85, 1.08 1.85, 1.01 1.84 C0.94 1.83, 0.87 1.82, 0.81 1.8 C0.74 1.78, 0.67 1.76, 0.61 1.73 C0.55 1.7, 0.49 1.67, 0.44 1.64 C0.38 1.6, 0.33 1.56, 0.29 1.52 C0.24 1.48, 0.2 1.44, 0.16 1.39 C0.13 1.34, 0.1 1.29, 0.07 1.24 C0.05 1.19, 0.03 1.14, 0.02 1.09 C0.01 1.03, 0 0.98, 0 0.93 C0 0.87, 0.01 0.82, 0.02 0.77 C0.03 0.71, 0.05 0.66, 0.07 0.61 C0.1 0.56, 0.13 0.51, 0.16 0.46 C0.2 0.42, 0.24 0.37, 0.29 0.33 C0.33 0.29, 0.38 0.25, 0.44 0.22 C0.49 0.18, 0.55 0.15, 0.61 0.12 C0.67 0.1, 0.74 0.07, 0.81 0.06 C0.87 0.04, 0.94 0.02, 1.01 0.01 C1.08 0, 1.16 0, 1.23 0 C1.3 0, 1.37 0, 1.44 0.01 C1.51 0.02, 1.58 0.04, 1.65 0.06 C1.71 0.07, 1.78 0.1, 1.84 0.12 C1.9 0.15, 1.96 0.18, 2.01 0.22 C2.07 0.25, 2.12 0.29, 2.17 0.33 C2.21 0.37, 2.25 0.42, 2.29 0.46 C2.32 0.51, 2.35 0.56, 2.38 0.61 C2.4 0.66, 2.42 0.71, 2.43 0.77 C2.45 0.82, 2.45 0.9, 2.45 0.93 C2.46 0.95, 2.46 0.9, 2.45 0.93" stroke="#000000" stroke-width="2" fill="none"/></g><g transform="translate(366.03392543931295 91.75682203846407) rotate(0 8.474990844726562 6.502729939670672)"><text x="0" y="10.404588784245487" font-family="Helvetica, Segoe UI Emoji" font-size="11.30909554725335px" fill="#1e1e1e" text-anchor="start" style="white-space: pre;" direction="ltr" dominant-baseline="alphabetic">OR</text></g><g stroke-linecap="round"><g transform="translate(405.14453153762986 97.03797697087532) rotate(0 31.713680853964732 0)"><path d="M0 0 C10.57 0, 52.86 0, 63.43 0 M0 0 C10.57 0, 52.86 0, 63.43 0" stroke="#1e1e1e" stroke-width="2" fill="none"/></g><g transform="translate(405.14453153762986 97.03797697087532) rotate(0 31.713680853964732 0)"><path d="M63.43 0 L49.83 6.34 L49.83 -6.34 L63.43 0" stroke="none" stroke-width="0" fill="#1e1e1e" fill-rule="evenodd"/><path d="M63.43 0 C59.82 1.68, 56.21 3.37, 49.83 6.34 M63.43 0 C60.3 1.46, 57.16 2.92, 49.83 6.34 M49.83 6.34 C49.83 1.8, 49.83 -2.74, 49.83 -6.34 M49.83 6.34 C49.83 1.73, 49.83 -2.88, 49.83 -6.34 M49.83 -6.34 C52.94 -4.89, 56.05 -3.44, 63.43 0 M49.83 -6.34 C54.57 -4.13, 59.3 -1.92, 63.43 0 M63.43 0 C63.43 0, 63.43 0, 63.43 0 M63.43 0 C63.43 0, 63.43 0, 63.43 0" stroke="#1e1e1e" stroke-width="2" fill="none"/></g></g><mask/></svg>