<svg version="1.1" xmlns="http://www.w3.org/2000/svg" viewBox="0 0 537.6013881370212 273.6519749021682" width="537.6013881370212" height="273.6519749021682" filter="invert(93%) hue-rotate(180deg)" class="excalidraw-svg">
  <!-- svg-source:excalidraw -->
  
  <defs>
    <style class="style-fonts">
      @font-face {
        font-family: "Virgil";
        src: url("https://excalidraw.com/Virgil.woff2");
      }
      @font-face {
        font-family: "Cascadia";
        src: url("https://excalidraw.com/Cascadia.woff2");
      }
      @font-face {
        font-family: "Assistant";
        src: url("https://excalidraw.com/Assistant-Regular.woff2");
      }
    </style>
    
  </defs>
  <g transform="translate(474.7492479188337 134.17520777542148) rotate(0 21.35944366455078 16.373099909978983)"><text x="0" y="26.197516007457878" font-family="Helvetica, Segoe UI Emoji" font-size="28.47495636518084px" fill="#1e1e1e" text-anchor="start" style="white-space: pre;" direction="ltr" dominant-baseline="alphabetic">low</text></g><g transform="translate(473.77532307354466 84.97618368686489) rotate(0 26.91303253173828 16.373099909978976)"><text x="0" y="26.197516007457878" font-family="Helvetica, Segoe UI Emoji" font-size="28.47495636518084px" fill="#1e1e1e" text-anchor="start" style="white-space: pre;" direction="ltr" dominant-baseline="alphabetic">high</text></g><g transform="translate(12.147393785540544 187.17105291701415) rotate(0 10.280059814453125 16.373099909978983)"><text x="0" y="26.197516007457878" font-family="Helvetica, Segoe UI Emoji" font-size="28.47495636518084px" fill="#1e1e1e" text-anchor="start" style="white-space: pre;" direction="ltr" dominant-baseline="alphabetic">C</text></g><g stroke-linecap="round"><g transform="translate(250.15545843609902 250.95903616116755) rotate(379.92344200551145 -0.7208039657371046 -21.195537586472962)" fill-rule="evenodd"><path d="M0 0 L0 0 L-0.69 1.11 L-1.28 1.98 L-2.15 3.11 L-2.65 3.62 L-2.81 3.74 L-7.36 3.74 L-4.87 0.7 L-4.87 0.7 L-4.79 0.6 L-4.57 0.3 L-3.77 -0.87 L-2.64 -2.75 L-1.34 -5.31 L-0.05 -8.48 L1.08 -12.22 L1.88 -16.47 L2.18 -21.2 L1.88 -25.92 L1.08 -30.17 L-0.05 -33.91 L-1.34 -37.08 L-2.64 -39.64 L-3.77 -41.52 L-4.57 -42.69 L-4.79 -42.99 L-4.87 -43.09 L-7.36 -46.13 L-2.81 -46.13 L-2.81 -46.13 L-1.43 -44.45 L-0.04 -42.39 L0.89 -40.78 L1.88 -38.85 L2.87 -36.61 L3.82 -34.07 L4.65 -31.25 L5.32 -28.16 L5.76 -24.8 L5.92 -21.2 L5.76 -17.6 L5.32 -14.25 L4.66 -11.16 L3.83 -8.34 L2.89 -5.8 L1.9 -3.56 L0.92 -1.62 L0 0 L0 0" stroke="none" stroke-width="0" fill="black" fill-rule="evenodd"/><path d="M0 0 C0 0, 0 0, 0 0 M0 0 C0 0, 0 0, 0 0 M0 0 C-0.21 0.34, -0.43 0.68, -0.69 1.11 M0 0 C-0.18 0.29, -0.36 0.58, -0.69 1.11 M-0.69 1.11 C-0.89 1.4, -1.08 1.68, -1.28 1.98 M-0.69 1.11 C-0.85 1.33, -1 1.56, -1.28 1.98 M-1.28 1.98 C-1.57 2.35, -1.86 2.72, -2.15 3.11 M-1.28 1.98 C-1.55 2.33, -1.82 2.68, -2.15 3.11 M-2.15 3.11 C-2.27 3.23, -2.39 3.36, -2.65 3.62 M-2.15 3.11 C-2.32 3.28, -2.5 3.46, -2.65 3.62 M-2.65 3.62 C-2.69 3.65, -2.74 3.69, -2.81 3.74 M-2.65 3.62 C-2.68 3.64, -2.71 3.67, -2.81 3.74 M-2.81 3.74 C-4.55 3.74, -6.29 3.74, -7.36 3.74 M-2.81 3.74 C-4.59 3.74, -6.37 3.74, -7.36 3.74 M-7.36 3.74 C-6.53 2.72, -5.69 1.7, -4.87 0.7 M-7.36 3.74 C-6.77 3.01, -6.17 2.29, -4.87 0.7 M-4.87 0.7 C-4.87 0.7, -4.87 0.7, -4.87 0.7 M-4.87 0.7 C-4.87 0.7, -4.87 0.7, -4.87 0.7 M-4.87 0.7 C-4.85 0.67, -4.82 0.64, -4.79 0.6 M-4.87 0.7 C-4.85 0.67, -4.82 0.64, -4.79 0.6 M-4.79 0.6 C-4.7 0.48, -4.62 0.37, -4.57 0.3 M-4.79 0.6 C-4.73 0.52, -4.67 0.44, -4.57 0.3 M-4.57 0.3 C-4.4 0.05, -4.23 -0.2, -3.77 -0.87 M-4.57 0.3 C-4.32 -0.06, -4.07 -0.43, -3.77 -0.87 M-3.77 -0.87 C-3.52 -1.28, -3.27 -1.69, -2.64 -2.75 M-3.77 -0.87 C-3.33 -1.6, -2.89 -2.34, -2.64 -2.75 M-2.64 -2.75 C-2.27 -3.48, -1.9 -4.21, -1.34 -5.31 M-2.64 -2.75 C-2.15 -3.71, -1.67 -4.67, -1.34 -5.31 M-1.34 -5.31 C-0.85 -6.53, -0.35 -7.75, -0.05 -8.48 M-1.34 -5.31 C-1.01 -6.13, -0.67 -6.96, -0.05 -8.48 M-0.05 -8.48 C0.33 -9.74, 0.71 -11.01, 1.08 -12.22 M-0.05 -8.48 C0.24 -9.44, 0.53 -10.4, 1.08 -12.22 M1.08 -12.22 C1.28 -13.27, 1.47 -14.31, 1.88 -16.47 M1.08 -12.22 C1.24 -13.09, 1.41 -13.97, 1.88 -16.47 M1.88 -16.47 C1.95 -17.65, 2.03 -18.83, 2.18 -21.2 M1.88 -16.47 C1.96 -17.79, 2.05 -19.1, 2.18 -21.2 M2.18 -21.2 C2.07 -22.94, 1.96 -24.68, 1.88 -25.92 M2.18 -21.2 C2.07 -22.96, 1.95 -24.73, 1.88 -25.92 M1.88 -25.92 C1.68 -27, 1.47 -28.08, 1.08 -30.17 M1.88 -25.92 C1.69 -26.9, 1.51 -27.89, 1.08 -30.17 M1.08 -30.17 C0.82 -31.03, 0.56 -31.89, -0.05 -33.91 M1.08 -30.17 C0.82 -31.02, 0.57 -31.86, -0.05 -33.91 M-0.05 -33.91 C-0.37 -34.69, -0.69 -35.47, -1.34 -37.08 M-0.05 -33.91 C-0.4 -34.78, -0.76 -35.64, -1.34 -37.08 M-1.34 -37.08 C-1.76 -37.9, -2.17 -38.71, -2.64 -39.64 M-1.34 -37.08 C-1.65 -37.68, -1.95 -38.28, -2.64 -39.64 M-2.64 -39.64 C-2.96 -40.17, -3.28 -40.7, -3.77 -41.52 M-2.64 -39.64 C-2.89 -40.05, -3.14 -40.47, -3.77 -41.52 M-3.77 -41.52 C-3.96 -41.8, -4.14 -42.07, -4.57 -42.69 M-3.77 -41.52 C-4.08 -41.98, -4.39 -42.43, -4.57 -42.69 M-4.57 -42.69 C-4.63 -42.78, -4.69 -42.86, -4.79 -42.99 M-4.57 -42.69 C-4.62 -42.77, -4.68 -42.84, -4.79 -42.99 M-4.79 -42.99 C-4.82 -43.03, -4.85 -43.07, -4.87 -43.09 M-4.79 -42.99 C-4.81 -43.02, -4.84 -43.05, -4.87 -43.09 M-4.87 -43.09 C-5.68 -44.07, -6.48 -45.06, -7.36 -46.13 M-4.87 -43.09 C-5.43 -43.78, -6 -44.46, -7.36 -46.13 M-7.36 -46.13 C-5.98 -46.13, -4.61 -46.13, -2.81 -46.13 M-7.36 -46.13 C-6.2 -46.13, -5.03 -46.13, -2.81 -46.13 M-2.81 -46.13 C-2.81 -46.13, -2.81 -46.13, -2.81 -46.13 M-2.81 -46.13 C-2.81 -46.13, -2.81 -46.13, -2.81 -46.13 M-2.81 -46.13 C-2.38 -45.62, -1.96 -45.1, -1.43 -44.45 M-2.81 -46.13 C-2.51 -45.77, -2.21 -45.4, -1.43 -44.45 M-1.43 -44.45 C-1.09 -43.95, -0.75 -43.44, -0.04 -42.39 M-1.43 -44.45 C-1.04 -43.87, -0.65 -43.29, -0.04 -42.39 M-0.04 -42.39 C0.19 -41.99, 0.42 -41.59, 0.89 -40.78 M-0.04 -42.39 C0.16 -42.04, 0.36 -41.69, 0.89 -40.78 M0.89 -40.78 C1.27 -40.03, 1.66 -39.28, 1.88 -38.85 M0.89 -40.78 C1.17 -40.24, 1.44 -39.69, 1.88 -38.85 M1.88 -38.85 C2.25 -38, 2.63 -37.16, 2.87 -36.61 M1.88 -38.85 C2.19 -38.14, 2.5 -37.44, 2.87 -36.61 M2.87 -36.61 C3.15 -35.86, 3.43 -35.11, 3.82 -34.07 M2.87 -36.61 C3.1 -35.99, 3.33 -35.37, 3.82 -34.07 M3.82 -34.07 C4.03 -33.34, 4.25 -32.61, 4.65 -31.25 M3.82 -34.07 C4.05 -33.28, 4.29 -32.48, 4.65 -31.25 M4.65 -31.25 C4.89 -30.17, 5.12 -29.08, 5.32 -28.16 M4.65 -31.25 C4.81 -30.52, 4.97 -29.78, 5.32 -28.16 M5.32 -28.16 C5.44 -27.24, 5.56 -26.32, 5.76 -24.8 M5.32 -28.16 C5.46 -27.12, 5.59 -26.09, 5.76 -24.8 M5.76 -24.8 C5.81 -23.73, 5.86 -22.66, 5.92 -21.2 M5.76 -24.8 C5.82 -23.38, 5.89 -21.97, 5.92 -21.2 M5.92 -21.2 C5.87 -20.1, 5.82 -19, 5.76 -17.6 M5.92 -21.2 C5.88 -20.15, 5.83 -19.1, 5.76 -17.6 M5.76 -17.6 C5.61 -16.46, 5.46 -15.32, 5.32 -14.25 M5.76 -17.6 C5.67 -16.91, 5.58 -16.22, 5.32 -14.25 M5.32 -14.25 C5.15 -13.47, 4.99 -12.69, 4.66 -11.16 M5.32 -14.25 C5.09 -13.17, 4.86 -12.1, 4.66 -11.16 M4.66 -11.16 C4.45 -10.47, 4.25 -9.77, 3.83 -8.34 M4.66 -11.16 C4.46 -10.49, 4.26 -9.82, 3.83 -8.34 M3.83 -8.34 C3.52 -7.52, 3.22 -6.69, 2.89 -5.8 M3.83 -8.34 C3.54 -7.56, 3.25 -6.78, 2.89 -5.8 M2.89 -5.8 C2.65 -5.26, 2.41 -4.72, 1.9 -3.56 M2.89 -5.8 C2.68 -5.34, 2.48 -4.87, 1.9 -3.56 M1.9 -3.56 C1.57 -2.9, 1.23 -2.24, 0.92 -1.62 M1.9 -3.56 C1.69 -3.15, 1.49 -2.75, 0.92 -1.62 M0.92 -1.62 C0.63 -1.11, 0.34 -0.61, 0 0 M0.92 -1.62 C0.64 -1.13, 0.36 -0.63, 0 0 M0 0 C0 0, 0 0, 0 0 M0 0 C0 0, 0 0, 0 0 M0 0 C0 0, 0 0, 0 0 M0 0 C0 0, 0 0, 0 0" stroke="#1e1e1e" stroke-width="0.5" fill="none"/></g></g><mask/><g stroke-linecap="round"><g transform="translate(248.12074312718937 215.3031137305333) rotate(379.92344200551145 30.215322996168872 24.93592097685116)" fill-rule="evenodd"><path d="M0 0 L2.49 3.04 L2.49 3.04 L2.57 3.14 L2.8 3.44 L3.6 4.61 L4.72 6.5 L6.02 9.05 L7.31 12.22 L8.44 15.96 L9.24 20.21 L9.55 24.94 L9.24 29.66 L8.44 33.91 L7.31 37.65 L6.02 40.82 L4.72 43.38 L3.6 45.26 L2.8 46.43 L2.57 46.73 L2.49 46.83 L0 49.87 L3.94 49.87 L21.39 49.87 L21.39 49.87 L22.68 49.87 L24.27 49.83 L26.13 49.72 L28.23 49.51 L30.54 49.15 L33.02 48.62 L35.65 47.87 L38.38 46.87 L41.19 45.58 L44.04 43.98 L46.91 42.02 L49.77 39.67 L52.58 36.91 L55.32 33.71 L57.94 30.02 L60.43 25.83 L58.79 24.94 L60.43 24.04 L60.43 24.04 L57.94 19.85 L55.31 16.18 L52.57 12.99 L49.75 10.26 L46.88 7.93 L44 5.99 L41.13 4.39 L38.32 3.11 L35.58 2.1 L32.96 1.34 L30.49 0.79 L28.19 0.41 L26.09 0.18 L24.24 0.06 L22.66 0.01 L21.39 0 L3.94 0 L0 0 L0 0" stroke="none" stroke-width="0" fill="black" fill-rule="evenodd"/><path d="M0 0 C0.79 0.97, 1.59 1.94, 2.49 3.04 M0 0 C0.84 1.03, 1.69 2.06, 2.49 3.04 M2.49 3.04 C2.49 3.04, 2.49 3.04, 2.49 3.04 M2.49 3.04 C2.49 3.04, 2.49 3.04, 2.49 3.04 M2.49 3.04 C2.51 3.06, 2.53 3.08, 2.57 3.14 M2.49 3.04 C2.52 3.08, 2.55 3.11, 2.57 3.14 M2.57 3.14 C2.66 3.25, 2.74 3.36, 2.8 3.44 M2.57 3.14 C2.63 3.22, 2.69 3.29, 2.8 3.44 M2.8 3.44 C3.03 3.78, 3.27 4.13, 3.6 4.61 M2.8 3.44 C3.02 3.76, 3.24 4.09, 3.6 4.61 M3.6 4.61 C3.97 5.24, 4.35 5.88, 4.72 6.5 M3.6 4.61 C3.98 5.25, 4.36 5.89, 4.72 6.5 M4.72 6.5 C5.18 7.38, 5.63 8.27, 6.02 9.05 M4.72 6.5 C5.01 7.05, 5.29 7.61, 6.02 9.05 M6.02 9.05 C6.44 10.09, 6.87 11.12, 7.31 12.22 M6.02 9.05 C6.49 10.2, 6.96 11.34, 7.31 12.22 M7.31 12.22 C7.72 13.56, 8.12 14.9, 8.44 15.96 M7.31 12.22 C7.75 13.67, 8.19 15.11, 8.44 15.96 M8.44 15.96 C8.66 17.09, 8.87 18.23, 9.24 20.21 M8.44 15.96 C8.68 17.19, 8.91 18.43, 9.24 20.21 M9.24 20.21 C9.35 21.92, 9.46 23.63, 9.55 24.94 M9.24 20.21 C9.35 21.85, 9.45 23.48, 9.55 24.94 M9.55 24.94 C9.46 26.28, 9.37 27.62, 9.24 29.66 M9.55 24.94 C9.45 26.4, 9.36 27.86, 9.24 29.66 M9.24 29.66 C8.96 31.17, 8.68 32.68, 8.44 33.91 M9.24 29.66 C8.98 31.03, 8.73 32.41, 8.44 33.91 M8.44 33.91 C8.2 34.73, 7.95 35.56, 7.31 37.65 M8.44 33.91 C8.09 35.1, 7.73 36.28, 7.31 37.65 M7.31 37.65 C6.8 38.91, 6.29 40.17, 6.02 40.82 M7.31 37.65 C6.91 38.64, 6.51 39.63, 6.02 40.82 M6.02 40.82 C5.6 41.65, 5.18 42.48, 4.72 43.38 M6.02 40.82 C5.73 41.39, 5.44 41.96, 4.72 43.38 M4.72 43.38 C4.38 43.96, 4.03 44.53, 3.6 45.26 M4.72 43.38 C4.31 44.07, 3.9 44.76, 3.6 45.26 M3.6 45.26 C3.31 45.68, 3.02 46.11, 2.8 46.43 M3.6 45.26 C3.39 45.56, 3.19 45.86, 2.8 46.43 M2.8 46.43 C2.72 46.54, 2.63 46.65, 2.57 46.73 M2.8 46.43 C2.73 46.52, 2.66 46.62, 2.57 46.73 M2.57 46.73 C2.55 46.76, 2.53 46.79, 2.49 46.83 M2.57 46.73 C2.55 46.76, 2.53 46.78, 2.49 46.83 M2.49 46.83 C1.97 47.47, 1.44 48.11, 0 49.87 M2.49 46.83 C1.93 47.52, 1.37 48.2, 0 49.87 M0 49.87 C0.91 49.87, 1.81 49.87, 3.94 49.87 M0 49.87 C1.46 49.87, 2.93 49.87, 3.94 49.87 M3.94 49.87 C10 49.87, 16.06 49.87, 21.39 49.87 M3.94 49.87 C10.23 49.87, 16.52 49.87, 21.39 49.87 M21.39 49.87 C21.39 49.87, 21.39 49.87, 21.39 49.87 M21.39 49.87 C21.39 49.87, 21.39 49.87, 21.39 49.87 M21.39 49.87 C21.7 49.87, 22 49.87, 22.68 49.87 M21.39 49.87 C21.69 49.87, 21.98 49.87, 22.68 49.87 M22.68 49.87 C23.23 49.85, 23.77 49.84, 24.27 49.83 M22.68 49.87 C23.24 49.85, 23.8 49.84, 24.27 49.83 M24.27 49.83 C24.65 49.81, 25.04 49.79, 26.13 49.72 M24.27 49.83 C24.84 49.8, 25.41 49.76, 26.13 49.72 M26.13 49.72 C26.87 49.65, 27.61 49.57, 28.23 49.51 M26.13 49.72 C26.96 49.64, 27.78 49.55, 28.23 49.51 M28.23 49.51 C29.01 49.39, 29.78 49.27, 30.54 49.15 M28.23 49.51 C29.01 49.39, 29.78 49.27, 30.54 49.15 M30.54 49.15 C31.51 48.94, 32.48 48.74, 33.02 48.62 M30.54 49.15 C31.31 48.99, 32.07 48.82, 33.02 48.62 M33.02 48.62 C34 48.34, 34.98 48.06, 35.65 47.87 M33.02 48.62 C33.6 48.46, 34.17 48.29, 35.65 47.87 M35.65 47.87 C36.2 47.67, 36.76 47.46, 38.38 46.87 M35.65 47.87 C36.53 47.55, 37.41 47.22, 38.38 46.87 M38.38 46.87 C39.01 46.58, 39.64 46.29, 41.19 45.58 M38.38 46.87 C39.29 46.45, 40.21 46.03, 41.19 45.58 M41.19 45.58 C41.87 45.2, 42.55 44.82, 44.04 43.98 M41.19 45.58 C42.27 44.98, 43.34 44.37, 44.04 43.98 M44.04 43.98 C44.78 43.47, 45.52 42.96, 46.91 42.02 M44.04 43.98 C45.16 43.21, 46.27 42.45, 46.91 42.02 M46.91 42.02 C47.93 41.18, 48.94 40.35, 49.77 39.67 M46.91 42.02 C47.55 41.49, 48.19 40.97, 49.77 39.67 M49.77 39.67 C50.34 39.11, 50.91 38.56, 52.58 36.91 M49.77 39.67 C50.35 39.1, 50.93 38.54, 52.58 36.91 M52.58 36.91 C53.47 35.87, 54.36 34.83, 55.32 33.71 M52.58 36.91 C53.47 35.87, 54.36 34.83, 55.32 33.71 M55.32 33.71 C55.96 32.8, 56.61 31.89, 57.94 30.02 M55.32 33.71 C56.2 32.47, 57.08 31.23, 57.94 30.02 M57.94 30.02 C58.77 28.63, 59.59 27.24, 60.43 25.83 M57.94 30.02 C58.85 28.49, 59.76 26.96, 60.43 25.83 M60.43 25.83 C59.87 25.53, 59.32 25.22, 58.79 24.94 M60.43 25.83 C60.09 25.65, 59.75 25.46, 58.79 24.94 M58.79 24.94 C59.23 24.7, 59.67 24.46, 60.43 24.04 M58.79 24.94 C59.35 24.63, 59.9 24.33, 60.43 24.04 M60.43 24.04 C60.43 24.04, 60.43 24.04, 60.43 24.04 M60.43 24.04 C60.43 24.04, 60.43 24.04, 60.43 24.04 M60.43 24.04 C59.84 23.04, 59.25 22.05, 57.94 19.85 M60.43 24.04 C59.81 22.99, 59.19 21.95, 57.94 19.85 M57.94 19.85 C57.19 18.81, 56.44 17.76, 55.31 16.18 M57.94 19.85 C56.92 18.43, 55.9 17.01, 55.31 16.18 M55.31 16.18 C54.6 15.36, 53.9 14.55, 52.57 12.99 M55.31 16.18 C54.69 15.46, 54.07 14.74, 52.57 12.99 M52.57 12.99 C51.6 12.06, 50.64 11.12, 49.75 10.26 M52.57 12.99 C51.53 11.99, 50.5 10.98, 49.75 10.26 M49.75 10.26 C48.74 9.44, 47.74 8.63, 46.88 7.93 M49.75 10.26 C49.16 9.78, 48.58 9.31, 46.88 7.93 M46.88 7.93 C46.13 7.43, 45.39 6.92, 44 5.99 M46.88 7.93 C46.23 7.49, 45.57 7.05, 44 5.99 M44 5.99 C43.26 5.58, 42.53 5.17, 41.13 4.39 M44 5.99 C43.34 5.62, 42.68 5.25, 41.13 4.39 M41.13 4.39 C40.31 4.01, 39.49 3.64, 38.32 3.11 M41.13 4.39 C40.54 4.12, 39.94 3.85, 38.32 3.11 M38.32 3.11 C37.43 2.78, 36.55 2.46, 35.58 2.1 M38.32 3.11 C37.29 2.73, 36.27 2.35, 35.58 2.1 M35.58 2.1 C34.91 1.9, 34.23 1.71, 32.96 1.34 M35.58 2.1 C34.98 1.92, 34.37 1.75, 32.96 1.34 M32.96 1.34 C32.45 1.22, 31.93 1.11, 30.49 0.79 M32.96 1.34 C32.44 1.22, 31.91 1.1, 30.49 0.79 M30.49 0.79 C29.95 0.7, 29.42 0.61, 28.19 0.41 M30.49 0.79 C29.66 0.65, 28.83 0.52, 28.19 0.41 M28.19 0.41 C27.39 0.32, 26.58 0.24, 26.09 0.18 M28.19 0.41 C27.48 0.33, 26.77 0.26, 26.09 0.18 M26.09 0.18 C25.62 0.15, 25.16 0.12, 24.24 0.06 M26.09 0.18 C25.47 0.14, 24.86 0.1, 24.24 0.06 M24.24 0.06 C23.88 0.05, 23.53 0.04, 22.66 0.01 M24.24 0.06 C23.83 0.05, 23.42 0.03, 22.66 0.01 M22.66 0.01 C22.38 0.01, 22.1 0, 21.39 0 M22.66 0.01 C22.34 0.01, 22.01 0, 21.39 0 M21.39 0 C15.57 0, 9.75 0, 3.94 0 M21.39 0 C16.2 0, 11.01 0, 3.94 0 M3.94 0 C2.39 0, 0.84 0, 0 0 M3.94 0 C2.79 0, 1.64 0, 0 0 M0 0 C0 0, 0 0, 0 0 M0 0 C0 0, 0 0, 0 0 M0 0 C0 0, 0 0, 0 0 M0 0 C0 0, 0 0, 0 0" stroke="#1e1e1e" stroke-width="1" fill="none"/></g></g><mask/><g stroke-linecap="round"><g transform="translate(255.35122611895105 219.58121974077352) rotate(379.92344200551145 24.4683724585352 21.195532830323483)" fill-rule="evenodd"><path d="M0 0 L14.07 0 L14.07 0 L15.29 0 L16.75 0.03 L20.28 0.31 L24.48 1.07 L26.78 1.72 L29.16 2.59 L31.63 3.7 L34.14 5.1 L36.68 6.82 L39.22 8.87 L41.74 11.31 L44.21 14.15 L46.62 17.44 L48.94 21.2 L46.65 24.9 L44.28 28.14 L41.83 30.96 L39.34 33.38 L36.82 35.42 L34.3 37.14 L31.8 38.54 L29.34 39.66 L26.89 40.57 L24.55 41.24 L20.32 42.05 L16.78 42.35 L14.07 42.39 L0.04 42.39 L0.04 42.39 L0.96 40.77 L1.95 38.84 L2.94 36.6 L3.88 34.06 L4.7 31.24 L5.36 28.14 L5.8 24.79 L5.96 21.2 L5.8 17.59 L5.36 14.23 L4.69 11.14 L3.86 8.32 L2.91 5.78 L1.92 3.54 L0.93 1.61 L0 0 L0 0" stroke="none" stroke-width="0" fill="#FFFFFF" fill-rule="evenodd"/><path d="M0 0 C4.55 0, 9.09 0, 14.07 0 M0 0 C3.03 0, 6.07 0, 14.07 0 M14.07 0 C14.07 0, 14.07 0, 14.07 0 M14.07 0 C14.07 0, 14.07 0, 14.07 0 M14.07 0 C14.4 0, 14.74 0, 15.29 0 M14.07 0 C14.33 0, 14.59 0, 15.29 0 M15.29 0 C15.86 0.02, 16.44 0.03, 16.75 0.03 M15.29 0 C15.63 0.01, 15.98 0.02, 16.75 0.03 M16.75 0.03 C17.54 0.1, 18.34 0.16, 20.28 0.31 M16.75 0.03 C17.71 0.11, 18.68 0.18, 20.28 0.31 M20.28 0.31 C21.81 0.59, 23.33 0.87, 24.48 1.07 M20.28 0.31 C21.44 0.52, 22.6 0.73, 24.48 1.07 M24.48 1.07 C25.34 1.32, 26.19 1.56, 26.78 1.72 M24.48 1.07 C25.23 1.29, 25.98 1.5, 26.78 1.72 M26.78 1.72 C27.59 2.02, 28.4 2.31, 29.16 2.59 M26.78 1.72 C27.61 2.03, 28.45 2.33, 29.16 2.59 M29.16 2.59 C29.97 2.96, 30.78 3.32, 31.63 3.7 M29.16 2.59 C29.95 2.95, 30.74 3.3, 31.63 3.7 M31.63 3.7 C32.4 4.14, 33.18 4.57, 34.14 5.1 M31.63 3.7 C32.52 4.2, 33.4 4.69, 34.14 5.1 M34.14 5.1 C34.7 5.48, 35.26 5.86, 36.68 6.82 M34.14 5.1 C34.95 5.65, 35.77 6.2, 36.68 6.82 M36.68 6.82 C37.47 7.45, 38.25 8.09, 39.22 8.87 M36.68 6.82 C37.55 7.52, 38.42 8.23, 39.22 8.87 M39.22 8.87 C40.18 9.81, 41.15 10.74, 41.74 11.31 M39.22 8.87 C39.73 9.37, 40.25 9.87, 41.74 11.31 M41.74 11.31 C42.6 12.3, 43.46 13.29, 44.21 14.15 M41.74 11.31 C42.34 12, 42.94 12.69, 44.21 14.15 M44.21 14.15 C44.85 15.02, 45.48 15.89, 46.62 17.44 M44.21 14.15 C45.09 15.34, 45.96 16.53, 46.62 17.44 M46.62 17.44 C47.29 18.52, 47.95 19.6, 48.94 21.2 M46.62 17.44 C47.4 18.7, 48.17 19.96, 48.94 21.2 M48.94 21.2 C48.21 22.38, 47.48 23.56, 46.65 24.9 M48.94 21.2 C48.48 21.94, 48.02 22.68, 46.65 24.9 M46.65 24.9 C45.82 26.04, 44.98 27.19, 44.28 28.14 M46.65 24.9 C45.77 26.11, 44.88 27.32, 44.28 28.14 M44.28 28.14 C43.5 29.04, 42.72 29.93, 41.83 30.96 M44.28 28.14 C43.69 28.82, 43.11 29.49, 41.83 30.96 M41.83 30.96 C41.26 31.52, 40.68 32.07, 39.34 33.38 M41.83 30.96 C41.16 31.61, 40.49 32.26, 39.34 33.38 M39.34 33.38 C38.74 33.86, 38.14 34.35, 36.82 35.42 M39.34 33.38 C38.81 33.81, 38.28 34.24, 36.82 35.42 M36.82 35.42 C35.89 36.06, 34.96 36.69, 34.3 37.14 M36.82 35.42 C36.31 35.77, 35.8 36.12, 34.3 37.14 M34.3 37.14 C33.37 37.66, 32.44 38.18, 31.8 38.54 M34.3 37.14 C33.39 37.65, 32.48 38.16, 31.8 38.54 M31.8 38.54 C31.12 38.85, 30.45 39.16, 29.34 39.66 M31.8 38.54 C31.03 38.89, 30.26 39.24, 29.34 39.66 M29.34 39.66 C28.8 39.86, 28.26 40.06, 26.89 40.57 M29.34 39.66 C28.46 39.99, 27.58 40.31, 26.89 40.57 M26.89 40.57 C26.38 40.71, 25.87 40.86, 24.55 41.24 M26.89 40.57 C26.4 40.71, 25.91 40.85, 24.55 41.24 M24.55 41.24 C22.89 41.56, 21.23 41.88, 20.32 42.05 M24.55 41.24 C22.97 41.55, 21.39 41.85, 20.32 42.05 M20.32 42.05 C19.16 42.15, 18 42.25, 16.78 42.35 M20.32 42.05 C19.39 42.13, 18.46 42.21, 16.78 42.35 M16.78 42.35 C15.92 42.36, 15.07 42.38, 14.07 42.39 M16.78 42.35 C15.7 42.37, 14.63 42.38, 14.07 42.39 M14.07 42.39 C9.9 42.39, 5.74 42.39, 0.04 42.39 M14.07 42.39 C9.79 42.39, 5.51 42.39, 0.04 42.39 M0.04 42.39 C0.04 42.39, 0.04 42.39, 0.04 42.39 M0.04 42.39 C0.04 42.39, 0.04 42.39, 0.04 42.39 M0.04 42.39 C0.29 41.95, 0.55 41.5, 0.96 40.77 M0.04 42.39 C0.35 41.85, 0.66 41.3, 0.96 40.77 M0.96 40.77 C1.31 40.09, 1.66 39.41, 1.95 38.84 M0.96 40.77 C1.26 40.2, 1.55 39.62, 1.95 38.84 M1.95 38.84 C2.32 37.99, 2.7 37.14, 2.94 36.6 M1.95 38.84 C2.17 38.35, 2.38 37.86, 2.94 36.6 M2.94 36.6 C3.19 35.91, 3.44 35.23, 3.88 34.06 M2.94 36.6 C3.24 35.77, 3.55 34.94, 3.88 34.06 M3.88 34.06 C4.19 33, 4.5 31.93, 4.7 31.24 M3.88 34.06 C4.19 32.99, 4.5 31.93, 4.7 31.24 M4.7 31.24 C4.92 30.2, 5.15 29.16, 5.36 28.14 M4.7 31.24 C4.88 30.43, 5.05 29.62, 5.36 28.14 M5.36 28.14 C5.45 27.45, 5.55 26.76, 5.8 24.79 M5.36 28.14 C5.5 27.12, 5.63 26.1, 5.8 24.79 M5.8 24.79 C5.85 23.61, 5.91 22.42, 5.96 21.2 M5.8 24.79 C5.85 23.83, 5.89 22.87, 5.96 21.2 M5.96 21.2 C5.92 20.24, 5.88 19.29, 5.8 17.59 M5.96 21.2 C5.92 20.28, 5.88 19.36, 5.8 17.59 M5.8 17.59 C5.69 16.78, 5.59 15.97, 5.36 14.23 M5.8 17.59 C5.66 16.53, 5.52 15.47, 5.36 14.23 M5.36 14.23 C5.15 13.29, 4.95 12.34, 4.69 11.14 M5.36 14.23 C5.13 13.16, 4.9 12.09, 4.69 11.14 M4.69 11.14 C4.38 10.1, 4.08 9.06, 3.86 8.32 M4.69 11.14 C4.44 10.31, 4.2 9.47, 3.86 8.32 M3.86 8.32 C3.53 7.43, 3.2 6.55, 2.91 5.78 M3.86 8.32 C3.61 7.65, 3.36 6.98, 2.91 5.78 M2.91 5.78 C2.69 5.28, 2.47 4.78, 1.92 3.54 M2.91 5.78 C2.6 5.09, 2.3 4.4, 1.92 3.54 M1.92 3.54 C1.55 2.83, 1.18 2.11, 0.93 1.61 M1.92 3.54 C1.57 2.87, 1.22 2.19, 0.93 1.61 M0.93 1.61 C0.72 1.25, 0.51 0.88, 0 0 M0.93 1.61 C0.58 1.01, 0.24 0.41, 0 0 M0 0 C0 0, 0 0, 0 0 M0 0 C0 0, 0 0, 0 0 M0 0 C0 0, 0 0, 0 0 M0 0 C0 0, 0 0, 0 0" stroke="#1e1e1e" stroke-width="1" fill="none"/></g></g><mask/><g stroke-linecap="round"><g transform="translate(304.7408799618239 249.90034253191828) rotate(379.92344200551145 0.25979223930595907 0.05196042994890604)"><path d="M0 0 C0.09 0.02, 0.43 0.09, 0.52 0.1 M0 0 C0.09 0.02, 0.43 0.09, 0.52 0.1" stroke="#1e1e1e" stroke-width="4" fill="none"/></g></g><mask/><g transform="translate(266.32106944690014 233.6883066895606) rotate(379.92344200551145 13.597862243652344 7.217701720996697)"><text x="0" y="11.548567920093388" font-family="Helvetica, Segoe UI Emoji" font-size="12.552524732168168px" fill="#1e1e1e" text-anchor="start" style="white-space: pre;" direction="ltr" dominant-baseline="alphabetic">XOR</text></g><g transform="translate(10.000000000000114 13.556767867611086) rotate(0 9.49462890625 16.373099909978976)"><text x="0" y="26.197516007457878" font-family="Helvetica, Segoe UI Emoji" font-size="28.47495636518084px" fill="#1e1e1e" text-anchor="start" style="white-space: pre;" direction="ltr" dominant-baseline="alphabetic">A</text></g><g transform="translate(10 109.14079124911933) rotate(0 9.49462890625 16.373099909978976)"><text x="0" y="26.197516007457878" font-family="Helvetica, Segoe UI Emoji" font-size="28.47495636518084px" fill="#1e1e1e" text-anchor="start" style="white-space: pre;" direction="ltr" dominant-baseline="alphabetic">B</text></g><g stroke-linecap="round"><g transform="translate(166.97979720469948 20.964256478512027) rotate(33.72953652535139 28.19143199851524 27.859769342963133)" fill-rule="evenodd"><path d="M0 0 L0 1.99 L0 53.73 L0 55.72 L1.99 55.72 L28.52 55.72 L28.52 55.72 L31.42 55.58 L34.23 55.15 L36.92 54.46 L39.5 53.52 L41.94 52.34 L44.24 50.94 L48.34 47.54 L51.71 43.41 L54.24 38.68 L55.16 36.12 L55.83 33.46 L56.24 30.7 L56.38 27.86 L56.24 25.02 L55.83 22.26 L55.16 19.6 L54.24 17.04 L51.71 12.31 L48.34 8.18 L44.24 4.77 L41.94 3.38 L39.5 2.2 L36.92 1.26 L34.23 0.57 L31.42 0.14 L28.52 0 L28.47 0 L28.11 0 L27.12 0 L26.3 0 L25.21 0 L23.8 0 L22.05 0 L19.9 0 L17.33 0 L14.29 0 L10.75 0 L6.66 0 L1.99 0 L0 0 L0 0" stroke="none" stroke-width="0" fill="black" fill-rule="evenodd"/><path d="M0 0 C0 0.61, 0 1.22, 0 1.99 M0 0 C0 0.52, 0 1.05, 0 1.99 M0 1.99 C0 19.17, 0 36.34, 0 53.73 M0 1.99 C0 15.49, 0 28.99, 0 53.73 M0 53.73 C0 54.39, 0 55.05, 0 55.72 M0 53.73 C0 54.35, 0 54.96, 0 55.72 M0 55.72 C0.49 55.72, 0.97 55.72, 1.99 55.72 M0 55.72 C0.69 55.72, 1.38 55.72, 1.99 55.72 M1.99 55.72 C9.54 55.72, 17.09 55.72, 28.52 55.72 M1.99 55.72 C7.3 55.72, 12.61 55.72, 28.52 55.72 M28.52 55.72 C28.52 55.72, 28.52 55.72, 28.52 55.72 M28.52 55.72 C28.52 55.72, 28.52 55.72, 28.52 55.72 M28.52 55.72 C29.5 55.67, 30.47 55.62, 31.42 55.58 M28.52 55.72 C29.22 55.68, 29.91 55.65, 31.42 55.58 M31.42 55.58 C32.14 55.47, 32.86 55.36, 34.23 55.15 M31.42 55.58 C32.17 55.46, 32.92 55.35, 34.23 55.15 M34.23 55.15 C35.08 54.93, 35.93 54.72, 36.92 54.46 M34.23 55.15 C35.03 54.95, 35.83 54.74, 36.92 54.46 M36.92 54.46 C37.93 54.09, 38.93 53.73, 39.5 53.52 M36.92 54.46 C37.61 54.21, 38.29 53.96, 39.5 53.52 M39.5 53.52 C40.02 53.27, 40.54 53.02, 41.94 52.34 M39.5 53.52 C40.26 53.16, 41.02 52.79, 41.94 52.34 M41.94 52.34 C42.44 52.04, 42.94 51.73, 44.24 50.94 M41.94 52.34 C42.84 51.8, 43.73 51.25, 44.24 50.94 M44.24 50.94 C45.4 49.98, 46.57 49.01, 48.34 47.54 M44.24 50.94 C45.78 49.66, 47.32 48.38, 48.34 47.54 M48.34 47.54 C49.64 45.95, 50.93 44.36, 51.71 43.41 M48.34 47.54 C49.21 46.46, 50.09 45.39, 51.71 43.41 M51.71 43.41 C52.56 41.81, 53.42 40.21, 54.24 38.68 M51.71 43.41 C52.35 42.2, 53 40.98, 54.24 38.68 M54.24 38.68 C54.46 38.05, 54.69 37.42, 55.16 36.12 M54.24 38.68 C54.43 38.15, 54.62 37.63, 55.16 36.12 M55.16 36.12 C55.32 35.46, 55.49 34.79, 55.83 33.46 M55.16 36.12 C55.34 35.38, 55.53 34.64, 55.83 33.46 M55.83 33.46 C55.98 32.44, 56.13 31.42, 56.24 30.7 M55.83 33.46 C55.98 32.42, 56.14 31.39, 56.24 30.7 M56.24 30.7 C56.28 29.98, 56.31 29.26, 56.38 27.86 M56.24 30.7 C56.28 30.04, 56.31 29.38, 56.38 27.86 M56.38 27.86 C56.35 27.21, 56.32 26.55, 56.24 25.02 M56.38 27.86 C56.35 27.22, 56.32 26.58, 56.24 25.02 M56.24 25.02 C56.14 24.34, 56.04 23.66, 55.83 22.26 M56.24 25.02 C56.13 24.27, 56.02 23.52, 55.83 22.26 M55.83 22.26 C55.61 21.41, 55.4 20.56, 55.16 19.6 M55.83 22.26 C55.67 21.64, 55.51 21.01, 55.16 19.6 M55.16 19.6 C54.9 18.88, 54.64 18.15, 54.24 17.04 M55.16 19.6 C54.95 19.04, 54.75 18.48, 54.24 17.04 M54.24 17.04 C53.64 15.93, 53.05 14.82, 51.71 12.31 M54.24 17.04 C53.25 15.2, 52.27 13.37, 51.71 12.31 M51.71 12.31 C50.75 11.14, 49.8 9.98, 48.34 8.18 M51.71 12.31 C50.85 11.26, 49.99 10.21, 48.34 8.18 M48.34 8.18 C46.74 6.86, 45.14 5.53, 44.24 4.77 M48.34 8.18 C47.15 7.19, 45.96 6.2, 44.24 4.77 M44.24 4.77 C43.49 4.32, 42.75 3.87, 41.94 3.38 M44.24 4.77 C43.72 4.46, 43.2 4.14, 41.94 3.38 M41.94 3.38 C41.2 3.02, 40.46 2.66, 39.5 2.2 M41.94 3.38 C41.31 3.07, 40.69 2.77, 39.5 2.2 M39.5 2.2 C38.61 1.88, 37.73 1.55, 36.92 1.26 M39.5 2.2 C38.61 1.88, 37.73 1.55, 36.92 1.26 M36.92 1.26 C36.09 1.05, 35.27 0.83, 34.23 0.57 M36.92 1.26 C36.34 1.11, 35.75 0.96, 34.23 0.57 M34.23 0.57 C33.54 0.46, 32.85 0.36, 31.42 0.14 M34.23 0.57 C33.44 0.45, 32.65 0.33, 31.42 0.14 M31.42 0.14 C30.71 0.11, 29.99 0.07, 28.52 0 M31.42 0.14 C30.79 0.11, 30.17 0.08, 28.52 0 M28.52 0 C28.5 0, 28.48 0, 28.47 0 M28.52 0 C28.51 0, 28.49 0, 28.47 0 M28.47 0 C28.33 0, 28.2 0, 28.11 0 M28.47 0 C28.36 0, 28.24 0, 28.11 0 M28.11 0 C27.82 0, 27.53 0, 27.12 0 M28.11 0 C27.87 0, 27.63 0, 27.12 0 M27.12 0 C26.91 0, 26.7 0, 26.3 0 M27.12 0 C26.89 0, 26.66 0, 26.3 0 M26.3 0 C25.92 0, 25.53 0, 25.21 0 M26.3 0 C26.04 0, 25.78 0, 25.21 0 M25.21 0 C24.82 0, 24.44 0, 23.8 0 M25.21 0 C24.77 0, 24.34 0, 23.8 0 M23.8 0 C23.28 0, 22.76 0, 22.05 0 M23.8 0 C23.11 0, 22.42 0, 22.05 0 M22.05 0 C21.39 0, 20.74 0, 19.9 0 M22.05 0 C21.42 0, 20.8 0, 19.9 0 M19.9 0 C19.03 0, 18.15 0, 17.33 0 M19.9 0 C19.37 0, 18.84 0, 17.33 0 M17.33 0 C16.56 0, 15.79 0, 14.29 0 M17.33 0 C16.27 0, 15.21 0, 14.29 0 M14.29 0 C13.42 0, 12.55 0, 10.75 0 M14.29 0 C13.45 0, 12.61 0, 10.75 0 M10.75 0 C9.42 0, 8.09 0, 6.66 0 M10.75 0 C9.5 0, 8.24 0, 6.66 0 M6.66 0 C5.54 0, 4.41 0, 1.99 0 M6.66 0 C5.69 0, 4.72 0, 1.99 0 M1.99 0 C1.31 0, 0.63 0, 0 0 M1.99 0 C1.57 0, 1.16 0, 0 0 M0 0 C0 0, 0 0, 0 0 M0 0 C0 0, 0 0, 0 0 M0 0 C0 0, 0 0, 0 0 M0 0 C0 0, 0 0, 0 0" stroke="#1e1e1e" stroke-width="1" fill="none"/></g></g><mask/><g stroke-linecap="round"><g transform="translate(171.01559419343772 24.760061758251993) rotate(33.72953652535139 23.879804191764578 23.879801866964257)" fill-rule="evenodd"><path d="M0 0 L0 0 L3.98 0 L7.58 0 L10.8 0 L13.64 0 L16.11 0 L18.19 0 L19.9 0 L21.23 0 L22.32 0 L23.14 0 L24.13 0 L24.5 0 L24.54 0 L29.44 0.48 L33.91 1.87 L37.86 4.07 L41.25 6.98 L44 10.51 L46.04 14.56 L47.32 19.05 L47.76 23.88 L47.29 28.71 L45.94 33.2 L43.79 37.25 L40.92 40.78 L37.41 43.69 L33.35 45.89 L28.81 47.28 L23.88 47.76 L0 47.76 L0 0 L0 0" stroke="none" stroke-width="0" fill="#FFFFFF" fill-rule="evenodd"/><path d="M0 0 C0 0, 0 0, 0 0 M0 0 C0 0, 0 0, 0 0 M0 0 C0.89 0, 1.78 0, 3.98 0 M0 0 C1.44 0, 2.89 0, 3.98 0 M3.98 0 C5.33 0, 6.68 0, 7.58 0 M3.98 0 C4.9 0, 5.82 0, 7.58 0 M7.58 0 C8.53 0, 9.48 0, 10.8 0 M7.58 0 C8.47 0, 9.37 0, 10.8 0 M10.8 0 C11.75 0, 12.71 0, 13.64 0 M10.8 0 C11.77 0, 12.73 0, 13.64 0 M13.64 0 C14.5 0, 15.36 0, 16.11 0 M13.64 0 C14.18 0, 14.72 0, 16.11 0 M16.11 0 C16.79 0, 17.47 0, 18.19 0 M16.11 0 C16.86 0, 17.62 0, 18.19 0 M18.19 0 C18.8 0, 19.42 0, 19.9 0 M18.19 0 C18.85 0, 19.51 0, 19.9 0 M19.9 0 C20.25 0, 20.61 0, 21.23 0 M19.9 0 C20.28 0, 20.67 0, 21.23 0 M21.23 0 C21.62 0, 22.02 0, 22.32 0 M21.23 0 C21.6 0, 21.98 0, 22.32 0 M22.32 0 C22.55 0, 22.79 0, 23.14 0 M22.32 0 C22.58 0, 22.83 0, 23.14 0 M23.14 0 C23.49 0, 23.84 0, 24.13 0 M23.14 0 C23.46 0, 23.78 0, 24.13 0 M24.13 0 C24.21 0, 24.29 0, 24.5 0 M24.13 0 C24.25 0, 24.36 0, 24.5 0 M24.5 0 C24.52 0, 24.53 0, 24.54 0 M24.5 0 C24.51 0, 24.53 0, 24.54 0 M24.54 0 C26.13 0.16, 27.72 0.31, 29.44 0.48 M24.54 0 C25.64 0.11, 26.73 0.22, 29.44 0.48 M29.44 0.48 C30.81 0.91, 32.18 1.33, 33.91 1.87 M29.44 0.48 C31.08 0.99, 32.72 1.5, 33.91 1.87 M33.91 1.87 C35.33 2.66, 36.76 3.45, 37.86 4.07 M33.91 1.87 C34.92 2.43, 35.93 2.99, 37.86 4.07 M37.86 4.07 C39.1 5.13, 40.33 6.19, 41.25 6.98 M37.86 4.07 C38.91 4.97, 39.96 5.87, 41.25 6.98 M41.25 6.98 C42.08 8.04, 42.91 9.1, 44 10.51 M41.25 6.98 C41.95 7.87, 42.65 8.77, 44 10.51 M44 10.51 C44.43 11.36, 44.86 12.21, 46.04 14.56 M44 10.51 C44.46 11.42, 44.92 12.33, 46.04 14.56 M46.04 14.56 C46.34 15.6, 46.63 16.63, 47.32 19.05 M46.04 14.56 C46.52 16.23, 46.99 17.9, 47.32 19.05 M47.32 19.05 C47.47 20.73, 47.63 22.41, 47.76 23.88 M47.32 19.05 C47.48 20.79, 47.64 22.53, 47.76 23.88 M47.76 23.88 C47.65 25.05, 47.53 26.22, 47.29 28.71 M47.76 23.88 C47.58 25.7, 47.41 27.52, 47.29 28.71 M47.29 28.71 C46.97 29.77, 46.65 30.84, 45.94 33.2 M47.29 28.71 C46.98 29.73, 46.67 30.76, 45.94 33.2 M45.94 33.2 C45.2 34.59, 44.46 35.98, 43.79 37.25 M45.94 33.2 C45.18 34.62, 44.43 36.05, 43.79 37.25 M43.79 37.25 C43.2 37.98, 42.61 38.7, 40.92 40.78 M43.79 37.25 C42.91 38.34, 42.03 39.42, 40.92 40.78 M40.92 40.78 C39.69 41.8, 38.46 42.82, 37.41 43.69 M40.92 40.78 C39.55 41.92, 38.17 43.06, 37.41 43.69 M37.41 43.69 C36.05 44.43, 34.69 45.17, 33.35 45.89 M37.41 43.69 C36.05 44.43, 34.69 45.17, 33.35 45.89 M33.35 45.89 C31.57 46.43, 29.8 46.97, 28.81 47.28 M33.35 45.89 C31.95 46.32, 30.56 46.74, 28.81 47.28 M28.81 47.28 C26.97 47.46, 25.14 47.64, 23.88 47.76 M28.81 47.28 C27.73 47.38, 26.66 47.49, 23.88 47.76 M23.88 47.76 C19.02 47.76, 14.15 47.76, 0 47.76 M23.88 47.76 C16.16 47.76, 8.43 47.76, 0 47.76 M0 47.76 C0 37.04, 0 26.33, 0 0 M0 47.76 C0 32.22, 0 16.69, 0 0 M0 0 C0 0, 0 0, 0 0 M0 0 C0 0, 0 0, 0 0 M0 0 C0 0, 0 0, 0 0 M0 0 C0 0, 0 0, 0 0" stroke="#1e1e1e" stroke-width="1" fill="none"/></g></g><mask/><g transform="translate(182.25442290767296 44.19883844636928) rotate(33.72953652535139 11.928993225097656 6.502729939670672)"><text x="0" y="10.404588784245487" font-family="Helvetica, Segoe UI Emoji" font-size="11.30909554725335px" fill="#1e1e1e" text-anchor="start" style="white-space: pre;" direction="ltr" dominant-baseline="alphabetic">AND</text></g><g stroke-linecap="round"><g transform="translate(141.7034733199235 139.59205958036915) rotate(348.97614018063575 -0.7208039657371046 -21.195537586472966)" fill-rule="evenodd"><path d="M0 0 L0 0 L-0.69 1.11 L-1.28 1.98 L-2.15 3.11 L-2.65 3.62 L-2.81 3.74 L-7.36 3.74 L-4.87 0.7 L-4.87 0.7 L-4.79 0.6 L-4.57 0.3 L-3.77 -0.87 L-2.64 -2.75 L-1.34 -5.31 L-0.05 -8.48 L1.08 -12.22 L1.88 -16.47 L2.18 -21.2 L1.88 -25.92 L1.08 -30.17 L-0.05 -33.91 L-1.34 -37.08 L-2.64 -39.64 L-3.77 -41.52 L-4.57 -42.69 L-4.79 -42.99 L-4.87 -43.09 L-7.36 -46.13 L-2.81 -46.13 L-2.81 -46.13 L-1.43 -44.45 L-0.04 -42.39 L0.89 -40.78 L1.88 -38.85 L2.87 -36.61 L3.82 -34.07 L4.65 -31.25 L5.32 -28.16 L5.76 -24.8 L5.92 -21.2 L5.76 -17.6 L5.32 -14.25 L4.66 -11.16 L3.83 -8.34 L2.89 -5.8 L1.9 -3.56 L0.92 -1.62 L0 0 L0 0" stroke="none" stroke-width="0" fill="black" fill-rule="evenodd"/><path d="M0 0 C0 0, 0 0, 0 0 M0 0 C0 0, 0 0, 0 0 M0 0 C-0.18 0.28, -0.35 0.56, -0.69 1.11 M0 0 C-0.15 0.24, -0.3 0.48, -0.69 1.11 M-0.69 1.11 C-0.91 1.43, -1.13 1.76, -1.28 1.98 M-0.69 1.11 C-0.82 1.3, -0.95 1.49, -1.28 1.98 M-1.28 1.98 C-1.53 2.3, -1.77 2.62, -2.15 3.11 M-1.28 1.98 C-1.62 2.42, -1.97 2.87, -2.15 3.11 M-2.15 3.11 C-2.35 3.31, -2.55 3.52, -2.65 3.62 M-2.15 3.11 C-2.34 3.3, -2.53 3.49, -2.65 3.62 M-2.65 3.62 C-2.69 3.66, -2.74 3.69, -2.81 3.74 M-2.65 3.62 C-2.7 3.66, -2.75 3.7, -2.81 3.74 M-2.81 3.74 C-4.48 3.74, -6.15 3.74, -7.36 3.74 M-2.81 3.74 C-4.02 3.74, -5.23 3.74, -7.36 3.74 M-7.36 3.74 C-6.55 2.75, -5.73 1.75, -4.87 0.7 M-7.36 3.74 C-6.6 2.81, -5.84 1.88, -4.87 0.7 M-4.87 0.7 C-4.87 0.7, -4.87 0.7, -4.87 0.7 M-4.87 0.7 C-4.87 0.7, -4.87 0.7, -4.87 0.7 M-4.87 0.7 C-4.84 0.67, -4.81 0.63, -4.79 0.6 M-4.87 0.7 C-4.84 0.67, -4.81 0.63, -4.79 0.6 M-4.79 0.6 C-4.72 0.5, -4.64 0.4, -4.57 0.3 M-4.79 0.6 C-4.72 0.5, -4.65 0.41, -4.57 0.3 M-4.57 0.3 C-4.39 0.03, -4.2 -0.23, -3.77 -0.87 M-4.57 0.3 C-4.4 0.06, -4.24 -0.18, -3.77 -0.87 M-3.77 -0.87 C-3.54 -1.25, -3.31 -1.64, -2.64 -2.75 M-3.77 -0.87 C-3.53 -1.27, -3.29 -1.66, -2.64 -2.75 M-2.64 -2.75 C-2.17 -3.67, -1.71 -4.59, -1.34 -5.31 M-2.64 -2.75 C-2.28 -3.47, -1.91 -4.19, -1.34 -5.31 M-1.34 -5.31 C-0.87 -6.47, -0.4 -7.63, -0.05 -8.48 M-1.34 -5.31 C-0.97 -6.23, -0.59 -7.15, -0.05 -8.48 M-0.05 -8.48 C0.2 -9.3, 0.45 -10.12, 1.08 -12.22 M-0.05 -8.48 C0.36 -9.82, 0.76 -11.17, 1.08 -12.22 M1.08 -12.22 C1.31 -13.43, 1.53 -14.64, 1.88 -16.47 M1.08 -12.22 C1.28 -13.3, 1.49 -14.38, 1.88 -16.47 M1.88 -16.47 C1.95 -17.61, 2.02 -18.74, 2.18 -21.2 M1.88 -16.47 C1.97 -17.82, 2.05 -19.17, 2.18 -21.2 M2.18 -21.2 C2.08 -22.76, 1.98 -24.33, 1.88 -25.92 M2.18 -21.2 C2.09 -22.69, 1.99 -24.19, 1.88 -25.92 M1.88 -25.92 C1.63 -27.25, 1.38 -28.58, 1.08 -30.17 M1.88 -25.92 C1.67 -27.05, 1.45 -28.18, 1.08 -30.17 M1.08 -30.17 C0.75 -31.28, 0.41 -32.38, -0.05 -33.91 M1.08 -30.17 C0.73 -31.32, 0.39 -32.46, -0.05 -33.91 M-0.05 -33.91 C-0.43 -34.84, -0.81 -35.77, -1.34 -37.08 M-0.05 -33.91 C-0.53 -35.09, -1.02 -36.28, -1.34 -37.08 M-1.34 -37.08 C-1.69 -37.77, -2.04 -38.46, -2.64 -39.64 M-1.34 -37.08 C-1.82 -38.01, -2.29 -38.94, -2.64 -39.64 M-2.64 -39.64 C-2.97 -40.19, -3.3 -40.74, -3.77 -41.52 M-2.64 -39.64 C-2.91 -40.09, -3.19 -40.55, -3.77 -41.52 M-3.77 -41.52 C-4.06 -41.95, -4.35 -42.38, -4.57 -42.69 M-3.77 -41.52 C-3.96 -41.81, -4.16 -42.09, -4.57 -42.69 M-4.57 -42.69 C-4.65 -42.81, -4.74 -42.92, -4.79 -42.99 M-4.57 -42.69 C-4.65 -42.8, -4.73 -42.92, -4.79 -42.99 M-4.79 -42.99 C-4.82 -43.03, -4.85 -43.07, -4.87 -43.09 M-4.79 -42.99 C-4.81 -43.01, -4.83 -43.04, -4.87 -43.09 M-4.87 -43.09 C-5.66 -44.05, -6.44 -45.01, -7.36 -46.13 M-4.87 -43.09 C-5.45 -43.8, -6.03 -44.51, -7.36 -46.13 M-7.36 -46.13 C-5.56 -46.13, -3.75 -46.13, -2.81 -46.13 M-7.36 -46.13 C-5.69 -46.13, -4.02 -46.13, -2.81 -46.13 M-2.81 -46.13 C-2.81 -46.13, -2.81 -46.13, -2.81 -46.13 M-2.81 -46.13 C-2.81 -46.13, -2.81 -46.13, -2.81 -46.13 M-2.81 -46.13 C-2.39 -45.62, -1.97 -45.11, -1.43 -44.45 M-2.81 -46.13 C-2.41 -45.64, -2.01 -45.16, -1.43 -44.45 M-1.43 -44.45 C-0.99 -43.8, -0.55 -43.14, -0.04 -42.39 M-1.43 -44.45 C-1.14 -44.03, -0.86 -43.6, -0.04 -42.39 M-0.04 -42.39 C0.21 -41.96, 0.46 -41.53, 0.89 -40.78 M-0.04 -42.39 C0.33 -41.75, 0.7 -41.1, 0.89 -40.78 M0.89 -40.78 C1.15 -40.26, 1.42 -39.74, 1.88 -38.85 M0.89 -40.78 C1.25 -40.06, 1.62 -39.35, 1.88 -38.85 M1.88 -38.85 C2.23 -38.06, 2.58 -37.27, 2.87 -36.61 M1.88 -38.85 C2.1 -38.35, 2.32 -37.86, 2.87 -36.61 M2.87 -36.61 C3.07 -36.08, 3.26 -35.56, 3.82 -34.07 M2.87 -36.61 C3.21 -35.7, 3.55 -34.8, 3.82 -34.07 M3.82 -34.07 C4.01 -33.42, 4.2 -32.77, 4.65 -31.25 M3.82 -34.07 C4.06 -33.25, 4.31 -32.42, 4.65 -31.25 M4.65 -31.25 C4.83 -30.41, 5.02 -29.56, 5.32 -28.16 M4.65 -31.25 C4.89 -30.16, 5.12 -29.08, 5.32 -28.16 M5.32 -28.16 C5.45 -27.2, 5.57 -26.23, 5.76 -24.8 M5.32 -28.16 C5.44 -27.25, 5.56 -26.34, 5.76 -24.8 M5.76 -24.8 C5.81 -23.83, 5.85 -22.86, 5.92 -21.2 M5.76 -24.8 C5.81 -23.71, 5.86 -22.62, 5.92 -21.2 M5.92 -21.2 C5.87 -20.06, 5.82 -18.93, 5.76 -17.6 M5.92 -21.2 C5.89 -20.4, 5.85 -19.6, 5.76 -17.6 M5.76 -17.6 C5.6 -16.4, 5.45 -15.2, 5.32 -14.25 M5.76 -17.6 C5.66 -16.85, 5.57 -16.11, 5.32 -14.25 M5.32 -14.25 C5.17 -13.57, 5.03 -12.88, 4.66 -11.16 M5.32 -14.25 C5.1 -13.24, 4.89 -12.22, 4.66 -11.16 M4.66 -11.16 C4.36 -10.14, 4.06 -9.11, 3.83 -8.34 M4.66 -11.16 C4.42 -10.35, 4.18 -9.53, 3.83 -8.34 M3.83 -8.34 C3.53 -7.52, 3.22 -6.7, 2.89 -5.8 M3.83 -8.34 C3.47 -7.36, 3.1 -6.38, 2.89 -5.8 M2.89 -5.8 C2.62 -5.2, 2.36 -4.6, 1.9 -3.56 M2.89 -5.8 C2.55 -5.04, 2.22 -4.28, 1.9 -3.56 M1.9 -3.56 C1.66 -3.08, 1.42 -2.61, 0.92 -1.62 M1.9 -3.56 C1.6 -2.97, 1.3 -2.37, 0.92 -1.62 M0.92 -1.62 C0.62 -1.1, 0.33 -0.58, 0 0 M0.92 -1.62 C0.57 -1, 0.22 -0.38, 0 0 M0 0 C0 0, 0 0, 0 0 M0 0 C0 0, 0 0, 0 0 M0 0 C0 0, 0 0, 0 0 M0 0 C0 0, 0 0, 0 0" stroke="#1e1e1e" stroke-width="0.5" fill="none"/></g></g><mask/><g stroke-linecap="round"><g transform="translate(140.94141069316186 87.58231093388264) rotate(348.97614018063575 30.21532299616888 24.935920976851165)" fill-rule="evenodd"><path d="M0 0 L2.49 3.04 L2.49 3.04 L2.57 3.14 L2.8 3.44 L3.6 4.61 L4.72 6.5 L6.02 9.05 L7.31 12.22 L8.44 15.96 L9.24 20.21 L9.55 24.94 L9.24 29.66 L8.44 33.91 L7.31 37.65 L6.02 40.82 L4.72 43.38 L3.6 45.26 L2.8 46.43 L2.57 46.73 L2.49 46.83 L0 49.87 L3.94 49.87 L21.39 49.87 L21.39 49.87 L22.68 49.87 L24.27 49.83 L26.13 49.72 L28.23 49.51 L30.54 49.15 L33.02 48.62 L35.65 47.87 L38.38 46.87 L41.19 45.58 L44.04 43.98 L46.91 42.02 L49.77 39.67 L52.58 36.91 L55.32 33.71 L57.94 30.02 L60.43 25.83 L58.79 24.94 L60.43 24.04 L60.43 24.04 L57.94 19.85 L55.31 16.18 L52.57 12.99 L49.75 10.26 L46.88 7.93 L44 5.99 L41.13 4.39 L38.32 3.11 L35.58 2.1 L32.96 1.34 L30.49 0.79 L28.19 0.41 L26.09 0.18 L24.24 0.06 L22.66 0.01 L21.39 0 L3.94 0 L0 0 L0 0" stroke="none" stroke-width="0" fill="black" fill-rule="evenodd"/><path d="M0 0 C0.57 0.69, 1.14 1.39, 2.49 3.04 M0 0 C0.77 0.93, 1.53 1.87, 2.49 3.04 M2.49 3.04 C2.49 3.04, 2.49 3.04, 2.49 3.04 M2.49 3.04 C2.49 3.04, 2.49 3.04, 2.49 3.04 M2.49 3.04 C2.51 3.06, 2.53 3.08, 2.57 3.14 M2.49 3.04 C2.51 3.06, 2.53 3.08, 2.57 3.14 M2.57 3.14 C2.65 3.25, 2.73 3.35, 2.8 3.44 M2.57 3.14 C2.62 3.21, 2.67 3.28, 2.8 3.44 M2.8 3.44 C3.08 3.86, 3.37 4.27, 3.6 4.61 M2.8 3.44 C3.08 3.85, 3.35 4.26, 3.6 4.61 M3.6 4.61 C3.83 5, 4.06 5.39, 4.72 6.5 M3.6 4.61 C3.85 5.04, 4.11 5.47, 4.72 6.5 M4.72 6.5 C5.07 7.18, 5.42 7.87, 6.02 9.05 M4.72 6.5 C4.99 7.03, 5.26 7.56, 6.02 9.05 M6.02 9.05 C6.45 10.11, 6.89 11.17, 7.31 12.22 M6.02 9.05 C6.44 10.07, 6.85 11.09, 7.31 12.22 M7.31 12.22 C7.73 13.6, 8.15 14.99, 8.44 15.96 M7.31 12.22 C7.76 13.69, 8.2 15.17, 8.44 15.96 M8.44 15.96 C8.73 17.49, 9.02 19.02, 9.24 20.21 M8.44 15.96 C8.64 17, 8.83 18.04, 9.24 20.21 M9.24 20.21 C9.32 21.41, 9.4 22.61, 9.55 24.94 M9.24 20.21 C9.36 22.05, 9.48 23.88, 9.55 24.94 M9.55 24.94 C9.48 25.96, 9.41 26.99, 9.24 29.66 M9.55 24.94 C9.47 26.09, 9.4 27.25, 9.24 29.66 M9.24 29.66 C8.94 31.26, 8.64 32.85, 8.44 33.91 M9.24 29.66 C9.05 30.66, 8.87 31.67, 8.44 33.91 M8.44 33.91 C8.15 34.88, 7.86 35.84, 7.31 37.65 M8.44 33.91 C8 35.37, 7.56 36.83, 7.31 37.65 M7.31 37.65 C6.86 38.76, 6.41 39.88, 6.02 40.82 M7.31 37.65 C6.99 38.43, 6.67 39.22, 6.02 40.82 M6.02 40.82 C5.58 41.69, 5.14 42.56, 4.72 43.38 M6.02 40.82 C5.68 41.48, 5.35 42.14, 4.72 43.38 M4.72 43.38 C4.43 43.86, 4.14 44.35, 3.6 45.26 M4.72 43.38 C4.39 43.93, 4.06 44.49, 3.6 45.26 M3.6 45.26 C3.33 45.65, 3.06 46.04, 2.8 46.43 M3.6 45.26 C3.4 45.55, 3.21 45.83, 2.8 46.43 M2.8 46.43 C2.72 46.53, 2.65 46.63, 2.57 46.73 M2.8 46.43 C2.73 46.53, 2.66 46.62, 2.57 46.73 M2.57 46.73 C2.56 46.75, 2.54 46.78, 2.49 46.83 M2.57 46.73 C2.55 46.76, 2.53 46.78, 2.49 46.83 M2.49 46.83 C1.81 47.67, 1.12 48.51, 0 49.87 M2.49 46.83 C1.96 47.48, 1.43 48.12, 0 49.87 M0 49.87 C1.51 49.87, 3.02 49.87, 3.94 49.87 M0 49.87 C0.79 49.87, 1.58 49.87, 3.94 49.87 M3.94 49.87 C9.97 49.87, 16 49.87, 21.39 49.87 M3.94 49.87 C10.05 49.87, 16.17 49.87, 21.39 49.87 M21.39 49.87 C21.39 49.87, 21.39 49.87, 21.39 49.87 M21.39 49.87 C21.39 49.87, 21.39 49.87, 21.39 49.87 M21.39 49.87 C21.73 49.87, 22.07 49.87, 22.68 49.87 M21.39 49.87 C21.72 49.87, 22.06 49.87, 22.68 49.87 M22.68 49.87 C23.3 49.85, 23.93 49.84, 24.27 49.83 M22.68 49.87 C23.14 49.86, 23.61 49.85, 24.27 49.83 M24.27 49.83 C24.85 49.8, 25.43 49.76, 26.13 49.72 M24.27 49.83 C24.89 49.79, 25.51 49.76, 26.13 49.72 M26.13 49.72 C26.91 49.64, 27.69 49.56, 28.23 49.51 M26.13 49.72 C26.64 49.67, 27.15 49.62, 28.23 49.51 M28.23 49.51 C28.77 49.43, 29.3 49.34, 30.54 49.15 M28.23 49.51 C28.99 49.39, 29.75 49.27, 30.54 49.15 M30.54 49.15 C31.31 48.99, 32.08 48.82, 33.02 48.62 M30.54 49.15 C31.44 48.96, 32.34 48.77, 33.02 48.62 M33.02 48.62 C33.88 48.37, 34.74 48.13, 35.65 47.87 M33.02 48.62 C33.73 48.42, 34.44 48.22, 35.65 47.87 M35.65 47.87 C36.61 47.52, 37.58 47.16, 38.38 46.87 M35.65 47.87 C36.58 47.53, 37.52 47.18, 38.38 46.87 M38.38 46.87 C39.39 46.41, 40.41 45.94, 41.19 45.58 M38.38 46.87 C39.34 46.43, 40.29 45.99, 41.19 45.58 M41.19 45.58 C41.94 45.16, 42.69 44.74, 44.04 43.98 M41.19 45.58 C42.02 45.12, 42.85 44.65, 44.04 43.98 M44.04 43.98 C44.8 43.46, 45.55 42.95, 46.91 42.02 M44.04 43.98 C45.17 43.21, 46.3 42.44, 46.91 42.02 M46.91 42.02 C47.78 41.3, 48.65 40.59, 49.77 39.67 M46.91 42.02 C47.55 41.49, 48.19 40.97, 49.77 39.67 M49.77 39.67 C50.38 39.08, 50.98 38.48, 52.58 36.91 M49.77 39.67 C50.44 39.01, 51.11 38.36, 52.58 36.91 M52.58 36.91 C53.56 35.77, 54.53 34.63, 55.32 33.71 M52.58 36.91 C53.61 35.71, 54.64 34.51, 55.32 33.71 M55.32 33.71 C56.28 32.36, 57.24 31, 57.94 30.02 M55.32 33.71 C56.25 32.39, 57.19 31.08, 57.94 30.02 M57.94 30.02 C58.47 29.14, 58.99 28.26, 60.43 25.83 M57.94 30.02 C58.68 28.79, 59.41 27.55, 60.43 25.83 M60.43 25.83 C59.9 25.54, 59.36 25.25, 58.79 24.94 M60.43 25.83 C59.79 25.48, 59.15 25.13, 58.79 24.94 M58.79 24.94 C59.23 24.7, 59.67 24.46, 60.43 24.04 M58.79 24.94 C59.35 24.63, 59.92 24.32, 60.43 24.04 M60.43 24.04 C60.43 24.04, 60.43 24.04, 60.43 24.04 M60.43 24.04 C60.43 24.04, 60.43 24.04, 60.43 24.04 M60.43 24.04 C59.83 23.04, 59.24 22.03, 57.94 19.85 M60.43 24.04 C59.45 22.39, 58.46 20.73, 57.94 19.85 M57.94 19.85 C57.41 19.11, 56.88 18.37, 55.31 16.18 M57.94 19.85 C56.91 18.42, 55.88 16.98, 55.31 16.18 M55.31 16.18 C54.62 15.39, 53.94 14.59, 52.57 12.99 M55.31 16.18 C54.37 15.09, 53.43 14, 52.57 12.99 M52.57 12.99 C51.61 12.06, 50.64 11.13, 49.75 10.26 M52.57 12.99 C51.54 12, 50.51 11, 49.75 10.26 M49.75 10.26 C48.79 9.48, 47.84 8.71, 46.88 7.93 M49.75 10.26 C48.63 9.36, 47.52 8.45, 46.88 7.93 M46.88 7.93 C45.93 7.29, 44.99 6.65, 44 5.99 M46.88 7.93 C46.13 7.43, 45.38 6.92, 44 5.99 M44 5.99 C43.05 5.46, 42.1 4.93, 41.13 4.39 M44 5.99 C43 5.43, 42 4.87, 41.13 4.39 M41.13 4.39 C40.07 3.9, 39 3.42, 38.32 3.11 M41.13 4.39 C40.45 4.08, 39.76 3.77, 38.32 3.11 M38.32 3.11 C37.77 2.9, 37.21 2.7, 35.58 2.1 M38.32 3.11 C37.34 2.74, 36.35 2.38, 35.58 2.1 M35.58 2.1 C34.63 1.82, 33.67 1.55, 32.96 1.34 M35.58 2.1 C34.95 1.92, 34.32 1.73, 32.96 1.34 M32.96 1.34 C32.19 1.17, 31.41 0.99, 30.49 0.79 M32.96 1.34 C32.06 1.14, 31.16 0.94, 30.49 0.79 M30.49 0.79 C29.75 0.67, 29.01 0.55, 28.19 0.41 M30.49 0.79 C29.93 0.7, 29.38 0.61, 28.19 0.41 M28.19 0.41 C27.47 0.33, 26.76 0.26, 26.09 0.18 M28.19 0.41 C27.72 0.36, 27.25 0.31, 26.09 0.18 M26.09 0.18 C25.46 0.14, 24.82 0.1, 24.24 0.06 M26.09 0.18 C25.72 0.16, 25.35 0.13, 24.24 0.06 M24.24 0.06 C23.65 0.04, 23.06 0.02, 22.66 0.01 M24.24 0.06 C23.91 0.05, 23.58 0.04, 22.66 0.01 M22.66 0.01 C22.3 0.01, 21.93 0, 21.39 0 M22.66 0.01 C22.23 0.01, 21.8 0, 21.39 0 M21.39 0 C17.68 0, 13.96 0, 3.94 0 M21.39 0 C15.86 0, 10.34 0, 3.94 0 M3.94 0 C2.85 0, 1.76 0, 0 0 M3.94 0 C3.01 0, 2.08 0, 0 0 M0 0 C0 0, 0 0, 0 0 M0 0 C0 0, 0 0, 0 0 M0 0 C0 0, 0 0, 0 0 M0 0 C0 0, 0 0, 0 0" stroke="#1e1e1e" stroke-width="1" fill="none"/></g></g><mask/><g stroke-linecap="round"><g transform="translate(148.23722009316128 91.0209619963818) rotate(348.97614018063575 24.4683724585352 21.195532830323486)" fill-rule="evenodd"><path d="M0 0 L14.07 0 L14.07 0 L15.29 0 L16.75 0.03 L20.28 0.31 L24.48 1.07 L26.78 1.72 L29.16 2.59 L31.63 3.7 L34.14 5.1 L36.68 6.82 L39.22 8.87 L41.74 11.31 L44.21 14.15 L46.62 17.44 L48.94 21.2 L46.65 24.9 L44.28 28.14 L41.83 30.96 L39.34 33.38 L36.82 35.42 L34.3 37.14 L31.8 38.54 L29.34 39.66 L26.89 40.57 L24.55 41.24 L20.32 42.05 L16.78 42.35 L14.07 42.39 L0.04 42.39 L0.04 42.39 L0.96 40.77 L1.95 38.84 L2.94 36.6 L3.88 34.06 L4.7 31.24 L5.36 28.14 L5.8 24.79 L5.96 21.2 L5.8 17.59 L5.36 14.23 L4.69 11.14 L3.86 8.32 L2.91 5.78 L1.92 3.54 L0.93 1.61 L0 0 L0 0" stroke="none" stroke-width="0" fill="#FFFFFF" fill-rule="evenodd"/><path d="M0 0 C3.39 0, 6.79 0, 14.07 0 M0 0 C4.2 0, 8.4 0, 14.07 0 M14.07 0 C14.07 0, 14.07 0, 14.07 0 M14.07 0 C14.07 0, 14.07 0, 14.07 0 M14.07 0 C14.32 0, 14.57 0, 15.29 0 M14.07 0 C14.51 0, 14.96 0, 15.29 0 M15.29 0 C15.61 0.01, 15.93 0.02, 16.75 0.03 M15.29 0 C15.81 0.01, 16.33 0.03, 16.75 0.03 M16.75 0.03 C17.5 0.09, 18.25 0.15, 20.28 0.31 M16.75 0.03 C18.14 0.14, 19.54 0.25, 20.28 0.31 M20.28 0.31 C21.45 0.52, 22.61 0.73, 24.48 1.07 M20.28 0.31 C21.17 0.47, 22.05 0.63, 24.48 1.07 M24.48 1.07 C25.32 1.31, 26.16 1.55, 26.78 1.72 M24.48 1.07 C25.14 1.26, 25.79 1.44, 26.78 1.72 M26.78 1.72 C27.34 1.93, 27.9 2.13, 29.16 2.59 M26.78 1.72 C27.65 2.04, 28.52 2.35, 29.16 2.59 M29.16 2.59 C29.88 2.91, 30.59 3.24, 31.63 3.7 M29.16 2.59 C29.79 2.87, 30.41 3.16, 31.63 3.7 M31.63 3.7 C32.47 4.17, 33.31 4.64, 34.14 5.1 M31.63 3.7 C32.45 4.16, 33.28 4.62, 34.14 5.1 M34.14 5.1 C34.69 5.47, 35.24 5.85, 36.68 6.82 M34.14 5.1 C34.98 5.67, 35.82 6.24, 36.68 6.82 M36.68 6.82 C37.63 7.59, 38.58 8.36, 39.22 8.87 M36.68 6.82 C37.38 7.39, 38.09 7.96, 39.22 8.87 M39.22 8.87 C39.94 9.58, 40.67 10.28, 41.74 11.31 M39.22 8.87 C39.88 9.51, 40.53 10.15, 41.74 11.31 M41.74 11.31 C42.28 11.93, 42.82 12.56, 44.21 14.15 M41.74 11.31 C42.61 12.31, 43.48 13.31, 44.21 14.15 M44.21 14.15 C44.84 15.01, 45.47 15.87, 46.62 17.44 M44.21 14.15 C44.7 14.82, 45.19 15.49, 46.62 17.44 M46.62 17.44 C47.29 18.52, 47.95 19.6, 48.94 21.2 M46.62 17.44 C47.44 18.77, 48.26 20.1, 48.94 21.2 M48.94 21.2 C48.03 22.67, 47.12 24.15, 46.65 24.9 M48.94 21.2 C48.41 22.05, 47.89 22.9, 46.65 24.9 M46.65 24.9 C46.02 25.76, 45.39 26.62, 44.28 28.14 M46.65 24.9 C46.06 25.71, 45.46 26.53, 44.28 28.14 M44.28 28.14 C43.35 29.21, 42.43 30.27, 41.83 30.96 M44.28 28.14 C43.72 28.79, 43.16 29.43, 41.83 30.96 M41.83 30.96 C40.85 31.91, 39.86 32.87, 39.34 33.38 M41.83 30.96 C41.15 31.62, 40.47 32.28, 39.34 33.38 M39.34 33.38 C38.37 34.17, 37.4 34.96, 36.82 35.42 M39.34 33.38 C38.33 34.19, 37.33 35.01, 36.82 35.42 M36.82 35.42 C35.86 36.08, 34.89 36.73, 34.3 37.14 M36.82 35.42 C36.27 35.8, 35.72 36.17, 34.3 37.14 M34.3 37.14 C33.75 37.45, 33.2 37.75, 31.8 38.54 M34.3 37.14 C33.41 37.64, 32.52 38.14, 31.8 38.54 M31.8 38.54 C31.08 38.87, 30.36 39.2, 29.34 39.66 M31.8 38.54 C30.95 38.93, 30.1 39.31, 29.34 39.66 M29.34 39.66 C28.38 40.02, 27.42 40.37, 26.89 40.57 M29.34 39.66 C28.78 39.87, 28.21 40.08, 26.89 40.57 M26.89 40.57 C26.3 40.74, 25.7 40.91, 24.55 41.24 M26.89 40.57 C26.25 40.75, 25.61 40.94, 24.55 41.24 M24.55 41.24 C23.64 41.42, 22.73 41.59, 20.32 42.05 M24.55 41.24 C23.02 41.54, 21.49 41.83, 20.32 42.05 M20.32 42.05 C19.07 42.16, 17.82 42.26, 16.78 42.35 M20.32 42.05 C19.27 42.14, 18.22 42.23, 16.78 42.35 M16.78 42.35 C15.89 42.36, 15 42.38, 14.07 42.39 M16.78 42.35 C16.21 42.36, 15.64 42.37, 14.07 42.39 M14.07 42.39 C9.31 42.39, 4.56 42.39, 0.04 42.39 M14.07 42.39 C10.39 42.39, 6.72 42.39, 0.04 42.39 M0.04 42.39 C0.04 42.39, 0.04 42.39, 0.04 42.39 M0.04 42.39 C0.04 42.39, 0.04 42.39, 0.04 42.39 M0.04 42.39 C0.34 41.87, 0.64 41.35, 0.96 40.77 M0.04 42.39 C0.3 41.93, 0.57 41.46, 0.96 40.77 M0.96 40.77 C1.25 40.22, 1.53 39.66, 1.95 38.84 M0.96 40.77 C1.21 40.29, 1.46 39.8, 1.95 38.84 M1.95 38.84 C2.22 38.23, 2.49 37.61, 2.94 36.6 M1.95 38.84 C2.2 38.28, 2.45 37.72, 2.94 36.6 M2.94 36.6 C3.18 35.95, 3.41 35.31, 3.88 34.06 M2.94 36.6 C3.16 36.01, 3.37 35.42, 3.88 34.06 M3.88 34.06 C4.14 33.15, 4.41 32.24, 4.7 31.24 M3.88 34.06 C4.12 33.22, 4.37 32.38, 4.7 31.24 M4.7 31.24 C4.93 30.19, 5.15 29.15, 5.36 28.14 M4.7 31.24 C4.9 30.32, 5.09 29.41, 5.36 28.14 M5.36 28.14 C5.48 27.26, 5.6 26.37, 5.8 24.79 M5.36 28.14 C5.51 27.03, 5.66 25.91, 5.8 24.79 M5.8 24.79 C5.84 23.98, 5.87 23.17, 5.96 21.2 M5.8 24.79 C5.86 23.46, 5.92 22.12, 5.96 21.2 M5.96 21.2 C5.92 20.29, 5.88 19.39, 5.8 17.59 M5.96 21.2 C5.91 20, 5.85 18.8, 5.8 17.59 M5.8 17.59 C5.66 16.53, 5.52 15.47, 5.36 14.23 M5.8 17.59 C5.67 16.58, 5.53 15.57, 5.36 14.23 M5.36 14.23 C5.16 13.31, 4.96 12.4, 4.69 11.14 M5.36 14.23 C5.2 13.52, 5.05 12.81, 4.69 11.14 M4.69 11.14 C4.51 10.54, 4.33 9.93, 3.86 8.32 M4.69 11.14 C4.41 10.18, 4.12 9.22, 3.86 8.32 M3.86 8.32 C3.5 7.36, 3.14 6.4, 2.91 5.78 M3.86 8.32 C3.64 7.75, 3.43 7.17, 2.91 5.78 M2.91 5.78 C2.67 5.25, 2.44 4.71, 1.92 3.54 M2.91 5.78 C2.66 5.21, 2.4 4.63, 1.92 3.54 M1.92 3.54 C1.59 2.91, 1.26 2.27, 0.93 1.61 M1.92 3.54 C1.63 2.99, 1.35 2.44, 0.93 1.61 M0.93 1.61 C0.63 1.1, 0.33 0.58, 0 0 M0.93 1.61 C0.71 1.23, 0.49 0.85, 0 0 M0 0 C0 0, 0 0, 0 0 M0 0 C0 0, 0 0, 0 0 M0 0 C0 0, 0 0, 0 0 M0 0 C0 0, 0 0, 0 0" stroke="#1e1e1e" stroke-width="1" fill="none"/></g></g><mask/><g stroke-linecap="round"><g transform="translate(198.7606345489193 107.08450556643226) rotate(348.97614018063575 0.2597922393059662 0.05196042994890604)"><path d="M0 0 C0.09 0.02, 0.43 0.09, 0.52 0.1 M0 0 C0.09 0.02, 0.43 0.09, 0.52 0.1" stroke="#1e1e1e" stroke-width="4" fill="none"/></g></g><mask/><g transform="translate(159.2593921706537 105.05856616666239) rotate(348.97614018063575 13.597862243652344 7.2177017209967005)"><text x="0" y="11.548567920093388" font-family="Helvetica, Segoe UI Emoji" font-size="12.552524732168168px" fill="#1e1e1e" text-anchor="start" style="white-space: pre;" direction="ltr" dominant-baseline="alphabetic">XOR</text></g><g stroke-linecap="round"><g transform="translate(271.56438031501176 125.14858263950902) rotate(336.9279228343267 28.19143199851524 27.859769342963133)" fill-rule="evenodd"><path d="M0 0 L0 1.99 L0 53.73 L0 55.72 L1.99 55.72 L28.52 55.72 L28.52 55.72 L31.42 55.58 L34.23 55.15 L36.92 54.46 L39.5 53.52 L41.94 52.34 L44.24 50.94 L48.34 47.54 L51.71 43.41 L54.24 38.68 L55.16 36.12 L55.83 33.46 L56.24 30.7 L56.38 27.86 L56.24 25.02 L55.83 22.26 L55.16 19.6 L54.24 17.04 L51.71 12.31 L48.34 8.18 L44.24 4.77 L41.94 3.38 L39.5 2.2 L36.92 1.26 L34.23 0.57 L31.42 0.14 L28.52 0 L28.47 0 L28.11 0 L27.12 0 L26.3 0 L25.21 0 L23.8 0 L22.05 0 L19.9 0 L17.33 0 L14.29 0 L10.75 0 L6.66 0 L1.99 0 L0 0 L0 0" stroke="none" stroke-width="0" fill="black" fill-rule="evenodd"/><path d="M0 0 C0 0.44, 0 0.89, 0 1.99 M0 0 C0 0.72, 0 1.44, 0 1.99 M0 1.99 C0 21.39, 0 40.8, 0 53.73 M0 1.99 C0 15.21, 0 28.42, 0 53.73 M0 53.73 C0 54.32, 0 54.9, 0 55.72 M0 53.73 C0 54.28, 0 54.83, 0 55.72 M0 55.72 C0.67 55.72, 1.34 55.72, 1.99 55.72 M0 55.72 C0.68 55.72, 1.35 55.72, 1.99 55.72 M1.99 55.72 C11.23 55.72, 20.46 55.72, 28.52 55.72 M1.99 55.72 C7.8 55.72, 13.62 55.72, 28.52 55.72 M28.52 55.72 C28.52 55.72, 28.52 55.72, 28.52 55.72 M28.52 55.72 C28.52 55.72, 28.52 55.72, 28.52 55.72 M28.52 55.72 C29.56 55.67, 30.6 55.62, 31.42 55.58 M28.52 55.72 C29.65 55.66, 30.77 55.61, 31.42 55.58 M31.42 55.58 C32.17 55.46, 32.92 55.35, 34.23 55.15 M31.42 55.58 C32.24 55.45, 33.05 55.33, 34.23 55.15 M34.23 55.15 C35.2 54.9, 36.17 54.65, 36.92 54.46 M34.23 55.15 C35.16 54.91, 36.09 54.67, 36.92 54.46 M36.92 54.46 C37.65 54.19, 38.39 53.93, 39.5 53.52 M36.92 54.46 C37.72 54.17, 38.52 53.88, 39.5 53.52 M39.5 53.52 C40.36 53.1, 41.23 52.69, 41.94 52.34 M39.5 53.52 C40.29 53.14, 41.07 52.76, 41.94 52.34 M41.94 52.34 C42.44 52.04, 42.95 51.73, 44.24 50.94 M41.94 52.34 C42.67 51.9, 43.39 51.46, 44.24 50.94 M44.24 50.94 C45.86 49.59, 47.49 48.24, 48.34 47.54 M44.24 50.94 C45.51 49.88, 46.79 48.82, 48.34 47.54 M48.34 47.54 C49.43 46.2, 50.52 44.86, 51.71 43.41 M48.34 47.54 C49.09 46.61, 49.84 45.69, 51.71 43.41 M51.71 43.41 C52.48 41.96, 53.26 40.51, 54.24 38.68 M51.71 43.41 C52.63 41.67, 53.56 39.94, 54.24 38.68 M54.24 38.68 C54.57 37.75, 54.9 36.83, 55.16 36.12 M54.24 38.68 C54.47 38.02, 54.71 37.37, 55.16 36.12 M55.16 36.12 C55.4 35.15, 55.65 34.18, 55.83 33.46 M55.16 36.12 C55.37 35.3, 55.57 34.47, 55.83 33.46 M55.83 33.46 C55.95 32.62, 56.08 31.79, 56.24 30.7 M55.83 33.46 C55.93 32.76, 56.04 32.05, 56.24 30.7 M56.24 30.7 C56.27 30.1, 56.3 29.5, 56.38 27.86 M56.24 30.7 C56.27 30.06, 56.31 29.42, 56.38 27.86 M56.38 27.86 C56.35 27.21, 56.32 26.55, 56.24 25.02 M56.38 27.86 C56.33 26.8, 56.28 25.75, 56.24 25.02 M56.24 25.02 C56.1 24.06, 55.96 23.11, 55.83 22.26 M56.24 25.02 C56.09 24.03, 55.94 23.03, 55.83 22.26 M55.83 22.26 C55.67 21.62, 55.5 20.97, 55.16 19.6 M55.83 22.26 C55.58 21.26, 55.32 20.26, 55.16 19.6 M55.16 19.6 C54.94 18.99, 54.72 18.38, 54.24 17.04 M55.16 19.6 C54.95 19.01, 54.74 18.43, 54.24 17.04 M54.24 17.04 C53.37 15.42, 52.5 13.79, 51.71 12.31 M54.24 17.04 C53.35 15.38, 52.46 13.72, 51.71 12.31 M51.71 12.31 C51.02 11.46, 50.32 10.62, 48.34 8.18 M51.71 12.31 C50.67 11.04, 49.64 9.78, 48.34 8.18 M48.34 8.18 C46.9 6.99, 45.46 5.79, 44.24 4.77 M48.34 8.18 C46.73 6.85, 45.13 5.52, 44.24 4.77 M44.24 4.77 C43.47 4.31, 42.7 3.84, 41.94 3.38 M44.24 4.77 C43.47 4.31, 42.7 3.84, 41.94 3.38 M41.94 3.38 C40.99 2.92, 40.03 2.46, 39.5 2.2 M41.94 3.38 C41.19 3.01, 40.44 2.65, 39.5 2.2 M39.5 2.2 C38.54 1.85, 37.58 1.5, 36.92 1.26 M39.5 2.2 C38.94 1.99, 38.37 1.79, 36.92 1.26 M36.92 1.26 C36.37 1.12, 35.82 0.98, 34.23 0.57 M36.92 1.26 C36.05 1.04, 35.18 0.81, 34.23 0.57 M34.23 0.57 C33.6 0.47, 32.97 0.38, 31.42 0.14 M34.23 0.57 C33.31 0.43, 32.4 0.29, 31.42 0.14 M31.42 0.14 C30.73 0.11, 30.04 0.08, 28.52 0 M31.42 0.14 C30.33 0.09, 29.23 0.04, 28.52 0 M28.52 0 C28.51 0, 28.5 0, 28.47 0 M28.52 0 C28.5 0, 28.48 0, 28.47 0 M28.47 0 C28.34 0, 28.21 0, 28.11 0 M28.47 0 C28.39 0, 28.31 0, 28.11 0 M28.11 0 C27.91 0, 27.71 0, 27.12 0 M28.11 0 C27.91 0, 27.7 0, 27.12 0 M27.12 0 C26.86 0, 26.59 0, 26.3 0 M27.12 0 C26.86 0, 26.59 0, 26.3 0 M26.3 0 C26.03 0, 25.76 0, 25.21 0 M26.3 0 C25.93 0, 25.56 0, 25.21 0 M25.21 0 C24.74 0, 24.27 0, 23.8 0 M25.21 0 C24.69 0, 24.18 0, 23.8 0 M23.8 0 C23.2 0, 22.61 0, 22.05 0 M23.8 0 C23.44 0, 23.07 0, 22.05 0 M22.05 0 C21.47 0, 20.9 0, 19.9 0 M22.05 0 C21.32 0, 20.6 0, 19.9 0 M19.9 0 C19.14 0, 18.38 0, 17.33 0 M19.9 0 C19.37 0, 18.84 0, 17.33 0 M17.33 0 C16.61 0, 15.88 0, 14.29 0 M17.33 0 C16.57 0, 15.81 0, 14.29 0 M14.29 0 C13.28 0, 12.27 0, 10.75 0 M14.29 0 C12.92 0, 11.55 0, 10.75 0 M10.75 0 C9.7 0, 8.65 0, 6.66 0 M10.75 0 C9.82 0, 8.9 0, 6.66 0 M6.66 0 C5.06 0, 3.47 0, 1.99 0 M6.66 0 C4.95 0, 3.23 0, 1.99 0 M1.99 0 C1.29 0, 0.6 0, 0 0 M1.99 0 C1.59 0, 1.18 0, 0 0 M0 0 C0 0, 0 0, 0 0 M0 0 C0 0, 0 0, 0 0 M0 0 C0 0, 0 0, 0 0 M0 0 C0 0, 0 0, 0 0" stroke="#1e1e1e" stroke-width="1" fill="none"/></g></g><mask/><g stroke-linecap="round"><g transform="translate(275.57087661667737 129.2585236485869) rotate(336.9279228343267 23.879804191764578 23.879801866964257)" fill-rule="evenodd"><path d="M0 0 L0 0 L3.98 0 L7.58 0 L10.8 0 L13.64 0 L16.11 0 L18.19 0 L19.9 0 L21.23 0 L22.32 0 L23.14 0 L24.13 0 L24.5 0 L24.54 0 L29.44 0.48 L33.91 1.87 L37.86 4.07 L41.25 6.98 L44 10.51 L46.04 14.56 L47.32 19.05 L47.76 23.88 L47.29 28.71 L45.94 33.2 L43.79 37.25 L40.92 40.78 L37.41 43.69 L33.35 45.89 L28.81 47.28 L23.88 47.76 L0 47.76 L0 0 L0 0" stroke="none" stroke-width="0" fill="#FFFFFF" fill-rule="evenodd"/><path d="M0 0 C0 0, 0 0, 0 0 M0 0 C0 0, 0 0, 0 0 M0 0 C1.57 0, 3.14 0, 3.98 0 M0 0 C0.94 0, 1.88 0, 3.98 0 M3.98 0 C4.79 0, 5.61 0, 7.58 0 M3.98 0 C4.97 0, 5.95 0, 7.58 0 M7.58 0 C8.75 0, 9.92 0, 10.8 0 M7.58 0 C8.47 0, 9.36 0, 10.8 0 M10.8 0 C11.86 0, 12.91 0, 13.64 0 M10.8 0 C11.73 0, 12.65 0, 13.64 0 M13.64 0 C14.48 0, 15.32 0, 16.11 0 M13.64 0 C14.51 0, 15.37 0, 16.11 0 M16.11 0 C16.79 0, 17.48 0, 18.19 0 M16.11 0 C16.78 0, 17.44 0, 18.19 0 M18.19 0 C18.72 0, 19.25 0, 19.9 0 M18.19 0 C18.8 0, 19.4 0, 19.9 0 M19.9 0 C20.19 0, 20.49 0, 21.23 0 M19.9 0 C20.33 0, 20.75 0, 21.23 0 M21.23 0 C21.57 0, 21.91 0, 22.32 0 M21.23 0 C21.6 0, 21.98 0, 22.32 0 M22.32 0 C22.64 0, 22.95 0, 23.14 0 M22.32 0 C22.49 0, 22.66 0, 23.14 0 M23.14 0 C23.49 0, 23.83 0, 24.13 0 M23.14 0 C23.38 0, 23.62 0, 24.13 0 M24.13 0 C24.23 0, 24.33 0, 24.5 0 M24.13 0 C24.26 0, 24.4 0, 24.5 0 M24.5 0 C24.51 0, 24.53 0, 24.54 0 M24.5 0 C24.52 0, 24.53 0, 24.54 0 M24.54 0 C26.11 0.15, 27.68 0.31, 29.44 0.48 M24.54 0 C25.53 0.1, 26.51 0.19, 29.44 0.48 M29.44 0.48 C31.02 0.97, 32.59 1.46, 33.91 1.87 M29.44 0.48 C31.11 1, 32.77 1.52, 33.91 1.87 M33.91 1.87 C35.16 2.57, 36.42 3.27, 37.86 4.07 M33.91 1.87 C34.85 2.4, 35.8 2.92, 37.86 4.07 M37.86 4.07 C38.65 4.74, 39.43 5.41, 41.25 6.98 M37.86 4.07 C38.77 4.85, 39.68 5.63, 41.25 6.98 M41.25 6.98 C41.91 7.82, 42.56 8.66, 44 10.51 M41.25 6.98 C41.83 7.72, 42.41 8.47, 44 10.51 M44 10.51 C44.75 12, 45.51 13.5, 46.04 14.56 M44 10.51 C44.41 11.32, 44.82 12.14, 46.04 14.56 M46.04 14.56 C46.52 16.24, 46.99 17.91, 47.32 19.05 M46.04 14.56 C46.51 16.2, 46.97 17.83, 47.32 19.05 M47.32 19.05 C47.44 20.38, 47.56 21.7, 47.76 23.88 M47.32 19.05 C47.46 20.57, 47.6 22.08, 47.76 23.88 M47.76 23.88 C47.66 24.94, 47.55 26, 47.29 28.71 M47.76 23.88 C47.59 25.62, 47.42 27.35, 47.29 28.71 M47.29 28.71 C47 29.68, 46.7 30.66, 45.94 33.2 M47.29 28.71 C47.01 29.65, 46.72 30.59, 45.94 33.2 M45.94 33.2 C45.1 34.79, 44.25 36.38, 43.79 37.25 M45.94 33.2 C45.14 34.71, 44.33 36.23, 43.79 37.25 M43.79 37.25 C42.85 38.41, 41.9 39.57, 40.92 40.78 M43.79 37.25 C43.03 38.18, 42.28 39.11, 40.92 40.78 M40.92 40.78 C39.81 41.7, 38.71 42.62, 37.41 43.69 M40.92 40.78 C39.53 41.94, 38.14 43.09, 37.41 43.69 M37.41 43.69 C36.2 44.35, 35 45, 33.35 45.89 M37.41 43.69 C36.17 44.36, 34.93 45.03, 33.35 45.89 M33.35 45.89 C31.9 46.33, 30.45 46.78, 28.81 47.28 M33.35 45.89 C31.84 46.35, 30.34 46.81, 28.81 47.28 M28.81 47.28 C27.45 47.41, 26.09 47.54, 23.88 47.76 M28.81 47.28 C27.15 47.44, 25.5 47.6, 23.88 47.76 M23.88 47.76 C15.47 47.76, 7.05 47.76, 0 47.76 M23.88 47.76 C16.78 47.76, 9.68 47.76, 0 47.76 M0 47.76 C0 29.72, 0 11.68, 0 0 M0 47.76 C0 37.36, 0 26.96, 0 0 M0 0 C0 0, 0 0, 0 0 M0 0 C0 0, 0 0, 0 0 M0 0 C0 0, 0 0, 0 0 M0 0 C0 0, 0 0, 0 0" stroke="#1e1e1e" stroke-width="1" fill="none"/></g></g><mask/><g transform="translate(288.85704182847974 148.3602330127291) rotate(336.9279228343267 11.928993225097656 6.502729939670672)"><text x="0" y="10.404588784245487" font-family="Helvetica, Segoe UI Emoji" font-size="11.30909554725335px" fill="#1e1e1e" text-anchor="start" style="white-space: pre;" direction="ltr" dominant-baseline="alphabetic">AND</text></g><g stroke-linecap="round"><g transform="translate(326.12361910027903 39.65977319397183) rotate(0 29.205901472723994 24.102871621590396)" fill-rule="evenodd"><path d="M0 0 L2.41 2.94 L2.41 2.94 L2.49 3.04 L2.7 3.32 L3.48 4.45 L4.57 6.28 L5.82 8.75 L7.07 11.81 L8.16 15.43 L8.93 19.54 L9.23 24.1 L8.93 28.67 L8.16 32.78 L7.07 36.39 L5.82 39.46 L4.57 41.93 L3.48 43.75 L2.7 44.88 L2.49 45.17 L2.41 45.27 L0 48.21 L3.8 48.21 L20.68 48.21 L20.68 48.21 L21.92 48.2 L23.46 48.16 L25.26 48.06 L27.29 47.85 L29.52 47.51 L31.92 46.99 L34.46 46.27 L37.1 45.31 L39.81 44.06 L42.57 42.51 L45.35 40.61 L48.11 38.35 L50.83 35.68 L53.47 32.58 L56.01 29.02 L58.41 24.97 L56.83 24.1 L58.41 23.24 L58.41 23.24 L56 19.19 L53.46 15.64 L50.81 12.56 L48.08 9.91 L45.31 7.67 L42.53 5.79 L39.76 4.24 L37.04 3 L34.39 2.03 L31.86 1.29 L29.47 0.76 L27.24 0.4 L25.22 0.18 L23.43 0.06 L21.91 0.01 L20.68 0 L3.8 0 L0 0 L0 0" stroke="none" stroke-width="0" fill="black" fill-rule="evenodd"/><path d="M0 0 C0.84 1.03, 1.69 2.06, 2.41 2.94 M0 0 C0.95 1.16, 1.9 2.31, 2.41 2.94 M2.41 2.94 C2.41 2.94, 2.41 2.94, 2.41 2.94 M2.41 2.94 C2.41 2.94, 2.41 2.94, 2.41 2.94 M2.41 2.94 C2.44 2.97, 2.46 3.01, 2.49 3.04 M2.41 2.94 C2.43 2.96, 2.44 2.98, 2.49 3.04 M2.49 3.04 C2.56 3.14, 2.64 3.24, 2.7 3.32 M2.49 3.04 C2.56 3.14, 2.64 3.24, 2.7 3.32 M2.7 3.32 C2.86 3.56, 3.02 3.79, 3.48 4.45 M2.7 3.32 C2.88 3.58, 3.06 3.84, 3.48 4.45 M3.48 4.45 C3.77 4.95, 4.06 5.44, 4.57 6.28 M3.48 4.45 C3.7 4.83, 3.93 5.21, 4.57 6.28 M4.57 6.28 C4.99 7.11, 5.41 7.93, 5.82 8.75 M4.57 6.28 C4.97 7.07, 5.37 7.87, 5.82 8.75 M5.82 8.75 C6.28 9.88, 6.74 11.02, 7.07 11.81 M5.82 8.75 C6.31 9.96, 6.81 11.16, 7.07 11.81 M7.07 11.81 C7.46 13.11, 7.85 14.41, 8.16 15.43 M7.07 11.81 C7.34 12.69, 7.6 13.58, 8.16 15.43 M8.16 15.43 C8.36 16.47, 8.55 17.51, 8.93 19.54 M8.16 15.43 C8.46 17.02, 8.76 18.62, 8.93 19.54 M8.93 19.54 C9 20.53, 9.06 21.53, 9.23 24.1 M8.93 19.54 C9.01 20.66, 9.08 21.78, 9.23 24.1 M9.23 24.1 C9.12 25.82, 9.01 27.53, 8.93 28.67 M9.23 24.1 C9.16 25.18, 9.09 26.26, 8.93 28.67 M8.93 28.67 C8.73 29.73, 8.54 30.79, 8.16 32.78 M8.93 28.67 C8.63 30.27, 8.33 31.88, 8.16 32.78 M8.16 32.78 C7.78 34.05, 7.4 35.32, 7.07 36.39 M8.16 32.78 C7.89 33.67, 7.62 34.57, 7.07 36.39 M7.07 36.39 C6.64 37.43, 6.22 38.48, 5.82 39.46 M7.07 36.39 C6.75 37.19, 6.42 37.98, 5.82 39.46 M5.82 39.46 C5.5 40.09, 5.17 40.73, 4.57 41.93 M5.82 39.46 C5.45 40.19, 5.08 40.91, 4.57 41.93 M4.57 41.93 C4.2 42.53, 3.84 43.14, 3.48 43.75 M4.57 41.93 C4.3 42.37, 4.04 42.81, 3.48 43.75 M3.48 43.75 C3.22 44.13, 2.96 44.5, 2.7 44.88 M3.48 43.75 C3.23 44.11, 2.99 44.46, 2.7 44.88 M2.7 44.88 C2.66 44.94, 2.61 45.01, 2.49 45.17 M2.7 44.88 C2.65 44.95, 2.6 45.03, 2.49 45.17 M2.49 45.17 C2.47 45.2, 2.44 45.22, 2.41 45.27 M2.49 45.17 C2.47 45.19, 2.45 45.21, 2.41 45.27 M2.41 45.27 C1.48 46.4, 0.56 47.53, 0 48.21 M2.41 45.27 C1.93 45.86, 1.44 46.45, 0 48.21 M0 48.21 C1.31 48.21, 2.63 48.21, 3.8 48.21 M0 48.21 C1.33 48.21, 2.67 48.21, 3.8 48.21 M3.8 48.21 C9.51 48.21, 15.22 48.21, 20.68 48.21 M3.8 48.21 C9.4 48.21, 15 48.21, 20.68 48.21 M20.68 48.21 C20.68 48.21, 20.68 48.21, 20.68 48.21 M20.68 48.21 C20.68 48.21, 20.68 48.21, 20.68 48.21 M20.68 48.21 C21.16 48.2, 21.65 48.2, 21.92 48.2 M20.68 48.21 C21.04 48.2, 21.4 48.2, 21.92 48.2 M21.92 48.2 C22.4 48.19, 22.88 48.18, 23.46 48.16 M21.92 48.2 C22.43 48.19, 22.95 48.18, 23.46 48.16 M23.46 48.16 C24.13 48.13, 24.79 48.09, 25.26 48.06 M23.46 48.16 C23.9 48.14, 24.33 48.11, 25.26 48.06 M25.26 48.06 C25.73 48.01, 26.2 47.97, 27.29 47.85 M25.26 48.06 C25.93 47.99, 26.6 47.92, 27.29 47.85 M27.29 47.85 C27.98 47.75, 28.67 47.64, 29.52 47.51 M27.29 47.85 C28.1 47.73, 28.91 47.61, 29.52 47.51 M29.52 47.51 C30.31 47.34, 31.09 47.17, 31.92 46.99 M29.52 47.51 C30.17 47.37, 30.82 47.23, 31.92 46.99 M31.92 46.99 C32.82 46.74, 33.72 46.48, 34.46 46.27 M31.92 46.99 C32.79 46.75, 33.66 46.5, 34.46 46.27 M34.46 46.27 C35.41 45.92, 36.37 45.57, 37.1 45.31 M34.46 46.27 C35.36 45.94, 36.26 45.61, 37.1 45.31 M37.1 45.31 C37.81 44.98, 38.52 44.65, 39.81 44.06 M37.1 45.31 C37.88 44.94, 38.67 44.58, 39.81 44.06 M39.81 44.06 C40.54 43.65, 41.26 43.25, 42.57 42.51 M39.81 44.06 C40.89 43.45, 41.98 42.84, 42.57 42.51 M42.57 42.51 C43.42 41.93, 44.26 41.36, 45.35 40.61 M42.57 42.51 C43.19 42.08, 43.81 41.66, 45.35 40.61 M45.35 40.61 C45.94 40.12, 46.54 39.64, 48.11 38.35 M45.35 40.61 C46.01 40.07, 46.66 39.53, 48.11 38.35 M48.11 38.35 C49.08 37.4, 50.05 36.44, 50.83 35.68 M48.11 38.35 C49.13 37.35, 50.15 36.34, 50.83 35.68 M50.83 35.68 C51.8 34.54, 52.76 33.41, 53.47 32.58 M50.83 35.68 C51.77 34.57, 52.71 33.47, 53.47 32.58 M53.47 32.58 C54 31.83, 54.54 31.08, 56.01 29.02 M53.47 32.58 C54.22 31.53, 54.96 30.48, 56.01 29.02 M56.01 29.02 C56.79 27.7, 57.57 26.38, 58.41 24.97 M56.01 29.02 C56.95 27.44, 57.89 25.86, 58.41 24.97 M58.41 24.97 C57.99 24.74, 57.56 24.5, 56.83 24.1 M58.41 24.97 C57.87 24.67, 57.33 24.38, 56.83 24.1 M56.83 24.1 C57.24 23.88, 57.65 23.65, 58.41 23.24 M56.83 24.1 C57.22 23.89, 57.61 23.68, 58.41 23.24 M58.41 23.24 C58.41 23.24, 58.41 23.24, 58.41 23.24 M58.41 23.24 C58.41 23.24, 58.41 23.24, 58.41 23.24 M58.41 23.24 C57.93 22.42, 57.44 21.6, 56 19.19 M58.41 23.24 C57.47 21.65, 56.53 20.07, 56 19.19 M56 19.19 C55.37 18.3, 54.73 17.42, 53.46 15.64 M56 19.19 C55.13 17.98, 54.26 16.76, 53.46 15.64 M53.46 15.64 C52.56 14.59, 51.65 13.54, 50.81 12.56 M53.46 15.64 C52.5 14.52, 51.53 13.4, 50.81 12.56 M50.81 12.56 C49.91 11.68, 49 10.8, 48.08 9.91 M50.81 12.56 C49.75 11.53, 48.7 10.51, 48.08 9.91 M48.08 9.91 C47.17 9.17, 46.26 8.44, 45.31 7.67 M48.08 9.91 C47.36 9.33, 46.64 8.74, 45.31 7.67 M45.31 7.67 C44.39 7.05, 43.47 6.42, 42.53 5.79 M45.31 7.67 C44.34 7.01, 43.37 6.35, 42.53 5.79 M42.53 5.79 C41.48 5.2, 40.43 4.62, 39.76 4.24 M42.53 5.79 C41.85 5.41, 41.18 5.04, 39.76 4.24 M39.76 4.24 C39.21 3.99, 38.66 3.74, 37.04 3 M39.76 4.24 C38.78 3.8, 37.8 3.35, 37.04 3 M37.04 3 C36.07 2.65, 35.11 2.29, 34.39 2.03 M37.04 3 C36.4 2.77, 35.77 2.54, 34.39 2.03 M34.39 2.03 C33.6 1.8, 32.81 1.57, 31.86 1.29 M34.39 2.03 C33.47 1.76, 32.55 1.49, 31.86 1.29 M31.86 1.29 C31.09 1.12, 30.32 0.95, 29.47 0.76 M31.86 1.29 C31.28 1.17, 30.71 1.04, 29.47 0.76 M29.47 0.76 C28.71 0.64, 27.95 0.52, 27.24 0.4 M29.47 0.76 C28.97 0.68, 28.48 0.6, 27.24 0.4 M27.24 0.4 C26.55 0.32, 25.85 0.25, 25.22 0.18 M27.24 0.4 C26.84 0.35, 26.43 0.31, 25.22 0.18 M25.22 0.18 C24.55 0.13, 23.89 0.09, 23.43 0.06 M25.22 0.18 C24.85 0.15, 24.47 0.13, 23.43 0.06 M23.43 0.06 C22.99 0.04, 22.55 0.03, 21.91 0.01 M23.43 0.06 C22.92 0.04, 22.4 0.02, 21.91 0.01 M21.91 0.01 C21.65 0.01, 21.38 0, 20.68 0 M21.91 0.01 C21.52 0.01, 21.13 0, 20.68 0 M20.68 0 C16.02 0, 11.37 0, 3.8 0 M20.68 0 C16.7 0, 12.72 0, 3.8 0 M3.8 0 C2.79 0, 1.77 0, 0 0 M3.8 0 C2.5 0, 1.2 0, 0 0 M0 0 C0 0, 0 0, 0 0 M0 0 C0 0, 0 0, 0 0 M0 0 C0 0, 0 0, 0 0 M0 0 C0 0, 0 0, 0 0" stroke="#1e1e1e" stroke-width="1" fill="none"/></g></g><mask/><g stroke-linecap="round"><g transform="translate(333.2038376391212 43.275203937210506) rotate(0 23.65094277868558 20.487440878351833)" fill-rule="evenodd"><path d="M0 0 L13.6 0 L13.6 0 L14.78 0 L16.19 0.03 L19.6 0.3 L23.66 1.04 L25.88 1.66 L28.19 2.5 L30.57 3.58 L33 4.93 L35.45 6.59 L37.91 8.58 L40.34 10.93 L42.74 13.68 L45.06 16.86 L47.3 20.49 L45.1 24.07 L42.8 27.2 L40.44 29.92 L38.02 32.26 L35.59 34.24 L33.15 35.9 L30.74 37.25 L28.36 38.34 L25.99 39.21 L23.73 39.87 L19.64 40.65 L16.22 40.94 L13.6 40.97 L0.04 40.97 L0.04 40.97 L0.93 39.41 L1.88 37.54 L2.84 35.37 L3.75 32.92 L4.55 30.19 L5.19 27.2 L5.61 23.97 L5.76 20.49 L5.61 17 L5.18 13.76 L4.53 10.77 L3.73 8.04 L2.81 5.59 L1.85 3.43 L0.9 1.56 L0 0 L0 0" stroke="none" stroke-width="0" fill="#FFFFFF" fill-rule="evenodd"/><path d="M0 0 C3.92 0, 7.84 0, 13.6 0 M0 0 C3.47 0, 6.94 0, 13.6 0 M13.6 0 C13.6 0, 13.6 0, 13.6 0 M13.6 0 C13.6 0, 13.6 0, 13.6 0 M13.6 0 C13.86 0, 14.12 0, 14.78 0 M13.6 0 C14.02 0, 14.44 0, 14.78 0 M14.78 0 C15.08 0.01, 15.38 0.02, 16.19 0.03 M14.78 0 C15.33 0.02, 15.89 0.03, 16.19 0.03 M16.19 0.03 C17.13 0.11, 18.08 0.18, 19.6 0.3 M16.19 0.03 C16.91 0.09, 17.63 0.15, 19.6 0.3 M19.6 0.3 C21.09 0.57, 22.58 0.84, 23.66 1.04 M19.6 0.3 C20.76 0.51, 21.92 0.72, 23.66 1.04 M23.66 1.04 C24.19 1.19, 24.71 1.33, 25.88 1.66 M23.66 1.04 C24.47 1.27, 25.28 1.5, 25.88 1.66 M25.88 1.66 C26.55 1.91, 27.22 2.15, 28.19 2.5 M25.88 1.66 C26.47 1.88, 27.05 2.09, 28.19 2.5 M28.19 2.5 C28.99 2.86, 29.78 3.22, 30.57 3.58 M28.19 2.5 C28.97 2.86, 29.75 3.21, 30.57 3.58 M30.57 3.58 C31.1 3.87, 31.62 4.17, 33 4.93 M30.57 3.58 C31.37 4.03, 32.18 4.48, 33 4.93 M33 4.93 C33.92 5.55, 34.84 6.18, 35.45 6.59 M33 4.93 C33.68 5.39, 34.36 5.85, 35.45 6.59 M35.45 6.59 C36.16 7.16, 36.87 7.74, 37.91 8.58 M35.45 6.59 C36.09 7.11, 36.73 7.63, 37.91 8.58 M37.91 8.58 C38.44 9.09, 38.97 9.61, 40.34 10.93 M37.91 8.58 C38.76 9.41, 39.62 10.23, 40.34 10.93 M40.34 10.93 C40.97 11.65, 41.59 12.37, 42.74 13.68 M40.34 10.93 C40.83 11.49, 41.32 12.05, 42.74 13.68 M42.74 13.68 C43.41 14.59, 44.08 15.51, 45.06 16.86 M42.74 13.68 C43.56 14.8, 44.38 15.93, 45.06 16.86 M45.06 16.86 C45.96 18.3, 46.85 19.75, 47.3 20.49 M45.06 16.86 C45.58 17.69, 46.09 18.53, 47.3 20.49 M47.3 20.49 C46.72 21.44, 46.13 22.38, 45.1 24.07 M47.3 20.49 C46.75 21.39, 46.19 22.28, 45.1 24.07 M45.1 24.07 C44.23 25.25, 43.36 26.44, 42.8 27.2 M45.1 24.07 C44.57 24.78, 44.05 25.5, 42.8 27.2 M42.8 27.2 C41.87 28.28, 40.93 29.35, 40.44 29.92 M42.8 27.2 C42.15 27.95, 41.5 28.69, 40.44 29.92 M40.44 29.92 C39.51 30.83, 38.58 31.73, 38.02 32.26 M40.44 29.92 C39.47 30.86, 38.51 31.79, 38.02 32.26 M38.02 32.26 C37.1 33.02, 36.17 33.77, 35.59 34.24 M38.02 32.26 C37.49 32.69, 36.96 33.13, 35.59 34.24 M35.59 34.24 C35.05 34.61, 34.52 34.97, 33.15 35.9 M35.59 34.24 C34.72 34.83, 33.85 35.42, 33.15 35.9 M33.15 35.9 C32.45 36.29, 31.74 36.69, 30.74 37.25 M33.15 35.9 C32.32 36.36, 31.49 36.83, 30.74 37.25 M30.74 37.25 C29.81 37.68, 28.88 38.1, 28.36 38.34 M30.74 37.25 C30.19 37.5, 29.64 37.75, 28.36 38.34 M28.36 38.34 C27.76 38.56, 27.16 38.78, 25.99 39.21 M28.36 38.34 C27.71 38.58, 27.06 38.82, 25.99 39.21 M25.99 39.21 C25.5 39.35, 25.02 39.49, 23.73 39.87 M25.99 39.21 C25.17 39.45, 24.36 39.69, 23.73 39.87 M23.73 39.87 C22.29 40.14, 20.85 40.42, 19.64 40.65 M23.73 39.87 C22.52 40.1, 21.31 40.33, 19.64 40.65 M19.64 40.65 C18.52 40.74, 17.4 40.84, 16.22 40.94 M19.64 40.65 C18.92 40.71, 18.21 40.77, 16.22 40.94 M16.22 40.94 C15.33 40.95, 14.44 40.96, 13.6 40.97 M16.22 40.94 C15.53 40.95, 14.84 40.96, 13.6 40.97 M13.6 40.97 C8.61 40.97, 3.63 40.97, 0.04 40.97 M13.6 40.97 C10.27 40.97, 6.95 40.97, 0.04 40.97 M0.04 40.97 C0.04 40.97, 0.04 40.97, 0.04 40.97 M0.04 40.97 C0.04 40.97, 0.04 40.97, 0.04 40.97 M0.04 40.97 C0.3 40.52, 0.55 40.07, 0.93 39.41 M0.04 40.97 C0.26 40.58, 0.49 40.19, 0.93 39.41 M0.93 39.41 C1.19 38.9, 1.45 38.39, 1.88 37.54 M0.93 39.41 C1.17 38.94, 1.41 38.48, 1.88 37.54 M1.88 37.54 C2.13 36.99, 2.37 36.44, 2.84 35.37 M1.88 37.54 C2.11 37.04, 2.33 36.54, 2.84 35.37 M2.84 35.37 C3.13 34.58, 3.43 33.79, 3.75 32.92 M2.84 35.37 C3.11 34.65, 3.38 33.92, 3.75 32.92 M3.75 32.92 C4.02 32, 4.29 31.08, 4.55 30.19 M3.75 32.92 C3.98 32.11, 4.22 31.31, 4.55 30.19 M4.55 30.19 C4.71 29.4, 4.88 28.61, 5.19 27.2 M4.55 30.19 C4.76 29.2, 4.97 28.2, 5.19 27.2 M5.19 27.2 C5.28 26.47, 5.38 25.74, 5.61 23.97 M5.19 27.2 C5.34 26, 5.5 24.8, 5.61 23.97 M5.61 23.97 C5.65 23.09, 5.69 22.22, 5.76 20.49 M5.61 23.97 C5.66 22.81, 5.71 21.65, 5.76 20.49 M5.76 20.49 C5.71 19.39, 5.66 18.29, 5.61 17 M5.76 20.49 C5.72 19.44, 5.67 18.39, 5.61 17 M5.61 17 C5.48 16.04, 5.35 15.08, 5.18 13.76 M5.61 17 C5.51 16.25, 5.41 15.51, 5.18 13.76 M5.18 13.76 C5.04 13.12, 4.9 12.48, 4.53 10.77 M5.18 13.76 C4.96 12.74, 4.74 11.72, 4.53 10.77 M4.53 10.77 C4.23 9.74, 3.92 8.71, 3.73 8.04 M4.53 10.77 C4.35 10.15, 4.17 9.53, 3.73 8.04 M3.73 8.04 C3.51 7.46, 3.29 6.87, 2.81 5.59 M3.73 8.04 C3.49 7.41, 3.26 6.78, 2.81 5.59 M2.81 5.59 C2.5 4.88, 2.18 4.16, 1.85 3.43 M2.81 5.59 C2.54 4.97, 2.27 4.36, 1.85 3.43 M1.85 3.43 C1.55 2.83, 1.24 2.23, 0.9 1.56 M1.85 3.43 C1.62 2.98, 1.4 2.54, 0.9 1.56 M0.9 1.56 C0.58 1.01, 0.27 0.46, 0 0 M0.9 1.56 C0.69 1.19, 0.48 0.83, 0 0 M0 0 C0 0, 0 0, 0 0 M0 0 C0 0, 0 0, 0 0 M0 0 C0 0, 0 0, 0 0 M0 0 C0 0, 0 0, 0 0" stroke="#1e1e1e" stroke-width="1" fill="none"/></g></g><mask/><g stroke-linecap="round" transform="translate(381.8266288572161 62.81770748764387) rotate(0 1.2263119359147923 0.9268630146887489)"><path d="M2.45 0.93 C2.45 0.98, 2.45 1.03, 2.43 1.09 C2.42 1.14, 2.4 1.19, 2.38 1.24 C2.35 1.29, 2.32 1.34, 2.29 1.39 C2.25 1.44, 2.21 1.48, 2.17 1.52 C2.12 1.56, 2.07 1.6, 2.01 1.64 C1.96 1.67, 1.9 1.7, 1.84 1.73 C1.78 1.76, 1.71 1.78, 1.65 1.8 C1.58 1.82, 1.51 1.83, 1.44 1.84 C1.37 1.85, 1.3 1.85, 1.23 1.85 C1.16 1.85, 1.08 1.85, 1.01 1.84 C0.94 1.83, 0.87 1.82, 0.81 1.8 C0.74 1.78, 0.67 1.76, 0.61 1.73 C0.55 1.7, 0.49 1.67, 0.44 1.64 C0.38 1.6, 0.33 1.56, 0.29 1.52 C0.24 1.48, 0.2 1.44, 0.16 1.39 C0.13 1.34, 0.1 1.29, 0.07 1.24 C0.05 1.19, 0.03 1.14, 0.02 1.09 C0.01 1.03, 0 0.98, 0 0.93 C0 0.87, 0.01 0.82, 0.02 0.77 C0.03 0.71, 0.05 0.66, 0.07 0.61 C0.1 0.56, 0.13 0.51, 0.16 0.46 C0.2 0.42, 0.24 0.37, 0.29 0.33 C0.33 0.29, 0.38 0.25, 0.44 0.22 C0.49 0.18, 0.55 0.15, 0.61 0.12 C0.67 0.1, 0.74 0.07, 0.81 0.06 C0.87 0.04, 0.94 0.02, 1.01 0.01 C1.08 0, 1.16 0, 1.23 0 C1.3 0, 1.37 0, 1.44 0.01 C1.51 0.02, 1.58 0.04, 1.65 0.06 C1.71 0.07, 1.78 0.1, 1.84 0.12 C1.9 0.15, 1.96 0.18, 2.01 0.22 C2.07 0.25, 2.12 0.29, 2.17 0.33 C2.21 0.37, 2.25 0.42, 2.29 0.46 C2.32 0.51, 2.35 0.56, 2.38 0.61 C2.4 0.66, 2.42 0.71, 2.43 0.77 C2.45 0.82, 2.45 0.9, 2.45 0.93 C2.46 0.95, 2.46 0.9, 2.45 0.93" stroke="none" stroke-width="0" fill="black"/><path d="M2.45 0.93 C2.45 0.98, 2.45 1.03, 2.43 1.09 C2.42 1.14, 2.4 1.19, 2.38 1.24 C2.35 1.29, 2.32 1.34, 2.29 1.39 C2.25 1.44, 2.21 1.48, 2.17 1.52 C2.12 1.56, 2.07 1.6, 2.01 1.64 C1.96 1.67, 1.9 1.7, 1.84 1.73 C1.78 1.76, 1.71 1.78, 1.65 1.8 C1.58 1.82, 1.51 1.83, 1.44 1.84 C1.37 1.85, 1.3 1.85, 1.23 1.85 C1.16 1.85, 1.08 1.85, 1.01 1.84 C0.94 1.83, 0.87 1.82, 0.81 1.8 C0.74 1.78, 0.67 1.76, 0.61 1.73 C0.55 1.7, 0.49 1.67, 0.44 1.64 C0.38 1.6, 0.33 1.56, 0.29 1.52 C0.24 1.48, 0.2 1.44, 0.16 1.39 C0.13 1.34, 0.1 1.29, 0.07 1.24 C0.05 1.19, 0.03 1.14, 0.02 1.09 C0.01 1.03, 0 0.98, 0 0.93 C0 0.87, 0.01 0.82, 0.02 0.77 C0.03 0.71, 0.05 0.66, 0.07 0.61 C0.1 0.56, 0.13 0.51, 0.16 0.46 C0.2 0.42, 0.24 0.37, 0.29 0.33 C0.33 0.29, 0.38 0.25, 0.44 0.22 C0.49 0.18, 0.55 0.15, 0.61 0.12 C0.67 0.1, 0.74 0.07, 0.81 0.06 C0.87 0.04, 0.94 0.02, 1.01 0.01 C1.08 0, 1.16 0, 1.23 0 C1.3 0, 1.37 0, 1.44 0.01 C1.51 0.02, 1.58 0.04, 1.65 0.06 C1.71 0.07, 1.78 0.1, 1.84 0.12 C1.9 0.15, 1.96 0.18, 2.01 0.22 C2.07 0.25, 2.12 0.29, 2.17 0.33 C2.21 0.37, 2.25 0.42, 2.29 0.46 C2.32 0.51, 2.35 0.56, 2.38 0.61 C2.4 0.66, 2.42 0.71, 2.43 0.77 C2.45 0.82, 2.45 0.9, 2.45 0.93 C2.46 0.95, 2.46 0.9, 2.45 0.93" stroke="#1e1e1e" stroke-width="2" fill="none"/></g><g transform="translate(345.8019138340442 58.780301585971586) rotate(0 8.474990844726562 6.502729939670672)"><text x="0" y="10.404588784245487" font-family="Helvetica, Segoe UI Emoji" font-size="11.30909554725335px" fill="#1e1e1e" text-anchor="start" style="white-space: pre;" direction="ltr" dominant-baseline="alphabetic">OR</text></g></svg>