<svg version="1.1" xmlns="http://www.w3.org/2000/svg" viewBox="0 0 537.6013881370212 279.70189217447376" width="537.6013881370212" height="279.70189217447376" filter="invert(93%) hue-rotate(180deg)" class="excalidraw-svg">
  <!-- svg-source:excalidraw -->
  
  <defs>
    <style class="style-fonts">
      @font-face {
        font-family: "Virgil";
        src: url("https://excalidraw.com/Virgil.woff2");
      }
      @font-face {
        font-family: "Cascadia";
        src: url("https://excalidraw.com/Cascadia.woff2");
      }
      @font-face {
        font-family: "Assistant";
        src: url("https://excalidraw.com/Assistant-Regular.woff2");
      }
    </style>
    
  </defs>
  <g transform="translate(474.7492479188337 130.61843990781048) rotate(0 21.35944366455078 16.373099909978983)"><text x="0" y="26.197516007457878" font-family="Helvetica, Segoe UI Emoji" font-size="28.47495636518084px" fill="#f08c00" text-anchor="start" style="white-space: pre;" direction="ltr" dominant-baseline="alphabetic">low</text></g><g transform="translate(473.77532307354466 81.41941581925374) rotate(0 26.91303253173828 16.373099909978976)"><text x="0" y="26.197516007457878" font-family="Helvetica, Segoe UI Emoji" font-size="28.47495636518084px" fill="#1e1e1e" text-anchor="start" style="white-space: pre;" direction="ltr" dominant-baseline="alphabetic">high</text></g><g stroke-linecap="round"><g transform="translate(178.39092531328785 111.3156840279658) rotate(0 27.974455197720985 27.674813752807765)"><path d="M0 0 C3.7 6.65, 12.86 30.65, 22.18 39.87 C31.51 49.1, 50.32 52.77, 55.95 55.35 M0 0 C3.7 6.65, 12.86 30.65, 22.18 39.87 C31.51 49.1, 50.32 52.77, 55.95 55.35" stroke="#f08c00" stroke-width="2" fill="none"/></g><g transform="translate(178.39092531328785 111.3156840279658) rotate(0 27.974455197720985 27.674813752807765)"><path d="M55.95 55.35 L41.04 56.96 L45.13 44.96 L55.95 55.35" stroke="none" stroke-width="0" fill="#f08c00" fill-rule="evenodd"/><path d="M55.95 55.35 C50.86 55.9, 45.77 56.45, 41.04 56.96 M55.95 55.35 C51.84 55.79, 47.73 56.23, 41.04 56.96 M41.04 56.96 C42.36 53.09, 43.68 49.22, 45.13 44.96 M41.04 56.96 C42.52 52.6, 44.01 48.24, 45.13 44.96 M45.13 44.96 C47.94 47.65, 50.75 50.35, 55.95 55.35 M45.13 44.96 C48.08 47.79, 51.02 50.62, 55.95 55.35 M55.95 55.35 C55.95 55.35, 55.95 55.35, 55.95 55.35 M55.95 55.35 C55.95 55.35, 55.95 55.35, 55.95 55.35" stroke="#f08c00" stroke-width="2" fill="none"/></g></g><mask/><g stroke-linecap="round"><g transform="translate(168.28756381066216 40.76342297327679) rotate(0 93.50427280560916 25.8109913200869)"><path d="M0 0 C15.52 6.67, 61.94 31.42, 93.11 40.02 C124.28 48.63, 171.36 49.69, 187.01 51.62 M0 0 C15.52 6.67, 61.94 31.42, 93.11 40.02 C124.28 48.63, 171.36 49.69, 187.01 51.62" stroke="#1971c2" stroke-width="2" fill="none"/></g><g transform="translate(168.28756381066216 40.76342297327679) rotate(0 93.50427280560916 25.8109913200869)"><path d="M187.01 51.62 L172.94 56.84 L173.97 44.2 L187.01 51.62" stroke="none" stroke-width="0" fill="#1971c2" fill-rule="evenodd"/><path d="M187.01 51.62 C181.77 53.56, 176.54 55.51, 172.94 56.84 M187.01 51.62 C183.8 52.81, 180.59 54, 172.94 56.84 M172.94 56.84 C173.19 53.86, 173.43 50.87, 173.97 44.2 M172.94 56.84 C173.23 53.28, 173.52 49.71, 173.97 44.2 M173.97 44.2 C178.05 46.52, 182.13 48.85, 187.01 51.62 M173.97 44.2 C178.94 47.03, 183.91 49.86, 187.01 51.62 M187.01 51.62 C187.01 51.62, 187.01 51.62, 187.01 51.62 M187.01 51.62 C187.01 51.62, 187.01 51.62, 187.01 51.62" stroke="#1971c2" stroke-width="2" fill="none"/></g></g><mask/><g transform="translate(12.1473937855406 183.61428504940307) rotate(0 10.280059814453125 16.373099909978983)"><text x="0" y="26.197516007457878" font-family="Helvetica, Segoe UI Emoji" font-size="28.47495636518084px" fill="#9c36b5" text-anchor="start" style="white-space: pre;" direction="ltr" dominant-baseline="alphabetic">C</text></g><g stroke-linecap="round"><g transform="translate(240.0420612283147 265.9615040279461) rotate(0 -0.7208039657371046 -21.195537586472966)" fill-rule="evenodd"><path d="M0 0 L0 0 L-0.69 1.11 L-1.28 1.98 L-2.15 3.11 L-2.65 3.62 L-2.81 3.74 L-7.36 3.74 L-4.87 0.7 L-4.87 0.7 L-4.79 0.6 L-4.57 0.3 L-3.77 -0.87 L-2.64 -2.75 L-1.34 -5.31 L-0.05 -8.48 L1.08 -12.22 L1.88 -16.47 L2.18 -21.2 L1.88 -25.92 L1.08 -30.17 L-0.05 -33.91 L-1.34 -37.08 L-2.64 -39.64 L-3.77 -41.52 L-4.57 -42.69 L-4.79 -42.99 L-4.87 -43.09 L-7.36 -46.13 L-2.81 -46.13 L-2.81 -46.13 L-1.43 -44.45 L-0.04 -42.39 L0.89 -40.78 L1.88 -38.85 L2.87 -36.61 L3.82 -34.07 L4.65 -31.25 L5.32 -28.16 L5.76 -24.8 L5.92 -21.2 L5.76 -17.6 L5.32 -14.25 L4.66 -11.16 L3.83 -8.34 L2.89 -5.8 L1.9 -3.56 L0.92 -1.62 L0 0 L0 0" stroke="none" stroke-width="0" fill="black" fill-rule="evenodd"/><path d="M0 0 C0 0, 0 0, 0 0 M0 0 C0 0, 0 0, 0 0 M0 0 C-0.18 0.29, -0.37 0.59, -0.69 1.11 M0 0 C-0.19 0.3, -0.38 0.6, -0.69 1.11 M-0.69 1.11 C-0.91 1.43, -1.13 1.76, -1.28 1.98 M-0.69 1.11 C-0.9 1.41, -1.1 1.71, -1.28 1.98 M-1.28 1.98 C-1.49 2.25, -1.71 2.53, -2.15 3.11 M-1.28 1.98 C-1.6 2.4, -1.93 2.82, -2.15 3.11 M-2.15 3.11 C-2.27 3.23, -2.38 3.35, -2.65 3.62 M-2.15 3.11 C-2.28 3.24, -2.41 3.38, -2.65 3.62 M-2.65 3.62 C-2.69 3.65, -2.74 3.69, -2.81 3.74 M-2.65 3.62 C-2.71 3.67, -2.77 3.71, -2.81 3.74 M-2.81 3.74 C-3.76 3.74, -4.72 3.74, -7.36 3.74 M-2.81 3.74 C-4.6 3.74, -6.4 3.74, -7.36 3.74 M-7.36 3.74 C-6.83 3.09, -6.3 2.44, -4.87 0.7 M-7.36 3.74 C-6.79 3.04, -6.22 2.34, -4.87 0.7 M-4.87 0.7 C-4.87 0.7, -4.87 0.7, -4.87 0.7 M-4.87 0.7 C-4.87 0.7, -4.87 0.7, -4.87 0.7 M-4.87 0.7 C-4.85 0.68, -4.84 0.66, -4.79 0.6 M-4.87 0.7 C-4.85 0.68, -4.83 0.65, -4.79 0.6 M-4.79 0.6 C-4.73 0.51, -4.66 0.43, -4.57 0.3 M-4.79 0.6 C-4.72 0.51, -4.66 0.42, -4.57 0.3 M-4.57 0.3 C-4.32 -0.06, -4.07 -0.43, -3.77 -0.87 M-4.57 0.3 C-4.27 -0.13, -3.97 -0.57, -3.77 -0.87 M-3.77 -0.87 C-3.45 -1.4, -3.13 -1.94, -2.64 -2.75 M-3.77 -0.87 C-3.4 -1.49, -3.02 -2.11, -2.64 -2.75 M-2.64 -2.75 C-2.15 -3.72, -1.66 -4.69, -1.34 -5.31 M-2.64 -2.75 C-2.19 -3.65, -1.73 -4.54, -1.34 -5.31 M-1.34 -5.31 C-0.84 -6.54, -0.34 -7.78, -0.05 -8.48 M-1.34 -5.31 C-0.99 -6.18, -0.63 -7.05, -0.05 -8.48 M-0.05 -8.48 C0.3 -9.64, 0.65 -10.8, 1.08 -12.22 M-0.05 -8.48 C0.29 -9.61, 0.63 -10.74, 1.08 -12.22 M1.08 -12.22 C1.25 -13.1, 1.41 -13.98, 1.88 -16.47 M1.08 -12.22 C1.37 -13.77, 1.66 -15.32, 1.88 -16.47 M1.88 -16.47 C2 -18.3, 2.11 -20.12, 2.18 -21.2 M1.88 -16.47 C2 -18.35, 2.12 -20.23, 2.18 -21.2 M2.18 -21.2 C2.1 -22.46, 2.02 -23.73, 1.88 -25.92 M2.18 -21.2 C2.08 -22.76, 1.98 -24.32, 1.88 -25.92 M1.88 -25.92 C1.59 -27.45, 1.3 -28.99, 1.08 -30.17 M1.88 -25.92 C1.6 -27.42, 1.31 -28.93, 1.08 -30.17 M1.08 -30.17 C0.71 -31.39, 0.34 -32.61, -0.05 -33.91 M1.08 -30.17 C0.74 -31.31, 0.39 -32.45, -0.05 -33.91 M-0.05 -33.91 C-0.52 -35.05, -0.98 -36.19, -1.34 -37.08 M-0.05 -33.91 C-0.49 -34.99, -0.93 -36.07, -1.34 -37.08 M-1.34 -37.08 C-1.68 -37.74, -2.01 -38.39, -2.64 -39.64 M-1.34 -37.08 C-1.76 -37.9, -2.17 -38.72, -2.64 -39.64 M-2.64 -39.64 C-3.07 -40.36, -3.51 -41.09, -3.77 -41.52 M-2.64 -39.64 C-2.96 -40.17, -3.27 -40.69, -3.77 -41.52 M-3.77 -41.52 C-4.05 -41.94, -4.34 -42.36, -4.57 -42.69 M-3.77 -41.52 C-3.94 -41.77, -4.11 -42.02, -4.57 -42.69 M-4.57 -42.69 C-4.61 -42.75, -4.66 -42.82, -4.79 -42.99 M-4.57 -42.69 C-4.64 -42.8, -4.72 -42.9, -4.79 -42.99 M-4.79 -42.99 C-4.81 -43.02, -4.83 -43.04, -4.87 -43.09 M-4.79 -42.99 C-4.82 -43.02, -4.84 -43.06, -4.87 -43.09 M-4.87 -43.09 C-5.57 -43.95, -6.27 -44.8, -7.36 -46.13 M-4.87 -43.09 C-5.52 -43.89, -6.18 -44.68, -7.36 -46.13 M-7.36 -46.13 C-5.56 -46.13, -3.75 -46.13, -2.81 -46.13 M-7.36 -46.13 C-5.65 -46.13, -3.95 -46.13, -2.81 -46.13 M-2.81 -46.13 C-2.81 -46.13, -2.81 -46.13, -2.81 -46.13 M-2.81 -46.13 C-2.81 -46.13, -2.81 -46.13, -2.81 -46.13 M-2.81 -46.13 C-2.33 -45.55, -1.85 -44.96, -1.43 -44.45 M-2.81 -46.13 C-2.5 -45.76, -2.19 -45.38, -1.43 -44.45 M-1.43 -44.45 C-0.98 -43.79, -0.53 -43.12, -0.04 -42.39 M-1.43 -44.45 C-1.01 -43.83, -0.59 -43.2, -0.04 -42.39 M-0.04 -42.39 C0.24 -41.9, 0.53 -41.4, 0.89 -40.78 M-0.04 -42.39 C0.24 -41.9, 0.52 -41.42, 0.89 -40.78 M0.89 -40.78 C1.14 -40.29, 1.39 -39.8, 1.88 -38.85 M0.89 -40.78 C1.22 -40.13, 1.55 -39.48, 1.88 -38.85 M1.88 -38.85 C2.26 -37.98, 2.65 -37.12, 2.87 -36.61 M1.88 -38.85 C2.23 -38.05, 2.59 -37.25, 2.87 -36.61 M2.87 -36.61 C3.21 -35.7, 3.55 -34.8, 3.82 -34.07 M2.87 -36.61 C3.09 -36.02, 3.31 -35.42, 3.82 -34.07 M3.82 -34.07 C4.09 -33.14, 4.37 -32.21, 4.65 -31.25 M3.82 -34.07 C4.09 -33.14, 4.37 -32.21, 4.65 -31.25 M4.65 -31.25 C4.88 -30.18, 5.11 -29.11, 5.32 -28.16 M4.65 -31.25 C4.91 -30.08, 5.16 -28.9, 5.32 -28.16 M5.32 -28.16 C5.41 -27.49, 5.5 -26.81, 5.76 -24.8 M5.32 -28.16 C5.44 -27.26, 5.56 -26.35, 5.76 -24.8 M5.76 -24.8 C5.8 -24.05, 5.83 -23.3, 5.92 -21.2 M5.76 -24.8 C5.81 -23.69, 5.86 -22.57, 5.92 -21.2 M5.92 -21.2 C5.88 -20.17, 5.83 -19.15, 5.76 -17.6 M5.92 -21.2 C5.89 -20.4, 5.85 -19.61, 5.76 -17.6 M5.76 -17.6 C5.63 -16.57, 5.49 -15.54, 5.32 -14.25 M5.76 -17.6 C5.67 -16.91, 5.58 -16.22, 5.32 -14.25 M5.32 -14.25 C5.06 -13.03, 4.8 -11.81, 4.66 -11.16 M5.32 -14.25 C5.1 -13.22, 4.88 -12.19, 4.66 -11.16 M4.66 -11.16 C4.43 -10.38, 4.2 -9.6, 3.83 -8.34 M4.66 -11.16 C4.48 -10.57, 4.31 -9.98, 3.83 -8.34 M3.83 -8.34 C3.49 -7.42, 3.15 -6.5, 2.89 -5.8 M3.83 -8.34 C3.49 -7.43, 3.15 -6.52, 2.89 -5.8 M2.89 -5.8 C2.57 -5.08, 2.25 -4.35, 1.9 -3.56 M2.89 -5.8 C2.59 -5.12, 2.28 -4.43, 1.9 -3.56 M1.9 -3.56 C1.56 -2.88, 1.22 -2.21, 0.92 -1.62 M1.9 -3.56 C1.56 -2.88, 1.22 -2.21, 0.92 -1.62 M0.92 -1.62 C0.61 -1.08, 0.31 -0.55, 0 0 M0.92 -1.62 C0.7 -1.24, 0.48 -0.85, 0 0 M0 0 C0 0, 0 0, 0 0 M0 0 C0 0, 0 0, 0 0 M0 0 C0 0, 0 0, 0 0 M0 0 C0 0, 0 0, 0 0" stroke="#000000" stroke-width="0.5" fill="none"/></g></g><mask/><g stroke-linecap="round"><g transform="translate(239.847249345683 219.8300407084725) rotate(0 30.215322996168872 24.93592097685116)" fill-rule="evenodd"><path d="M0 0 L2.49 3.04 L2.49 3.04 L2.57 3.14 L2.8 3.44 L3.6 4.61 L4.72 6.5 L6.02 9.05 L7.31 12.22 L8.44 15.96 L9.24 20.21 L9.55 24.94 L9.24 29.66 L8.44 33.91 L7.31 37.65 L6.02 40.82 L4.72 43.38 L3.6 45.26 L2.8 46.43 L2.57 46.73 L2.49 46.83 L0 49.87 L3.94 49.87 L21.39 49.87 L21.39 49.87 L22.68 49.87 L24.27 49.83 L26.13 49.72 L28.23 49.51 L30.54 49.15 L33.02 48.62 L35.65 47.87 L38.38 46.87 L41.19 45.58 L44.04 43.98 L46.91 42.02 L49.77 39.67 L52.58 36.91 L55.32 33.71 L57.94 30.02 L60.43 25.83 L58.79 24.94 L60.43 24.04 L60.43 24.04 L57.94 19.85 L55.31 16.18 L52.57 12.99 L49.75 10.26 L46.88 7.93 L44 5.99 L41.13 4.39 L38.32 3.11 L35.58 2.1 L32.96 1.34 L30.49 0.79 L28.19 0.41 L26.09 0.18 L24.24 0.06 L22.66 0.01 L21.39 0 L3.94 0 L0 0 L0 0" stroke="none" stroke-width="0" fill="black" fill-rule="evenodd"/><path d="M0 0 C0.96 1.17, 1.91 2.33, 2.49 3.04 M0 0 C0.82 1, 1.65 2.01, 2.49 3.04 M2.49 3.04 C2.49 3.04, 2.49 3.04, 2.49 3.04 M2.49 3.04 C2.49 3.04, 2.49 3.04, 2.49 3.04 M2.49 3.04 C2.51 3.06, 2.53 3.08, 2.57 3.14 M2.49 3.04 C2.52 3.08, 2.56 3.12, 2.57 3.14 M2.57 3.14 C2.64 3.22, 2.7 3.31, 2.8 3.44 M2.57 3.14 C2.63 3.22, 2.69 3.3, 2.8 3.44 M2.8 3.44 C3.09 3.87, 3.38 4.3, 3.6 4.61 M2.8 3.44 C3.01 3.75, 3.21 4.05, 3.6 4.61 M3.6 4.61 C3.89 5.09, 4.18 5.58, 4.72 6.5 M3.6 4.61 C4.02 5.32, 4.45 6.04, 4.72 6.5 M4.72 6.5 C5.15 7.33, 5.57 8.16, 6.02 9.05 M4.72 6.5 C5.05 7.14, 5.38 7.78, 6.02 9.05 M6.02 9.05 C6.31 9.77, 6.61 10.48, 7.31 12.22 M6.02 9.05 C6.46 10.13, 6.9 11.2, 7.31 12.22 M7.31 12.22 C7.61 13.2, 7.91 14.18, 8.44 15.96 M7.31 12.22 C7.55 13.01, 7.79 13.79, 8.44 15.96 M8.44 15.96 C8.65 17.05, 8.85 18.14, 9.24 20.21 M8.44 15.96 C8.69 17.28, 8.94 18.59, 9.24 20.21 M9.24 20.21 C9.34 21.73, 9.44 23.25, 9.55 24.94 M9.24 20.21 C9.32 21.36, 9.39 22.51, 9.55 24.94 M9.55 24.94 C9.44 26.53, 9.34 28.12, 9.24 29.66 M9.55 24.94 C9.44 26.62, 9.33 28.3, 9.24 29.66 M9.24 29.66 C8.99 31.01, 8.73 32.37, 8.44 33.91 M9.24 29.66 C9.08 30.54, 8.91 31.42, 8.44 33.91 M8.44 33.91 C8.12 34.98, 7.8 36.06, 7.31 37.65 M8.44 33.91 C8.05 35.22, 7.66 36.52, 7.31 37.65 M7.31 37.65 C7 38.42, 6.68 39.2, 6.02 40.82 M7.31 37.65 C7.05 38.31, 6.78 38.97, 6.02 40.82 M6.02 40.82 C5.71 41.44, 5.39 42.06, 4.72 43.38 M6.02 40.82 C5.68 41.48, 5.35 42.14, 4.72 43.38 M4.72 43.38 C4.32 44.05, 3.91 44.73, 3.6 45.26 M4.72 43.38 C4.38 43.95, 4.04 44.53, 3.6 45.26 M3.6 45.26 C3.3 45.69, 3.01 46.12, 2.8 46.43 M3.6 45.26 C3.39 45.56, 3.18 45.87, 2.8 46.43 M2.8 46.43 C2.73 46.52, 2.66 46.61, 2.57 46.73 M2.8 46.43 C2.75 46.5, 2.7 46.56, 2.57 46.73 M2.57 46.73 C2.55 46.77, 2.52 46.8, 2.49 46.83 M2.57 46.73 C2.56 46.75, 2.54 46.78, 2.49 46.83 M2.49 46.83 C1.54 47.99, 0.59 49.15, 0 49.87 M2.49 46.83 C1.53 48.01, 0.57 49.18, 0 49.87 M0 49.87 C1.12 49.87, 2.25 49.87, 3.94 49.87 M0 49.87 C0.88 49.87, 1.76 49.87, 3.94 49.87 M3.94 49.87 C8.85 49.87, 13.77 49.87, 21.39 49.87 M3.94 49.87 C9.97 49.87, 16.01 49.87, 21.39 49.87 M21.39 49.87 C21.39 49.87, 21.39 49.87, 21.39 49.87 M21.39 49.87 C21.39 49.87, 21.39 49.87, 21.39 49.87 M21.39 49.87 C21.85 49.87, 22.32 49.87, 22.68 49.87 M21.39 49.87 C21.85 49.87, 22.3 49.87, 22.68 49.87 M22.68 49.87 C23.02 49.86, 23.35 49.85, 24.27 49.83 M22.68 49.87 C23.09 49.86, 23.49 49.85, 24.27 49.83 M24.27 49.83 C24.91 49.79, 25.55 49.76, 26.13 49.72 M24.27 49.83 C24.88 49.79, 25.5 49.76, 26.13 49.72 M26.13 49.72 C26.62 49.67, 27.11 49.62, 28.23 49.51 M26.13 49.72 C26.86 49.65, 27.59 49.57, 28.23 49.51 M28.23 49.51 C28.79 49.42, 29.35 49.34, 30.54 49.15 M28.23 49.51 C29.02 49.39, 29.8 49.27, 30.54 49.15 M30.54 49.15 C31.26 49, 31.97 48.84, 33.02 48.62 M30.54 49.15 C31.52 48.94, 32.49 48.73, 33.02 48.62 M33.02 48.62 C33.62 48.45, 34.21 48.28, 35.65 47.87 M33.02 48.62 C33.82 48.39, 34.62 48.16, 35.65 47.87 M35.65 47.87 C36.48 47.57, 37.31 47.26, 38.38 46.87 M35.65 47.87 C36.68 47.49, 37.72 47.11, 38.38 46.87 M38.38 46.87 C39.36 46.42, 40.34 45.97, 41.19 45.58 M38.38 46.87 C39.21 46.49, 40.05 46.11, 41.19 45.58 M41.19 45.58 C41.85 45.21, 42.51 44.84, 44.04 43.98 M41.19 45.58 C42.02 45.11, 42.86 44.64, 44.04 43.98 M44.04 43.98 C44.72 43.51, 45.4 43.05, 46.91 42.02 M44.04 43.98 C44.73 43.51, 45.41 43.04, 46.91 42.02 M46.91 42.02 C47.89 41.22, 48.87 40.42, 49.77 39.67 M46.91 42.02 C47.54 41.5, 48.16 40.99, 49.77 39.67 M49.77 39.67 C50.85 38.61, 51.93 37.56, 52.58 36.91 M49.77 39.67 C50.35 39.1, 50.93 38.54, 52.58 36.91 M52.58 36.91 C53.49 35.85, 54.4 34.78, 55.32 33.71 M52.58 36.91 C53.25 36.13, 53.92 35.35, 55.32 33.71 M55.32 33.71 C56 32.74, 56.69 31.78, 57.94 30.02 M55.32 33.71 C56.17 32.51, 57.02 31.32, 57.94 30.02 M57.94 30.02 C58.5 29.09, 59.05 28.15, 60.43 25.83 M57.94 30.02 C58.84 28.52, 59.73 27.01, 60.43 25.83 M60.43 25.83 C60.08 25.64, 59.72 25.45, 58.79 24.94 M60.43 25.83 C59.99 25.59, 59.54 25.35, 58.79 24.94 M58.79 24.94 C59.22 24.7, 59.64 24.47, 60.43 24.04 M58.79 24.94 C59.38 24.62, 59.96 24.3, 60.43 24.04 M60.43 24.04 C60.43 24.04, 60.43 24.04, 60.43 24.04 M60.43 24.04 C60.43 24.04, 60.43 24.04, 60.43 24.04 M60.43 24.04 C59.92 23.18, 59.41 22.33, 57.94 19.85 M60.43 24.04 C59.61 22.66, 58.8 21.29, 57.94 19.85 M57.94 19.85 C57.16 18.77, 56.39 17.69, 55.31 16.18 M57.94 19.85 C57.09 18.67, 56.24 17.48, 55.31 16.18 M55.31 16.18 C54.62 15.38, 53.93 14.57, 52.57 12.99 M55.31 16.18 C54.3 15.01, 53.29 13.84, 52.57 12.99 M52.57 12.99 C51.51 11.97, 50.45 10.94, 49.75 10.26 M52.57 12.99 C51.88 12.33, 51.2 11.67, 49.75 10.26 M49.75 10.26 C48.84 9.52, 47.94 8.79, 46.88 7.93 M49.75 10.26 C48.96 9.62, 48.18 8.99, 46.88 7.93 M46.88 7.93 C46.18 7.46, 45.47 6.98, 44 5.99 M46.88 7.93 C46.25 7.51, 45.63 7.09, 44 5.99 M44 5.99 C43.05 5.46, 42.11 4.93, 41.13 4.39 M44 5.99 C43.31 5.61, 42.63 5.23, 41.13 4.39 M41.13 4.39 C40.26 3.99, 39.39 3.59, 38.32 3.11 M41.13 4.39 C40.05 3.9, 38.97 3.4, 38.32 3.11 M38.32 3.11 C37.34 2.75, 36.36 2.38, 35.58 2.1 M38.32 3.11 C37.32 2.74, 36.32 2.37, 35.58 2.1 M35.58 2.1 C34.9 1.9, 34.22 1.7, 32.96 1.34 M35.58 2.1 C34.98 1.92, 34.37 1.75, 32.96 1.34 M32.96 1.34 C32.26 1.18, 31.55 1.03, 30.49 0.79 M32.96 1.34 C32.09 1.14, 31.21 0.95, 30.49 0.79 M30.49 0.79 C29.67 0.66, 28.86 0.52, 28.19 0.41 M30.49 0.79 C29.8 0.68, 29.12 0.57, 28.19 0.41 M28.19 0.41 C27.53 0.34, 26.87 0.27, 26.09 0.18 M28.19 0.41 C27.76 0.37, 27.33 0.32, 26.09 0.18 M26.09 0.18 C25.5 0.14, 24.91 0.1, 24.24 0.06 M26.09 0.18 C25.59 0.15, 25.09 0.11, 24.24 0.06 M24.24 0.06 C23.8 0.04, 23.35 0.03, 22.66 0.01 M24.24 0.06 C23.73 0.04, 23.22 0.03, 22.66 0.01 M22.66 0.01 C22.33 0.01, 21.99 0, 21.39 0 M22.66 0.01 C22.28 0.01, 21.9 0, 21.39 0 M21.39 0 C15.47 0, 9.55 0, 3.94 0 M21.39 0 C17.6 0, 13.81 0, 3.94 0 M3.94 0 C2.49 0, 1.05 0, 0 0 M3.94 0 C2.87 0, 1.81 0, 0 0 M0 0 C0 0, 0 0, 0 0 M0 0 C0 0, 0 0, 0 0 M0 0 C0 0, 0 0, 0 0 M0 0 C0 0, 0 0, 0 0" stroke="#000000" stroke-width="1" fill="none"/></g></g><mask/><g stroke-linecap="round"><g transform="translate(247.17217613263307 223.57042885500022) rotate(0 24.468372458535203 21.195532830323483)" fill-rule="evenodd"><path d="M0 0 L14.07 0 L14.07 0 L15.29 0 L16.75 0.03 L20.28 0.31 L24.48 1.07 L26.78 1.72 L29.16 2.59 L31.63 3.7 L34.14 5.1 L36.68 6.82 L39.22 8.87 L41.74 11.31 L44.21 14.15 L46.62 17.44 L48.94 21.2 L46.65 24.9 L44.28 28.14 L41.83 30.96 L39.34 33.38 L36.82 35.42 L34.3 37.14 L31.8 38.54 L29.34 39.66 L26.89 40.57 L24.55 41.24 L20.32 42.05 L16.78 42.35 L14.07 42.39 L0.04 42.39 L0.04 42.39 L0.96 40.77 L1.95 38.84 L2.94 36.6 L3.88 34.06 L4.7 31.24 L5.36 28.14 L5.8 24.79 L5.96 21.2 L5.8 17.59 L5.36 14.23 L4.69 11.14 L3.86 8.32 L2.91 5.78 L1.92 3.54 L0.93 1.61 L0 0 L0 0" stroke="none" stroke-width="0" fill="#FFFFFF" fill-rule="evenodd"/><path d="M0 0 C3.2 0, 6.4 0, 14.07 0 M0 0 C3.44 0, 6.88 0, 14.07 0 M14.07 0 C14.07 0, 14.07 0, 14.07 0 M14.07 0 C14.07 0, 14.07 0, 14.07 0 M14.07 0 C14.45 0, 14.84 0, 15.29 0 M14.07 0 C14.4 0, 14.73 0, 15.29 0 M15.29 0 C15.66 0.01, 16.03 0.02, 16.75 0.03 M15.29 0 C15.77 0.01, 16.25 0.02, 16.75 0.03 M16.75 0.03 C18.04 0.14, 19.34 0.24, 20.28 0.31 M16.75 0.03 C17.71 0.11, 18.68 0.18, 20.28 0.31 M20.28 0.31 C21.85 0.6, 23.43 0.88, 24.48 1.07 M20.28 0.31 C21.24 0.48, 22.19 0.66, 24.48 1.07 M24.48 1.07 C25.07 1.24, 25.66 1.41, 26.78 1.72 M24.48 1.07 C25.08 1.24, 25.68 1.41, 26.78 1.72 M26.78 1.72 C27.31 1.92, 27.84 2.11, 29.16 2.59 M26.78 1.72 C27.42 1.96, 28.06 2.19, 29.16 2.59 M29.16 2.59 C30.11 3.02, 31.06 3.45, 31.63 3.7 M29.16 2.59 C30.01 2.97, 30.85 3.35, 31.63 3.7 M31.63 3.7 C32.45 4.16, 33.27 4.62, 34.14 5.1 M31.63 3.7 C32.26 4.06, 32.89 4.41, 34.14 5.1 M34.14 5.1 C35.1 5.75, 36.06 6.4, 36.68 6.82 M34.14 5.1 C34.71 5.49, 35.28 5.87, 36.68 6.82 M36.68 6.82 C37.66 7.61, 38.64 8.41, 39.22 8.87 M36.68 6.82 C37.25 7.28, 37.81 7.74, 39.22 8.87 M39.22 8.87 C40.19 9.81, 41.16 10.76, 41.74 11.31 M39.22 8.87 C40.03 9.66, 40.84 10.44, 41.74 11.31 M41.74 11.31 C42.66 12.37, 43.59 13.43, 44.21 14.15 M41.74 11.31 C42.69 12.41, 43.65 13.5, 44.21 14.15 M44.21 14.15 C45.12 15.39, 46.03 16.64, 46.62 17.44 M44.21 14.15 C44.81 14.96, 45.4 15.78, 46.62 17.44 M46.62 17.44 C47.16 18.31, 47.7 19.19, 48.94 21.2 M46.62 17.44 C47.52 18.9, 48.42 20.35, 48.94 21.2 M48.94 21.2 C48.37 22.12, 47.8 23.04, 46.65 24.9 M48.94 21.2 C48.22 22.36, 47.5 23.52, 46.65 24.9 M46.65 24.9 C45.74 26.15, 44.82 27.4, 44.28 28.14 M46.65 24.9 C46.1 25.66, 45.54 26.41, 44.28 28.14 M44.28 28.14 C43.5 29.04, 42.72 29.94, 41.83 30.96 M44.28 28.14 C43.69 28.81, 43.11 29.49, 41.83 30.96 M41.83 30.96 C41.28 31.49, 40.73 32.03, 39.34 33.38 M41.83 30.96 C40.89 31.87, 39.95 32.79, 39.34 33.38 M39.34 33.38 C38.76 33.84, 38.19 34.31, 36.82 35.42 M39.34 33.38 C38.74 33.87, 38.13 34.36, 36.82 35.42 M36.82 35.42 C36.29 35.78, 35.76 36.14, 34.3 37.14 M36.82 35.42 C36.25 35.81, 35.68 36.2, 34.3 37.14 M34.3 37.14 C33.69 37.48, 33.08 37.82, 31.8 38.54 M34.3 37.14 C33.46 37.61, 32.62 38.08, 31.8 38.54 M31.8 38.54 C30.84 38.98, 29.88 39.42, 29.34 39.66 M31.8 38.54 C31.22 38.81, 30.63 39.07, 29.34 39.66 M29.34 39.66 C28.47 39.98, 27.6 40.3, 26.89 40.57 M29.34 39.66 C28.73 39.89, 28.12 40.11, 26.89 40.57 M26.89 40.57 C26.25 40.75, 25.62 40.94, 24.55 41.24 M26.89 40.57 C26.38 40.71, 25.87 40.86, 24.55 41.24 M24.55 41.24 C22.98 41.55, 21.41 41.85, 20.32 42.05 M24.55 41.24 C23.28 41.49, 22.01 41.73, 20.32 42.05 M20.32 42.05 C19.09 42.16, 17.87 42.26, 16.78 42.35 M20.32 42.05 C19.5 42.12, 18.68 42.19, 16.78 42.35 M16.78 42.35 C16.15 42.36, 15.53 42.37, 14.07 42.39 M16.78 42.35 C15.93 42.36, 15.07 42.38, 14.07 42.39 M14.07 42.39 C8.87 42.39, 3.68 42.39, 0.04 42.39 M14.07 42.39 C10.01 42.39, 5.95 42.39, 0.04 42.39 M0.04 42.39 C0.04 42.39, 0.04 42.39, 0.04 42.39 M0.04 42.39 C0.04 42.39, 0.04 42.39, 0.04 42.39 M0.04 42.39 C0.3 41.94, 0.55 41.49, 0.96 40.77 M0.04 42.39 C0.28 41.98, 0.51 41.57, 0.96 40.77 M0.96 40.77 C1.2 40.31, 1.43 39.85, 1.95 38.84 M0.96 40.77 C1.2 40.32, 1.43 39.86, 1.95 38.84 M1.95 38.84 C2.22 38.22, 2.5 37.6, 2.94 36.6 M1.95 38.84 C2.29 38.07, 2.63 37.29, 2.94 36.6 M2.94 36.6 C3.29 35.65, 3.64 34.7, 3.88 34.06 M2.94 36.6 C3.31 35.58, 3.69 34.57, 3.88 34.06 M3.88 34.06 C4.16 33.08, 4.45 32.11, 4.7 31.24 M3.88 34.06 C4.06 33.42, 4.25 32.79, 4.7 31.24 M4.7 31.24 C4.92 30.22, 5.14 29.2, 5.36 28.14 M4.7 31.24 C4.86 30.51, 5.02 29.78, 5.36 28.14 M5.36 28.14 C5.51 27.01, 5.66 25.87, 5.8 24.79 M5.36 28.14 C5.5 27.09, 5.64 26.04, 5.8 24.79 M5.8 24.79 C5.86 23.51, 5.92 22.23, 5.96 21.2 M5.8 24.79 C5.86 23.43, 5.92 22.06, 5.96 21.2 M5.96 21.2 C5.92 20.17, 5.87 19.14, 5.8 17.59 M5.96 21.2 C5.92 20.18, 5.87 19.16, 5.8 17.59 M5.8 17.59 C5.7 16.8, 5.59 16.02, 5.36 14.23 M5.8 17.59 C5.64 16.37, 5.48 15.15, 5.36 14.23 M5.36 14.23 C5.17 13.36, 4.98 12.48, 4.69 11.14 M5.36 14.23 C5.12 13.15, 4.89 12.06, 4.69 11.14 M4.69 11.14 C4.39 10.13, 4.09 9.11, 3.86 8.32 M4.69 11.14 C4.42 10.23, 4.15 9.32, 3.86 8.32 M3.86 8.32 C3.66 7.79, 3.47 7.27, 2.91 5.78 M3.86 8.32 C3.48 7.32, 3.11 6.32, 2.91 5.78 M2.91 5.78 C2.66 5.21, 2.4 4.63, 1.92 3.54 M2.91 5.78 C2.62 5.13, 2.33 4.47, 1.92 3.54 M1.92 3.54 C1.71 3.15, 1.51 2.75, 0.93 1.61 M1.92 3.54 C1.68 3.09, 1.45 2.63, 0.93 1.61 M0.93 1.61 C0.67 1.17, 0.42 0.73, 0 0 M0.93 1.61 C0.64 1.11, 0.35 0.6, 0 0 M0 0 C0 0, 0 0, 0 0 M0 0 C0 0, 0 0, 0 0 M0 0 C0 0, 0 0, 0 0 M0 0 C0 0, 0 0, 0 0" stroke="#000000" stroke-width="1" fill="none"/></g></g><mask/><g stroke-linecap="round"><g transform="translate(298.1814115095649 244.7595746119643) rotate(0 0.25979223930596085 0.05196042994890515)"><path d="M0 0 C0.09 0.02, 0.43 0.09, 0.52 0.1 M0 0 C0.09 0.02, 0.43 0.09, 0.52 0.1" stroke="#000000" stroke-width="4" fill="none"/></g></g><mask/><g transform="translate(258.1801200198948 237.63593051287359) rotate(0 13.597862243652344 7.217701720996696)"><text x="0" y="11.548567920093388" font-family="Helvetica, Segoe UI Emoji" font-size="12.552524732168168px" fill="#f08c00" text-anchor="start" style="white-space: pre;" direction="ltr" dominant-baseline="alphabetic">XOR</text></g><g stroke-linecap="round"><g transform="translate(41.43786107512932 202.30748809062607) rotate(0 100.20331574618811 24.144222661525387)"><path d="M0 0 C33.4 8.05, 167.01 40.24, 200.41 48.29 M0 0 C33.4 8.05, 167.01 40.24, 200.41 48.29" stroke="#6741d9" stroke-width="2" fill="none"/></g><g transform="translate(41.43786107512932 202.30748809062607) rotate(0 100.20331574618811 24.144222661525387)"><path d="M200.41 48.29 L185.71 51.27 L188.68 38.94 L200.41 48.29" stroke="none" stroke-width="0" fill="#6741d9" fill-rule="evenodd"/><path d="M200.41 48.29 C195.52 49.28, 190.64 50.27, 185.71 51.27 M200.41 48.29 C196.73 49.03, 193.05 49.78, 185.71 51.27 M185.71 51.27 C186.71 47.11, 187.71 42.96, 188.68 38.94 M185.71 51.27 C186.36 48.54, 187.02 45.81, 188.68 38.94 M188.68 38.94 C192.53 42.02, 196.39 45.09, 200.41 48.29 M188.68 38.94 C192.79 42.22, 196.91 45.5, 200.41 48.29 M200.41 48.29 C200.41 48.29, 200.41 48.29, 200.41 48.29 M200.41 48.29 C200.41 48.29, 200.41 48.29, 200.41 48.29" stroke="#6741d9" stroke-width="2" fill="none"/></g></g><mask/><g stroke-linecap="round"><g transform="translate(178.549351324911 111.01842147531482) rotate(0 30.6511441141719 61.492955857342395)"><path d="M0 0 C3.04 16.78, 8.01 80.15, 18.22 100.65 C28.44 121.15, 54.12 119.26, 61.3 122.99 M0 0 C3.04 16.78, 8.01 80.15, 18.22 100.65 C28.44 121.15, 54.12 119.26, 61.3 122.99" stroke="#f08c00" stroke-width="2" fill="none"/></g><g transform="translate(178.549351324911 111.01842147531482) rotate(0 30.6511441141719 61.492955857342395)"><path d="M61.3 122.99 L46.59 125.9 L49.61 113.58 L61.3 122.99" stroke="none" stroke-width="0" fill="#f08c00" fill-rule="evenodd"/><path d="M61.3 122.99 C56.62 123.91, 51.93 124.84, 46.59 125.9 M61.3 122.99 C58.31 123.58, 55.31 124.17, 46.59 125.9 M46.59 125.9 C47.29 123.04, 47.99 120.18, 49.61 113.58 M46.59 125.9 C47.64 121.63, 48.69 117.36, 49.61 113.58 M49.61 113.58 C52.97 116.28, 56.32 118.98, 61.3 122.99 M49.61 113.58 C53.21 116.48, 56.81 119.37, 61.3 122.99 M61.3 122.99 C61.3 122.99, 61.3 122.99, 61.3 122.99 M61.3 122.99 C61.3 122.99, 61.3 122.99, 61.3 122.99" stroke="#f08c00" stroke-width="2" fill="none"/></g></g><mask/><g stroke-linecap="round"><g transform="translate(300.55864772293967 245.81193958903526) rotate(0 83.3932157105821 -49.594325408159065)"><path d="M0 0 C27.8 -16.53, 138.99 -82.66, 166.79 -99.19 M0 0 C27.8 -16.53, 138.99 -82.66, 166.79 -99.19" stroke="#f08c00" stroke-width="2" fill="none"/></g><g transform="translate(300.55864772293967 245.81193958903526) rotate(0 83.3932157105821 -49.594325408159065)"><path d="M166.79 -99.19 L158.34 -86.79 L151.86 -97.69 L166.79 -99.19" stroke="none" stroke-width="0" fill="#f08c00" fill-rule="evenodd"/><path d="M166.79 -99.19 C164.53 -95.87, 162.27 -92.55, 158.34 -86.79 M166.79 -99.19 C164.48 -95.8, 162.16 -92.4, 158.34 -86.79 M158.34 -86.79 C156.94 -89.15, 155.54 -91.51, 151.86 -97.69 M158.34 -86.79 C157.03 -88.99, 155.73 -91.19, 151.86 -97.69 M151.86 -97.69 C155.86 -98.09, 159.87 -98.49, 166.79 -99.19 M151.86 -97.69 C155.95 -98.1, 160.05 -98.51, 166.79 -99.19 M166.79 -99.19 C166.79 -99.19, 166.79 -99.19, 166.79 -99.19 M166.79 -99.19 C166.79 -99.19, 166.79 -99.19, 166.79 -99.19" stroke="#f08c00" stroke-width="2" fill="none"/></g></g><mask/><g transform="translate(10.000000000000114 10.000000000000028) rotate(0 9.49462890625 16.37309990997899)"><text x="0" y="26.197516007457878" font-family="Helvetica, Segoe UI Emoji" font-size="28.47495636518084px" fill="#e03131" text-anchor="start" style="white-space: pre;" direction="ltr" dominant-baseline="alphabetic">A</text></g><g transform="translate(10 105.58402338150827) rotate(0 9.49462890625 16.373099909978983)"><text x="0" y="26.197516007457878" font-family="Helvetica, Segoe UI Emoji" font-size="28.47495636518084px" fill="#2f9e44" text-anchor="start" style="white-space: pre;" direction="ltr" dominant-baseline="alphabetic">B</text></g><g stroke-linecap="round"><g transform="translate(112.10187985985738 10.431492843367636) rotate(0 28.19143199851524 27.859769342963133)" fill-rule="evenodd"><path d="M0 0 L0 1.99 L0 53.73 L0 55.72 L1.99 55.72 L28.52 55.72 L28.52 55.72 L31.42 55.58 L34.23 55.15 L36.92 54.46 L39.5 53.52 L41.94 52.34 L44.24 50.94 L48.34 47.54 L51.71 43.41 L54.24 38.68 L55.16 36.12 L55.83 33.46 L56.24 30.7 L56.38 27.86 L56.24 25.02 L55.83 22.26 L55.16 19.6 L54.24 17.04 L51.71 12.31 L48.34 8.18 L44.24 4.77 L41.94 3.38 L39.5 2.2 L36.92 1.26 L34.23 0.57 L31.42 0.14 L28.52 0 L28.47 0 L28.11 0 L27.12 0 L26.3 0 L25.21 0 L23.8 0 L22.05 0 L19.9 0 L17.33 0 L14.29 0 L10.75 0 L6.66 0 L1.99 0 L0 0 L0 0" stroke="none" stroke-width="0" fill="black" fill-rule="evenodd"/><path d="M0 0 C0 0.68, 0 1.35, 0 1.99 M0 0 C0 0.66, 0 1.32, 0 1.99 M0 1.99 C0 20.47, 0 38.95, 0 53.73 M0 1.99 C0 21.48, 0 40.97, 0 53.73 M0 53.73 C0 54.26, 0 54.8, 0 55.72 M0 53.73 C0 54.4, 0 55.07, 0 55.72 M0 55.72 C0.59 55.72, 1.18 55.72, 1.99 55.72 M0 55.72 C0.63 55.72, 1.25 55.72, 1.99 55.72 M1.99 55.72 C12.54 55.72, 23.1 55.72, 28.52 55.72 M1.99 55.72 C7.92 55.72, 13.86 55.72, 28.52 55.72 M28.52 55.72 C28.52 55.72, 28.52 55.72, 28.52 55.72 M28.52 55.72 C28.52 55.72, 28.52 55.72, 28.52 55.72 M28.52 55.72 C29.29 55.68, 30.07 55.64, 31.42 55.58 M28.52 55.72 C29.53 55.67, 30.54 55.62, 31.42 55.58 M31.42 55.58 C32.48 55.42, 33.53 55.26, 34.23 55.15 M31.42 55.58 C32.48 55.42, 33.54 55.26, 34.23 55.15 M34.23 55.15 C35 54.95, 35.77 54.76, 36.92 54.46 M34.23 55.15 C34.82 55, 35.42 54.85, 36.92 54.46 M36.92 54.46 C37.74 54.16, 38.55 53.87, 39.5 53.52 M36.92 54.46 C37.81 54.14, 38.7 53.81, 39.5 53.52 M39.5 53.52 C40.1 53.23, 40.7 52.94, 41.94 52.34 M39.5 53.52 C39.99 53.28, 40.48 53.05, 41.94 52.34 M41.94 52.34 C42.86 51.79, 43.77 51.23, 44.24 50.94 M41.94 52.34 C42.41 52.06, 42.87 51.78, 44.24 50.94 M44.24 50.94 C45.08 50.24, 45.92 49.54, 48.34 47.54 M44.24 50.94 C45.07 50.25, 45.9 49.56, 48.34 47.54 M48.34 47.54 C49.29 46.37, 50.23 45.21, 51.71 43.41 M48.34 47.54 C49.27 46.4, 50.19 45.26, 51.71 43.41 M51.71 43.41 C52.71 41.53, 53.71 39.66, 54.24 38.68 M51.71 43.41 C52.69 41.57, 53.68 39.72, 54.24 38.68 M54.24 38.68 C54.56 37.79, 54.87 36.91, 55.16 36.12 M54.24 38.68 C54.6 37.68, 54.95 36.68, 55.16 36.12 M55.16 36.12 C55.38 35.25, 55.6 34.38, 55.83 33.46 M55.16 36.12 C55.34 35.39, 55.53 34.65, 55.83 33.46 M55.83 33.46 C55.91 32.9, 55.99 32.35, 56.24 30.7 M55.83 33.46 C55.98 32.42, 56.14 31.38, 56.24 30.7 M56.24 30.7 C56.28 29.92, 56.32 29.14, 56.38 27.86 M56.24 30.7 C56.27 30.05, 56.31 29.4, 56.38 27.86 M56.38 27.86 C56.33 26.8, 56.28 25.75, 56.24 25.02 M56.38 27.86 C56.33 26.83, 56.28 25.8, 56.24 25.02 M56.24 25.02 C56.08 23.93, 55.91 22.83, 55.83 22.26 M56.24 25.02 C56.09 24.01, 55.94 22.99, 55.83 22.26 M55.83 22.26 C55.68 21.69, 55.54 21.12, 55.16 19.6 M55.83 22.26 C55.64 21.51, 55.45 20.76, 55.16 19.6 M55.16 19.6 C54.95 19.04, 54.75 18.48, 54.24 17.04 M55.16 19.6 C54.91 18.92, 54.67 18.25, 54.24 17.04 M54.24 17.04 C53.72 16.07, 53.2 15.09, 51.71 12.31 M54.24 17.04 C53.3 15.3, 52.37 13.55, 51.71 12.31 M51.71 12.31 C50.55 10.9, 49.4 9.48, 48.34 8.18 M51.71 12.31 C50.91 11.34, 50.12 10.36, 48.34 8.18 M48.34 8.18 C47.34 7.35, 46.34 6.52, 44.24 4.77 M48.34 8.18 C47.28 7.31, 46.23 6.43, 44.24 4.77 M44.24 4.77 C43.46 4.3, 42.67 3.82, 41.94 3.38 M44.24 4.77 C43.64 4.41, 43.04 4.05, 41.94 3.38 M41.94 3.38 C41.08 2.96, 40.22 2.55, 39.5 2.2 M41.94 3.38 C41.25 3.04, 40.56 2.71, 39.5 2.2 M39.5 2.2 C38.83 1.95, 38.16 1.71, 36.92 1.26 M39.5 2.2 C38.83 1.95, 38.16 1.71, 36.92 1.26 M36.92 1.26 C35.91 1, 34.89 0.74, 34.23 0.57 M36.92 1.26 C35.88 0.99, 34.84 0.73, 34.23 0.57 M34.23 0.57 C33.32 0.43, 32.42 0.3, 31.42 0.14 M34.23 0.57 C33.64 0.48, 33.05 0.39, 31.42 0.14 M31.42 0.14 C30.58 0.1, 29.74 0.06, 28.52 0 M31.42 0.14 C30.83 0.12, 30.24 0.09, 28.52 0 M28.52 0 C28.51 0, 28.5 0, 28.47 0 M28.52 0 C28.51 0, 28.5 0, 28.47 0 M28.47 0 C28.37 0, 28.27 0, 28.11 0 M28.47 0 C28.33 0, 28.2 0, 28.11 0 M28.11 0 C27.88 0, 27.66 0, 27.12 0 M28.11 0 C27.78 0, 27.45 0, 27.12 0 M27.12 0 C26.9 0, 26.67 0, 26.3 0 M27.12 0 C26.91 0, 26.71 0, 26.3 0 M26.3 0 C26 0, 25.69 0, 25.21 0 M26.3 0 C26.07 0, 25.83 0, 25.21 0 M25.21 0 C24.92 0, 24.64 0, 23.8 0 M25.21 0 C24.68 0, 24.16 0, 23.8 0 M23.8 0 C23.29 0, 22.78 0, 22.05 0 M23.8 0 C23.33 0, 22.86 0, 22.05 0 M22.05 0 C21.33 0, 20.61 0, 19.9 0 M22.05 0 C21.22 0, 20.4 0, 19.9 0 M19.9 0 C19.26 0, 18.61 0, 17.33 0 M19.9 0 C19.31 0, 18.72 0, 17.33 0 M17.33 0 C16.25 0, 15.18 0, 14.29 0 M17.33 0 C16.33 0, 15.32 0, 14.29 0 M14.29 0 C13.15 0, 12.01 0, 10.75 0 M14.29 0 C13.28 0, 12.27 0, 10.75 0 M10.75 0 C9.63 0, 8.51 0, 6.66 0 M10.75 0 C9.26 0, 7.77 0, 6.66 0 M6.66 0 C5.08 0, 3.49 0, 1.99 0 M6.66 0 C4.92 0, 3.19 0, 1.99 0 M1.99 0 C1.34 0, 0.68 0, 0 0 M1.99 0 C1.52 0, 1.05 0, 0 0 M0 0 C0 0, 0 0, 0 0 M0 0 C0 0, 0 0, 0 0 M0 0 C0 0, 0 0, 0 0 M0 0 C0 0, 0 0, 0 0" stroke="#000000" stroke-width="1" fill="none"/></g></g><mask/><g stroke-linecap="round"><g transform="translate(36.72739625010172 25.170527710281277) rotate(0 39.92152850764954 40.185463402701316)"><path d="M0 0 C2.79 9.17, 3.44 41.6, 16.75 55 C30.05 68.39, 69.33 76.14, 79.84 80.37 M0 0 C2.79 9.17, 3.44 41.6, 16.75 55 C30.05 68.39, 69.33 76.14, 79.84 80.37" stroke="#e03131" stroke-width="2" fill="none"/></g><g transform="translate(36.72739625010172 25.170527710281277) rotate(0 39.92152850764954 40.185463402701316)"><path d="M79.84 80.37 L64.99 82.46 L68.7 70.33 L79.84 80.37" stroke="none" stroke-width="0" fill="#e03131" fill-rule="evenodd"/><path d="M79.84 80.37 C74.16 81.17, 68.47 81.97, 64.99 82.46 M79.84 80.37 C74.62 81.11, 69.4 81.84, 64.99 82.46 M64.99 82.46 C66.23 78.39, 67.47 74.33, 68.7 70.33 M64.99 82.46 C66.44 77.7, 67.9 72.95, 68.7 70.33 M68.7 70.33 C72.32 73.6, 75.95 76.86, 79.84 80.37 M68.7 70.33 C72.84 74.07, 76.99 77.8, 79.84 80.37 M79.84 80.37 C79.84 80.37, 79.84 80.37, 79.84 80.37 M79.84 80.37 C79.84 80.37, 79.84 80.37, 79.84 80.37" stroke="#e03131" stroke-width="2" fill="none"/></g></g><mask/><g stroke-linecap="round"><g transform="translate(36.62841625941735 25.30250396788719) rotate(0 37.35169659957937 0)"><path d="M0 0 C12.45 0, 62.25 0, 74.7 0 M0 0 C12.45 0, 62.25 0, 74.7 0" stroke="#e03131" stroke-width="2" fill="none"/></g><g transform="translate(36.62841625941735 25.30250396788719) rotate(0 37.35169659957937 0)"><path d="M74.7 0 L61.11 6.34 L61.11 -6.34 L74.7 0" stroke="none" stroke-width="0" fill="#e03131" fill-rule="evenodd"/><path d="M74.7 0 C69.97 2.21, 65.25 4.41, 61.11 6.34 M74.7 0 C71.64 1.43, 68.58 2.85, 61.11 6.34 M61.11 6.34 C61.11 2.01, 61.11 -2.31, 61.11 -6.34 M61.11 6.34 C61.11 2.48, 61.11 -1.38, 61.11 -6.34 M61.11 -6.34 C66.37 -3.89, 71.63 -1.43, 74.7 0 M61.11 -6.34 C64.51 -4.75, 67.91 -3.17, 74.7 0 M74.7 0 C74.7 0, 74.7 0, 74.7 0 M74.7 0 C74.7 0, 74.7 0, 74.7 0" stroke="#e03131" stroke-width="2" fill="none"/></g></g><mask/><g stroke-linecap="round"><g transform="translate(36.749038283992604 119.27435072387064) rotate(0 39.843402724779665 0)"><path d="M0 0 C13.28 0, 66.41 0, 79.69 0 M0 0 C13.28 0, 66.41 0, 79.69 0" stroke="#2f9e44" stroke-width="2" fill="none"/></g><g transform="translate(36.749038283992604 119.27435072387064) rotate(0 39.843402724779665 0)"><path d="M79.69 0 L66.09 6.34 L66.09 -6.34 L79.69 0" stroke="none" stroke-width="0" fill="#2f9e44" fill-rule="evenodd"/><path d="M79.69 0 C75.31 2.04, 70.94 4.08, 66.09 6.34 M79.69 0 C75.95 1.74, 72.21 3.48, 66.09 6.34 M66.09 6.34 C66.09 3.09, 66.09 -0.15, 66.09 -6.34 M66.09 6.34 C66.09 3.79, 66.09 1.24, 66.09 -6.34 M66.09 -6.34 C69.27 -4.86, 72.44 -3.38, 79.69 0 M66.09 -6.34 C69.8 -4.61, 73.52 -2.88, 79.69 0 M79.69 0 C79.69 0, 79.69 0, 79.69 0 M79.69 0 C79.69 0, 79.69 0, 79.69 0" stroke="#2f9e44" stroke-width="2" fill="none"/></g></g><mask/><g stroke-linecap="round" transform="translate(49.86958737063355 75.89388146329046) rotate(0 1.6705489225456347 1.75622019294849)"><path d="M3.34 1.76 C3.34 1.86, 3.33 1.96, 3.32 2.06 C3.3 2.16, 3.27 2.26, 3.24 2.36 C3.21 2.45, 3.17 2.55, 3.12 2.63 C3.07 2.72, 3.01 2.81, 2.95 2.89 C2.89 2.96, 2.82 3.04, 2.74 3.1 C2.67 3.17, 2.59 3.23, 2.51 3.28 C2.42 3.33, 2.33 3.37, 2.24 3.41 C2.15 3.44, 2.06 3.47, 1.96 3.49 C1.87 3.5, 1.77 3.51, 1.67 3.51 C1.57 3.51, 1.48 3.5, 1.38 3.49 C1.29 3.47, 1.19 3.44, 1.1 3.41 C1.01 3.37, 0.92 3.33, 0.84 3.28 C0.75 3.23, 0.67 3.17, 0.6 3.1 C0.52 3.04, 0.45 2.96, 0.39 2.89 C0.33 2.81, 0.27 2.72, 0.22 2.63 C0.18 2.55, 0.13 2.45, 0.1 2.36 C0.07 2.26, 0.04 2.16, 0.03 2.06 C0.01 1.96, 0 1.86, 0 1.76 C0 1.65, 0.01 1.55, 0.03 1.45 C0.04 1.35, 0.07 1.25, 0.1 1.16 C0.13 1.06, 0.18 0.97, 0.22 0.88 C0.27 0.79, 0.33 0.71, 0.39 0.63 C0.45 0.55, 0.52 0.48, 0.6 0.41 C0.67 0.35, 0.75 0.29, 0.84 0.24 C0.92 0.18, 1.01 0.14, 1.1 0.11 C1.19 0.07, 1.29 0.04, 1.38 0.03 C1.48 0.01, 1.57 0, 1.67 0 C1.77 0, 1.87 0.01, 1.96 0.03 C2.06 0.04, 2.15 0.07, 2.24 0.11 C2.33 0.14, 2.42 0.18, 2.51 0.24 C2.59 0.29, 2.67 0.35, 2.74 0.41 C2.82 0.48, 2.89 0.55, 2.95 0.63 C3.01 0.71, 3.07 0.79, 3.12 0.88 C3.17 0.97, 3.21 1.06, 3.24 1.16 C3.27 1.25, 3.3 1.35, 3.32 1.45 C3.33 1.55, 3.34 1.71, 3.34 1.76 C3.35 1.81, 3.35 1.71, 3.34 1.76" stroke="none" stroke-width="0" fill="#FFFFFF"/><path d="M3.34 1.76 C3.34 1.86, 3.33 1.96, 3.32 2.06 C3.3 2.16, 3.27 2.26, 3.24 2.36 C3.21 2.45, 3.17 2.55, 3.12 2.63 C3.07 2.72, 3.01 2.81, 2.95 2.89 C2.89 2.96, 2.82 3.04, 2.74 3.1 C2.67 3.17, 2.59 3.23, 2.51 3.28 C2.42 3.33, 2.33 3.37, 2.24 3.41 C2.15 3.44, 2.06 3.47, 1.96 3.49 C1.87 3.5, 1.77 3.51, 1.67 3.51 C1.57 3.51, 1.48 3.5, 1.38 3.49 C1.29 3.47, 1.19 3.44, 1.1 3.41 C1.01 3.37, 0.92 3.33, 0.84 3.28 C0.75 3.23, 0.67 3.17, 0.6 3.1 C0.52 3.04, 0.45 2.96, 0.39 2.89 C0.33 2.81, 0.27 2.72, 0.22 2.63 C0.18 2.55, 0.13 2.45, 0.1 2.36 C0.07 2.26, 0.04 2.16, 0.03 2.06 C0.01 1.96, 0 1.86, 0 1.76 C0 1.65, 0.01 1.55, 0.03 1.45 C0.04 1.35, 0.07 1.25, 0.1 1.16 C0.13 1.06, 0.18 0.97, 0.22 0.88 C0.27 0.79, 0.33 0.71, 0.39 0.63 C0.45 0.55, 0.52 0.48, 0.6 0.41 C0.67 0.35, 0.75 0.29, 0.84 0.24 C0.92 0.18, 1.01 0.14, 1.1 0.11 C1.19 0.07, 1.29 0.04, 1.38 0.03 C1.48 0.01, 1.57 0, 1.67 0 C1.77 0, 1.87 0.01, 1.96 0.03 C2.06 0.04, 2.15 0.07, 2.24 0.11 C2.33 0.14, 2.42 0.18, 2.51 0.24 C2.59 0.29, 2.67 0.35, 2.74 0.41 C2.82 0.48, 2.89 0.55, 2.95 0.63 C3.01 0.71, 3.07 0.79, 3.12 0.88 C3.17 0.97, 3.21 1.06, 3.24 1.16 C3.27 1.25, 3.3 1.35, 3.32 1.45 C3.33 1.55, 3.34 1.71, 3.34 1.76 C3.35 1.81, 3.35 1.71, 3.34 1.76" stroke="#ffffff" stroke-width="2" fill="none"/></g><g stroke-linecap="round"><g transform="translate(36.71266044610138 119.23797288597936) rotate(0 36.82181870965405 -37.93943176757928)"><path d="M0 0 C3.85 -9.06, 10.85 -41.68, 23.12 -54.33 C35.39 -66.98, 65.22 -72.29, 73.64 -75.88 M0 0 C3.85 -9.06, 10.85 -41.68, 23.12 -54.33 C35.39 -66.98, 65.22 -72.29, 73.64 -75.88" stroke="#2f9e44" stroke-width="2" fill="none"/></g><g transform="translate(36.71266044610138 119.23797288597936) rotate(0 36.82181870965405 -37.93943176757928)"><path d="M73.64 -75.88 L62.56 -65.77 L58.78 -77.87 L73.64 -75.88" stroke="none" stroke-width="0" fill="#2f9e44" fill-rule="evenodd"/><path d="M73.64 -75.88 C70.2 -72.74, 66.75 -69.59, 62.56 -65.77 M73.64 -75.88 C70.5 -73.01, 67.36 -70.15, 62.56 -65.77 M62.56 -65.77 C61.17 -70.21, 59.79 -74.65, 58.78 -77.87 M62.56 -65.77 C61.48 -69.23, 60.4 -72.68, 58.78 -77.87 M58.78 -77.87 C62.99 -77.31, 67.21 -76.74, 73.64 -75.88 M58.78 -77.87 C63.74 -77.21, 68.71 -76.54, 73.64 -75.88 M73.64 -75.88 C73.64 -75.88, 73.64 -75.88, 73.64 -75.88 M73.64 -75.88 C73.64 -75.88, 73.64 -75.88, 73.64 -75.88" stroke="#2f9e44" stroke-width="2" fill="none"/></g></g><mask/><g stroke-linecap="round"><g transform="translate(116.08184766797058 14.41145998725213) rotate(0 23.879804191764578 23.879801866964257)" fill-rule="evenodd"><path d="M0 0 L0 0 L3.98 0 L7.58 0 L10.8 0 L13.64 0 L16.11 0 L18.19 0 L19.9 0 L21.23 0 L22.32 0 L23.14 0 L24.13 0 L24.5 0 L24.54 0 L29.44 0.48 L33.91 1.87 L37.86 4.07 L41.25 6.98 L44 10.51 L46.04 14.56 L47.32 19.05 L47.76 23.88 L47.29 28.71 L45.94 33.2 L43.79 37.25 L40.92 40.78 L37.41 43.69 L33.35 45.89 L28.81 47.28 L23.88 47.76 L0 47.76 L0 0 L0 0" stroke="none" stroke-width="0" fill="#FFFFFF" fill-rule="evenodd"/><path d="M0 0 C0 0, 0 0, 0 0 M0 0 C0 0, 0 0, 0 0 M0 0 C0.84 0, 1.68 0, 3.98 0 M0 0 C0.89 0, 1.77 0, 3.98 0 M3.98 0 C5.02 0, 6.07 0, 7.58 0 M3.98 0 C4.84 0, 5.69 0, 7.58 0 M7.58 0 C8.62 0, 9.66 0, 10.8 0 M7.58 0 C8.69 0, 9.8 0, 10.8 0 M10.8 0 C11.44 0, 12.07 0, 13.64 0 M10.8 0 C11.56 0, 12.33 0, 13.64 0 M13.64 0 C14.46 0, 15.27 0, 16.11 0 M13.64 0 C14.16 0, 14.68 0, 16.11 0 M16.11 0 C16.91 0, 17.71 0, 18.19 0 M16.11 0 C16.78 0, 17.46 0, 18.19 0 M18.19 0 C18.86 0, 19.52 0, 19.9 0 M18.19 0 C18.7 0, 19.21 0, 19.9 0 M19.9 0 C20.43 0, 20.96 0, 21.23 0 M19.9 0 C20.2 0, 20.49 0, 21.23 0 M21.23 0 C21.64 0, 22.05 0, 22.32 0 M21.23 0 C21.65 0, 22.07 0, 22.32 0 M22.32 0 C22.63 0, 22.93 0, 23.14 0 M22.32 0 C22.6 0, 22.87 0, 23.14 0 M23.14 0 C23.53 0, 23.92 0, 24.13 0 M23.14 0 C23.4 0, 23.65 0, 24.13 0 M24.13 0 C24.27 0, 24.42 0, 24.5 0 M24.13 0 C24.23 0, 24.33 0, 24.5 0 M24.5 0 C24.51 0, 24.52 0, 24.54 0 M24.5 0 C24.52 0, 24.53 0, 24.54 0 M24.54 0 C26.42 0.19, 28.3 0.37, 29.44 0.48 M24.54 0 C25.62 0.11, 26.7 0.21, 29.44 0.48 M29.44 0.48 C30.62 0.85, 31.8 1.22, 33.91 1.87 M29.44 0.48 C30.74 0.89, 32.04 1.29, 33.91 1.87 M33.91 1.87 C35.07 2.51, 36.23 3.16, 37.86 4.07 M33.91 1.87 C35.46 2.73, 37.01 3.59, 37.86 4.07 M37.86 4.07 C39 5.04, 40.13 6.02, 41.25 6.98 M37.86 4.07 C38.95 5, 40.04 5.94, 41.25 6.98 M41.25 6.98 C42.11 8.08, 42.97 9.19, 44 10.51 M41.25 6.98 C42.25 8.27, 43.26 9.56, 44 10.51 M44 10.51 C44.58 11.66, 45.16 12.82, 46.04 14.56 M44 10.51 C44.57 11.64, 45.14 12.78, 46.04 14.56 M46.04 14.56 C46.31 15.51, 46.58 16.46, 47.32 19.05 M46.04 14.56 C46.51 16.21, 46.98 17.86, 47.32 19.05 M47.32 19.05 C47.42 20.18, 47.52 21.3, 47.76 23.88 M47.32 19.05 C47.43 20.28, 47.54 21.51, 47.76 23.88 M47.76 23.88 C47.65 25.01, 47.54 26.14, 47.29 28.71 M47.76 23.88 C47.58 25.68, 47.41 27.49, 47.29 28.71 M47.29 28.71 C46.85 30.16, 46.42 31.61, 45.94 33.2 M47.29 28.71 C46.84 30.22, 46.38 31.73, 45.94 33.2 M45.94 33.2 C45.08 34.81, 44.22 36.43, 43.79 37.25 M45.94 33.2 C45.48 34.07, 45.01 34.95, 43.79 37.25 M43.79 37.25 C43.15 38.04, 42.5 38.83, 40.92 40.78 M43.79 37.25 C42.87 38.38, 41.95 39.51, 40.92 40.78 M40.92 40.78 C39.53 41.94, 38.14 43.09, 37.41 43.69 M40.92 40.78 C39.96 41.58, 38.99 42.38, 37.41 43.69 M37.41 43.69 C36.5 44.19, 35.59 44.68, 33.35 45.89 M37.41 43.69 C35.79 44.57, 34.17 45.44, 33.35 45.89 M33.35 45.89 C32.02 46.29, 30.7 46.7, 28.81 47.28 M33.35 45.89 C31.61 46.42, 29.88 46.95, 28.81 47.28 M28.81 47.28 C27.15 47.44, 25.48 47.6, 23.88 47.76 M28.81 47.28 C27.49 47.41, 26.17 47.53, 23.88 47.76 M23.88 47.76 C18.57 47.76, 13.26 47.76, 0 47.76 M23.88 47.76 C16.16 47.76, 8.45 47.76, 0 47.76 M0 47.76 C0 38.1, 0 28.45, 0 0 M0 47.76 C0 37.01, 0 26.27, 0 0 M0 0 C0 0, 0 0, 0 0 M0 0 C0 0, 0 0, 0 0 M0 0 C0 0, 0 0, 0 0 M0 0 C0 0, 0 0, 0 0" stroke="#000000" stroke-width="1" fill="none"/></g></g><mask/><g transform="translate(128.58533526035217 33.89853044439596) rotate(0 11.928993225097656 6.502729939670672)"><text x="0" y="10.404588784245487" font-family="Helvetica, Segoe UI Emoji" font-size="11.30909554725335px" fill="#1971c2" text-anchor="start" style="white-space: pre;" direction="ltr" dominant-baseline="alphabetic">AND</text></g><g stroke-linecap="round"><g transform="translate(117.0188981329544 131.77257124803188) rotate(0 -0.7208039657371046 -21.19553758647296)" fill-rule="evenodd"><path d="M0 0 L0 0 L-0.69 1.11 L-1.28 1.98 L-2.15 3.11 L-2.65 3.62 L-2.81 3.74 L-7.36 3.74 L-4.87 0.7 L-4.87 0.7 L-4.79 0.6 L-4.57 0.3 L-3.77 -0.87 L-2.64 -2.75 L-1.34 -5.31 L-0.05 -8.48 L1.08 -12.22 L1.88 -16.47 L2.18 -21.2 L1.88 -25.92 L1.08 -30.17 L-0.05 -33.91 L-1.34 -37.08 L-2.64 -39.64 L-3.77 -41.52 L-4.57 -42.69 L-4.79 -42.99 L-4.87 -43.09 L-7.36 -46.13 L-2.81 -46.13 L-2.81 -46.13 L-1.43 -44.45 L-0.04 -42.39 L0.89 -40.78 L1.88 -38.85 L2.87 -36.61 L3.82 -34.07 L4.65 -31.25 L5.32 -28.16 L5.76 -24.8 L5.92 -21.2 L5.76 -17.6 L5.32 -14.25 L4.66 -11.16 L3.83 -8.34 L2.89 -5.8 L1.9 -3.56 L0.92 -1.62 L0 0 L0 0" stroke="none" stroke-width="0" fill="black" fill-rule="evenodd"/><path d="M0 0 C0 0, 0 0, 0 0 M0 0 C0 0, 0 0, 0 0 M0 0 C-0.23 0.36, -0.45 0.72, -0.69 1.11 M0 0 C-0.26 0.41, -0.52 0.82, -0.69 1.11 M-0.69 1.11 C-0.89 1.41, -1.09 1.7, -1.28 1.98 M-0.69 1.11 C-0.81 1.29, -0.94 1.47, -1.28 1.98 M-1.28 1.98 C-1.6 2.39, -1.92 2.81, -2.15 3.11 M-1.28 1.98 C-1.57 2.35, -1.86 2.73, -2.15 3.11 M-2.15 3.11 C-2.32 3.28, -2.49 3.45, -2.65 3.62 M-2.15 3.11 C-2.33 3.29, -2.51 3.48, -2.65 3.62 M-2.65 3.62 C-2.68 3.65, -2.72 3.68, -2.81 3.74 M-2.65 3.62 C-2.69 3.66, -2.74 3.69, -2.81 3.74 M-2.81 3.74 C-3.81 3.74, -4.82 3.74, -7.36 3.74 M-2.81 3.74 C-4.46 3.74, -6.11 3.74, -7.36 3.74 M-7.36 3.74 C-6.46 2.64, -5.56 1.54, -4.87 0.7 M-7.36 3.74 C-6.8 3.05, -6.23 2.36, -4.87 0.7 M-4.87 0.7 C-4.87 0.7, -4.87 0.7, -4.87 0.7 M-4.87 0.7 C-4.87 0.7, -4.87 0.7, -4.87 0.7 M-4.87 0.7 C-4.85 0.68, -4.83 0.66, -4.79 0.6 M-4.87 0.7 C-4.85 0.67, -4.82 0.64, -4.79 0.6 M-4.79 0.6 C-4.73 0.51, -4.66 0.43, -4.57 0.3 M-4.79 0.6 C-4.71 0.5, -4.64 0.39, -4.57 0.3 M-4.57 0.3 C-4.39 0.04, -4.22 -0.21, -3.77 -0.87 M-4.57 0.3 C-4.28 -0.12, -3.99 -0.54, -3.77 -0.87 M-3.77 -0.87 C-3.5 -1.31, -3.24 -1.75, -2.64 -2.75 M-3.77 -0.87 C-3.44 -1.42, -3.11 -1.97, -2.64 -2.75 M-2.64 -2.75 C-2.18 -3.66, -1.72 -4.56, -1.34 -5.31 M-2.64 -2.75 C-2.25 -3.52, -1.87 -4.28, -1.34 -5.31 M-1.34 -5.31 C-0.85 -6.52, -0.36 -7.73, -0.05 -8.48 M-1.34 -5.31 C-1.08 -5.95, -0.82 -6.59, -0.05 -8.48 M-0.05 -8.48 C0.37 -9.86, 0.79 -11.24, 1.08 -12.22 M-0.05 -8.48 C0.27 -9.52, 0.58 -10.57, 1.08 -12.22 M1.08 -12.22 C1.4 -13.9, 1.71 -15.58, 1.88 -16.47 M1.08 -12.22 C1.35 -13.64, 1.61 -15.05, 1.88 -16.47 M1.88 -16.47 C1.95 -17.55, 2.02 -18.64, 2.18 -21.2 M1.88 -16.47 C1.96 -17.77, 2.05 -19.06, 2.18 -21.2 M2.18 -21.2 C2.09 -22.66, 1.99 -24.13, 1.88 -25.92 M2.18 -21.2 C2.06 -23.07, 1.94 -24.94, 1.88 -25.92 M1.88 -25.92 C1.71 -26.84, 1.53 -27.77, 1.08 -30.17 M1.88 -25.92 C1.59 -27.44, 1.31 -28.97, 1.08 -30.17 M1.08 -30.17 C0.81 -31.06, 0.54 -31.96, -0.05 -33.91 M1.08 -30.17 C0.79 -31.13, 0.5 -32.08, -0.05 -33.91 M-0.05 -33.91 C-0.37 -34.69, -0.68 -35.46, -1.34 -37.08 M-0.05 -33.91 C-0.32 -34.56, -0.58 -35.22, -1.34 -37.08 M-1.34 -37.08 C-1.68 -37.75, -2.02 -38.42, -2.64 -39.64 M-1.34 -37.08 C-1.63 -37.65, -1.92 -38.22, -2.64 -39.64 M-2.64 -39.64 C-3.03 -40.28, -3.41 -40.93, -3.77 -41.52 M-2.64 -39.64 C-3.09 -40.38, -3.53 -41.13, -3.77 -41.52 M-3.77 -41.52 C-4.04 -41.92, -4.31 -42.31, -4.57 -42.69 M-3.77 -41.52 C-4.06 -41.95, -4.35 -42.38, -4.57 -42.69 M-4.57 -42.69 C-4.65 -42.8, -4.73 -42.91, -4.79 -42.99 M-4.57 -42.69 C-4.64 -42.78, -4.7 -42.87, -4.79 -42.99 M-4.79 -42.99 C-4.82 -43.03, -4.85 -43.07, -4.87 -43.09 M-4.79 -42.99 C-4.82 -43.03, -4.85 -43.07, -4.87 -43.09 M-4.87 -43.09 C-5.62 -44, -6.36 -44.91, -7.36 -46.13 M-4.87 -43.09 C-5.41 -43.75, -5.94 -44.4, -7.36 -46.13 M-7.36 -46.13 C-6.27 -46.13, -5.17 -46.13, -2.81 -46.13 M-7.36 -46.13 C-5.58 -46.13, -3.79 -46.13, -2.81 -46.13 M-2.81 -46.13 C-2.81 -46.13, -2.81 -46.13, -2.81 -46.13 M-2.81 -46.13 C-2.81 -46.13, -2.81 -46.13, -2.81 -46.13 M-2.81 -46.13 C-2.46 -45.71, -2.12 -45.3, -1.43 -44.45 M-2.81 -46.13 C-2.44 -45.69, -2.08 -45.24, -1.43 -44.45 M-1.43 -44.45 C-1.13 -44.01, -0.83 -43.56, -0.04 -42.39 M-1.43 -44.45 C-1.06 -43.9, -0.69 -43.36, -0.04 -42.39 M-0.04 -42.39 C0.21 -41.96, 0.46 -41.52, 0.89 -40.78 M-0.04 -42.39 C0.23 -41.92, 0.5 -41.46, 0.89 -40.78 M0.89 -40.78 C1.16 -40.24, 1.44 -39.7, 1.88 -38.85 M0.89 -40.78 C1.26 -40.05, 1.63 -39.33, 1.88 -38.85 M1.88 -38.85 C2.21 -38.11, 2.53 -37.37, 2.87 -36.61 M1.88 -38.85 C2.27 -37.97, 2.65 -37.1, 2.87 -36.61 M2.87 -36.61 C3.25 -35.59, 3.63 -34.58, 3.82 -34.07 M2.87 -36.61 C3.08 -36.05, 3.29 -35.49, 3.82 -34.07 M3.82 -34.07 C4.09 -33.16, 4.36 -32.24, 4.65 -31.25 M3.82 -34.07 C4.02 -33.39, 4.22 -32.72, 4.65 -31.25 M4.65 -31.25 C4.84 -30.4, 5.02 -29.55, 5.32 -28.16 M4.65 -31.25 C4.85 -30.35, 5.04 -29.44, 5.32 -28.16 M5.32 -28.16 C5.46 -27.06, 5.61 -25.97, 5.76 -24.8 M5.32 -28.16 C5.48 -26.93, 5.64 -25.7, 5.76 -24.8 M5.76 -24.8 C5.81 -23.62, 5.87 -22.44, 5.92 -21.2 M5.76 -24.8 C5.82 -23.44, 5.88 -22.07, 5.92 -21.2 M5.92 -21.2 C5.88 -20.19, 5.83 -19.19, 5.76 -17.6 M5.92 -21.2 C5.88 -20.31, 5.84 -19.42, 5.76 -17.6 M5.76 -17.6 C5.59 -16.26, 5.41 -14.93, 5.32 -14.25 M5.76 -17.6 C5.64 -16.69, 5.52 -15.78, 5.32 -14.25 M5.32 -14.25 C5.12 -13.33, 4.93 -12.4, 4.66 -11.16 M5.32 -14.25 C5.18 -13.59, 5.04 -12.94, 4.66 -11.16 M4.66 -11.16 C4.45 -10.44, 4.23 -9.72, 3.83 -8.34 M4.66 -11.16 C4.44 -10.42, 4.22 -9.67, 3.83 -8.34 M3.83 -8.34 C3.47 -7.38, 3.12 -6.42, 2.89 -5.8 M3.83 -8.34 C3.51 -7.47, 3.19 -6.61, 2.89 -5.8 M2.89 -5.8 C2.6 -5.16, 2.32 -4.51, 1.9 -3.56 M2.89 -5.8 C2.64 -5.24, 2.4 -4.68, 1.9 -3.56 M1.9 -3.56 C1.62 -3.01, 1.35 -2.47, 0.92 -1.62 M1.9 -3.56 C1.54 -2.85, 1.18 -2.14, 0.92 -1.62 M0.92 -1.62 C0.72 -1.28, 0.53 -0.94, 0 0 M0.92 -1.62 C0.71 -1.26, 0.51 -0.89, 0 0 M0 0 C0 0, 0 0, 0 0 M0 0 C0 0, 0 0, 0 0 M0 0 C0 0, 0 0, 0 0 M0 0 C0 0, 0 0, 0 0" stroke="#000000" stroke-width="0.5" fill="none"/></g></g><mask/><g stroke-linecap="round"><g transform="translate(116.82408625032281 85.64110792855828) rotate(0 30.21532299616888 24.935920976851165)" fill-rule="evenodd"><path d="M0 0 L2.49 3.04 L2.49 3.04 L2.57 3.14 L2.8 3.44 L3.6 4.61 L4.72 6.5 L6.02 9.05 L7.31 12.22 L8.44 15.96 L9.24 20.21 L9.55 24.94 L9.24 29.66 L8.44 33.91 L7.31 37.65 L6.02 40.82 L4.72 43.38 L3.6 45.26 L2.8 46.43 L2.57 46.73 L2.49 46.83 L0 49.87 L3.94 49.87 L21.39 49.87 L21.39 49.87 L22.68 49.87 L24.27 49.83 L26.13 49.72 L28.23 49.51 L30.54 49.15 L33.02 48.62 L35.65 47.87 L38.38 46.87 L41.19 45.58 L44.04 43.98 L46.91 42.02 L49.77 39.67 L52.58 36.91 L55.32 33.71 L57.94 30.02 L60.43 25.83 L58.79 24.94 L60.43 24.04 L60.43 24.04 L57.94 19.85 L55.31 16.18 L52.57 12.99 L49.75 10.26 L46.88 7.93 L44 5.99 L41.13 4.39 L38.32 3.11 L35.58 2.1 L32.96 1.34 L30.49 0.79 L28.19 0.41 L26.09 0.18 L24.24 0.06 L22.66 0.01 L21.39 0 L3.94 0 L0 0 L0 0" stroke="none" stroke-width="0" fill="black" fill-rule="evenodd"/><path d="M0 0 C0.85 1.04, 1.7 2.07, 2.49 3.04 M0 0 C0.76 0.92, 1.52 1.85, 2.49 3.04 M2.49 3.04 C2.49 3.04, 2.49 3.04, 2.49 3.04 M2.49 3.04 C2.49 3.04, 2.49 3.04, 2.49 3.04 M2.49 3.04 C2.51 3.07, 2.54 3.09, 2.57 3.14 M2.49 3.04 C2.51 3.06, 2.53 3.08, 2.57 3.14 M2.57 3.14 C2.64 3.23, 2.71 3.32, 2.8 3.44 M2.57 3.14 C2.64 3.23, 2.71 3.32, 2.8 3.44 M2.8 3.44 C2.98 3.71, 3.16 3.97, 3.6 4.61 M2.8 3.44 C3 3.73, 3.2 4.02, 3.6 4.61 M3.6 4.61 C4.01 5.3, 4.43 5.99, 4.72 6.5 M3.6 4.61 C4.03 5.34, 4.47 6.06, 4.72 6.5 M4.72 6.5 C5.12 7.27, 5.51 8.04, 6.02 9.05 M4.72 6.5 C5.22 7.47, 5.72 8.45, 6.02 9.05 M6.02 9.05 C6.33 9.81, 6.64 10.57, 7.31 12.22 M6.02 9.05 C6.45 10.11, 6.89 11.18, 7.31 12.22 M7.31 12.22 C7.64 13.31, 7.97 14.4, 8.44 15.96 M7.31 12.22 C7.69 13.47, 8.07 14.72, 8.44 15.96 M8.44 15.96 C8.64 16.99, 8.83 18.02, 9.24 20.21 M8.44 15.96 C8.72 17.45, 9.01 18.95, 9.24 20.21 M9.24 20.21 C9.31 21.26, 9.38 22.3, 9.55 24.94 M9.24 20.21 C9.31 21.22, 9.37 22.23, 9.55 24.94 M9.55 24.94 C9.46 26.23, 9.38 27.53, 9.24 29.66 M9.55 24.94 C9.46 26.27, 9.37 27.6, 9.24 29.66 M9.24 29.66 C9.05 30.67, 8.86 31.68, 8.44 33.91 M9.24 29.66 C9.06 30.64, 8.87 31.63, 8.44 33.91 M8.44 33.91 C8.1 35.07, 7.75 36.22, 7.31 37.65 M8.44 33.91 C8.07 35.13, 7.71 36.36, 7.31 37.65 M7.31 37.65 C6.91 38.65, 6.5 39.65, 6.02 40.82 M7.31 37.65 C7.05 38.29, 6.79 38.93, 6.02 40.82 M6.02 40.82 C5.64 41.57, 5.27 42.31, 4.72 43.38 M6.02 40.82 C5.58 41.68, 5.15 42.55, 4.72 43.38 M4.72 43.38 C4.33 44.03, 3.94 44.69, 3.6 45.26 M4.72 43.38 C4.45 43.83, 4.18 44.28, 3.6 45.26 M3.6 45.26 C3.4 45.55, 3.21 45.83, 2.8 46.43 M3.6 45.26 C3.34 45.63, 3.09 46, 2.8 46.43 M2.8 46.43 C2.74 46.51, 2.68 46.58, 2.57 46.73 M2.8 46.43 C2.74 46.51, 2.68 46.59, 2.57 46.73 M2.57 46.73 C2.54 46.77, 2.52 46.8, 2.49 46.83 M2.57 46.73 C2.55 46.76, 2.52 46.8, 2.49 46.83 M2.49 46.83 C1.81 47.66, 1.13 48.49, 0 49.87 M2.49 46.83 C1.79 47.69, 1.09 48.54, 0 49.87 M0 49.87 C1.13 49.87, 2.26 49.87, 3.94 49.87 M0 49.87 C1.38 49.87, 2.76 49.87, 3.94 49.87 M3.94 49.87 C8.72 49.87, 13.5 49.87, 21.39 49.87 M3.94 49.87 C9.58 49.87, 15.22 49.87, 21.39 49.87 M21.39 49.87 C21.39 49.87, 21.39 49.87, 21.39 49.87 M21.39 49.87 C21.39 49.87, 21.39 49.87, 21.39 49.87 M21.39 49.87 C21.71 49.87, 22.02 49.87, 22.68 49.87 M21.39 49.87 C21.79 49.87, 22.18 49.87, 22.68 49.87 M22.68 49.87 C23.11 49.86, 23.54 49.85, 24.27 49.83 M22.68 49.87 C23.13 49.86, 23.58 49.85, 24.27 49.83 M24.27 49.83 C25.01 49.79, 25.75 49.74, 26.13 49.72 M24.27 49.83 C24.93 49.79, 25.59 49.75, 26.13 49.72 M26.13 49.72 C26.8 49.65, 27.47 49.59, 28.23 49.51 M26.13 49.72 C26.67 49.67, 27.21 49.61, 28.23 49.51 M28.23 49.51 C28.85 49.41, 29.47 49.32, 30.54 49.15 M28.23 49.51 C28.9 49.41, 29.57 49.3, 30.54 49.15 M30.54 49.15 C31.51 48.94, 32.48 48.74, 33.02 48.62 M30.54 49.15 C31.53 48.94, 32.51 48.73, 33.02 48.62 M33.02 48.62 C33.58 48.46, 34.15 48.3, 35.65 47.87 M33.02 48.62 C33.91 48.37, 34.79 48.11, 35.65 47.87 M35.65 47.87 C36.25 47.65, 36.85 47.43, 38.38 46.87 M35.65 47.87 C36.66 47.5, 37.67 47.13, 38.38 46.87 M38.38 46.87 C39.28 46.46, 40.17 46.05, 41.19 45.58 M38.38 46.87 C39.01 46.58, 39.65 46.29, 41.19 45.58 M41.19 45.58 C41.81 45.24, 42.43 44.89, 44.04 43.98 M41.19 45.58 C42.31 44.95, 43.43 44.32, 44.04 43.98 M44.04 43.98 C44.88 43.41, 45.71 42.84, 46.91 42.02 M44.04 43.98 C44.86 43.42, 45.68 42.86, 46.91 42.02 M46.91 42.02 C47.94 41.17, 48.97 40.33, 49.77 39.67 M46.91 42.02 C47.86 41.24, 48.8 40.47, 49.77 39.67 M49.77 39.67 C50.77 38.69, 51.78 37.7, 52.58 36.91 M49.77 39.67 C50.74 38.72, 51.7 37.78, 52.58 36.91 M52.58 36.91 C53.41 35.95, 54.23 34.98, 55.32 33.71 M52.58 36.91 C53.14 36.26, 53.69 35.61, 55.32 33.71 M55.32 33.71 C56.29 32.34, 57.26 30.98, 57.94 30.02 M55.32 33.71 C55.93 32.85, 56.54 31.99, 57.94 30.02 M57.94 30.02 C58.61 28.89, 59.29 27.76, 60.43 25.83 M57.94 30.02 C58.64 28.85, 59.33 27.68, 60.43 25.83 M60.43 25.83 C59.93 25.56, 59.42 25.28, 58.79 24.94 M60.43 25.83 C59.96 25.57, 59.49 25.32, 58.79 24.94 M58.79 24.94 C59.39 24.61, 59.99 24.28, 60.43 24.04 M58.79 24.94 C59.42 24.59, 60.04 24.25, 60.43 24.04 M60.43 24.04 C60.43 24.04, 60.43 24.04, 60.43 24.04 M60.43 24.04 C60.43 24.04, 60.43 24.04, 60.43 24.04 M60.43 24.04 C59.78 22.94, 59.12 21.84, 57.94 19.85 M60.43 24.04 C59.47 22.43, 58.52 20.83, 57.94 19.85 M57.94 19.85 C57.21 18.83, 56.48 17.81, 55.31 16.18 M57.94 19.85 C57.06 18.63, 56.18 17.4, 55.31 16.18 M55.31 16.18 C54.46 15.2, 53.62 14.22, 52.57 12.99 M55.31 16.18 C54.46 15.19, 53.61 14.21, 52.57 12.99 M52.57 12.99 C51.49 11.95, 50.42 10.91, 49.75 10.26 M52.57 12.99 C51.44 11.9, 50.31 10.81, 49.75 10.26 M49.75 10.26 C49.1 9.74, 48.46 9.22, 46.88 7.93 M49.75 10.26 C49.07 9.71, 48.39 9.16, 46.88 7.93 M46.88 7.93 C45.88 7.26, 44.88 6.59, 44 5.99 M46.88 7.93 C45.79 7.19, 44.69 6.46, 44 5.99 M44 5.99 C43.42 5.66, 42.84 5.34, 41.13 4.39 M44 5.99 C42.88 5.36, 41.76 4.74, 41.13 4.39 M41.13 4.39 C40.37 4.04, 39.62 3.7, 38.32 3.11 M41.13 4.39 C40.53 4.11, 39.92 3.84, 38.32 3.11 M38.32 3.11 C37.73 2.89, 37.15 2.68, 35.58 2.1 M38.32 3.11 C37.62 2.85, 36.93 2.6, 35.58 2.1 M35.58 2.1 C34.62 1.82, 33.66 1.54, 32.96 1.34 M35.58 2.1 C34.67 1.83, 33.76 1.57, 32.96 1.34 M32.96 1.34 C32.23 1.18, 31.49 1.01, 30.49 0.79 M32.96 1.34 C32.33 1.2, 31.7 1.06, 30.49 0.79 M30.49 0.79 C29.84 0.68, 29.2 0.58, 28.19 0.41 M30.49 0.79 C29.97 0.7, 29.45 0.62, 28.19 0.41 M28.19 0.41 C27.63 0.35, 27.07 0.29, 26.09 0.18 M28.19 0.41 C27.6 0.35, 27.02 0.28, 26.09 0.18 M26.09 0.18 C25.41 0.14, 24.73 0.09, 24.24 0.06 M26.09 0.18 C25.37 0.13, 24.65 0.09, 24.24 0.06 M24.24 0.06 C23.91 0.05, 23.57 0.04, 22.66 0.01 M24.24 0.06 C23.68 0.04, 23.11 0.02, 22.66 0.01 M22.66 0.01 C22.38 0.01, 22.09 0, 21.39 0 M22.66 0.01 C22.17 0.01, 21.67 0, 21.39 0 M21.39 0 C14.46 0, 7.53 0, 3.94 0 M21.39 0 C14.76 0, 8.13 0, 3.94 0 M3.94 0 C2.52 0, 1.11 0, 0 0 M3.94 0 C2.84 0, 1.75 0, 0 0 M0 0 C0 0, 0 0, 0 0 M0 0 C0 0, 0 0, 0 0 M0 0 C0 0, 0 0, 0 0 M0 0 C0 0, 0 0, 0 0" stroke="#000000" stroke-width="1" fill="none"/></g></g><mask/><g stroke-linecap="round"><g transform="translate(124.14901303727288 89.38149607508595) rotate(0 24.4683724585352 21.195532830323486)" fill-rule="evenodd"><path d="M0 0 L14.07 0 L14.07 0 L15.29 0 L16.75 0.03 L20.28 0.31 L24.48 1.07 L26.78 1.72 L29.16 2.59 L31.63 3.7 L34.14 5.1 L36.68 6.82 L39.22 8.87 L41.74 11.31 L44.21 14.15 L46.62 17.44 L48.94 21.2 L46.65 24.9 L44.28 28.14 L41.83 30.96 L39.34 33.38 L36.82 35.42 L34.3 37.14 L31.8 38.54 L29.34 39.66 L26.89 40.57 L24.55 41.24 L20.32 42.05 L16.78 42.35 L14.07 42.39 L0.04 42.39 L0.04 42.39 L0.96 40.77 L1.95 38.84 L2.94 36.6 L3.88 34.06 L4.7 31.24 L5.36 28.14 L5.8 24.79 L5.96 21.2 L5.8 17.59 L5.36 14.23 L4.69 11.14 L3.86 8.32 L2.91 5.78 L1.92 3.54 L0.93 1.61 L0 0 L0 0" stroke="none" stroke-width="0" fill="#FFFFFF" fill-rule="evenodd"/><path d="M0 0 C3.6 0, 7.2 0, 14.07 0 M0 0 C2.83 0, 5.66 0, 14.07 0 M14.07 0 C14.07 0, 14.07 0, 14.07 0 M14.07 0 C14.07 0, 14.07 0, 14.07 0 M14.07 0 C14.49 0, 14.91 0, 15.29 0 M14.07 0 C14.34 0, 14.62 0, 15.29 0 M15.29 0 C15.7 0.01, 16.11 0.02, 16.75 0.03 M15.29 0 C15.6 0.01, 15.91 0.02, 16.75 0.03 M16.75 0.03 C17.78 0.12, 18.82 0.2, 20.28 0.31 M16.75 0.03 C17.64 0.1, 18.53 0.17, 20.28 0.31 M20.28 0.31 C21.44 0.52, 22.6 0.73, 24.48 1.07 M20.28 0.31 C21.29 0.49, 22.3 0.68, 24.48 1.07 M24.48 1.07 C25.25 1.29, 26.01 1.51, 26.78 1.72 M24.48 1.07 C24.96 1.21, 25.44 1.35, 26.78 1.72 M26.78 1.72 C27.38 1.94, 27.98 2.16, 29.16 2.59 M26.78 1.72 C27.52 1.99, 28.26 2.26, 29.16 2.59 M29.16 2.59 C29.84 2.89, 30.51 3.2, 31.63 3.7 M29.16 2.59 C29.88 2.91, 30.59 3.24, 31.63 3.7 M31.63 3.7 C32.55 4.22, 33.47 4.73, 34.14 5.1 M31.63 3.7 C32.31 4.08, 32.99 4.47, 34.14 5.1 M34.14 5.1 C35.14 5.78, 36.15 6.46, 36.68 6.82 M34.14 5.1 C34.73 5.5, 35.32 5.9, 36.68 6.82 M36.68 6.82 C37.69 7.64, 38.71 8.46, 39.22 8.87 M36.68 6.82 C37.64 7.6, 38.61 8.38, 39.22 8.87 M39.22 8.87 C40.11 9.74, 41.01 10.61, 41.74 11.31 M39.22 8.87 C39.8 9.44, 40.38 10, 41.74 11.31 M41.74 11.31 C42.37 12.04, 43.01 12.77, 44.21 14.15 M41.74 11.31 C42.7 12.42, 43.67 13.53, 44.21 14.15 M44.21 14.15 C44.89 15.08, 45.57 16.01, 46.62 17.44 M44.21 14.15 C44.76 14.9, 45.31 15.65, 46.62 17.44 M46.62 17.44 C47.24 18.44, 47.86 19.45, 48.94 21.2 M46.62 17.44 C47.22 18.41, 47.81 19.38, 48.94 21.2 M48.94 21.2 C48.3 22.22, 47.67 23.25, 46.65 24.9 M48.94 21.2 C48.44 22, 47.94 22.81, 46.65 24.9 M46.65 24.9 C45.99 25.81, 45.32 26.72, 44.28 28.14 M46.65 24.9 C46.08 25.69, 45.5 26.47, 44.28 28.14 M44.28 28.14 C43.5 29.03, 42.73 29.93, 41.83 30.96 M44.28 28.14 C43.43 29.12, 42.57 30.1, 41.83 30.96 M41.83 30.96 C40.91 31.86, 39.98 32.76, 39.34 33.38 M41.83 30.96 C41.32 31.45, 40.81 31.95, 39.34 33.38 M39.34 33.38 C38.46 34.09, 37.58 34.81, 36.82 35.42 M39.34 33.38 C38.79 33.82, 38.24 34.27, 36.82 35.42 M36.82 35.42 C35.96 36.01, 35.11 36.59, 34.3 37.14 M36.82 35.42 C36.05 35.95, 35.28 36.47, 34.3 37.14 M34.3 37.14 C33.31 37.69, 32.32 38.25, 31.8 38.54 M34.3 37.14 C33.36 37.66, 32.42 38.19, 31.8 38.54 M31.8 38.54 C31.29 38.77, 30.79 39, 29.34 39.66 M31.8 38.54 C31.04 38.89, 30.28 39.23, 29.34 39.66 M29.34 39.66 C28.71 39.89, 28.09 40.12, 26.89 40.57 M29.34 39.66 C28.79 39.87, 28.24 40.07, 26.89 40.57 M26.89 40.57 C26.16 40.78, 25.42 40.99, 24.55 41.24 M26.89 40.57 C26.24 40.75, 25.6 40.94, 24.55 41.24 M24.55 41.24 C22.88 41.56, 21.21 41.88, 20.32 42.05 M24.55 41.24 C23.22 41.5, 21.88 41.75, 20.32 42.05 M20.32 42.05 C19.49 42.12, 18.66 42.19, 16.78 42.35 M20.32 42.05 C19.34 42.14, 18.36 42.22, 16.78 42.35 M16.78 42.35 C16.08 42.36, 15.38 42.37, 14.07 42.39 M16.78 42.35 C16.09 42.36, 15.4 42.37, 14.07 42.39 M14.07 42.39 C10.45 42.39, 6.84 42.39, 0.04 42.39 M14.07 42.39 C10.17 42.39, 6.27 42.39, 0.04 42.39 M0.04 42.39 C0.04 42.39, 0.04 42.39, 0.04 42.39 M0.04 42.39 C0.04 42.39, 0.04 42.39, 0.04 42.39 M0.04 42.39 C0.32 41.91, 0.59 41.42, 0.96 40.77 M0.04 42.39 C0.27 41.99, 0.5 41.59, 0.96 40.77 M0.96 40.77 C1.35 40.02, 1.74 39.26, 1.95 38.84 M0.96 40.77 C1.31 40.1, 1.65 39.42, 1.95 38.84 M1.95 38.84 C2.15 38.39, 2.35 37.94, 2.94 36.6 M1.95 38.84 C2.21 38.26, 2.46 37.67, 2.94 36.6 M2.94 36.6 C3.24 35.79, 3.53 34.99, 3.88 34.06 M2.94 36.6 C3.19 35.9, 3.45 35.21, 3.88 34.06 M3.88 34.06 C4.06 33.43, 4.24 32.81, 4.7 31.24 M3.88 34.06 C4.19 32.97, 4.51 31.89, 4.7 31.24 M4.7 31.24 C4.88 30.41, 5.06 29.58, 5.36 28.14 M4.7 31.24 C4.95 30.07, 5.2 28.91, 5.36 28.14 M5.36 28.14 C5.52 26.98, 5.67 25.82, 5.8 24.79 M5.36 28.14 C5.54 26.82, 5.71 25.5, 5.8 24.79 M5.8 24.79 C5.84 23.86, 5.88 22.92, 5.96 21.2 M5.8 24.79 C5.84 23.99, 5.87 23.18, 5.96 21.2 M5.96 21.2 C5.9 19.79, 5.84 18.39, 5.8 17.59 M5.96 21.2 C5.92 20.23, 5.87 19.25, 5.8 17.59 M5.8 17.59 C5.68 16.67, 5.56 15.76, 5.36 14.23 M5.8 17.59 C5.7 16.82, 5.6 16.05, 5.36 14.23 M5.36 14.23 C5.17 13.37, 4.99 12.52, 4.69 11.14 M5.36 14.23 C5.17 13.36, 4.98 12.48, 4.69 11.14 M4.69 11.14 C4.39 10.11, 4.08 9.08, 3.86 8.32 M4.69 11.14 C4.39 10.13, 4.09 9.12, 3.86 8.32 M3.86 8.32 C3.51 7.38, 3.16 6.44, 2.91 5.78 M3.86 8.32 C3.56 7.52, 3.26 6.72, 2.91 5.78 M2.91 5.78 C2.55 4.96, 2.18 4.14, 1.92 3.54 M2.91 5.78 C2.69 5.28, 2.46 4.77, 1.92 3.54 M1.92 3.54 C1.57 2.88, 1.23 2.21, 0.93 1.61 M1.92 3.54 C1.57 2.87, 1.23 2.2, 0.93 1.61 M0.93 1.61 C0.57 1, 0.22 0.38, 0 0 M0.93 1.61 C0.74 1.29, 0.55 0.96, 0 0 M0 0 C0 0, 0 0, 0 0 M0 0 C0 0, 0 0, 0 0 M0 0 C0 0, 0 0, 0 0 M0 0 C0 0, 0 0, 0 0" stroke="#000000" stroke-width="1" fill="none"/></g></g><mask/><g stroke-linecap="round"><g transform="translate(175.15824841420465 110.57064183205009) rotate(0 0.2597922393059662 0.05196042994890604)"><path d="M0 0 C0.09 0.02, 0.43 0.09, 0.52 0.1 M0 0 C0.09 0.02, 0.43 0.09, 0.52 0.1" stroke="#000000" stroke-width="4" fill="none"/></g></g><mask/><g transform="translate(135.1569569245346 103.44699773295932) rotate(0 13.597862243652344 7.2177017209967005)"><text x="0" y="11.548567920093388" font-family="Helvetica, Segoe UI Emoji" font-size="12.552524732168168px" fill="#f08c00" text-anchor="start" style="white-space: pre;" direction="ltr" dominant-baseline="alphabetic">XOR</text></g><g stroke-linecap="round" transform="translate(187.23239051881382 182.46326168068768) rotate(0 1.670548922545649 1.756220192948497)"><path d="M3.34 1.76 C3.34 1.86, 3.33 1.96, 3.32 2.06 C3.3 2.16, 3.27 2.26, 3.24 2.36 C3.21 2.45, 3.17 2.55, 3.12 2.63 C3.07 2.72, 3.01 2.81, 2.95 2.89 C2.89 2.96, 2.82 3.04, 2.74 3.1 C2.67 3.17, 2.59 3.23, 2.51 3.28 C2.42 3.33, 2.33 3.37, 2.24 3.41 C2.15 3.44, 2.06 3.47, 1.96 3.49 C1.87 3.5, 1.77 3.51, 1.67 3.51 C1.57 3.51, 1.48 3.5, 1.38 3.49 C1.29 3.47, 1.19 3.44, 1.1 3.41 C1.01 3.37, 0.92 3.33, 0.84 3.28 C0.75 3.23, 0.67 3.17, 0.6 3.1 C0.52 3.04, 0.45 2.96, 0.39 2.89 C0.33 2.81, 0.27 2.72, 0.22 2.63 C0.18 2.55, 0.13 2.45, 0.1 2.36 C0.07 2.26, 0.04 2.16, 0.03 2.06 C0.01 1.96, 0 1.86, 0 1.76 C0 1.65, 0.01 1.55, 0.03 1.45 C0.04 1.35, 0.07 1.25, 0.1 1.16 C0.13 1.06, 0.18 0.97, 0.22 0.88 C0.27 0.79, 0.33 0.71, 0.39 0.63 C0.45 0.55, 0.52 0.48, 0.6 0.41 C0.67 0.35, 0.75 0.29, 0.84 0.24 C0.92 0.18, 1.01 0.14, 1.1 0.11 C1.19 0.07, 1.29 0.04, 1.38 0.03 C1.48 0.01, 1.57 0, 1.67 0 C1.77 0, 1.87 0.01, 1.96 0.03 C2.06 0.04, 2.15 0.07, 2.24 0.11 C2.33 0.14, 2.42 0.18, 2.51 0.24 C2.59 0.29, 2.67 0.35, 2.74 0.41 C2.82 0.48, 2.89 0.55, 2.95 0.63 C3.01 0.71, 3.07 0.79, 3.12 0.88 C3.17 0.97, 3.21 1.06, 3.24 1.16 C3.27 1.25, 3.3 1.35, 3.32 1.45 C3.33 1.55, 3.34 1.71, 3.34 1.76 C3.35 1.81, 3.35 1.71, 3.34 1.76" stroke="none" stroke-width="0" fill="#FFFFFF"/><path d="M3.34 1.76 C3.34 1.86, 3.33 1.96, 3.32 2.06 C3.3 2.16, 3.27 2.26, 3.24 2.36 C3.21 2.45, 3.17 2.55, 3.12 2.63 C3.07 2.72, 3.01 2.81, 2.95 2.89 C2.89 2.96, 2.82 3.04, 2.74 3.1 C2.67 3.17, 2.59 3.23, 2.51 3.28 C2.42 3.33, 2.33 3.37, 2.24 3.41 C2.15 3.44, 2.06 3.47, 1.96 3.49 C1.87 3.5, 1.77 3.51, 1.67 3.51 C1.57 3.51, 1.48 3.5, 1.38 3.49 C1.29 3.47, 1.19 3.44, 1.1 3.41 C1.01 3.37, 0.92 3.33, 0.84 3.28 C0.75 3.23, 0.67 3.17, 0.6 3.1 C0.52 3.04, 0.45 2.96, 0.39 2.89 C0.33 2.81, 0.27 2.72, 0.22 2.63 C0.18 2.55, 0.13 2.45, 0.1 2.36 C0.07 2.26, 0.04 2.16, 0.03 2.06 C0.01 1.96, 0 1.86, 0 1.76 C0 1.65, 0.01 1.55, 0.03 1.45 C0.04 1.35, 0.07 1.25, 0.1 1.16 C0.13 1.06, 0.18 0.97, 0.22 0.88 C0.27 0.79, 0.33 0.71, 0.39 0.63 C0.45 0.55, 0.52 0.48, 0.6 0.41 C0.67 0.35, 0.75 0.29, 0.84 0.24 C0.92 0.18, 1.01 0.14, 1.1 0.11 C1.19 0.07, 1.29 0.04, 1.38 0.03 C1.48 0.01, 1.57 0, 1.67 0 C1.77 0, 1.87 0.01, 1.96 0.03 C2.06 0.04, 2.15 0.07, 2.24 0.11 C2.33 0.14, 2.42 0.18, 2.51 0.24 C2.59 0.29, 2.67 0.35, 2.74 0.41 C2.82 0.48, 2.89 0.55, 2.95 0.63 C3.01 0.71, 3.07 0.79, 3.12 0.88 C3.17 0.97, 3.21 1.06, 3.24 1.16 C3.27 1.25, 3.3 1.35, 3.32 1.45 C3.33 1.55, 3.34 1.71, 3.34 1.76 C3.35 1.81, 3.35 1.71, 3.34 1.76" stroke="#ffffff" stroke-width="2" fill="none"/></g><g stroke-linecap="round"><g transform="translate(40.880666624900414 201.8604579349718) rotate(0 96.8216196495249 -11.676545702487061)"><path d="M0 0 C32.27 -3.89, 161.37 -19.46, 193.64 -23.35 M0 0 C32.27 -3.89, 161.37 -19.46, 193.64 -23.35" stroke="#6741d9" stroke-width="2" fill="none"/></g><g transform="translate(40.880666624900414 201.8604579349718) rotate(0 96.8216196495249 -11.676545702487061)"><path d="M193.64 -23.35 L180.91 -15.43 L179.39 -28.02 L193.64 -23.35" stroke="none" stroke-width="0" fill="#6741d9" fill-rule="evenodd"/><path d="M193.64 -23.35 C188.86 -20.38, 184.08 -17.4, 180.91 -15.43 M193.64 -23.35 C190.89 -21.64, 188.13 -19.93, 180.91 -15.43 M180.91 -15.43 C180.59 -18.02, 180.28 -20.61, 179.39 -28.02 M180.91 -15.43 C180.34 -20.13, 179.77 -24.84, 179.39 -28.02 M179.39 -28.02 C184.76 -26.26, 190.14 -24.5, 193.64 -23.35 M179.39 -28.02 C184.99 -26.18, 190.6 -24.35, 193.64 -23.35 M193.64 -23.35 C193.64 -23.35, 193.64 -23.35, 193.64 -23.35 M193.64 -23.35 C193.64 -23.35, 193.64 -23.35, 193.64 -23.35" stroke="#6741d9" stroke-width="2" fill="none"/></g></g><mask/><g stroke-linecap="round"><g transform="translate(291.9947773223589 172.29594555143882) rotate(0 31.19365633188933 -35.202120540923886)"><path d="M0 0 C4.54 -8.59, 16.86 -39.82, 27.26 -51.55 C37.66 -63.29, 56.53 -67.26, 62.39 -70.4 M0 0 C4.54 -8.59, 16.86 -39.82, 27.26 -51.55 C37.66 -63.29, 56.53 -67.26, 62.39 -70.4" stroke="#1971c2" stroke-width="2" fill="none"/></g><g transform="translate(291.9947773223589 172.29594555143882) rotate(0 31.19365633188933 -35.202120540923886)"><path d="M62.39 -70.4 L52.07 -59.51 L47.41 -71.31 L62.39 -70.4" stroke="none" stroke-width="0" fill="#1971c2" fill-rule="evenodd"/><path d="M62.39 -70.4 C60.12 -68.01, 57.86 -65.62, 52.07 -59.51 M62.39 -70.4 C59.83 -67.7, 57.27 -65, 52.07 -59.51 M52.07 -59.51 C50.28 -64.05, 48.49 -68.58, 47.41 -71.31 M52.07 -59.51 C50.88 -62.53, 49.69 -65.55, 47.41 -71.31 M47.41 -71.31 C51.68 -71.05, 55.94 -70.79, 62.39 -70.4 M47.41 -71.31 C51.53 -71.06, 55.65 -70.81, 62.39 -70.4 M62.39 -70.4 C62.39 -70.4, 62.39 -70.4, 62.39 -70.4 M62.39 -70.4 C62.39 -70.4, 62.39 -70.4, 62.39 -70.4" stroke="#1971c2" stroke-width="2" fill="none"/></g></g><mask/><g stroke-linecap="round"><g transform="translate(235.07724450867676 146.86310127020772) rotate(0 28.19143199851524 27.85976934296313)" fill-rule="evenodd"><path d="M0 0 L0 1.99 L0 53.73 L0 55.72 L1.99 55.72 L28.52 55.72 L28.52 55.72 L31.42 55.58 L34.23 55.15 L36.92 54.46 L39.5 53.52 L41.94 52.34 L44.24 50.94 L48.34 47.54 L51.71 43.41 L54.24 38.68 L55.16 36.12 L55.83 33.46 L56.24 30.7 L56.38 27.86 L56.24 25.02 L55.83 22.26 L55.16 19.6 L54.24 17.04 L51.71 12.31 L48.34 8.18 L44.24 4.77 L41.94 3.38 L39.5 2.2 L36.92 1.26 L34.23 0.57 L31.42 0.14 L28.52 0 L28.47 0 L28.11 0 L27.12 0 L26.3 0 L25.21 0 L23.8 0 L22.05 0 L19.9 0 L17.33 0 L14.29 0 L10.75 0 L6.66 0 L1.99 0 L0 0 L0 0" stroke="none" stroke-width="0" fill="black" fill-rule="evenodd"/><path d="M0 0 C0 0.53, 0 1.05, 0 1.99 M0 0 C0 0.52, 0 1.03, 0 1.99 M0 1.99 C0 13.61, 0 25.22, 0 53.73 M0 1.99 C0 16.49, 0 31, 0 53.73 M0 53.73 C0 54.2, 0 54.66, 0 55.72 M0 53.73 C0 54.27, 0 54.81, 0 55.72 M0 55.72 C0.68 55.72, 1.36 55.72, 1.99 55.72 M0 55.72 C0.68 55.72, 1.37 55.72, 1.99 55.72 M1.99 55.72 C12.58 55.72, 23.17 55.72, 28.52 55.72 M1.99 55.72 C8.99 55.72, 15.99 55.72, 28.52 55.72 M28.52 55.72 C28.52 55.72, 28.52 55.72, 28.52 55.72 M28.52 55.72 C28.52 55.72, 28.52 55.72, 28.52 55.72 M28.52 55.72 C29.47 55.67, 30.42 55.62, 31.42 55.58 M28.52 55.72 C29.37 55.68, 30.22 55.64, 31.42 55.58 M31.42 55.58 C32.19 55.46, 32.95 55.34, 34.23 55.15 M31.42 55.58 C32.16 55.46, 32.9 55.35, 34.23 55.15 M34.23 55.15 C35.2 54.9, 36.18 54.65, 36.92 54.46 M34.23 55.15 C34.93 54.97, 35.63 54.79, 36.92 54.46 M36.92 54.46 C37.82 54.14, 38.71 53.81, 39.5 53.52 M36.92 54.46 C37.83 54.13, 38.74 53.8, 39.5 53.52 M39.5 53.52 C40.27 53.15, 41.05 52.77, 41.94 52.34 M39.5 53.52 C40.05 53.26, 40.59 52.99, 41.94 52.34 M41.94 52.34 C42.8 51.82, 43.65 51.3, 44.24 50.94 M41.94 52.34 C42.75 51.85, 43.56 51.35, 44.24 50.94 M44.24 50.94 C45.82 49.63, 47.41 48.31, 48.34 47.54 M44.24 50.94 C45.43 49.95, 46.63 48.96, 48.34 47.54 M48.34 47.54 C49.31 46.34, 50.29 45.15, 51.71 43.41 M48.34 47.54 C49.14 46.55, 49.94 45.57, 51.71 43.41 M51.71 43.41 C52.29 42.32, 52.87 41.23, 54.24 38.68 M51.71 43.41 C52.52 41.89, 53.33 40.37, 54.24 38.68 M54.24 38.68 C54.47 38.02, 54.71 37.36, 55.16 36.12 M54.24 38.68 C54.58 37.71, 54.93 36.75, 55.16 36.12 M55.16 36.12 C55.35 35.36, 55.54 34.6, 55.83 33.46 M55.16 36.12 C55.31 35.52, 55.46 34.93, 55.83 33.46 M55.83 33.46 C55.98 32.45, 56.13 31.44, 56.24 30.7 M55.83 33.46 C55.93 32.78, 56.03 32.1, 56.24 30.7 M56.24 30.7 C56.28 29.95, 56.32 29.21, 56.38 27.86 M56.24 30.7 C56.28 29.95, 56.32 29.21, 56.38 27.86 M56.38 27.86 C56.34 26.95, 56.29 26.03, 56.24 25.02 M56.38 27.86 C56.34 26.96, 56.29 26.05, 56.24 25.02 M56.24 25.02 C56.14 24.35, 56.04 23.67, 55.83 22.26 M56.24 25.02 C56.1 24.05, 55.95 23.08, 55.83 22.26 M55.83 22.26 C55.59 21.31, 55.35 20.36, 55.16 19.6 M55.83 22.26 C55.58 21.27, 55.33 20.27, 55.16 19.6 M55.16 19.6 C54.8 18.61, 54.44 17.62, 54.24 17.04 M55.16 19.6 C54.83 18.69, 54.51 17.79, 54.24 17.04 M54.24 17.04 C53.4 15.48, 52.57 13.92, 51.71 12.31 M54.24 17.04 C53.25 15.2, 52.26 13.35, 51.71 12.31 M51.71 12.31 C50.95 11.39, 50.2 10.47, 48.34 8.18 M51.71 12.31 C50.4 10.7, 49.08 9.1, 48.34 8.18 M48.34 8.18 C47.44 7.44, 46.54 6.69, 44.24 4.77 M48.34 8.18 C47.32 7.34, 46.31 6.5, 44.24 4.77 M44.24 4.77 C43.42 4.28, 42.61 3.78, 41.94 3.38 M44.24 4.77 C43.49 4.32, 42.74 3.87, 41.94 3.38 M41.94 3.38 C41.39 3.11, 40.84 2.84, 39.5 2.2 M41.94 3.38 C41.38 3.11, 40.83 2.84, 39.5 2.2 M39.5 2.2 C38.58 1.86, 37.65 1.53, 36.92 1.26 M39.5 2.2 C38.77 1.93, 38.05 1.67, 36.92 1.26 M36.92 1.26 C36.17 1.07, 35.42 0.87, 34.23 0.57 M36.92 1.26 C36.08 1.04, 35.23 0.83, 34.23 0.57 M34.23 0.57 C33.43 0.45, 32.63 0.33, 31.42 0.14 M34.23 0.57 C33.3 0.43, 32.37 0.29, 31.42 0.14 M31.42 0.14 C30.48 0.1, 29.54 0.05, 28.52 0 M31.42 0.14 C30.58 0.1, 29.73 0.06, 28.52 0 M28.52 0 C28.5 0, 28.49 0, 28.47 0 M28.52 0 C28.5 0, 28.48 0, 28.47 0 M28.47 0 C28.38 0, 28.3 0, 28.11 0 M28.47 0 C28.38 0, 28.29 0, 28.11 0 M28.11 0 C27.83 0, 27.56 0, 27.12 0 M28.11 0 C27.76 0, 27.42 0, 27.12 0 M27.12 0 C26.86 0, 26.6 0, 26.3 0 M27.12 0 C26.9 0, 26.68 0, 26.3 0 M26.3 0 C25.96 0, 25.62 0, 25.21 0 M26.3 0 C25.95 0, 25.6 0, 25.21 0 M25.21 0 C24.67 0, 24.13 0, 23.8 0 M25.21 0 C24.72 0, 24.23 0, 23.8 0 M23.8 0 C23.44 0, 23.07 0, 22.05 0 M23.8 0 C23.12 0, 22.44 0, 22.05 0 M22.05 0 C21.45 0, 20.85 0, 19.9 0 M22.05 0 C21.46 0, 20.88 0, 19.9 0 M19.9 0 C19.18 0, 18.46 0, 17.33 0 M19.9 0 C19.18 0, 18.46 0, 17.33 0 M17.33 0 C16.22 0, 15.1 0, 14.29 0 M17.33 0 C16.31 0, 15.29 0, 14.29 0 M14.29 0 C13.15 0, 12.01 0, 10.75 0 M14.29 0 C13.31 0, 12.34 0, 10.75 0 M10.75 0 C9.77 0, 8.78 0, 6.66 0 M10.75 0 C9.79 0, 8.84 0, 6.66 0 M6.66 0 C5.28 0, 3.89 0, 1.99 0 M6.66 0 C5.21 0, 3.76 0, 1.99 0 M1.99 0 C1.56 0, 1.14 0, 0 0 M1.99 0 C1.27 0, 0.55 0, 0 0 M0 0 C0 0, 0 0, 0 0 M0 0 C0 0, 0 0, 0 0 M0 0 C0 0, 0 0, 0 0 M0 0 C0 0, 0 0, 0 0" stroke="#000000" stroke-width="1" fill="none"/></g></g><mask/><g stroke-linecap="round"><g transform="translate(239.05721231678996 150.84306841409227) rotate(0 23.879804191764578 23.879801866964257)" fill-rule="evenodd"><path d="M0 0 L0 0 L3.98 0 L7.58 0 L10.8 0 L13.64 0 L16.11 0 L18.19 0 L19.9 0 L21.23 0 L22.32 0 L23.14 0 L24.13 0 L24.5 0 L24.54 0 L29.44 0.48 L33.91 1.87 L37.86 4.07 L41.25 6.98 L44 10.51 L46.04 14.56 L47.32 19.05 L47.76 23.88 L47.29 28.71 L45.94 33.2 L43.79 37.25 L40.92 40.78 L37.41 43.69 L33.35 45.89 L28.81 47.28 L23.88 47.76 L0 47.76 L0 0 L0 0" stroke="none" stroke-width="0" fill="#FFFFFF" fill-rule="evenodd"/><path d="M0 0 C0 0, 0 0, 0 0 M0 0 C0 0, 0 0, 0 0 M0 0 C1.45 0, 2.9 0, 3.98 0 M0 0 C1.08 0, 2.17 0, 3.98 0 M3.98 0 C5.27 0, 6.56 0, 7.58 0 M3.98 0 C5 0, 6.01 0, 7.58 0 M7.58 0 C8.44 0, 9.31 0, 10.8 0 M7.58 0 C8.69 0, 9.8 0, 10.8 0 M10.8 0 C11.79 0, 12.79 0, 13.64 0 M10.8 0 C11.52 0, 12.24 0, 13.64 0 M13.64 0 C14.35 0, 15.05 0, 16.11 0 M13.64 0 C14.2 0, 14.77 0, 16.11 0 M16.11 0 C16.66 0, 17.21 0, 18.19 0 M16.11 0 C16.7 0, 17.29 0, 18.19 0 M18.19 0 C18.78 0, 19.37 0, 19.9 0 M18.19 0 C18.73 0, 19.28 0, 19.9 0 M19.9 0 C20.34 0, 20.77 0, 21.23 0 M19.9 0 C20.27 0, 20.65 0, 21.23 0 M21.23 0 C21.6 0, 21.97 0, 22.32 0 M21.23 0 C21.51 0, 21.8 0, 22.32 0 M22.32 0 C22.56 0, 22.8 0, 23.14 0 M22.32 0 C22.53 0, 22.75 0, 23.14 0 M23.14 0 C23.39 0, 23.63 0, 24.13 0 M23.14 0 C23.4 0, 23.66 0, 24.13 0 M24.13 0 C24.25 0, 24.37 0, 24.5 0 M24.13 0 C24.21 0, 24.3 0, 24.5 0 M24.5 0 C24.51 0, 24.52 0, 24.54 0 M24.5 0 C24.52 0, 24.53 0, 24.54 0 M24.54 0 C26.09 0.15, 27.64 0.31, 29.44 0.48 M24.54 0 C26.05 0.15, 27.56 0.3, 29.44 0.48 M29.44 0.48 C30.59 0.84, 31.74 1.2, 33.91 1.87 M29.44 0.48 C31.15 1.01, 32.86 1.55, 33.91 1.87 M33.91 1.87 C35.46 2.73, 37.02 3.6, 37.86 4.07 M33.91 1.87 C34.74 2.33, 35.57 2.79, 37.86 4.07 M37.86 4.07 C39.12 5.14, 40.37 6.22, 41.25 6.98 M37.86 4.07 C39.09 5.12, 40.32 6.17, 41.25 6.98 M41.25 6.98 C42.34 8.37, 43.43 9.77, 44 10.51 M41.25 6.98 C42.22 8.22, 43.19 9.47, 44 10.51 M44 10.51 C44.44 11.39, 44.89 12.27, 46.04 14.56 M44 10.51 C44.64 11.77, 45.27 13.03, 46.04 14.56 M46.04 14.56 C46.54 16.31, 47.03 18.05, 47.32 19.05 M46.04 14.56 C46.5 16.17, 46.96 17.78, 47.32 19.05 M47.32 19.05 C47.43 20.21, 47.53 21.38, 47.76 23.88 M47.32 19.05 C47.45 20.44, 47.57 21.83, 47.76 23.88 M47.76 23.88 C47.59 25.61, 47.42 27.35, 47.29 28.71 M47.76 23.88 C47.6 25.55, 47.44 27.21, 47.29 28.71 M47.29 28.71 C46.82 30.29, 46.34 31.87, 45.94 33.2 M47.29 28.71 C46.88 30.06, 46.48 31.41, 45.94 33.2 M45.94 33.2 C45.25 34.5, 44.56 35.81, 43.79 37.25 M45.94 33.2 C45.43 34.15, 44.92 35.11, 43.79 37.25 M43.79 37.25 C43.1 38.09, 42.42 38.94, 40.92 40.78 M43.79 37.25 C43.18 38, 42.57 38.75, 40.92 40.78 M40.92 40.78 C40.18 41.4, 39.44 42.01, 37.41 43.69 M40.92 40.78 C40.02 41.53, 39.12 42.27, 37.41 43.69 M37.41 43.69 C36.36 44.26, 35.3 44.83, 33.35 45.89 M37.41 43.69 C36.46 44.21, 35.52 44.72, 33.35 45.89 M33.35 45.89 C31.59 46.43, 29.84 46.96, 28.81 47.28 M33.35 45.89 C32.31 46.21, 31.26 46.53, 28.81 47.28 M28.81 47.28 C27.09 47.44, 25.37 47.61, 23.88 47.76 M28.81 47.28 C27.69 47.39, 26.57 47.5, 23.88 47.76 M23.88 47.76 C15.99 47.76, 8.1 47.76, 0 47.76 M23.88 47.76 C17.08 47.76, 10.29 47.76, 0 47.76 M0 47.76 C0 32.81, 0 17.86, 0 0 M0 47.76 C0 37.67, 0 27.58, 0 0 M0 0 C0 0, 0 0, 0 0 M0 0 C0 0, 0 0, 0 0 M0 0 C0 0, 0 0, 0 0 M0 0 C0 0, 0 0, 0 0" stroke="#000000" stroke-width="1" fill="none"/></g></g><mask/><g transform="translate(251.56069990917155 170.33013887123604) rotate(0 11.928993225097656 6.502729939670672)"><text x="0" y="10.404588784245487" font-family="Helvetica, Segoe UI Emoji" font-size="11.30909554725335px" fill="#1971c2" text-anchor="start" style="white-space: pre;" direction="ltr" dominant-baseline="alphabetic">AND</text></g><g stroke-linecap="round"><g transform="translate(346.35563070554775 72.63629364646437) rotate(0 29.205901472723994 24.102871621590396)" fill-rule="evenodd"><path d="M0 0 L2.41 2.94 L2.41 2.94 L2.49 3.04 L2.7 3.32 L3.48 4.45 L4.57 6.28 L5.82 8.75 L7.07 11.81 L8.16 15.43 L8.93 19.54 L9.23 24.1 L8.93 28.67 L8.16 32.78 L7.07 36.39 L5.82 39.46 L4.57 41.93 L3.48 43.75 L2.7 44.88 L2.49 45.17 L2.41 45.27 L0 48.21 L3.8 48.21 L20.68 48.21 L20.68 48.21 L21.92 48.2 L23.46 48.16 L25.26 48.06 L27.29 47.85 L29.52 47.51 L31.92 46.99 L34.46 46.27 L37.1 45.31 L39.81 44.06 L42.57 42.51 L45.35 40.61 L48.11 38.35 L50.83 35.68 L53.47 32.58 L56.01 29.02 L58.41 24.97 L56.83 24.1 L58.41 23.24 L58.41 23.24 L56 19.19 L53.46 15.64 L50.81 12.56 L48.08 9.91 L45.31 7.67 L42.53 5.79 L39.76 4.24 L37.04 3 L34.39 2.03 L31.86 1.29 L29.47 0.76 L27.24 0.4 L25.22 0.18 L23.43 0.06 L21.91 0.01 L20.68 0 L3.8 0 L0 0 L0 0" stroke="none" stroke-width="0" fill="black" fill-rule="evenodd"/><path d="M0 0 C0.77 0.93, 1.53 1.87, 2.41 2.94 M0 0 C0.8 0.98, 1.61 1.96, 2.41 2.94 M2.41 2.94 C2.41 2.94, 2.41 2.94, 2.41 2.94 M2.41 2.94 C2.41 2.94, 2.41 2.94, 2.41 2.94 M2.41 2.94 C2.44 2.97, 2.46 3, 2.49 3.04 M2.41 2.94 C2.43 2.96, 2.45 2.99, 2.49 3.04 M2.49 3.04 C2.53 3.09, 2.57 3.15, 2.7 3.32 M2.49 3.04 C2.54 3.11, 2.6 3.18, 2.7 3.32 M2.7 3.32 C2.94 3.67, 3.18 4.02, 3.48 4.45 M2.7 3.32 C2.95 3.68, 3.19 4.04, 3.48 4.45 M3.48 4.45 C3.86 5.1, 4.25 5.75, 4.57 6.28 M3.48 4.45 C3.74 4.9, 4.01 5.35, 4.57 6.28 M4.57 6.28 C4.83 6.79, 5.09 7.3, 5.82 8.75 M4.57 6.28 C4.9 6.94, 5.24 7.6, 5.82 8.75 M5.82 8.75 C6.14 9.54, 6.47 10.34, 7.07 11.81 M5.82 8.75 C6.25 9.81, 6.68 10.86, 7.07 11.81 M7.07 11.81 C7.4 12.92, 7.74 14.02, 8.16 15.43 M7.07 11.81 C7.44 13.02, 7.8 14.23, 8.16 15.43 M8.16 15.43 C8.4 16.72, 8.65 18.01, 8.93 19.54 M8.16 15.43 C8.37 16.55, 8.58 17.68, 8.93 19.54 M8.93 19.54 C9.02 20.91, 9.11 22.28, 9.23 24.1 M8.93 19.54 C9.04 21.15, 9.14 22.77, 9.23 24.1 M9.23 24.1 C9.14 25.44, 9.05 26.79, 8.93 28.67 M9.23 24.1 C9.17 25.03, 9.11 25.95, 8.93 28.67 M8.93 28.67 C8.77 29.55, 8.6 30.44, 8.16 32.78 M8.93 28.67 C8.73 29.74, 8.53 30.81, 8.16 32.78 M8.16 32.78 C7.89 33.67, 7.63 34.56, 7.07 36.39 M8.16 32.78 C7.88 33.71, 7.6 34.64, 7.07 36.39 M7.07 36.39 C6.7 37.31, 6.32 38.22, 5.82 39.46 M7.07 36.39 C6.58 37.6, 6.09 38.8, 5.82 39.46 M5.82 39.46 C5.33 40.42, 4.84 41.39, 4.57 41.93 M5.82 39.46 C5.55 39.99, 5.28 40.52, 4.57 41.93 M4.57 41.93 C4.22 42.51, 3.87 43.09, 3.48 43.75 M4.57 41.93 C4.14 42.64, 3.71 43.36, 3.48 43.75 M3.48 43.75 C3.3 44, 3.13 44.25, 2.7 44.88 M3.48 43.75 C3.32 43.98, 3.17 44.2, 2.7 44.88 M2.7 44.88 C2.65 44.96, 2.59 45.04, 2.49 45.17 M2.7 44.88 C2.64 44.97, 2.57 45.05, 2.49 45.17 M2.49 45.17 C2.47 45.19, 2.45 45.21, 2.41 45.27 M2.49 45.17 C2.46 45.21, 2.43 45.25, 2.41 45.27 M2.41 45.27 C1.77 46.05, 1.13 46.83, 0 48.21 M2.41 45.27 C1.8 46.01, 1.19 46.75, 0 48.21 M0 48.21 C1.11 48.21, 2.22 48.21, 3.8 48.21 M0 48.21 C1.27 48.21, 2.54 48.21, 3.8 48.21 M3.8 48.21 C8.05 48.21, 12.3 48.21, 20.68 48.21 M3.8 48.21 C7.22 48.21, 10.64 48.21, 20.68 48.21 M20.68 48.21 C20.68 48.21, 20.68 48.21, 20.68 48.21 M20.68 48.21 C20.68 48.21, 20.68 48.21, 20.68 48.21 M20.68 48.21 C21.04 48.2, 21.4 48.2, 21.92 48.2 M20.68 48.21 C21.16 48.2, 21.65 48.2, 21.92 48.2 M21.92 48.2 C22.35 48.19, 22.78 48.18, 23.46 48.16 M21.92 48.2 C22.4 48.19, 22.88 48.18, 23.46 48.16 M23.46 48.16 C23.94 48.14, 24.42 48.11, 25.26 48.06 M23.46 48.16 C23.95 48.14, 24.43 48.11, 25.26 48.06 M25.26 48.06 C25.94 47.99, 26.61 47.92, 27.29 47.85 M25.26 48.06 C25.81 48, 26.37 47.95, 27.29 47.85 M27.29 47.85 C28.17 47.72, 29.05 47.58, 29.52 47.51 M27.29 47.85 C28.15 47.72, 29.01 47.59, 29.52 47.51 M29.52 47.51 C30.44 47.31, 31.35 47.12, 31.92 46.99 M29.52 47.51 C30.03 47.4, 30.55 47.29, 31.92 46.99 M31.92 46.99 C32.7 46.77, 33.47 46.55, 34.46 46.27 M31.92 46.99 C32.65 46.79, 33.37 46.58, 34.46 46.27 M34.46 46.27 C35.07 46.05, 35.69 45.82, 37.1 45.31 M34.46 46.27 C35.31 45.96, 36.17 45.64, 37.1 45.31 M37.1 45.31 C38.07 44.86, 39.04 44.41, 39.81 44.06 M37.1 45.31 C37.71 45.02, 38.33 44.74, 39.81 44.06 M39.81 44.06 C40.84 43.48, 41.86 42.91, 42.57 42.51 M39.81 44.06 C40.76 43.53, 41.72 42.99, 42.57 42.51 M42.57 42.51 C43.5 41.87, 44.43 41.24, 45.35 40.61 M42.57 42.51 C43.3 42.01, 44.02 41.52, 45.35 40.61 M45.35 40.61 C46.04 40.05, 46.73 39.48, 48.11 38.35 M45.35 40.61 C46.09 40.01, 46.83 39.4, 48.11 38.35 M48.11 38.35 C49.02 37.45, 49.94 36.55, 50.83 35.68 M48.11 38.35 C49.04 37.43, 49.98 36.51, 50.83 35.68 M50.83 35.68 C51.88 34.45, 52.93 33.21, 53.47 32.58 M50.83 35.68 C51.45 34.95, 52.07 34.22, 53.47 32.58 M53.47 32.58 C54.22 31.53, 54.97 30.48, 56.01 29.02 M53.47 32.58 C54.06 31.75, 54.65 30.93, 56.01 29.02 M56.01 29.02 C56.77 27.73, 57.54 26.45, 58.41 24.97 M56.01 29.02 C56.59 28.03, 57.18 27.04, 58.41 24.97 M58.41 24.97 C58 24.74, 57.59 24.52, 56.83 24.1 M58.41 24.97 C57.8 24.64, 57.2 24.3, 56.83 24.1 M56.83 24.1 C57.44 23.77, 58.05 23.44, 58.41 23.24 M56.83 24.1 C57.21 23.89, 57.59 23.69, 58.41 23.24 M58.41 23.24 C58.41 23.24, 58.41 23.24, 58.41 23.24 M58.41 23.24 C58.41 23.24, 58.41 23.24, 58.41 23.24 M58.41 23.24 C57.57 21.83, 56.74 20.42, 56 19.19 M58.41 23.24 C57.88 22.34, 57.34 21.44, 56 19.19 M56 19.19 C55.42 18.37, 54.83 17.56, 53.46 15.64 M56 19.19 C55.44 18.41, 54.88 17.62, 53.46 15.64 M53.46 15.64 C52.85 14.94, 52.25 14.23, 50.81 12.56 M53.46 15.64 C52.56 14.6, 51.66 13.55, 50.81 12.56 M50.81 12.56 C50.11 11.88, 49.41 11.2, 48.08 9.91 M50.81 12.56 C50.18 11.95, 49.55 11.34, 48.08 9.91 M48.08 9.91 C47.46 9.41, 46.84 8.9, 45.31 7.67 M48.08 9.91 C46.99 9.03, 45.9 8.15, 45.31 7.67 M45.31 7.67 C44.4 7.05, 43.48 6.43, 42.53 5.79 M45.31 7.67 C44.33 7, 43.35 6.34, 42.53 5.79 M42.53 5.79 C41.96 5.47, 41.39 5.15, 39.76 4.24 M42.53 5.79 C41.59 5.27, 40.66 4.75, 39.76 4.24 M39.76 4.24 C39.17 3.98, 38.59 3.71, 37.04 3 M39.76 4.24 C39.07 3.93, 38.37 3.61, 37.04 3 M37.04 3 C36.48 2.8, 35.92 2.59, 34.39 2.03 M37.04 3 C36.05 2.64, 35.06 2.27, 34.39 2.03 M34.39 2.03 C33.87 1.88, 33.34 1.72, 31.86 1.29 M34.39 2.03 C33.63 1.81, 32.86 1.58, 31.86 1.29 M31.86 1.29 C31 1.1, 30.14 0.91, 29.47 0.76 M31.86 1.29 C31.23 1.15, 30.6 1.01, 29.47 0.76 M29.47 0.76 C28.97 0.68, 28.47 0.6, 27.24 0.4 M29.47 0.76 C28.87 0.66, 28.27 0.57, 27.24 0.4 M27.24 0.4 C26.55 0.32, 25.86 0.25, 25.22 0.18 M27.24 0.4 C26.82 0.35, 26.4 0.31, 25.22 0.18 M25.22 0.18 C24.68 0.14, 24.14 0.1, 23.43 0.06 M25.22 0.18 C24.83 0.15, 24.43 0.12, 23.43 0.06 M23.43 0.06 C22.95 0.04, 22.46 0.03, 21.91 0.01 M23.43 0.06 C22.86 0.04, 22.3 0.02, 21.91 0.01 M21.91 0.01 C21.54 0.01, 21.17 0, 20.68 0 M21.91 0.01 C21.62 0.01, 21.33 0, 20.68 0 M20.68 0 C16.85 0, 13.02 0, 3.8 0 M20.68 0 C14.52 0, 8.37 0, 3.8 0 M3.8 0 C3 0, 2.21 0, 0 0 M3.8 0 C2.73 0, 1.66 0, 0 0 M0 0 C0 0, 0 0, 0 0 M0 0 C0 0, 0 0, 0 0 M0 0 C0 0, 0 0, 0 0 M0 0 C0 0, 0 0, 0 0" stroke="#000000" stroke-width="1" fill="none"/></g></g><mask/><g stroke-linecap="round"><g transform="translate(353.43584924438994 76.25172438970296) rotate(0 23.650942778685582 20.487440878351848)" fill-rule="evenodd"><path d="M0 0 L13.6 0 L13.6 0 L14.78 0 L16.19 0.03 L19.6 0.3 L23.66 1.04 L25.88 1.66 L28.19 2.5 L30.57 3.58 L33 4.93 L35.45 6.59 L37.91 8.58 L40.34 10.93 L42.74 13.68 L45.06 16.86 L47.3 20.49 L45.1 24.07 L42.8 27.2 L40.44 29.92 L38.02 32.26 L35.59 34.24 L33.15 35.9 L30.74 37.25 L28.36 38.34 L25.99 39.21 L23.73 39.87 L19.64 40.65 L16.22 40.94 L13.6 40.97 L0.04 40.97 L0.04 40.97 L0.93 39.41 L1.88 37.54 L2.84 35.37 L3.75 32.92 L4.55 30.19 L5.19 27.2 L5.61 23.97 L5.76 20.49 L5.61 17 L5.18 13.76 L4.53 10.77 L3.73 8.04 L2.81 5.59 L1.85 3.43 L0.9 1.56 L0 0 L0 0" stroke="none" stroke-width="0" fill="#FFFFFF" fill-rule="evenodd"/><path d="M0 0 C4.62 0, 9.24 0, 13.6 0 M0 0 C3.61 0, 7.21 0, 13.6 0 M13.6 0 C13.6 0, 13.6 0, 13.6 0 M13.6 0 C13.6 0, 13.6 0, 13.6 0 M13.6 0 C13.93 0, 14.27 0, 14.78 0 M13.6 0 C14.01 0, 14.43 0, 14.78 0 M14.78 0 C15.06 0.01, 15.35 0.02, 16.19 0.03 M14.78 0 C15.27 0.01, 15.77 0.02, 16.19 0.03 M16.19 0.03 C17.5 0.13, 18.81 0.24, 19.6 0.3 M16.19 0.03 C17.28 0.12, 18.38 0.2, 19.6 0.3 M19.6 0.3 C20.42 0.45, 21.23 0.59, 23.66 1.04 M19.6 0.3 C20.89 0.53, 22.17 0.77, 23.66 1.04 M23.66 1.04 C24.43 1.25, 25.19 1.47, 25.88 1.66 M23.66 1.04 C24.19 1.19, 24.71 1.33, 25.88 1.66 M25.88 1.66 C26.54 1.9, 27.19 2.14, 28.19 2.5 M25.88 1.66 C26.79 2, 27.7 2.33, 28.19 2.5 M28.19 2.5 C28.78 2.77, 29.37 3.04, 30.57 3.58 M28.19 2.5 C28.69 2.73, 29.18 2.95, 30.57 3.58 M30.57 3.58 C31.27 3.97, 31.97 4.36, 33 4.93 M30.57 3.58 C31.46 4.07, 32.34 4.57, 33 4.93 M33 4.93 C33.63 5.36, 34.26 5.78, 35.45 6.59 M33 4.93 C33.75 5.44, 34.5 5.94, 35.45 6.59 M35.45 6.59 C36.12 7.13, 36.78 7.67, 37.91 8.58 M35.45 6.59 C35.95 6.99, 36.46 7.4, 37.91 8.58 M37.91 8.58 C38.63 9.28, 39.35 9.97, 40.34 10.93 M37.91 8.58 C38.5 9.15, 39.1 9.73, 40.34 10.93 M40.34 10.93 C40.84 11.51, 41.35 12.08, 42.74 13.68 M40.34 10.93 C41.29 12.02, 42.23 13.1, 42.74 13.68 M42.74 13.68 C43.6 14.86, 44.47 16.05, 45.06 16.86 M42.74 13.68 C43.42 14.61, 44.1 15.54, 45.06 16.86 M45.06 16.86 C45.75 17.97, 46.44 19.09, 47.3 20.49 M45.06 16.86 C45.55 17.65, 46.04 18.44, 47.3 20.49 M47.3 20.49 C46.72 21.43, 46.14 22.37, 45.1 24.07 M47.3 20.49 C46.48 21.82, 45.66 23.15, 45.1 24.07 M45.1 24.07 C44.43 24.98, 43.76 25.89, 42.8 27.2 M45.1 24.07 C44.51 24.87, 43.92 25.68, 42.8 27.2 M42.8 27.2 C42.29 27.79, 41.77 28.38, 40.44 29.92 M42.8 27.2 C41.97 28.16, 41.13 29.12, 40.44 29.92 M40.44 29.92 C39.69 30.65, 38.94 31.37, 38.02 32.26 M40.44 29.92 C39.72 30.62, 39.01 31.31, 38.02 32.26 M38.02 32.26 C37.4 32.77, 36.77 33.29, 35.59 34.24 M38.02 32.26 C37.15 32.97, 36.28 33.68, 35.59 34.24 M35.59 34.24 C35.01 34.64, 34.43 35.03, 33.15 35.9 M35.59 34.24 C35.05 34.61, 34.51 34.98, 33.15 35.9 M33.15 35.9 C32.46 36.28, 31.77 36.67, 30.74 37.25 M33.15 35.9 C32.52 36.25, 31.88 36.61, 30.74 37.25 M30.74 37.25 C29.85 37.66, 28.97 38.06, 28.36 38.34 M30.74 37.25 C29.96 37.6, 29.19 37.96, 28.36 38.34 M28.36 38.34 C27.48 38.66, 26.61 38.98, 25.99 39.21 M28.36 38.34 C27.42 38.68, 26.48 39.03, 25.99 39.21 M25.99 39.21 C25.24 39.43, 24.5 39.64, 23.73 39.87 M25.99 39.21 C25.11 39.47, 24.22 39.72, 23.73 39.87 M23.73 39.87 C22.7 40.06, 21.66 40.26, 19.64 40.65 M23.73 39.87 C22.79 40.05, 21.84 40.23, 19.64 40.65 M19.64 40.65 C18.42 40.75, 17.19 40.85, 16.22 40.94 M19.64 40.65 C18.91 40.71, 18.17 40.77, 16.22 40.94 M16.22 40.94 C15.55 40.95, 14.88 40.96, 13.6 40.97 M16.22 40.94 C15.43 40.95, 14.64 40.96, 13.6 40.97 M13.6 40.97 C10.59 40.97, 7.59 40.97, 0.04 40.97 M13.6 40.97 C9.7 40.97, 5.8 40.97, 0.04 40.97 M0.04 40.97 C0.04 40.97, 0.04 40.97, 0.04 40.97 M0.04 40.97 C0.04 40.97, 0.04 40.97, 0.04 40.97 M0.04 40.97 C0.32 40.49, 0.6 40, 0.93 39.41 M0.04 40.97 C0.31 40.5, 0.58 40.03, 0.93 39.41 M0.93 39.41 C1.27 38.75, 1.61 38.09, 1.88 37.54 M0.93 39.41 C1.23 38.82, 1.54 38.22, 1.88 37.54 M1.88 37.54 C2.21 36.8, 2.54 36.06, 2.84 35.37 M1.88 37.54 C2.13 36.98, 2.38 36.42, 2.84 35.37 M2.84 35.37 C3.07 34.76, 3.3 34.14, 3.75 32.92 M2.84 35.37 C3.1 34.68, 3.35 33.99, 3.75 32.92 M3.75 32.92 C3.95 32.24, 4.15 31.56, 4.55 30.19 M3.75 32.92 C4.03 31.96, 4.31 31.01, 4.55 30.19 M4.55 30.19 C4.72 29.38, 4.9 28.56, 5.19 27.2 M4.55 30.19 C4.75 29.26, 4.95 28.32, 5.19 27.2 M5.19 27.2 C5.31 26.25, 5.44 25.29, 5.61 23.97 M5.19 27.2 C5.3 26.3, 5.42 25.4, 5.61 23.97 M5.61 23.97 C5.66 22.91, 5.7 21.85, 5.76 20.49 M5.61 23.97 C5.65 22.93, 5.7 21.89, 5.76 20.49 M5.76 20.49 C5.71 19.22, 5.65 17.95, 5.61 17 M5.76 20.49 C5.71 19.29, 5.66 18.09, 5.61 17 M5.61 17 C5.52 16.35, 5.44 15.7, 5.18 13.76 M5.61 17 C5.45 15.77, 5.28 14.55, 5.18 13.76 M5.18 13.76 C5.01 12.97, 4.84 12.19, 4.53 10.77 M5.18 13.76 C4.96 12.72, 4.73 11.69, 4.53 10.77 M4.53 10.77 C4.29 9.96, 4.05 9.15, 3.73 8.04 M4.53 10.77 C4.34 10.11, 4.14 9.45, 3.73 8.04 M3.73 8.04 C3.52 7.5, 3.32 6.95, 2.81 5.59 M3.73 8.04 C3.46 7.33, 3.19 6.61, 2.81 5.59 M2.81 5.59 C2.53 4.95, 2.24 4.3, 1.85 3.43 M2.81 5.59 C2.59 5.09, 2.37 4.59, 1.85 3.43 M1.85 3.43 C1.47 2.68, 1.09 1.94, 0.9 1.56 M1.85 3.43 C1.58 2.89, 1.31 2.36, 0.9 1.56 M0.9 1.56 C0.55 0.97, 0.21 0.37, 0 0 M0.9 1.56 C0.68 1.18, 0.46 0.81, 0 0 M0 0 C0 0, 0 0, 0 0 M0 0 C0 0, 0 0, 0 0 M0 0 C0 0, 0 0, 0 0 M0 0 C0 0, 0 0, 0 0" stroke="#000000" stroke-width="1" fill="none"/></g></g><mask/><g stroke-linecap="round" transform="translate(402.05864046248485 95.79422794013644) rotate(0 1.2263119359147936 0.9268630146887489)"><path d="M2.45 0.93 C2.45 0.98, 2.45 1.03, 2.43 1.09 C2.42 1.14, 2.4 1.19, 2.38 1.24 C2.35 1.29, 2.32 1.34, 2.29 1.39 C2.25 1.44, 2.21 1.48, 2.17 1.52 C2.12 1.56, 2.07 1.6, 2.01 1.64 C1.96 1.67, 1.9 1.7, 1.84 1.73 C1.78 1.76, 1.71 1.78, 1.65 1.8 C1.58 1.82, 1.51 1.83, 1.44 1.84 C1.37 1.85, 1.3 1.85, 1.23 1.85 C1.16 1.85, 1.08 1.85, 1.01 1.84 C0.94 1.83, 0.87 1.82, 0.81 1.8 C0.74 1.78, 0.67 1.76, 0.61 1.73 C0.55 1.7, 0.49 1.67, 0.44 1.64 C0.38 1.6, 0.33 1.56, 0.29 1.52 C0.24 1.48, 0.2 1.44, 0.16 1.39 C0.13 1.34, 0.1 1.29, 0.07 1.24 C0.05 1.19, 0.03 1.14, 0.02 1.09 C0.01 1.03, 0 0.98, 0 0.93 C0 0.87, 0.01 0.82, 0.02 0.77 C0.03 0.71, 0.05 0.66, 0.07 0.61 C0.1 0.56, 0.13 0.51, 0.16 0.46 C0.2 0.42, 0.24 0.37, 0.29 0.33 C0.33 0.29, 0.38 0.25, 0.44 0.22 C0.49 0.18, 0.55 0.15, 0.61 0.12 C0.67 0.1, 0.74 0.07, 0.81 0.06 C0.87 0.04, 0.94 0.02, 1.01 0.01 C1.08 0, 1.16 0, 1.23 0 C1.3 0, 1.37 0, 1.44 0.01 C1.51 0.02, 1.58 0.04, 1.65 0.06 C1.71 0.07, 1.78 0.1, 1.84 0.12 C1.9 0.15, 1.96 0.18, 2.01 0.22 C2.07 0.25, 2.12 0.29, 2.17 0.33 C2.21 0.37, 2.25 0.42, 2.29 0.46 C2.32 0.51, 2.35 0.56, 2.38 0.61 C2.4 0.66, 2.42 0.71, 2.43 0.77 C2.45 0.82, 2.45 0.9, 2.45 0.93 C2.46 0.95, 2.46 0.9, 2.45 0.93" stroke="none" stroke-width="0" fill="black"/><path d="M2.45 0.93 C2.45 0.98, 2.45 1.03, 2.43 1.09 C2.42 1.14, 2.4 1.19, 2.38 1.24 C2.35 1.29, 2.32 1.34, 2.29 1.39 C2.25 1.44, 2.21 1.48, 2.17 1.52 C2.12 1.56, 2.07 1.6, 2.01 1.64 C1.96 1.67, 1.9 1.7, 1.84 1.73 C1.78 1.76, 1.71 1.78, 1.65 1.8 C1.58 1.82, 1.51 1.83, 1.44 1.84 C1.37 1.85, 1.3 1.85, 1.23 1.85 C1.16 1.85, 1.08 1.85, 1.01 1.84 C0.94 1.83, 0.87 1.82, 0.81 1.8 C0.74 1.78, 0.67 1.76, 0.61 1.73 C0.55 1.7, 0.49 1.67, 0.44 1.64 C0.38 1.6, 0.33 1.56, 0.29 1.52 C0.24 1.48, 0.2 1.44, 0.16 1.39 C0.13 1.34, 0.1 1.29, 0.07 1.24 C0.05 1.19, 0.03 1.14, 0.02 1.09 C0.01 1.03, 0 0.98, 0 0.93 C0 0.87, 0.01 0.82, 0.02 0.77 C0.03 0.71, 0.05 0.66, 0.07 0.61 C0.1 0.56, 0.13 0.51, 0.16 0.46 C0.2 0.42, 0.24 0.37, 0.29 0.33 C0.33 0.29, 0.38 0.25, 0.44 0.22 C0.49 0.18, 0.55 0.15, 0.61 0.12 C0.67 0.1, 0.74 0.07, 0.81 0.06 C0.87 0.04, 0.94 0.02, 1.01 0.01 C1.08 0, 1.16 0, 1.23 0 C1.3 0, 1.37 0, 1.44 0.01 C1.51 0.02, 1.58 0.04, 1.65 0.06 C1.71 0.07, 1.78 0.1, 1.84 0.12 C1.9 0.15, 1.96 0.18, 2.01 0.22 C2.07 0.25, 2.12 0.29, 2.17 0.33 C2.21 0.37, 2.25 0.42, 2.29 0.46 C2.32 0.51, 2.35 0.56, 2.38 0.61 C2.4 0.66, 2.42 0.71, 2.43 0.77 C2.45 0.82, 2.45 0.9, 2.45 0.93 C2.46 0.95, 2.46 0.9, 2.45 0.93" stroke="#000000" stroke-width="2" fill="none"/></g><g transform="translate(366.03392543931295 91.7568220384641) rotate(0 8.474990844726562 6.502729939670672)"><text x="0" y="10.404588784245487" font-family="Helvetica, Segoe UI Emoji" font-size="11.30909554725335px" fill="#1e1e1e" text-anchor="start" style="white-space: pre;" direction="ltr" dominant-baseline="alphabetic">OR</text></g><g stroke-linecap="round"><g transform="translate(405.14453153762986 97.0379769708754) rotate(0 31.713680853964732 0)"><path d="M0 0 C10.57 0, 52.86 0, 63.43 0 M0 0 C10.57 0, 52.86 0, 63.43 0" stroke="#1e1e1e" stroke-width="2" fill="none"/></g><g transform="translate(405.14453153762986 97.0379769708754) rotate(0 31.713680853964732 0)"><path d="M63.43 0 L49.83 6.34 L49.83 -6.34 L63.43 0" stroke="none" stroke-width="0" fill="#1e1e1e" fill-rule="evenodd"/><path d="M63.43 0 C58.07 2.5, 52.72 4.99, 49.83 6.34 M63.43 0 C59.33 1.91, 55.24 3.82, 49.83 6.34 M49.83 6.34 C49.83 2.05, 49.83 -2.24, 49.83 -6.34 M49.83 6.34 C49.83 3.19, 49.83 0.04, 49.83 -6.34 M49.83 -6.34 C55.22 -3.83, 60.6 -1.32, 63.43 0 M49.83 -6.34 C54.71 -4.06, 59.59 -1.79, 63.43 0 M63.43 0 C63.43 0, 63.43 0, 63.43 0 M63.43 0 C63.43 0, 63.43 0, 63.43 0" stroke="#1e1e1e" stroke-width="2" fill="none"/></g></g><mask/><g transform="translate(187.25072023871377 96.16792966385333) rotate(0 10.348472847370019 10.019951739873463)" stroke="none"><path fill="#f08c00" d="M 0.75,-0.66 Q 0.75,-0.66 1.63,-0.01 2.51,0.63 3.41,1.35 4.30,2.08 5.39,3.18 6.48,4.27 7.69,5.33 8.90,6.39 9.95,7.34 11.00,8.28 11.96,9.29 12.92,10.29 14.03,11.14 15.14,11.99 16.14,12.83 17.15,13.66 17.77,14.21 18.39,14.76 18.95,15.29 19.51,15.82 20.27,18.04 21.02,20.26 20.98,20.36 20.94,20.45 20.88,20.54 20.81,20.62 20.72,20.67 20.62,20.73 20.52,20.75 20.42,20.77 20.31,20.76 20.21,20.75 20.11,20.70 20.01,20.66 19.94,20.59 19.86,20.51 19.81,20.42 19.76,20.32 19.74,20.22 19.73,20.11 19.74,20.01 19.76,19.91 19.81,19.81 19.86,19.72 19.94,19.64 20.01,19.57 20.11,19.53 20.21,19.48 20.31,19.47 20.42,19.46 20.52,19.48 20.63,19.51 20.72,19.56 20.81,19.62 20.88,19.70 20.94,19.78 20.98,19.88 21.02,19.97 21.03,20.08 21.03,20.19 21.01,20.29 20.98,20.39 20.92,20.48 20.86,20.57 20.77,20.63 20.69,20.70 20.59,20.73 20.49,20.76 20.38,20.76 20.28,20.76 20.17,20.73 20.07,20.70 19.99,20.63 19.90,20.57 19.85,20.48 19.79,20.39 19.76,20.29 19.73,20.19 19.73,20.08 19.74,19.97 19.74,19.97 19.74,19.97 18.53,19.06 17.32,18.14 16.80,17.64 16.28,17.15 15.69,16.62 15.10,16.10 14.15,15.29 13.19,14.49 11.92,13.47 10.64,12.46 9.77,11.53 8.90,10.60 7.86,9.66 6.82,8.71 5.55,7.56 4.28,6.40 3.33,5.39 2.37,4.37 1.34,3.47 0.31,2.58 -0.22,1.62 -0.75,0.66 -0.82,0.56 -0.89,0.46 -0.93,0.35 -0.98,0.23 -0.99,0.11 -1.01,-0.00 -0.99,-0.12 -0.98,-0.24 -0.93,-0.35 -0.89,-0.47 -0.82,-0.57 -0.75,-0.67 -0.66,-0.75 -0.57,-0.83 -0.46,-0.88 -0.35,-0.94 -0.23,-0.97 -0.11,-1.00 0.00,-1.00 0.12,-1.00 0.24,-0.97 0.36,-0.94 0.46,-0.88 0.57,-0.83 0.66,-0.74 0.75,-0.66 0.75,-0.66 L 0.75,-0.66 Z"/></g><g transform="translate(204.16965909856617 94.03253149948787) rotate(0 -7.7202914552400586 12.155349904238918)" stroke="none"><path fill="#f08c00" d="M 0.86,0.81 Q 0.86,0.81 0.26,1.66 -0.33,2.52 -1.00,3.41 -1.67,4.30 -2.04,4.86 -2.42,5.41 -3.71,7.66 -5.01,9.92 -6.13,11.96 -7.24,14.01 -8.03,15.64 -8.82,17.28 -9.92,19.06 -11.01,20.84 -12.91,22.63 -14.81,24.42 -14.89,24.49 -14.97,24.56 -15.07,24.60 -15.17,24.64 -15.28,24.64 -15.39,24.65 -15.49,24.62 -15.59,24.59 -15.68,24.53 -15.76,24.47 -15.83,24.38 -15.89,24.30 -15.92,24.19 -15.96,24.09 -15.96,23.99 -15.95,23.88 -15.92,23.78 -15.88,23.68 -15.82,23.60 -15.75,23.51 -15.67,23.45 -15.58,23.39 -15.47,23.37 -15.37,23.34 -15.27,23.35 -15.16,23.35 -15.06,23.39 -14.96,23.43 -14.88,23.50 -14.80,23.57 -14.75,23.67 -14.69,23.76 -14.67,23.86 -14.65,23.97 -14.66,24.07 -14.68,24.18 -14.72,24.27 -14.77,24.37 -14.84,24.44 -14.92,24.52 -15.01,24.57 -15.10,24.62 -15.21,24.63 -15.31,24.65 -15.42,24.63 -15.52,24.61 -15.62,24.56 -15.71,24.51 -15.78,24.43 -15.85,24.36 -15.90,24.26 -15.94,24.16 -15.95,24.06 -15.96,23.95 -15.94,23.85 -15.91,23.74 -15.86,23.65 -15.80,23.56 -15.80,23.56 -15.80,23.56 -14.80,21.34 -13.79,19.12 -12.77,17.49 -11.75,15.86 -10.91,14.15 -10.07,12.43 -8.90,10.37 -7.74,8.30 -6.33,5.99 -4.92,3.69 -4.49,3.07 -4.06,2.45 -3.27,1.47 -2.49,0.50 -1.68,-0.15 -0.86,-0.81 -0.75,-0.90 -0.64,-0.99 -0.51,-1.06 -0.39,-1.12 -0.25,-1.15 -0.11,-1.18 0.03,-1.18 0.17,-1.17 0.31,-1.13 0.45,-1.09 0.57,-1.02 0.70,-0.95 0.80,-0.86 0.91,-0.76 0.99,-0.64 1.06,-0.52 1.11,-0.38 1.16,-0.25 1.17,-0.10 1.18,0.03 1.16,0.17 1.14,0.31 1.09,0.44 1.03,0.58 0.95,0.69 0.86,0.81 0.86,0.81 L 0.86,0.81 Z"/></g></svg>