<svg version="1.1" xmlns="http://www.w3.org/2000/svg" viewBox="0 0 524.7408883722103 170.27081627353425" width="524.7408883722103" height="170.27081627353425" filter="invert(93%) hue-rotate(180deg)" class="excalidraw-svg">
  <!-- svg-source:excalidraw -->
  
  <defs>
    <style class="style-fonts">
      @font-face {
        font-family: "Virgil";
        src: url("https://excalidraw.com/Virgil.woff2");
      }
      @font-face {
        font-family: "Cascadia";
        src: url("https://excalidraw.com/Cascadia.woff2");
      }
      @font-face {
        font-family: "Assistant";
        src: url("https://excalidraw.com/Assistant-Regular.woff2");
      }
    </style>
    
  </defs>
  <g stroke-linecap="round"><g transform="translate(110.21145952656775 54.395596973371994) rotate(0 48.65188746018288 52.93760965008113)" fill-rule="evenodd"><path d="M0 0 L0 5.69 L0 100.19 L0 105.88 L4.98 103.36 L97.3 57.36 L96.49 48.11 L4.98 2.51 L0 0 L0 0" stroke="none" stroke-width="0" fill="black" fill-rule="evenodd"/><path d="M0 0 C0 1.88, 0 3.75, 0 5.69 M0 0 C0 1.81, 0 3.61, 0 5.69 M0 5.69 C0 35.53, 0 65.37, 0 100.19 M0 5.69 C0 38.9, 0 72.11, 0 100.19 M0 100.19 C0 101.64, 0 103.09, 0 105.88 M0 100.19 C0 101.58, 0 102.96, 0 105.88 M0 105.88 C1.36 105.19, 2.73 104.5, 4.98 103.36 M0 105.88 C1.63 105.06, 3.25 104.24, 4.98 103.36 M4.98 103.36 C25.41 93.19, 45.83 83.01, 97.3 57.36 M4.98 103.36 C34.47 88.67, 63.96 73.97, 97.3 57.36 M97.3 57.36 C97.08 54.84, 96.86 52.33, 96.49 48.11 M97.3 57.36 C97.08 54.8, 96.85 52.23, 96.49 48.11 M96.49 48.11 C75.42 37.61, 54.36 27.12, 4.98 2.51 M96.49 48.11 C74.86 37.33, 53.23 26.56, 4.98 2.51 M4.98 2.51 C3.33 1.68, 1.68 0.85, 0 0 M4.98 2.51 C3.18 1.6, 1.37 0.69, 0 0 M0 0 C0 0, 0 0, 0 0 M0 0 C0 0, 0 0, 0 0 M0 0 C0 0, 0 0, 0 0 M0 0 C0 0, 0 0, 0 0" stroke="#000000" stroke-width="1" fill="none"/></g></g><mask/><g stroke-linecap="round"><g transform="translate(117.5569234680072 65.76573907394732) rotate(0 41.53386817971288 41.56746754950582)" fill-rule="evenodd"><path d="M0 0 L83.07 41.57 L0 83.13 L0 0 L0 0" stroke="none" stroke-width="0" fill="#FFFFFF" fill-rule="evenodd"/><path d="M0 0 C28.28 14.15, 56.55 28.3, 83.07 41.57 M0 0 C28.7 14.36, 57.41 28.73, 83.07 41.57 M83.07 41.57 C56.99 54.62, 30.91 67.67, 0 83.13 M83.07 41.57 C62.96 51.63, 42.85 61.69, 0 83.13 M0 83.13 C0 66.08, 0 49.02, 0 0 M0 83.13 C0 55.4, 0 27.67, 0 0 M0 0 C0 0, 0 0, 0 0 M0 0 C0 0, 0 0, 0 0 M0 0 C0 0, 0 0, 0 0 M0 0 C0 0, 0 0, 0 0" stroke="#000000" stroke-width="1" fill="none"/></g></g><mask/><g stroke-linecap="round"><g transform="translate(224.69613880249926 107.33320662345307) rotate(0 -9.450507719958694 7.105427357601002e-15)"><path d="M0 0 C0 0, 0 0, 0 0 M0 0 C0 0, 0 0, 0 0 M0 0 C-0.09 0.67, -0.18 1.34, -0.35 2.59 M0 0 C-0.13 0.96, -0.26 1.93, -0.35 2.59 M-0.35 2.59 C-0.67 3.33, -0.98 4.06, -1.33 4.86 M-0.35 2.59 C-0.73 3.48, -1.12 4.36, -1.33 4.86 M-1.33 4.86 C-1.83 5.49, -2.33 6.12, -2.82 6.75 M-1.33 4.86 C-1.74 5.38, -2.15 5.9, -2.82 6.75 M-2.82 6.75 C-3.38 7.17, -3.94 7.59, -4.73 8.18 M-2.82 6.75 C-3.47 7.23, -4.12 7.72, -4.73 8.18 M-4.73 8.18 C-5.55 8.53, -6.38 8.88, -6.92 9.11 M-4.73 8.18 C-5.37 8.46, -6.02 8.73, -6.92 9.11 M-6.92 9.11 C-7.47 9.19, -8.02 9.27, -9.3 9.46 M-6.92 9.11 C-7.61 9.21, -8.29 9.31, -9.3 9.46 M-9.3 9.46 C-10.24 9.35, -11.18 9.24, -11.76 9.18 M-9.3 9.46 C-9.91 9.39, -10.51 9.32, -11.76 9.18 M-11.76 9.18 C-12.56 8.85, -13.36 8.52, -14.18 8.18 M-11.76 9.18 C-12.57 8.84, -13.39 8.51, -14.18 8.18 M-14.18 8.18 C-14.89 7.64, -15.6 7.09, -16.15 6.67 M-14.18 8.18 C-14.77 7.73, -15.36 7.27, -16.15 6.67 M-16.15 6.67 C-16.51 6.2, -16.87 5.73, -17.63 4.73 M-16.15 6.67 C-16.6 6.08, -17.05 5.48, -17.63 4.73 M-17.63 4.73 C-17.85 4.2, -18.07 3.67, -18.57 2.47 M-17.63 4.73 C-17.91 4.07, -18.18 3.41, -18.57 2.47 M-18.57 2.47 C-18.7 1.52, -18.83 0.57, -18.9 0 M-18.57 2.47 C-18.64 1.93, -18.72 1.4, -18.9 0 M-18.9 0 C-18.78 -0.87, -18.66 -1.75, -18.55 -2.59 M-18.9 0 C-18.83 -0.54, -18.75 -1.08, -18.55 -2.59 M-18.55 -2.59 C-18.32 -3.13, -18.09 -3.67, -17.57 -4.86 M-18.55 -2.59 C-18.35 -3.06, -18.14 -3.54, -17.57 -4.86 M-17.57 -4.86 C-17.09 -5.47, -16.6 -6.08, -16.08 -6.75 M-17.57 -4.86 C-17.1 -5.45, -16.64 -6.04, -16.08 -6.75 M-16.08 -6.75 C-15.61 -7.1, -15.14 -7.46, -14.18 -8.18 M-16.08 -6.75 C-15.64 -7.08, -15.2 -7.41, -14.18 -8.18 M-14.18 -8.18 C-13.61 -8.42, -13.04 -8.66, -11.98 -9.11 M-14.18 -8.18 C-13.7 -8.39, -13.22 -8.59, -11.98 -9.11 M-11.98 -9.11 C-11.21 -9.23, -10.44 -9.34, -9.6 -9.46 M-11.98 -9.11 C-11.17 -9.23, -10.37 -9.35, -9.6 -9.46 M-9.6 -9.46 C-8.82 -9.37, -8.03 -9.28, -7.14 -9.18 M-9.6 -9.46 C-9.11 -9.41, -8.61 -9.35, -7.14 -9.18 M-7.14 -9.18 C-6.32 -8.84, -5.5 -8.5, -4.73 -8.18 M-7.14 -9.18 C-6.65 -8.97, -6.15 -8.77, -4.73 -8.18 M-4.73 -8.18 C-4.14 -7.73, -3.55 -7.28, -2.75 -6.67 M-4.73 -8.18 C-4.14 -7.73, -3.55 -7.28, -2.75 -6.67 M-2.75 -6.67 C-2.41 -6.22, -2.06 -5.77, -1.27 -4.73 M-2.75 -6.67 C-2.44 -6.26, -2.12 -5.85, -1.27 -4.73 M-1.27 -4.73 C-0.98 -4.04, -0.7 -3.36, -0.33 -2.47 M-1.27 -4.73 C-1.07 -4.25, -0.87 -3.77, -0.33 -2.47 M-0.33 -2.47 C-0.23 -1.72, -0.13 -0.97, 0 0 M-0.33 -2.47 C-0.21 -1.61, -0.1 -0.75, 0 0 M0 0 C0 0, 0 0, 0 0 M0 0 C0 0, 0 0, 0 0" stroke="#000000" stroke-width="3" fill="none"/></g></g><mask/><g stroke-linecap="round"><g transform="translate(293.0372752750573 10) rotate(0 63.956581051872625 63.204153523082496)" fill-rule="evenodd"><path d="M0 0 L0 4.51 L0 121.89 L0 126.41 L4.51 126.41 L64.71 126.41 L64.71 126.41 L71.29 126.08 L77.65 125.12 L83.76 123.55 L89.61 121.42 L95.15 118.75 L100.36 115.58 L109.66 107.84 L117.3 98.48 L123.05 87.75 L125.13 81.95 L126.66 75.9 L127.59 69.64 L127.91 63.2 L127.59 56.77 L126.66 50.51 L125.13 44.46 L123.05 38.66 L117.3 27.93 L109.66 18.57 L100.36 10.83 L95.15 7.66 L89.61 4.99 L83.76 2.85 L77.65 1.29 L71.29 0.33 L64.71 0 L64.59 0 L63.77 0 L61.53 0 L59.67 0 L57.18 0 L54 0 L50.01 0 L45.15 0 L39.31 0 L32.42 0 L24.38 0 L15.11 0 L4.51 0 L0 0 L0 0" stroke="none" stroke-width="0" fill="black" fill-rule="evenodd"/><path d="M0 0 C0 1.16, 0 2.32, 0 4.51 M0 0 C0 1.14, 0 2.28, 0 4.51 M0 4.51 C0 47.08, 0 89.65, 0 121.89 M0 4.51 C0 49.73, 0 94.95, 0 121.89 M0 121.89 C0 122.84, 0 123.78, 0 126.41 M0 121.89 C0 123.69, 0 125.48, 0 126.41 M0 126.41 C1.68 126.41, 3.35 126.41, 4.51 126.41 M0 126.41 C1.71 126.41, 3.42 126.41, 4.51 126.41 M4.51 126.41 C20.23 126.41, 35.95 126.41, 64.71 126.41 M4.51 126.41 C18.87 126.41, 33.22 126.41, 64.71 126.41 M64.71 126.41 C64.71 126.41, 64.71 126.41, 64.71 126.41 M64.71 126.41 C64.71 126.41, 64.71 126.41, 64.71 126.41 M64.71 126.41 C67.26 126.28, 69.81 126.15, 71.29 126.08 M64.71 126.41 C66.89 126.3, 69.07 126.19, 71.29 126.08 M71.29 126.08 C73 125.82, 74.71 125.56, 77.65 125.12 M71.29 126.08 C72.69 125.87, 74.1 125.65, 77.65 125.12 M77.65 125.12 C79.34 124.69, 81.03 124.25, 83.76 123.55 M77.65 125.12 C79.45 124.66, 81.26 124.19, 83.76 123.55 M83.76 123.55 C85.87 122.79, 87.97 122.02, 89.61 121.42 M83.76 123.55 C85.4 122.96, 87.04 122.36, 89.61 121.42 M89.61 121.42 C90.88 120.81, 92.16 120.19, 95.15 118.75 M89.61 121.42 C91.31 120.6, 93.01 119.78, 95.15 118.75 M95.15 118.75 C96.47 117.94, 97.79 117.14, 100.36 115.58 M95.15 118.75 C97.01 117.62, 98.87 116.48, 100.36 115.58 M100.36 115.58 C102.82 113.53, 105.29 111.48, 109.66 107.84 M100.36 115.58 C102.29 113.97, 104.23 112.36, 109.66 107.84 M109.66 107.84 C111.66 105.39, 113.66 102.94, 117.3 98.48 M109.66 107.84 C111.83 105.19, 113.99 102.54, 117.3 98.48 M117.3 98.48 C118.52 96.2, 119.74 93.93, 123.05 87.75 M117.3 98.48 C119.58 94.22, 121.86 89.96, 123.05 87.75 M123.05 87.75 C123.79 85.67, 124.54 83.6, 125.13 81.95 M123.05 87.75 C123.47 86.58, 123.89 85.41, 125.13 81.95 M125.13 81.95 C125.46 80.64, 125.79 79.34, 126.66 75.9 M125.13 81.95 C125.64 79.92, 126.15 77.89, 126.66 75.9 M126.66 75.9 C126.92 74.14, 127.19 72.38, 127.59 69.64 M126.66 75.9 C126.91 74.23, 127.16 72.56, 127.59 69.64 M127.59 69.64 C127.67 68.14, 127.74 66.63, 127.91 63.2 M127.59 69.64 C127.67 68.06, 127.75 66.48, 127.91 63.2 M127.91 63.2 C127.84 61.68, 127.76 60.16, 127.59 56.77 M127.91 63.2 C127.8 60.98, 127.69 58.76, 127.59 56.77 M127.59 56.77 C127.28 54.64, 126.96 52.51, 126.66 50.51 M127.59 56.77 C127.4 55.44, 127.2 54.12, 126.66 50.51 M126.66 50.51 C126.06 48.16, 125.47 45.8, 125.13 44.46 M126.66 50.51 C126.18 48.63, 125.71 46.74, 125.13 44.46 M125.13 44.46 C124.67 43.18, 124.21 41.9, 123.05 38.66 M125.13 44.46 C124.55 42.86, 123.98 41.25, 123.05 38.66 M123.05 38.66 C120.91 34.68, 118.78 30.7, 117.3 27.93 M123.05 38.66 C121.02 34.87, 118.99 31.08, 117.3 27.93 M117.3 27.93 C115.19 25.34, 113.08 22.75, 109.66 18.57 M117.3 27.93 C114.66 24.69, 112.02 21.45, 109.66 18.57 M109.66 18.57 C106.15 15.64, 102.63 12.72, 100.36 10.83 M109.66 18.57 C107.17 16.49, 104.67 14.42, 100.36 10.83 M100.36 10.83 C98.67 9.81, 96.99 8.78, 95.15 7.66 M100.36 10.83 C98.87 9.92, 97.38 9.02, 95.15 7.66 M95.15 7.66 C93.66 6.94, 92.17 6.22, 89.61 4.99 M95.15 7.66 C93.12 6.68, 91.09 5.7, 89.61 4.99 M89.61 4.99 C87.93 4.37, 86.24 3.76, 83.76 2.85 M89.61 4.99 C88.3 4.51, 87 4.04, 83.76 2.85 M83.76 2.85 C82.13 2.44, 80.49 2.02, 77.65 1.29 M83.76 2.85 C81.53 2.28, 79.29 1.71, 77.65 1.29 M77.65 1.29 C75.64 0.99, 73.64 0.68, 71.29 0.33 M77.65 1.29 C76.09 1.05, 74.53 0.82, 71.29 0.33 M71.29 0.33 C69.57 0.24, 67.85 0.16, 64.71 0 M71.29 0.33 C69.32 0.23, 67.35 0.13, 64.71 0 M64.71 0 C64.68 0, 64.65 0, 64.59 0 M64.71 0 C64.67 0, 64.64 0, 64.59 0 M64.59 0 C64.34 0, 64.1 0, 63.77 0 M64.59 0 C64.42 0, 64.25 0, 63.77 0 M63.77 0 C62.88 0, 61.99 0, 61.53 0 M63.77 0 C63.1 0, 62.42 0, 61.53 0 M61.53 0 C60.97 0, 60.4 0, 59.67 0 M61.53 0 C61.08 0, 60.63 0, 59.67 0 M59.67 0 C58.9 0, 58.13 0, 57.18 0 M59.67 0 C59.13 0, 58.6 0, 57.18 0 M57.18 0 C56.07 0, 54.96 0, 54 0 M57.18 0 C56 0, 54.82 0, 54 0 M54 0 C52.42 0, 50.84 0, 50.01 0 M54 0 C52.5 0, 51 0, 50.01 0 M50.01 0 C48.17 0, 46.33 0, 45.15 0 M50.01 0 C48.73 0, 47.45 0, 45.15 0 M45.15 0 C42.99 0, 40.82 0, 39.31 0 M45.15 0 C42.96 0, 40.78 0, 39.31 0 M39.31 0 C37.23 0, 35.14 0, 32.42 0 M39.31 0 C37.88 0, 36.45 0, 32.42 0 M32.42 0 C29.52 0, 26.63 0, 24.38 0 M32.42 0 C29.48 0, 26.54 0, 24.38 0 M24.38 0 C21.68 0, 18.97 0, 15.11 0 M24.38 0 C22.52 0, 20.66 0, 15.11 0 M15.11 0 C12.91 0, 10.72 0, 4.51 0 M15.11 0 C11.26 0, 7.42 0, 4.51 0 M4.51 0 C3.24 0, 1.96 0, 0 0 M4.51 0 C3.39 0, 2.27 0, 0 0 M0 0 C0 0, 0 0, 0 0 M0 0 C0 0, 0 0, 0 0 M0 0 C0 0, 0 0, 0 0 M0 0 C0 0, 0 0, 0 0" stroke="#000000" stroke-width="1" fill="none"/></g></g><mask/><g stroke-linecap="round"><g transform="translate(302.06644178624555 19.02916500428387) rotate(0 54.174993039511996 54.17498776534643)" fill-rule="evenodd"><path d="M0 0 L0 0 L9.02 0 L17.19 0 L24.5 0 L30.95 0 L36.54 0 L41.27 0 L45.15 0 L48.16 0 L50.64 0 L52.51 0 L54.74 0 L55.59 0 L55.68 0 L66.8 1.1 L76.92 4.24 L85.9 9.22 L93.58 15.83 L99.82 23.84 L104.46 33.04 L107.35 43.22 L108.35 54.17 L107.29 65.13 L104.22 75.31 L99.34 84.51 L92.83 92.52 L84.87 99.13 L75.65 104.11 L65.36 107.25 L54.17 108.35 L0 108.35 L0 0 L0 0" stroke="none" stroke-width="0" fill="#FFFFFF" fill-rule="evenodd"/><path d="M0 0 C0 0, 0 0, 0 0 M0 0 C0 0, 0 0, 0 0 M0 0 C2.6 0, 5.19 0, 9.02 0 M0 0 C2.52 0, 5.05 0, 9.02 0 M9.02 0 C11.6 0, 14.18 0, 17.19 0 M9.02 0 C10.98 0, 12.93 0, 17.19 0 M17.19 0 C19.02 0, 20.85 0, 24.5 0 M17.19 0 C20.01 0, 22.82 0, 24.5 0 M24.5 0 C26.22 0, 27.93 0, 30.95 0 M24.5 0 C25.91 0, 27.33 0, 30.95 0 M30.95 0 C32.91 0, 34.86 0, 36.54 0 M30.95 0 C32.57 0, 34.19 0, 36.54 0 M36.54 0 C37.51 0, 38.48 0, 41.27 0 M36.54 0 C37.68 0, 38.81 0, 41.27 0 M41.27 0 C42.26 0, 43.24 0, 45.15 0 M41.27 0 C42.65 0, 44.02 0, 45.15 0 M45.15 0 C46.18 0, 47.21 0, 48.16 0 M45.15 0 C45.77 0, 46.39 0, 48.16 0 M48.16 0 C49.01 0, 49.86 0, 50.64 0 M48.16 0 C48.66 0, 49.17 0, 50.64 0 M50.64 0 C51.12 0, 51.6 0, 52.51 0 M50.64 0 C51.08 0, 51.53 0, 52.51 0 M52.51 0 C52.99 0, 53.48 0, 54.74 0 M52.51 0 C53.01 0, 53.51 0, 54.74 0 M54.74 0 C55.07 0, 55.4 0, 55.59 0 M54.74 0 C55.04 0, 55.35 0, 55.59 0 M55.59 0 C55.62 0, 55.66 0, 55.68 0 M55.59 0 C55.61 0, 55.63 0, 55.68 0 M55.68 0 C59.52 0.38, 63.36 0.76, 66.8 1.1 M55.68 0 C58.05 0.23, 60.42 0.47, 66.8 1.1 M66.8 1.1 C70.52 2.25, 74.24 3.41, 76.92 4.24 M66.8 1.1 C70.03 2.1, 73.26 3.1, 76.92 4.24 M76.92 4.24 C80.43 6.19, 83.94 8.14, 85.9 9.22 M76.92 4.24 C80.02 5.96, 83.12 7.68, 85.9 9.22 M85.9 9.22 C87.49 10.59, 89.08 11.95, 93.58 15.83 M85.9 9.22 C87.95 10.98, 90 12.75, 93.58 15.83 M93.58 15.83 C95.83 18.71, 98.08 21.6, 99.82 23.84 M93.58 15.83 C95.56 18.37, 97.54 20.91, 99.82 23.84 M99.82 23.84 C101.46 27.09, 103.1 30.35, 104.46 33.04 M99.82 23.84 C101.36 26.9, 102.91 29.96, 104.46 33.04 M104.46 33.04 C105.47 36.61, 106.49 40.18, 107.35 43.22 M104.46 33.04 C105.04 35.09, 105.62 37.13, 107.35 43.22 M107.35 43.22 C107.73 47.34, 108.1 51.45, 108.35 54.17 M107.35 43.22 C107.56 45.48, 107.76 47.74, 108.35 54.17 M108.35 54.17 C108.11 56.6, 107.88 59.03, 107.29 65.13 M108.35 54.17 C108.05 57.22, 107.76 60.27, 107.29 65.13 M107.29 65.13 C106.52 67.69, 105.74 70.25, 104.22 75.31 M107.29 65.13 C106.25 68.57, 105.22 72.01, 104.22 75.31 M104.22 75.31 C102.76 78.07, 101.29 80.83, 99.34 84.51 M104.22 75.31 C102.55 78.47, 100.87 81.63, 99.34 84.51 M99.34 84.51 C97.54 86.74, 95.73 88.96, 92.83 92.52 M99.34 84.51 C97.79 86.43, 96.23 88.34, 92.83 92.52 M92.83 92.52 C90.65 94.33, 88.47 96.14, 84.87 99.13 M92.83 92.52 C89.65 95.16, 86.46 97.8, 84.87 99.13 M84.87 99.13 C81.54 100.93, 78.21 102.72, 75.65 104.11 M84.87 99.13 C81.36 101.03, 77.84 102.93, 75.65 104.11 M75.65 104.11 C72.6 105.04, 69.55 105.97, 65.36 107.25 M75.65 104.11 C71.91 105.25, 68.18 106.39, 65.36 107.25 M65.36 107.25 C61.72 107.61, 58.08 107.97, 54.17 108.35 M65.36 107.25 C62.02 107.58, 58.68 107.91, 54.17 108.35 M54.17 108.35 C38.73 108.35, 23.28 108.35, 0 108.35 M54.17 108.35 C34.71 108.35, 15.24 108.35, 0 108.35 M0 108.35 C0 85.9, 0 63.45, 0 0 M0 108.35 C0 77.53, 0 46.72, 0 0 M0 0 C0 0, 0 0, 0 0 M0 0 C0 0, 0 0, 0 0 M0 0 C0 0, 0 0, 0 0 M0 0 C0 0, 0 0, 0 0" stroke="#000000" stroke-width="1" fill="none"/></g></g><mask/><g transform="translate(11.664590960176156 26.01502088660129) rotate(0 9.49462890625 16.373099909978976)"><text x="0" y="26.197516007457878" font-family="Helvetica, Segoe UI Emoji" font-size="28.47495636518084px" fill="#1e1e1e" text-anchor="start" style="white-space: pre;" direction="ltr" dominant-baseline="alphabetic">A</text></g><g transform="translate(10 91.83371239442755) rotate(0 9.49462890625 16.373099909978983)"><text x="0" y="26.197516007457878" font-family="Helvetica, Segoe UI Emoji" font-size="28.47495636518084px" fill="#1e1e1e" text-anchor="start" style="white-space: pre;" direction="ltr" dominant-baseline="alphabetic">B</text></g><g transform="translate(475.1637246759213 56.142484420503024) rotate(0 19.78858184814453 16.373099909978976)"><text x="0" y="26.197516007457878" font-family="Helvetica, Segoe UI Emoji" font-size="28.47495636518084px" fill="#1e1e1e" text-anchor="start" style="white-space: pre;" direction="ltr" dominant-baseline="alphabetic">out</text></g><g stroke-linecap="round"><g transform="translate(44.46619990704244 107.5122177584409) rotate(0 33.766703256151516 0)"><path d="M0 0 C11.26 0, 56.28 0, 67.53 0 M0 0 C11.26 0, 56.28 0, 67.53 0" stroke="#000000" stroke-width="4" fill="none"/></g></g><mask/><g stroke-linecap="round"><g transform="translate(41.57191841707254 40.87857606844818) rotate(0 126.62515561196105 0)"><path d="M0 0 C42.21 0, 211.04 0, 253.25 0 M0 0 C42.21 0, 211.04 0, 253.25 0" stroke="#000000" stroke-width="4" fill="none"/></g></g><mask/><g stroke-linecap="round"><g transform="translate(225.84166398231355 107.5122177584409) rotate(0 34.49028282934049 0)"><path d="M0 0 C11.5 0, 57.48 0, 68.98 0 M0 0 C11.5 0, 57.48 0, 68.98 0" stroke="#000000" stroke-width="4" fill="none"/></g></g><mask/><g stroke-linecap="round"><g transform="translate(419.7590022465264 72.51558433048211) rotate(0 24.119073754393924 0)"><path d="M0 0 C8.04 0, 40.2 0, 48.24 0 M0 0 C8.04 0, 40.2 0, 48.24 0" stroke="#000000" stroke-width="4" fill="none"/></g></g><mask/><g transform="translate(320.88316550595493 57.599991332265574) rotate(0 31.12096405029297 16.95381627457735)"><text x="0" y="27.12668191623525" font-family="Helvetica, Segoe UI Emoji" font-size="29.48489786883016px" fill="#1e1e1e" text-anchor="start" style="white-space: pre;" direction="ltr" dominant-baseline="alphabetic">AND</text></g><g transform="translate(125.1703987148669 96.34280382802115) rotate(0 19.129513924197454 13.198988012466494)"><text x="0" y="21.118829155137032" font-family="Helvetica, Segoe UI Emoji" font-size="22.954761760811298px" fill="#1e1e1e" text-anchor="start" style="white-space: pre;" direction="ltr" dominant-baseline="alphabetic">INV</text></g></svg>