<svg version="1.1" xmlns="http://www.w3.org/2000/svg" viewBox="0 0 1106.214326605464 741.0632596140499" width="1106.214326605464" height="741.0632596140499" class="excalidraw-svg">
  <!-- svg-source:excalidraw -->
  
  <defs>
    <style class="style-fonts">
      @font-face {
        font-family: "Virgil";
        src: url("https://excalidraw.com/Virgil.woff2");
      }
      @font-face {
        font-family: "Cascadia";
        src: url("https://excalidraw.com/Cascadia.woff2");
      }
      @font-face {
        font-family: "Assistant";
        src: url("https://excalidraw.com/Assistant-Regular.woff2");
      }
    </style>
    
  </defs>
  <g stroke-linecap="round" transform="translate(10 98.64593519890212) rotate(0 266.2237211462058 211.9063880916107)"><path d="M32 0 C164.44 0, 296.87 0, 500.45 0 C521.78 0, 532.45 10.67, 532.45 32 C532.45 174.15, 532.45 316.29, 532.45 391.81 C532.45 413.15, 521.78 423.81, 500.45 423.81 C344.98 423.81, 189.51 423.81, 32 423.81 C10.67 423.81, 0 413.15, 0 391.81 C0 282.41, 0 173, 0 32 C0 10.67, 10.67 0, 32 0" stroke="none" stroke-width="0" fill="#a5d8ff"/><path d="M32 0 C160.55 0, 289.09 0, 500.45 0 M32 0 C192.58 0, 353.17 0, 500.45 0 M500.45 0 C521.78 0, 532.45 10.67, 532.45 32 M500.45 0 C521.78 0, 532.45 10.67, 532.45 32 M532.45 32 C532.45 140.3, 532.45 248.6, 532.45 391.81 M532.45 32 C532.45 104.86, 532.45 177.72, 532.45 391.81 M532.45 391.81 C532.45 413.15, 521.78 423.81, 500.45 423.81 M532.45 391.81 C532.45 413.15, 521.78 423.81, 500.45 423.81 M500.45 423.81 C397.66 423.81, 294.88 423.81, 32 423.81 M500.45 423.81 C338.76 423.81, 177.07 423.81, 32 423.81 M32 423.81 C10.67 423.81, 0 413.15, 0 391.81 M32 423.81 C10.67 423.81, 0 413.15, 0 391.81 M0 391.81 C0 248.28, 0 104.76, 0 32 M0 391.81 C0 251.8, 0 111.78, 0 32 M0 32 C0 10.67, 10.67 0, 32 0 M0 32 C0 10.67, 10.67 0, 32 0" stroke="#1e1e1e" stroke-width="2" fill="none"/></g><g transform="translate(82.3566242531471 10.000000292906634) rotate(0 206.63629150390625 31.45225997663684)"><text x="0" y="50.32468431384097" font-family="Helvetica, Segoe UI Emoji" font-size="54.699582568064066px" fill="#1e1e1e" text-anchor="start" style="white-space: pre;" direction="ltr" dominant-baseline="alphabetic">Prozessor (CPU)</text></g><g stroke-linecap="round" transform="translate(28.31297192234365 171.0952345760242) rotate(0 107.90942313344996 87.86909356100223)"><path d="M32 0 C89.31 0, 146.62 0, 183.82 0 C205.15 0, 215.82 10.67, 215.82 32 C215.82 64.49, 215.82 96.97, 215.82 143.74 C215.82 165.07, 205.15 175.74, 183.82 175.74 C127.93 175.74, 72.05 175.74, 32 175.74 C10.67 175.74, 0 165.07, 0 143.74 C0 113.35, 0 82.96, 0 32 C0 10.67, 10.67 0, 32 0" stroke="none" stroke-width="0" fill="#ffec99"/><path d="M32 0 C68.06 0, 104.12 0, 183.82 0 M32 0 C92.04 0, 152.07 0, 183.82 0 M183.82 0 C205.15 0, 215.82 10.67, 215.82 32 M183.82 0 C205.15 0, 215.82 10.67, 215.82 32 M215.82 32 C215.82 62.45, 215.82 92.91, 215.82 143.74 M215.82 32 C215.82 57.72, 215.82 83.44, 215.82 143.74 M215.82 143.74 C215.82 165.07, 205.15 175.74, 183.82 175.74 M215.82 143.74 C215.82 165.07, 205.15 175.74, 183.82 175.74 M183.82 175.74 C134.15 175.74, 84.48 175.74, 32 175.74 M183.82 175.74 C136.29 175.74, 88.76 175.74, 32 175.74 M32 175.74 C10.67 175.74, 0 165.07, 0 143.74 M32 175.74 C10.67 175.74, 0 165.07, 0 143.74 M0 143.74 C0 116.81, 0 89.89, 0 32 M0 143.74 C0 113.89, 0 84.04, 0 32 M0 32 C0 10.67, 10.67 0, 32 0 M0 32 C0 10.67, 10.67 0, 32 0" stroke="#1e1e1e" stroke-width="2" fill="none"/></g><g transform="translate(65.52170620928138 139.92741715102215) rotate(0 76.6796875 11.5)"><text x="0" y="18.400390625" font-family="Helvetica, Segoe UI Emoji" font-size="20px" fill="#1e1e1e" text-anchor="start" style="white-space: pre;" direction="ltr" dominant-baseline="alphabetic">Control Unit (CU)</text></g><g transform="translate(63.30296511466946 206.86691698098122) rotate(0 25.009765625 11.5)"><text x="0" y="18.400390625" font-family="Helvetica, Segoe UI Emoji" font-size="20px" fill="#1e1e1e" text-anchor="start" style="white-space: pre;" direction="ltr" dominant-baseline="alphabetic">Fetch</text></g><g transform="translate(73.86755242199405 229.419407405508) rotate(0 14.866706848144531 6.479101419128085)"><text x="0" y="10.36678234877814" font-family="Helvetica, Segoe UI Emoji" font-size="11.268002468048845px" fill="#1e1e1e" text-anchor="start" style="white-space: pre;" direction="ltr" dominant-baseline="alphabetic">IP + 1</text></g><g transform="translate(151.30682820612145 208.0166693243525) rotate(0 34.4677734375 11.5)"><text x="0" y="18.400390625" font-family="Helvetica, Segoe UI Emoji" font-size="20px" fill="#1e1e1e" text-anchor="start" style="white-space: pre;" direction="ltr" dominant-baseline="alphabetic">Decode</text></g><g transform="translate(153.10216933656926 283.3838699711468) rotate(0 36.1328125 11.5)"><text x="0" y="18.400390625" font-family="Helvetica, Segoe UI Emoji" font-size="20px" fill="#1e1e1e" text-anchor="start" style="white-space: pre;" direction="ltr" dominant-baseline="alphabetic">Execute</text></g><g transform="translate(59.1326774645043 280.88169738104784) rotate(0 30.5615234375 11.5)"><text x="0" y="18.400390625" font-family="Helvetica, Segoe UI Emoji" font-size="20px" fill="#1e1e1e" text-anchor="start" style="white-space: pre;" direction="ltr" dominant-baseline="alphabetic">(Store)</text></g><g stroke-linecap="round"><g transform="translate(126.63250426544607 222.22027329033733) rotate(0 7.784445032797322 -0.27801210635632856)"><path d="M0 0 C2.59 -0.09, 12.97 -0.46, 15.57 -0.56 M0 0 C2.59 -0.09, 12.97 -0.46, 15.57 -0.56" stroke="#1e1e1e" stroke-width="2" fill="none"/></g><g transform="translate(126.63250426544607 222.22027329033733) rotate(0 7.784445032797322 -0.27801210635632856)"><path d="M8.35 2.37 C10.19 1.62, 12.03 0.88, 15.57 -0.56 M8.35 2.37 C10.91 1.33, 13.48 0.29, 15.57 -0.56" stroke="#1e1e1e" stroke-width="2" fill="none"/></g><g transform="translate(126.63250426544607 222.22027329033733) rotate(0 7.784445032797322 -0.27801210635632856)"><path d="M8.16 -2.96 C10.05 -2.35, 11.94 -1.73, 15.57 -0.56 M8.16 -2.96 C10.79 -2.1, 13.42 -1.25, 15.57 -0.56" stroke="#1e1e1e" stroke-width="2" fill="none"/></g></g><mask/><g stroke-linecap="round"><g transform="translate(180.9038466134109 253.25035017629955) rotate(0 0 8.896514669186672)"><path d="M0 0 C0 2.97, 0 14.83, 0 17.79 M0 0 C0 2.97, 0 14.83, 0 17.79" stroke="#1e1e1e" stroke-width="2" fill="none"/></g><g transform="translate(180.9038466134109 253.25035017629955) rotate(0 0 8.896514669186672)"><path d="M-3.04 9.43 C-2.38 11.24, -1.73 13.05, 0 17.79 M-3.04 9.43 C-2.16 11.86, -1.27 14.29, 0 17.79" stroke="#1e1e1e" stroke-width="2" fill="none"/></g><g transform="translate(180.9038466134109 253.25035017629955) rotate(0 0 8.896514669186672)"><path d="M3.04 9.43 C2.38 11.24, 1.73 13.05, 0 17.79 M3.04 9.43 C2.16 11.86, 1.27 14.29, 0 17.79" stroke="#1e1e1e" stroke-width="2" fill="none"/></g></g><mask/><g stroke-linecap="round"><g transform="translate(140.31348517839416 295.0605481258249) rotate(0 -5.282314864626386 0.27803331732042125)"><path d="M0 0 C-1.76 0.09, -8.8 0.46, -10.56 0.56 M0 0 C-1.76 0.09, -8.8 0.46, -10.56 0.56" stroke="#1e1e1e" stroke-width="2" fill="none"/></g><g transform="translate(140.31348517839416 295.0605481258249) rotate(0 -5.282314864626386 0.27803331732042125)"><path d="M-5.7 -1.51 C-7.19 -0.88, -8.68 -0.24, -10.56 0.56 M-5.7 -1.51 C-6.71 -1.08, -7.71 -0.65, -10.56 0.56" stroke="#1e1e1e" stroke-width="2" fill="none"/></g><g transform="translate(140.31348517839416 295.0605481258249) rotate(0 -5.282314864626386 0.27803331732042125)"><path d="M-5.51 2.1 C-7.06 1.63, -8.61 1.15, -10.56 0.56 M-5.51 2.1 C-6.55 1.78, -7.6 1.46, -10.56 0.56" stroke="#1e1e1e" stroke-width="2" fill="none"/></g></g><mask/><g stroke-linecap="round"><g transform="translate(91.93861507768781 270.37100411826486) rotate(0 -0.27801210635632856 -8.618502562830315)"><path d="M0 0 C-0.09 -2.87, -0.46 -14.36, -0.56 -17.24 M0 0 C-0.09 -2.87, -0.46 -14.36, -0.56 -17.24" stroke="#1e1e1e" stroke-width="2" fill="none"/></g><g transform="translate(91.93861507768781 270.37100411826486) rotate(0 -0.27801210635632856 -8.618502562830315)"><path d="M2.65 -9.23 C1.94 -11.01, 1.22 -12.8, -0.56 -17.24 M2.65 -9.23 C2 -10.86, 1.35 -12.49, -0.56 -17.24" stroke="#1e1e1e" stroke-width="2" fill="none"/></g><g transform="translate(91.93861507768781 270.37100411826486) rotate(0 -0.27801210635632856 -8.618502562830315)"><path d="M-3.24 -9.04 C-2.64 -10.87, -2.05 -12.69, -0.56 -17.24 M-3.24 -9.04 C-2.7 -10.71, -2.15 -12.37, -0.56 -17.24" stroke="#1e1e1e" stroke-width="2" fill="none"/></g></g><mask/><g stroke-linecap="round" transform="translate(298.40786839592954 174.44306813273428) rotate(0 107.90942313344996 87.86909356100223)"><path d="M32 0 C92.25 0, 152.49 0, 183.82 0 C205.15 0, 215.82 10.67, 215.82 32 C215.82 74.14, 215.82 116.29, 215.82 143.74 C215.82 165.07, 205.15 175.74, 183.82 175.74 C140.64 175.74, 97.46 175.74, 32 175.74 C10.67 175.74, 0 165.07, 0 143.74 C0 119.7, 0 95.67, 0 32 C0 10.67, 10.67 0, 32 0" stroke="none" stroke-width="0" fill="#ffec99"/><path d="M32 0 C86.68 0, 141.37 0, 183.82 0 M32 0 C81.04 0, 130.08 0, 183.82 0 M183.82 0 C205.15 0, 215.82 10.67, 215.82 32 M183.82 0 C205.15 0, 215.82 10.67, 215.82 32 M215.82 32 C215.82 56.73, 215.82 81.45, 215.82 143.74 M215.82 32 C215.82 73.14, 215.82 114.29, 215.82 143.74 M215.82 143.74 C215.82 165.07, 205.15 175.74, 183.82 175.74 M215.82 143.74 C215.82 165.07, 205.15 175.74, 183.82 175.74 M183.82 175.74 C148.25 175.74, 112.67 175.74, 32 175.74 M183.82 175.74 C140.45 175.74, 97.08 175.74, 32 175.74 M32 175.74 C10.67 175.74, 0 165.07, 0 143.74 M32 175.74 C10.67 175.74, 0 165.07, 0 143.74 M0 143.74 C0 102.92, 0 62.11, 0 32 M0 143.74 C0 117.74, 0 91.74, 0 32 M0 32 C0 10.67, 10.67 0, 32 0 M0 32 C0 10.67, 10.67 0, 32 0" stroke="#1e1e1e" stroke-width="2" fill="none"/></g><g transform="translate(332.95791674266945 116.92741678367338) rotate(0 73.359375 23)"><text x="73.359375" y="18.400390625" font-family="Helvetica, Segoe UI Emoji" font-size="20px" fill="#1e1e1e" text-anchor="middle" style="white-space: pre;" direction="ltr" dominant-baseline="alphabetic">Arithemtic &amp; </text><text x="73.359375" y="41.400390625" font-family="Helvetica, Segoe UI Emoji" font-size="20px" fill="#1e1e1e" text-anchor="middle" style="white-space: pre;" direction="ltr" dominant-baseline="alphabetic">Logic Unit (ALU)</text></g><g transform="translate(363.3679592801963 216.3132238899185) rotate(0 43.623046875 11.5)"><text x="43.623046875" y="18.400390625" font-family="Helvetica, Segoe UI Emoji" font-size="20px" fill="#1e1e1e" text-anchor="middle" style="white-space: pre;" direction="ltr" dominant-baseline="alphabetic">+, -, *, / ...</text></g><g transform="translate(330.6860321227326 268.08134362100384) rotate(0 77.2314453125 11.5)"><text x="77.2314453125" y="18.400390625" font-family="Helvetica, Segoe UI Emoji" font-size="20px" fill="#1e1e1e" text-anchor="middle" style="white-space: pre;" direction="ltr" dominant-baseline="alphabetic">AND, OR, XOR...</text></g><g transform="translate(163.15031214764352 396.2352706841219) rotate(0 112.27050781249999 11.5)"><text x="0" y="18.400390625" font-family="Helvetica, Segoe UI Emoji" font-size="20px" fill="#1e1e1e" text-anchor="start" style="white-space: pre;" direction="ltr" dominant-baseline="alphabetic">Speicherzellen (Register)</text></g><g stroke-linecap="round" transform="translate(37.61733809958406 431.00505636155987) rotate(0 62.76648699113932 29.77606231324623)"><path d="M14.89 0 C35.17 0, 55.45 0, 110.64 0 C120.57 0, 125.53 4.96, 125.53 14.89 C125.53 23.47, 125.53 32.05, 125.53 44.66 C125.53 54.59, 120.57 59.55, 110.64 59.55 C87.61 59.55, 64.57 59.55, 14.89 59.55 C4.96 59.55, 0 54.59, 0 44.66 C0 35.55, 0 26.43, 0 14.89 C0 4.96, 4.96 0, 14.89 0" stroke="none" stroke-width="0" fill="#ffec99"/><path d="M14.89 0 C41.3 0, 67.71 0, 110.64 0 M14.89 0 C35.1 0, 55.31 0, 110.64 0 M110.64 0 C120.57 0, 125.53 4.96, 125.53 14.89 M110.64 0 C120.57 0, 125.53 4.96, 125.53 14.89 M125.53 14.89 C125.53 20.91, 125.53 26.93, 125.53 44.66 M125.53 14.89 C125.53 24.9, 125.53 34.91, 125.53 44.66 M125.53 44.66 C125.53 54.59, 120.57 59.55, 110.64 59.55 M125.53 44.66 C125.53 54.59, 120.57 59.55, 110.64 59.55 M110.64 59.55 C90.6 59.55, 70.56 59.55, 14.89 59.55 M110.64 59.55 C80.6 59.55, 50.55 59.55, 14.89 59.55 M14.89 59.55 C4.96 59.55, 0 54.59, 0 44.66 M14.89 59.55 C4.96 59.55, 0 54.59, 0 44.66 M0 44.66 C0 33.55, 0 22.44, 0 14.89 M0 44.66 C0 37.86, 0 31.05, 0 14.89 M0 14.89 C0 4.96, 4.96 0, 14.89 0 M0 14.89 C0 4.96, 4.96 0, 14.89 0" stroke="#1e1e1e" stroke-width="2" fill="none"/></g><g transform="translate(49.812536028223384 437.78111867480607) rotate(0 50.5712890625 23)"><text x="50.5712890625" y="18.400390625" font-family="Helvetica, Segoe UI Emoji" font-size="20px" fill="#1e1e1e" text-anchor="middle" style="white-space: pre;" direction="ltr" dominant-baseline="alphabetic">Instruction</text><text x="50.5712890625" y="41.400390625" font-family="Helvetica, Segoe UI Emoji" font-size="20px" fill="#1e1e1e" text-anchor="middle" style="white-space: pre;" direction="ltr" dominant-baseline="alphabetic">Pointer (IP)</text></g><g stroke-linecap="round" transform="translate(170.8564867593471 431.00505636155987) rotate(0 62.76648699113932 29.77606231324623)"><path d="M14.89 0 C52.61 0, 90.33 0, 110.64 0 C120.57 0, 125.53 4.96, 125.53 14.89 C125.53 23.04, 125.53 31.19, 125.53 44.66 C125.53 54.59, 120.57 59.55, 110.64 59.55 C75.72 59.55, 40.79 59.55, 14.89 59.55 C4.96 59.55, 0 54.59, 0 44.66 C0 37.04, 0 29.42, 0 14.89 C0 4.96, 4.96 0, 14.89 0" stroke="none" stroke-width="0" fill="#ffec99"/><path d="M14.89 0 C45 0, 75.12 0, 110.64 0 M14.89 0 C42.49 0, 70.08 0, 110.64 0 M110.64 0 C120.57 0, 125.53 4.96, 125.53 14.89 M110.64 0 C120.57 0, 125.53 4.96, 125.53 14.89 M125.53 14.89 C125.53 23.69, 125.53 32.48, 125.53 44.66 M125.53 14.89 C125.53 25.79, 125.53 36.7, 125.53 44.66 M125.53 44.66 C125.53 54.59, 120.57 59.55, 110.64 59.55 M125.53 44.66 C125.53 54.59, 120.57 59.55, 110.64 59.55 M110.64 59.55 C90.81 59.55, 70.97 59.55, 14.89 59.55 M110.64 59.55 C84.26 59.55, 57.87 59.55, 14.89 59.55 M14.89 59.55 C4.96 59.55, 0 54.59, 0 44.66 M14.89 59.55 C4.96 59.55, 0 54.59, 0 44.66 M0 44.66 C0 37.35, 0 30.03, 0 14.89 M0 44.66 C0 36.43, 0 28.2, 0 14.89 M0 14.89 C0 4.96, 4.96 0, 14.89 0 M0 14.89 C0 4.96, 4.96 0, 14.89 0" stroke="#1e1e1e" stroke-width="2" fill="none"/></g><g transform="translate(178.0468018754864 449.28111867480607) rotate(0 55.576171874999986 11.5)"><text x="55.576171875" y="18.400390625" font-family="Helvetica, Segoe UI Emoji" font-size="20px" fill="#1e1e1e" text-anchor="middle" style="white-space: pre;" direction="ltr" dominant-baseline="alphabetic">Akkumulator</text></g><g stroke-linecap="round" transform="translate(304.09563541911007 431.00505636155987) rotate(0 31.772774100012356 29.77606231324623)"><path d="M14.89 0 C23.8 0, 32.7 0, 48.66 0 C58.58 0, 63.55 4.96, 63.55 14.89 C63.55 22.55, 63.55 30.21, 63.55 44.66 C63.55 54.59, 58.58 59.55, 48.66 59.55 C38.44 59.55, 28.22 59.55, 14.89 59.55 C4.96 59.55, 0 54.59, 0 44.66 C0 36.53, 0 28.4, 0 14.89 C0 4.96, 4.96 0, 14.89 0" stroke="none" stroke-width="0" fill="#ffec99"/><path d="M14.89 0 C24.39 0, 33.89 0, 48.66 0 M14.89 0 C23.53 0, 32.16 0, 48.66 0 M48.66 0 C58.58 0, 63.55 4.96, 63.55 14.89 M48.66 0 C58.58 0, 63.55 4.96, 63.55 14.89 M63.55 14.89 C63.55 26.21, 63.55 37.54, 63.55 44.66 M63.55 14.89 C63.55 25.98, 63.55 37.07, 63.55 44.66 M63.55 44.66 C63.55 54.59, 58.58 59.55, 48.66 59.55 M63.55 44.66 C63.55 54.59, 58.58 59.55, 48.66 59.55 M48.66 59.55 C37.87 59.55, 27.09 59.55, 14.89 59.55 M48.66 59.55 C40.82 59.55, 32.98 59.55, 14.89 59.55 M14.89 59.55 C4.96 59.55, 0 54.59, 0 44.66 M14.89 59.55 C4.96 59.55, 0 54.59, 0 44.66 M0 44.66 C0 36.49, 0 28.31, 0 14.89 M0 44.66 C0 38.12, 0 31.58, 0 14.89 M0 14.89 C0 4.96, 4.96 0, 14.89 0 M0 14.89 C0 4.96, 4.96 0, 14.89 0" stroke="#1e1e1e" stroke-width="2" fill="none"/></g><g transform="translate(323.0852063941224 449.28111867480607) rotate(0 12.783203125 11.5)"><text x="12.783203125" y="18.400390625" font-family="Helvetica, Segoe UI Emoji" font-size="20px" fill="#1e1e1e" text-anchor="middle" style="white-space: pre;" direction="ltr" dominant-baseline="alphabetic">R1</text></g><g stroke-linecap="round" transform="translate(375.3473582966192 431.00505636155987) rotate(0 31.772774100012356 29.77606231324623)"><path d="M14.89 0 C22.02 0, 29.15 0, 48.66 0 C58.58 0, 63.55 4.96, 63.55 14.89 C63.55 25.16, 63.55 35.43, 63.55 44.66 C63.55 54.59, 58.58 59.55, 48.66 59.55 C41.25 59.55, 33.84 59.55, 14.89 59.55 C4.96 59.55, 0 54.59, 0 44.66 C0 37.8, 0 30.94, 0 14.89 C0 4.96, 4.96 0, 14.89 0" stroke="none" stroke-width="0" fill="#ffec99"/><path d="M14.89 0 C22.21 0, 29.53 0, 48.66 0 M14.89 0 C25.3 0, 35.71 0, 48.66 0 M48.66 0 C58.58 0, 63.55 4.96, 63.55 14.89 M48.66 0 C58.58 0, 63.55 4.96, 63.55 14.89 M63.55 14.89 C63.55 22.03, 63.55 29.16, 63.55 44.66 M63.55 14.89 C63.55 24.71, 63.55 34.53, 63.55 44.66 M63.55 44.66 C63.55 54.59, 58.58 59.55, 48.66 59.55 M63.55 44.66 C63.55 54.59, 58.58 59.55, 48.66 59.55 M48.66 59.55 C41.47 59.55, 34.28 59.55, 14.89 59.55 M48.66 59.55 C35.58 59.55, 22.51 59.55, 14.89 59.55 M14.89 59.55 C4.96 59.55, 0 54.59, 0 44.66 M14.89 59.55 C4.96 59.55, 0 54.59, 0 44.66 M0 44.66 C0 37.7, 0 30.74, 0 14.89 M0 44.66 C0 37.33, 0 29.99, 0 14.89 M0 14.89 C0 4.96, 4.96 0, 14.89 0 M0 14.89 C0 4.96, 4.96 0, 14.89 0" stroke="#1e1e1e" stroke-width="2" fill="none"/></g><g transform="translate(394.3369292716315 449.28111867480607) rotate(0 12.783203125 11.5)"><text x="12.783203125" y="18.400390625" font-family="Helvetica, Segoe UI Emoji" font-size="20px" fill="#1e1e1e" text-anchor="middle" style="white-space: pre;" direction="ltr" dominant-baseline="alphabetic">R2</text></g><g stroke-linecap="round" transform="translate(446.5990811741283 431.00505636155987) rotate(0 31.772774100012356 29.77606231324623)"><path d="M14.89 0 C24.7 0, 34.52 0, 48.66 0 C58.58 0, 63.55 4.96, 63.55 14.89 C63.55 22.43, 63.55 29.98, 63.55 44.66 C63.55 54.59, 58.58 59.55, 48.66 59.55 C41.31 59.55, 33.97 59.55, 14.89 59.55 C4.96 59.55, 0 54.59, 0 44.66 C0 37.29, 0 29.92, 0 14.89 C0 4.96, 4.96 0, 14.89 0" stroke="none" stroke-width="0" fill="#ffec99"/><path d="M14.89 0 C28.21 0, 41.53 0, 48.66 0 M14.89 0 C27.49 0, 40.1 0, 48.66 0 M48.66 0 C58.58 0, 63.55 4.96, 63.55 14.89 M48.66 0 C58.58 0, 63.55 4.96, 63.55 14.89 M63.55 14.89 C63.55 20.84, 63.55 26.8, 63.55 44.66 M63.55 14.89 C63.55 21.11, 63.55 27.33, 63.55 44.66 M63.55 44.66 C63.55 54.59, 58.58 59.55, 48.66 59.55 M63.55 44.66 C63.55 54.59, 58.58 59.55, 48.66 59.55 M48.66 59.55 C39.38 59.55, 30.09 59.55, 14.89 59.55 M48.66 59.55 C41.2 59.55, 33.75 59.55, 14.89 59.55 M14.89 59.55 C4.96 59.55, 0 54.59, 0 44.66 M14.89 59.55 C4.96 59.55, 0 54.59, 0 44.66 M0 44.66 C0 34.77, 0 24.88, 0 14.89 M0 44.66 C0 34.84, 0 25.03, 0 14.89 M0 14.89 C0 4.96, 4.96 0, 14.89 0 M0 14.89 C0 4.96, 4.96 0, 14.89 0" stroke="#1e1e1e" stroke-width="2" fill="none"/></g><g transform="translate(465.5886521491406 449.28111867480607) rotate(0 12.783203125 11.5)"><text x="12.783203125" y="18.400390625" font-family="Helvetica, Segoe UI Emoji" font-size="20px" fill="#1e1e1e" text-anchor="middle" style="white-space: pre;" direction="ltr" dominant-baseline="alphabetic">R3</text></g><g stroke-linecap="round" transform="translate(801.3895595120346 98.64593577966622) rotate(0 108.85346612032777 211.9063880916107)"><path d="M32 0 C71.69 0, 111.37 0, 185.71 0 C207.04 0, 217.71 10.67, 217.71 32 C217.71 173.55, 217.71 315.1, 217.71 391.81 C217.71 413.15, 207.04 423.81, 185.71 423.81 C143.55 423.81, 101.39 423.81, 32 423.81 C10.67 423.81, 0 413.15, 0 391.81 C0 256.04, 0 120.26, 0 32 C0 10.67, 10.67 0, 32 0" stroke="none" stroke-width="0" fill="#a5d8ff"/><path d="M32 0 C71.59 0, 111.18 0, 185.71 0 M32 0 C81.52 0, 131.04 0, 185.71 0 M185.71 0 C207.04 0, 217.71 10.67, 217.71 32 M185.71 0 C207.04 0, 217.71 10.67, 217.71 32 M217.71 32 C217.71 162.26, 217.71 292.53, 217.71 391.81 M217.71 32 C217.71 104.82, 217.71 177.65, 217.71 391.81 M217.71 391.81 C217.71 413.15, 207.04 423.81, 185.71 423.81 M217.71 391.81 C217.71 413.15, 207.04 423.81, 185.71 423.81 M185.71 423.81 C153.66 423.81, 121.61 423.81, 32 423.81 M185.71 423.81 C139.12 423.81, 92.53 423.81, 32 423.81 M32 423.81 C10.67 423.81, 0 413.15, 0 391.81 M32 423.81 C10.67 423.81, 0 413.15, 0 391.81 M0 391.81 C0 251.74, 0 111.66, 0 32 M0 391.81 C0 265.58, 0 139.34, 0 32 M0 32 C0 10.67, 10.67 0, 32 0 M0 32 C0 10.67, 10.67 0, 32 0" stroke="#1e1e1e" stroke-width="2" fill="none"/></g><g transform="translate(725.5614945742142 10) rotate(0 185.32641601562494 31.45225997663684)"><text x="0" y="50.32468431384097" font-family="Helvetica, Segoe UI Emoji" font-size="54.699582568064066px" fill="#1e1e1e" text-anchor="start" style="white-space: pre;" direction="ltr" dominant-baseline="alphabetic">Memory (RAM)</text></g><g transform="translate(837.518770477915 128.13596027735974) rotate(0 36.6845703125 184)"><text x="36.6845703125" y="18.400390625" font-family="Helvetica, Segoe UI Emoji" font-size="20px" fill="#1e1e1e" text-anchor="middle" style="white-space: pre;" direction="ltr" dominant-baseline="alphabetic">Adresse</text><text x="36.6845703125" y="41.400390625" font-family="Helvetica, Segoe UI Emoji" font-size="20px" fill="#1e1e1e" text-anchor="middle" style="white-space: pre;" direction="ltr" dominant-baseline="alphabetic"/><text x="36.6845703125" y="64.400390625" font-family="Helvetica, Segoe UI Emoji" font-size="20px" fill="#1e1e1e" text-anchor="middle" style="white-space: pre;" direction="ltr" dominant-baseline="alphabetic">0</text><text x="36.6845703125" y="87.400390625" font-family="Helvetica, Segoe UI Emoji" font-size="20px" fill="#1e1e1e" text-anchor="middle" style="white-space: pre;" direction="ltr" dominant-baseline="alphabetic">1</text><text x="36.6845703125" y="110.400390625" font-family="Helvetica, Segoe UI Emoji" font-size="20px" fill="#1e1e1e" text-anchor="middle" style="white-space: pre;" direction="ltr" dominant-baseline="alphabetic">2</text><text x="36.6845703125" y="133.400390625" font-family="Helvetica, Segoe UI Emoji" font-size="20px" fill="#1e1e1e" text-anchor="middle" style="white-space: pre;" direction="ltr" dominant-baseline="alphabetic">3</text><text x="36.6845703125" y="156.400390625" font-family="Helvetica, Segoe UI Emoji" font-size="20px" fill="#1e1e1e" text-anchor="middle" style="white-space: pre;" direction="ltr" dominant-baseline="alphabetic">4</text><text x="36.6845703125" y="179.400390625" font-family="Helvetica, Segoe UI Emoji" font-size="20px" fill="#1e1e1e" text-anchor="middle" style="white-space: pre;" direction="ltr" dominant-baseline="alphabetic">5</text><text x="36.6845703125" y="202.400390625" font-family="Helvetica, Segoe UI Emoji" font-size="20px" fill="#1e1e1e" text-anchor="middle" style="white-space: pre;" direction="ltr" dominant-baseline="alphabetic">6</text><text x="36.6845703125" y="225.400390625" font-family="Helvetica, Segoe UI Emoji" font-size="20px" fill="#1e1e1e" text-anchor="middle" style="white-space: pre;" direction="ltr" dominant-baseline="alphabetic">7</text><text x="36.6845703125" y="248.400390625" font-family="Helvetica, Segoe UI Emoji" font-size="20px" fill="#1e1e1e" text-anchor="middle" style="white-space: pre;" direction="ltr" dominant-baseline="alphabetic">8</text><text x="36.6845703125" y="271.400390625" font-family="Helvetica, Segoe UI Emoji" font-size="20px" fill="#1e1e1e" text-anchor="middle" style="white-space: pre;" direction="ltr" dominant-baseline="alphabetic">9</text><text x="36.6845703125" y="294.400390625" font-family="Helvetica, Segoe UI Emoji" font-size="20px" fill="#1e1e1e" text-anchor="middle" style="white-space: pre;" direction="ltr" dominant-baseline="alphabetic">10</text><text x="36.6845703125" y="317.400390625" font-family="Helvetica, Segoe UI Emoji" font-size="20px" fill="#1e1e1e" text-anchor="middle" style="white-space: pre;" direction="ltr" dominant-baseline="alphabetic">11</text><text x="36.6845703125" y="340.400390625" font-family="Helvetica, Segoe UI Emoji" font-size="20px" fill="#1e1e1e" text-anchor="middle" style="white-space: pre;" direction="ltr" dominant-baseline="alphabetic">12</text><text x="36.6845703125" y="363.400390625" font-family="Helvetica, Segoe UI Emoji" font-size="20px" fill="#1e1e1e" text-anchor="middle" style="white-space: pre;" direction="ltr" dominant-baseline="alphabetic">...</text></g><g transform="translate(910.8879107567277 128.1359603539808) rotate(0 36.6845703125 184)"><text x="36.6845703125" y="18.400390625" font-family="Helvetica, Segoe UI Emoji" font-size="20px" fill="#1e1e1e" text-anchor="middle" style="white-space: pre;" direction="ltr" dominant-baseline="alphabetic">Daten</text><text x="36.6845703125" y="41.400390625" font-family="Helvetica, Segoe UI Emoji" font-size="20px" fill="#1e1e1e" text-anchor="middle" style="white-space: pre;" direction="ltr" dominant-baseline="alphabetic"/><text x="36.6845703125" y="64.400390625" font-family="Helvetica, Segoe UI Emoji" font-size="20px" fill="#1e1e1e" text-anchor="middle" style="white-space: pre;" direction="ltr" dominant-baseline="alphabetic">Befehl</text><text x="36.6845703125" y="87.400390625" font-family="Helvetica, Segoe UI Emoji" font-size="20px" fill="#1e1e1e" text-anchor="middle" style="white-space: pre;" direction="ltr" dominant-baseline="alphabetic">Wert</text><text x="36.6845703125" y="110.400390625" font-family="Helvetica, Segoe UI Emoji" font-size="20px" fill="#1e1e1e" text-anchor="middle" style="white-space: pre;" direction="ltr" dominant-baseline="alphabetic">Befehl</text><text x="36.6845703125" y="133.400390625" font-family="Helvetica, Segoe UI Emoji" font-size="20px" fill="#1e1e1e" text-anchor="middle" style="white-space: pre;" direction="ltr" dominant-baseline="alphabetic">Adresse</text><text x="36.6845703125" y="156.400390625" font-family="Helvetica, Segoe UI Emoji" font-size="20px" fill="#1e1e1e" text-anchor="middle" style="white-space: pre;" direction="ltr" dominant-baseline="alphabetic">Befehl</text><text x="36.6845703125" y="179.400390625" font-family="Helvetica, Segoe UI Emoji" font-size="20px" fill="#1e1e1e" text-anchor="middle" style="white-space: pre;" direction="ltr" dominant-baseline="alphabetic">Adresse</text><text x="36.6845703125" y="202.400390625" font-family="Helvetica, Segoe UI Emoji" font-size="20px" fill="#1e1e1e" text-anchor="middle" style="white-space: pre;" direction="ltr" dominant-baseline="alphabetic">Wert</text><text x="36.6845703125" y="225.400390625" font-family="Helvetica, Segoe UI Emoji" font-size="20px" fill="#1e1e1e" text-anchor="middle" style="white-space: pre;" direction="ltr" dominant-baseline="alphabetic">Wert</text><text x="36.6845703125" y="248.400390625" font-family="Helvetica, Segoe UI Emoji" font-size="20px" fill="#1e1e1e" text-anchor="middle" style="white-space: pre;" direction="ltr" dominant-baseline="alphabetic">Adresse</text><text x="36.6845703125" y="271.400390625" font-family="Helvetica, Segoe UI Emoji" font-size="20px" fill="#1e1e1e" text-anchor="middle" style="white-space: pre;" direction="ltr" dominant-baseline="alphabetic">Wert</text><text x="36.6845703125" y="294.400390625" font-family="Helvetica, Segoe UI Emoji" font-size="20px" fill="#1e1e1e" text-anchor="middle" style="white-space: pre;" direction="ltr" dominant-baseline="alphabetic">Befehl</text><text x="36.6845703125" y="317.400390625" font-family="Helvetica, Segoe UI Emoji" font-size="20px" fill="#1e1e1e" text-anchor="middle" style="white-space: pre;" direction="ltr" dominant-baseline="alphabetic">Adresse</text><text x="36.6845703125" y="340.400390625" font-family="Helvetica, Segoe UI Emoji" font-size="20px" fill="#1e1e1e" text-anchor="middle" style="white-space: pre;" direction="ltr" dominant-baseline="alphabetic">Wert</text><text x="36.6845703125" y="363.400390625" font-family="Helvetica, Segoe UI Emoji" font-size="20px" fill="#1e1e1e" text-anchor="middle" style="white-space: pre;" direction="ltr" dominant-baseline="alphabetic">...</text></g><g stroke-linecap="round" transform="translate(595.8485911630703 239.37505110887028) rotate(0 68.79184031528678 22.19091623073767)"><path d="M0 0 L137.58 0 L137.58 44.38 L0 44.38" stroke="none" stroke-width="0" fill="#ffec99"/><path d="M0 0 C49.62 0, 99.24 0, 137.58 0 M0 0 C39.83 0, 79.65 0, 137.58 0 M137.58 0 C137.58 9.98, 137.58 19.97, 137.58 44.38 M137.58 0 C137.58 9.9, 137.58 19.8, 137.58 44.38 M137.58 44.38 C98.48 44.38, 59.38 44.38, 0 44.38 M137.58 44.38 C100.8 44.38, 64.01 44.38, 0 44.38 M0 44.38 C0 34.88, 0 25.37, 0 0 M0 44.38 C0 28.02, 0 11.66, 0 0" stroke="transparent" stroke-width="1" fill="none"/></g><g stroke-linecap="round"><g transform="translate(728.9940885474969 297.0714333087877) rotate(0 19.971824607663905 -35.50546596918027)" fill-rule="evenodd"><path d="M0 0 L39.94 -35.51 L0 -71.01 L0 0" stroke="none" stroke-width="0" fill="#ffec99" fill-rule="evenodd"/><path d="M0 0 C11.76 -10.46, 23.53 -20.92, 39.94 -35.51 M0 0 C14.45 -12.84, 28.89 -25.68, 39.94 -35.51 M39.94 -35.51 C25.53 -48.32, 11.11 -61.14, 0 -71.01 M39.94 -35.51 C30.47 -43.92, 21.01 -52.34, 0 -71.01 M0 -71.01 C0 -47.91, 0 -24.81, 0 0 M0 -71.01 C0 -42.7, 0 -14.38, 0 0 M0 0 C0 0, 0 0, 0 0 M0 0 C0 0, 0 0, 0 0" stroke="transparent" stroke-width="1" fill="none"/></g></g><mask/><g stroke-linecap="round"><g transform="translate(607.2649831040213 295.79442680074624) rotate(0 -19.971824607663905 -35.50546596918027)" fill-rule="evenodd"><path d="M0 0 L-39.94 -35.51 L0 -71.01 L0 0" stroke="none" stroke-width="0" fill="#ffec99" fill-rule="evenodd"/><path d="M0 0 C-13.88 -12.34, -27.76 -24.67, -39.94 -35.51 M0 0 C-9.66 -8.58, -19.31 -17.17, -39.94 -35.51 M-39.94 -35.51 C-28.04 -46.08, -16.14 -56.66, 0 -71.01 M-39.94 -35.51 C-31.62 -42.91, -23.29 -50.31, 0 -71.01 M0 -71.01 C0 -55.96, 0 -40.92, 0 0 M0 -71.01 C0 -45.87, 0 -20.73, 0 0 M0 0 C0 0, 0 0, 0 0 M0 0 C0 0, 0 0, 0 0" stroke="transparent" stroke-width="1" fill="none"/></g></g><mask/><g transform="translate(618.983855088147 249.8890885259699) rotate(0 50.41535186767578 10.873090433233049)"><text x="0" y="17.39731402369031" font-family="Helvetica, Segoe UI Emoji" font-size="18.909722492579217px" fill="#1e1e1e" text-anchor="start" style="white-space: pre;" direction="ltr" dominant-baseline="alphabetic">System Bus</text></g><g stroke-linecap="round" transform="translate(500.0268503662287 444.9026161279719) rotate(89.99999999999994 171.29340034742097 8.798798225417684)"><path d="M0 0 L342.59 0 L342.59 17.6 L0 17.6" stroke="none" stroke-width="0" fill="#ffec99"/><path d="M0 0 C124.37 0, 248.74 0, 342.59 0 M0 0 C97.79 0, 195.58 0, 342.59 0 M342.59 0 C342.59 6.67, 342.59 13.35, 342.59 17.6 M342.59 0 C342.59 4.48, 342.59 8.96, 342.59 17.6 M342.59 17.6 C206.21 17.6, 69.83 17.6, 0 17.6 M342.59 17.6 C230.8 17.6, 119.02 17.6, 0 17.6 M0 17.6 C0 11.8, 0 6.01, 0 0 M0 17.6 C0 13.69, 0 9.78, 0 0" stroke="transparent" stroke-width="1" fill="none"/></g><g stroke-linecap="round"><g transform="translate(705.799062085583 718.418918264392) rotate(89.99999999999994 14.305877139144002 -25.203800459486303)" fill-rule="evenodd"><path d="M0 0 L28.61 -25.2 L0 -50.41 L0 0" stroke="none" stroke-width="0" fill="#ffec99" fill-rule="evenodd"/><path d="M0 0 C8.93 -7.87, 17.86 -15.73, 28.61 -25.2 M0 0 C8.58 -7.56, 17.16 -15.12, 28.61 -25.2 M28.61 -25.2 C19.1 -33.58, 9.59 -41.96, 0 -50.41 M28.61 -25.2 C19.56 -33.18, 10.5 -41.16, 0 -50.41 M0 -50.41 C0 -35.39, 0 -20.37, 0 0 M0 -50.41 C0 -30.9, 0 -11.39, 0 0 M0 0 C0 0, 0 0, 0 0 M0 0 C0 0, 0 0, 0 0" stroke="transparent" stroke-width="1" fill="none"/></g></g><mask/><g stroke-linecap="round" transform="translate(105.97044172442725 619.0008919418822) rotate(180 394.83954976732673 11.864203363355358)"><path d="M0 0 L789.68 0 L789.68 23.73 L0 23.73" stroke="none" stroke-width="0" fill="#ffec99"/><path d="M0 0 C240.43 0, 480.87 0, 789.68 0 M0 0 C168.65 0, 337.3 0, 789.68 0 M789.68 0 C789.68 9.1, 789.68 18.2, 789.68 23.73 M789.68 0 C789.68 6.73, 789.68 13.46, 789.68 23.73 M789.68 23.73 C528.21 23.73, 266.75 23.73, 0 23.73 M789.68 23.73 C566.06 23.73, 342.45 23.73, 0 23.73 M0 23.73 C0 18.11, 0 12.48, 0 0 M0 23.73 C0 14.89, 0 6.05, 0 0" stroke="transparent" stroke-width="1" fill="none"/></g><g stroke-linecap="round" transform="translate(406.1236825533574 573.0462847382569) rotate(0 68.16187949748962 60.98697265550021)"><path d="M30.49 0 C49.89 0, 69.3 0, 105.83 0 C126.16 0, 136.32 10.16, 136.32 30.49 C136.32 43.83, 136.32 57.16, 136.32 91.48 C136.32 111.81, 126.16 121.97, 105.83 121.97 C81.63 121.97, 57.42 121.97, 30.49 121.97 C10.16 121.97, 0 111.81, 0 91.48 C0 77.96, 0 64.43, 0 30.49 C0 10.16, 10.16 0, 30.49 0" stroke="none" stroke-width="0" fill="#a5d8ff"/><path d="M30.49 0 C56.35 0, 82.21 0, 105.83 0 M30.49 0 C49.99 0, 69.5 0, 105.83 0 M105.83 0 C126.16 0, 136.32 10.16, 136.32 30.49 M105.83 0 C126.16 0, 136.32 10.16, 136.32 30.49 M136.32 30.49 C136.32 54.41, 136.32 78.33, 136.32 91.48 M136.32 30.49 C136.32 53.13, 136.32 75.77, 136.32 91.48 M136.32 91.48 C136.32 111.81, 126.16 121.97, 105.83 121.97 M136.32 91.48 C136.32 111.81, 126.16 121.97, 105.83 121.97 M105.83 121.97 C83.74 121.97, 61.64 121.97, 30.49 121.97 M105.83 121.97 C90.58 121.97, 75.33 121.97, 30.49 121.97 M30.49 121.97 C10.16 121.97, 0 111.81, 0 91.48 M30.49 121.97 C10.16 121.97, 0 111.81, 0 91.48 M0 91.48 C0 70.52, 0 49.55, 0 30.49 M0 91.48 C0 74.49, 0 57.49, 0 30.49 M0 30.49 C0 10.16, 10.16 0, 30.49 0 M0 30.49 C0 10.16, 10.16 0, 30.49 0" stroke="#1e1e1e" stroke-width="2" fill="none"/></g><g transform="translate(440.37931205084703 622.533257393757) rotate(0 33.90625 11.5)"><text x="33.90625" y="18.400390625" font-family="Helvetica, Segoe UI Emoji" font-size="20px" fill="#1e1e1e" text-anchor="middle" style="white-space: pre;" direction="ltr" dominant-baseline="alphabetic">Chipset</text></g><g transform="translate(672.6381580151144 708.0632593260003) rotate(0 48.9013671875 11.5)"><text x="48.9013671875" y="18.400390625" font-family="Helvetica, Segoe UI Emoji" font-size="20px" fill="#1e1e1e" text-anchor="middle" style="white-space: pre;" direction="ltr" dominant-baseline="alphabetic">Grafikkarte</text></g><g transform="translate(816.5779867268241 708.0632596140499) rotate(0 46.669921875 11.5)"><text x="46.669921875" y="18.400390625" font-family="Helvetica, Segoe UI Emoji" font-size="20px" fill="#1e1e1e" text-anchor="middle" style="white-space: pre;" direction="ltr" dominant-baseline="alphabetic">SSD (M.2)</text></g><g stroke-linecap="round" transform="translate(696.7710215817516 646.0426853093584) rotate(89.99999999999994 22.949401288733895 16.00993264401515)"><path d="M0 0 L45.9 0 L45.9 32.02 L0 32.02" stroke="none" stroke-width="0" fill="#ffec99"/><path d="M0 0 C9.56 0, 19.12 0, 45.9 0 M0 0 C15.77 0, 31.54 0, 45.9 0 M45.9 0 C45.9 10.26, 45.9 20.52, 45.9 32.02 M45.9 0 C45.9 9.39, 45.9 18.78, 45.9 32.02 M45.9 32.02 C35.21 32.02, 24.52 32.02, 0 32.02 M45.9 32.02 C34.81 32.02, 23.71 32.02, 0 32.02 M0 32.02 C0 20.85, 0 9.69, 0 0 M0 32.02 C0 20.02, 0 8.03, 0 0" stroke="transparent" stroke-width="1" fill="none"/></g><g stroke-linecap="round"><g transform="translate(852.4709151967872 712.5678991205747) rotate(89.99999999999994 14.305877139144002 -25.203800459486303)" fill-rule="evenodd"><path d="M0 0 L28.61 -25.2 L0 -50.41 L0 0" stroke="none" stroke-width="0" fill="#ffec99" fill-rule="evenodd"/><path d="M0 0 C9.61 -8.47, 19.23 -16.94, 28.61 -25.2 M0 0 C8.32 -7.33, 16.65 -14.66, 28.61 -25.2 M28.61 -25.2 C17.75 -34.77, 6.89 -44.34, 0 -50.41 M28.61 -25.2 C19.76 -33, 10.92 -40.79, 0 -50.41 M0 -50.41 C0 -39.78, 0 -29.15, 0 0 M0 -50.41 C0 -34.75, 0 -19.1, 0 0 M0 0 C0 0, 0 0, 0 0 M0 0 C0 0, 0 0, 0 0" stroke="transparent" stroke-width="1" fill="none"/></g></g><mask/><g stroke-linecap="round" transform="translate(843.4428746929559 640.1916661655409) rotate(89.99999999999994 22.949401288733895 16.00993264401515)"><path d="M0 0 L45.9 0 L45.9 32.02 L0 32.02" stroke="none" stroke-width="0" fill="#ffec99"/><path d="M0 0 C11.71 0, 23.43 0, 45.9 0 M0 0 C17.83 0, 35.67 0, 45.9 0 M45.9 0 C45.9 7.03, 45.9 14.05, 45.9 32.02 M45.9 0 C45.9 7.69, 45.9 15.38, 45.9 32.02 M45.9 32.02 C29.97 32.02, 14.05 32.02, 0 32.02 M45.9 32.02 C32.84 32.02, 19.79 32.02, 0 32.02 M0 32.02 C0 21.09, 0 10.16, 0 0 M0 32.02 C0 20.7, 0 9.37, 0 0" stroke="transparent" stroke-width="1" fill="none"/></g><g stroke-linecap="round"><g transform="translate(121.97325723219933 716.084243530928) rotate(89.99999999999994 14.305877139143988 -25.203800459486303)" fill-rule="evenodd"><path d="M0 0 L28.61 -25.2 L0 -50.41 L0 0" stroke="none" stroke-width="0" fill="#ffec99" fill-rule="evenodd"/><path d="M0 0 C7.02 -6.18, 14.04 -12.37, 28.61 -25.2 M0 0 C9.59 -8.45, 19.19 -16.9, 28.61 -25.2 M28.61 -25.2 C19.64 -33.11, 10.66 -41.02, 0 -50.41 M28.61 -25.2 C18.89 -33.77, 9.17 -42.33, 0 -50.41 M0 -50.41 C0 -33.55, 0 -16.7, 0 0 M0 -50.41 C0 -36.25, 0 -22.1, 0 0 M0 0 C0 0, 0 0, 0 0 M0 0 C0 0, 0 0, 0 0" stroke="transparent" stroke-width="1" fill="none"/></g></g><mask/><g transform="translate(117.1521969117307 705.7285845925362) rotate(0 20.5615234375 11.5)"><text x="20.5615234375" y="18.400390625" font-family="Helvetica, Segoe UI Emoji" font-size="20px" fill="#1e1e1e" text-anchor="middle" style="white-space: pre;" direction="ltr" dominant-baseline="alphabetic">USB</text></g><g transform="translate(224.78831468594035 705.7285848805859) rotate(0 54.6337890625 11.5)"><text x="54.6337890625" y="18.400390625" font-family="Helvetica, Segoe UI Emoji" font-size="20px" fill="#1e1e1e" text-anchor="middle" style="white-space: pre;" direction="ltr" dominant-baseline="alphabetic">SSD (SATA)</text></g><g stroke-linecap="round" transform="translate(112.945216728368 643.7080105758944) rotate(89.99999999999994 22.949401288733895 16.00993264401515)"><path d="M0 0 L45.9 0 L45.9 32.02 L0 32.02" stroke="none" stroke-width="0" fill="#ffec99"/><path d="M0 0 C9.29 0, 18.58 0, 45.9 0 M0 0 C16.14 0, 32.27 0, 45.9 0 M45.9 0 C45.9 12.01, 45.9 24.03, 45.9 32.02 M45.9 0 C45.9 8.18, 45.9 16.36, 45.9 32.02 M45.9 32.02 C33.88 32.02, 21.85 32.02, 0 32.02 M45.9 32.02 C35.52 32.02, 25.14 32.02, 0 32.02 M0 32.02 C0 23, 0 13.99, 0 0 M0 32.02 C0 19.86, 0 7.71, 0 0" stroke="transparent" stroke-width="1" fill="none"/></g><g stroke-linecap="round"><g transform="translate(268.64511034340353 710.2332243871106) rotate(89.99999999999994 14.305877139143973 -25.203800459486303)" fill-rule="evenodd"><path d="M0 0 L28.61 -25.2 L0 -50.41 L0 0" stroke="none" stroke-width="0" fill="#ffec99" fill-rule="evenodd"/><path d="M0 0 C6.67 -5.88, 13.35 -11.76, 28.61 -25.2 M0 0 C7.11 -6.26, 14.22 -12.53, 28.61 -25.2 M28.61 -25.2 C19.78 -32.98, 10.95 -40.77, 0 -50.41 M28.61 -25.2 C18.53 -34.09, 8.44 -42.97, 0 -50.41 M0 -50.41 C0 -38.34, 0 -26.26, 0 0 M0 -50.41 C0 -37.9, 0 -25.38, 0 0 M0 0 C0 0, 0 0, 0 0 M0 0 C0 0, 0 0, 0 0" stroke="transparent" stroke-width="1" fill="none"/></g></g><mask/><g stroke-linecap="round" transform="translate(259.6170698395722 637.8569914320769) rotate(89.99999999999994 22.949401288733895 16.00993264401515)"><path d="M0 0 L45.9 0 L45.9 32.02 L0 32.02" stroke="none" stroke-width="0" fill="#ffec99"/><path d="M0 0 C13.62 0, 27.23 0, 45.9 0 M0 0 C12.13 0, 24.25 0, 45.9 0 M45.9 0 C45.9 10.82, 45.9 21.64, 45.9 32.02 M45.9 0 C45.9 9.83, 45.9 19.67, 45.9 32.02 M45.9 32.02 C29.04 32.02, 12.17 32.02, 0 32.02 M45.9 32.02 C29.4 32.02, 12.91 32.02, 0 32.02 M0 32.02 C0 23.85, 0 15.69, 0 0 M0 32.02 C0 20.27, 0 8.52, 0 0" stroke="transparent" stroke-width="1" fill="none"/></g></svg>