<svg version="1.1" xmlns="http://www.w3.org/2000/svg" viewBox="0 0 1185.2525993787222 806.1011138689137" width="1185.2525993787222" height="806.1011138689137" filter="invert(93%) hue-rotate(180deg)" class="excalidraw-svg">
  <!-- svg-source:excalidraw -->
  
  <defs>
    <style class="style-fonts">
      @font-face {
        font-family: "Virgil";
        src: url("https://excalidraw.com/Virgil.woff2");
      }
      @font-face {
        font-family: "Cascadia";
        src: url("https://excalidraw.com/Cascadia.woff2");
      }
      @font-face {
        font-family: "Assistant";
        src: url("https://excalidraw.com/Assistant-Regular.woff2");
      }
    </style>
    
  </defs>
  <g stroke-linecap="round" transform="translate(65.1621446545296 79.81676719360428) rotate(0 538.2148988122403 232.9732960788562)"><path d="M32 0 C312.22 0, 592.44 0, 1044.43 0 C1065.76 0, 1076.43 10.67, 1076.43 32 C1076.43 171.33, 1076.43 310.67, 1076.43 433.95 C1076.43 455.28, 1065.76 465.95, 1044.43 465.95 C729.49 465.95, 414.56 465.95, 32 465.95 C10.67 465.95, 0 455.28, 0 433.95 C0 274.03, 0 114.12, 0 32 C0 10.67, 10.67 0, 32 0" stroke="none" stroke-width="0" fill="#96f2d755"/><path d="M32 0 C374.63 0, 717.26 0, 1044.43 0 M1044.43 0 C1065.76 0, 1076.43 10.67, 1076.43 32 M1076.43 32 C1076.43 186.9, 1076.43 341.79, 1076.43 433.95 M1076.43 433.95 C1076.43 455.28, 1065.76 465.95, 1044.43 465.95 M1044.43 465.95 C738.19 465.95, 431.94 465.95, 32 465.95 M32 465.95 C10.67 465.95, 0 455.28, 0 433.95 M0 433.95 C0 302.51, 0 171.08, 0 32 M0 32 C0 10.67, 10.67 0, 32 0" stroke="transparent" stroke-width="2.5" fill="none" stroke-dasharray="1.5 8"/></g><g stroke-linecap="round" transform="translate(65.16214456622687 552.6756072654503) rotate(0 538.2148990321421 121.71275330173175)"><path d="M32 0 C392.19 0, 752.38 0, 1044.43 0 C1065.76 0, 1076.43 10.67, 1076.43 32 C1076.43 89.31, 1076.43 146.61, 1076.43 211.43 C1076.43 232.76, 1065.76 243.43, 1044.43 243.43 C812.9 243.43, 581.37 243.43, 32 243.43 C10.67 243.43, 0 232.76, 0 211.43 C0 159.62, 0 107.81, 0 32 C0 10.67, 10.67 0, 32 0" stroke="none" stroke-width="0" fill="#e396f255"/><path d="M32 0 C287.49 0, 542.97 0, 1044.43 0 M1044.43 0 C1065.76 0, 1076.43 10.67, 1076.43 32 M1076.43 32 C1076.43 96.25, 1076.43 160.5, 1076.43 211.43 M1076.43 211.43 C1076.43 232.76, 1065.76 243.43, 1044.43 243.43 M1044.43 243.43 C765.02 243.43, 485.61 243.43, 32 243.43 M32 243.43 C10.67 243.43, 0 232.76, 0 211.43 M0 211.43 C0 160.31, 0 109.18, 0 32 M0 32 C0 10.67, 10.67 0, 32 0" stroke="transparent" stroke-width="2.5" fill="none" stroke-dasharray="1.5 8"/></g><g stroke-linecap="round" transform="translate(89.0382727732581 98.64593519890212) rotate(0 266.2237211462058 211.9063881335449)"><path d="M32 0 C164.44 0, 296.87 0, 500.45 0 C521.78 0, 532.45 10.67, 532.45 32 C532.45 174.15, 532.45 316.29, 532.45 391.81 C532.45 413.15, 521.78 423.81, 500.45 423.81 C344.98 423.81, 189.51 423.81, 32 423.81 C10.67 423.81, 0 413.15, 0 391.81 C0 282.41, 0 173, 0 32 C0 10.67, 10.67 0, 32 0" stroke="none" stroke-width="0" fill="#a5d8ff"/><path d="M32 0 C160.55 0, 289.09 0, 500.45 0 M32 0 C192.58 0, 353.17 0, 500.45 0 M500.45 0 C521.78 0, 532.45 10.67, 532.45 32 M500.45 0 C521.78 0, 532.45 10.67, 532.45 32 M532.45 32 C532.45 140.3, 532.45 248.6, 532.45 391.81 M532.45 32 C532.45 104.86, 532.45 177.72, 532.45 391.81 M532.45 391.81 C532.45 413.15, 521.78 423.81, 500.45 423.81 M532.45 391.81 C532.45 413.15, 521.78 423.81, 500.45 423.81 M500.45 423.81 C397.66 423.81, 294.88 423.81, 32 423.81 M500.45 423.81 C338.76 423.81, 177.07 423.81, 32 423.81 M32 423.81 C10.67 423.81, 0 413.15, 0 391.81 M32 423.81 C10.67 423.81, 0 413.15, 0 391.81 M0 391.81 C0 248.28, 0 104.76, 0 32 M0 391.81 C0 251.8, 0 111.78, 0 32 M0 32 C0 10.67, 10.67 0, 32 0 M0 32 C0 10.67, 10.67 0, 32 0" stroke="#1e1e1e" stroke-width="2" fill="none"/></g><g transform="translate(161.3948970264052 10.000000292906634) rotate(0 206.63629150390625 31.45225997663684)"><text x="0" y="50.32468431384097" font-family="Helvetica, Segoe UI Emoji" font-size="54.699582568064066px" fill="#1e1e1e" text-anchor="start" style="white-space: pre;" direction="ltr" dominant-baseline="alphabetic">Prozessor (CPU)</text></g><g stroke-linecap="round" transform="translate(107.35124469560175 171.0952345760242) rotate(0 107.90942313344996 87.86909356100223)"><path d="M32 0 C89.31 0, 146.62 0, 183.82 0 C205.15 0, 215.82 10.67, 215.82 32 C215.82 64.49, 215.82 96.97, 215.82 143.74 C215.82 165.07, 205.15 175.74, 183.82 175.74 C127.93 175.74, 72.05 175.74, 32 175.74 C10.67 175.74, 0 165.07, 0 143.74 C0 113.35, 0 82.96, 0 32 C0 10.67, 10.67 0, 32 0" stroke="none" stroke-width="0" fill="#ffec99"/><path d="M32 0 C68.06 0, 104.12 0, 183.82 0 M32 0 C92.04 0, 152.07 0, 183.82 0 M183.82 0 C205.15 0, 215.82 10.67, 215.82 32 M183.82 0 C205.15 0, 215.82 10.67, 215.82 32 M215.82 32 C215.82 62.45, 215.82 92.91, 215.82 143.74 M215.82 32 C215.82 57.72, 215.82 83.44, 215.82 143.74 M215.82 143.74 C215.82 165.07, 205.15 175.74, 183.82 175.74 M215.82 143.74 C215.82 165.07, 205.15 175.74, 183.82 175.74 M183.82 175.74 C134.15 175.74, 84.48 175.74, 32 175.74 M183.82 175.74 C136.29 175.74, 88.76 175.74, 32 175.74 M32 175.74 C10.67 175.74, 0 165.07, 0 143.74 M32 175.74 C10.67 175.74, 0 165.07, 0 143.74 M0 143.74 C0 116.81, 0 89.89, 0 32 M0 143.74 C0 113.89, 0 84.04, 0 32 M0 32 C0 10.67, 10.67 0, 32 0 M0 32 C0 10.67, 10.67 0, 32 0" stroke="#1e1e1e" stroke-width="2" fill="none"/></g><g transform="translate(144.5599789825395 139.92741715102215) rotate(0 76.6796875 11.5)"><text x="0" y="18.400390625" font-family="Helvetica, Segoe UI Emoji" font-size="20px" fill="#1e1e1e" text-anchor="start" style="white-space: pre;" direction="ltr" dominant-baseline="alphabetic">Control Unit (CU)</text></g><g transform="translate(142.34123788792755 206.86691698098122) rotate(0 25.009765625 11.5)"><text x="0" y="18.400390625" font-family="Helvetica, Segoe UI Emoji" font-size="20px" fill="#1e1e1e" text-anchor="start" style="white-space: pre;" direction="ltr" dominant-baseline="alphabetic">Fetch</text></g><g transform="translate(152.90582519525213 229.419407405508) rotate(0 14.866706848144531 6.479101419128085)"><text x="0" y="10.36678234877814" font-family="Helvetica, Segoe UI Emoji" font-size="11.268002468048845px" fill="#1e1e1e" text-anchor="start" style="white-space: pre;" direction="ltr" dominant-baseline="alphabetic">IP + 1</text></g><g transform="translate(230.34510097937954 208.0166693243525) rotate(0 34.4677734375 11.5)"><text x="0" y="18.400390625" font-family="Helvetica, Segoe UI Emoji" font-size="20px" fill="#1e1e1e" text-anchor="start" style="white-space: pre;" direction="ltr" dominant-baseline="alphabetic">Decode</text></g><g transform="translate(232.14044210982735 283.3838699711468) rotate(0 36.1328125 11.5)"><text x="0" y="18.400390625" font-family="Helvetica, Segoe UI Emoji" font-size="20px" fill="#1e1e1e" text-anchor="start" style="white-space: pre;" direction="ltr" dominant-baseline="alphabetic">Execute</text></g><g transform="translate(138.17095023776238 280.88169738104784) rotate(0 30.5615234375 11.5)"><text x="0" y="18.400390625" font-family="Helvetica, Segoe UI Emoji" font-size="20px" fill="#1e1e1e" text-anchor="start" style="white-space: pre;" direction="ltr" dominant-baseline="alphabetic">(Store)</text></g><g stroke-linecap="round"><g transform="translate(205.67077703870416 222.22027329033733) rotate(0 7.784445032797322 -0.27801210635632856)"><path d="M0 0 C2.59 -0.09, 12.97 -0.46, 15.57 -0.56 M0 0 C2.59 -0.09, 12.97 -0.46, 15.57 -0.56" stroke="#1e1e1e" stroke-width="2" fill="none"/></g><g transform="translate(205.67077703870416 222.22027329033733) rotate(0 7.784445032797322 -0.27801210635632856)"><path d="M8.35 2.37 C10.19 1.62, 12.03 0.88, 15.57 -0.56 M8.35 2.37 C10.91 1.33, 13.48 0.29, 15.57 -0.56" stroke="#1e1e1e" stroke-width="2" fill="none"/></g><g transform="translate(205.67077703870416 222.22027329033733) rotate(0 7.784445032797322 -0.27801210635632856)"><path d="M8.16 -2.96 C10.05 -2.35, 11.94 -1.73, 15.57 -0.56 M8.16 -2.96 C10.79 -2.1, 13.42 -1.25, 15.57 -0.56" stroke="#1e1e1e" stroke-width="2" fill="none"/></g></g><mask/><g stroke-linecap="round"><g transform="translate(259.942119386669 253.25035017629955) rotate(0 0 8.896514669186672)"><path d="M0 0 C0 2.97, 0 14.83, 0 17.79 M0 0 C0 2.97, 0 14.83, 0 17.79" stroke="#1e1e1e" stroke-width="2" fill="none"/></g><g transform="translate(259.942119386669 253.25035017629955) rotate(0 0 8.896514669186672)"><path d="M-3.04 9.43 C-2.38 11.24, -1.73 13.05, 0 17.79 M-3.04 9.43 C-2.16 11.86, -1.27 14.29, 0 17.79" stroke="#1e1e1e" stroke-width="2" fill="none"/></g><g transform="translate(259.942119386669 253.25035017629955) rotate(0 0 8.896514669186672)"><path d="M3.04 9.43 C2.38 11.24, 1.73 13.05, 0 17.79 M3.04 9.43 C2.16 11.86, 1.27 14.29, 0 17.79" stroke="#1e1e1e" stroke-width="2" fill="none"/></g></g><mask/><g stroke-linecap="round"><g transform="translate(219.35175795165225 295.0605481258249) rotate(0 -5.282314864626386 0.27803331732042125)"><path d="M0 0 C-1.76 0.09, -8.8 0.46, -10.56 0.56 M0 0 C-1.76 0.09, -8.8 0.46, -10.56 0.56" stroke="#1e1e1e" stroke-width="2" fill="none"/></g><g transform="translate(219.35175795165225 295.0605481258249) rotate(0 -5.282314864626386 0.27803331732042125)"><path d="M-5.7 -1.51 C-7.19 -0.88, -8.68 -0.24, -10.56 0.56 M-5.7 -1.51 C-6.71 -1.08, -7.71 -0.65, -10.56 0.56" stroke="#1e1e1e" stroke-width="2" fill="none"/></g><g transform="translate(219.35175795165225 295.0605481258249) rotate(0 -5.282314864626386 0.27803331732042125)"><path d="M-5.51 2.1 C-7.06 1.63, -8.61 1.15, -10.56 0.56 M-5.51 2.1 C-6.55 1.78, -7.6 1.46, -10.56 0.56" stroke="#1e1e1e" stroke-width="2" fill="none"/></g></g><mask/><g stroke-linecap="round"><g transform="translate(170.9768878509459 270.37100411826486) rotate(0 -0.27801210635632856 -8.618502562830315)"><path d="M0 0 C-0.09 -2.87, -0.46 -14.36, -0.56 -17.24 M0 0 C-0.09 -2.87, -0.46 -14.36, -0.56 -17.24" stroke="#1e1e1e" stroke-width="2" fill="none"/></g><g transform="translate(170.9768878509459 270.37100411826486) rotate(0 -0.27801210635632856 -8.618502562830315)"><path d="M2.65 -9.23 C1.94 -11.01, 1.22 -12.8, -0.56 -17.24 M2.65 -9.23 C2 -10.86, 1.35 -12.49, -0.56 -17.24" stroke="#1e1e1e" stroke-width="2" fill="none"/></g><g transform="translate(170.9768878509459 270.37100411826486) rotate(0 -0.27801210635632856 -8.618502562830315)"><path d="M-3.24 -9.04 C-2.64 -10.87, -2.05 -12.69, -0.56 -17.24 M-3.24 -9.04 C-2.7 -10.71, -2.15 -12.37, -0.56 -17.24" stroke="#1e1e1e" stroke-width="2" fill="none"/></g></g><mask/><g stroke-linecap="round" transform="translate(377.4461411691876 174.44306813273428) rotate(0 107.90942313344996 87.86909356100223)"><path d="M32 0 C92.25 0, 152.49 0, 183.82 0 C205.15 0, 215.82 10.67, 215.82 32 C215.82 74.14, 215.82 116.29, 215.82 143.74 C215.82 165.07, 205.15 175.74, 183.82 175.74 C140.64 175.74, 97.46 175.74, 32 175.74 C10.67 175.74, 0 165.07, 0 143.74 C0 119.7, 0 95.67, 0 32 C0 10.67, 10.67 0, 32 0" stroke="none" stroke-width="0" fill="#ffec99"/><path d="M32 0 C86.68 0, 141.37 0, 183.82 0 M32 0 C81.04 0, 130.08 0, 183.82 0 M183.82 0 C205.15 0, 215.82 10.67, 215.82 32 M183.82 0 C205.15 0, 215.82 10.67, 215.82 32 M215.82 32 C215.82 56.73, 215.82 81.45, 215.82 143.74 M215.82 32 C215.82 73.14, 215.82 114.29, 215.82 143.74 M215.82 143.74 C215.82 165.07, 205.15 175.74, 183.82 175.74 M215.82 143.74 C215.82 165.07, 205.15 175.74, 183.82 175.74 M183.82 175.74 C148.25 175.74, 112.67 175.74, 32 175.74 M183.82 175.74 C140.45 175.74, 97.08 175.74, 32 175.74 M32 175.74 C10.67 175.74, 0 165.07, 0 143.74 M32 175.74 C10.67 175.74, 0 165.07, 0 143.74 M0 143.74 C0 102.92, 0 62.11, 0 32 M0 143.74 C0 117.74, 0 91.74, 0 32 M0 32 C0 10.67, 10.67 0, 32 0 M0 32 C0 10.67, 10.67 0, 32 0" stroke="#1e1e1e" stroke-width="2" fill="none"/></g><g transform="translate(411.99618951592754 116.92741678367338) rotate(0 73.359375 23)"><text x="73.359375" y="18.400390625" font-family="Helvetica, Segoe UI Emoji" font-size="20px" fill="#1e1e1e" text-anchor="middle" style="white-space: pre;" direction="ltr" dominant-baseline="alphabetic">Arithemtic &amp; </text><text x="73.359375" y="41.400390625" font-family="Helvetica, Segoe UI Emoji" font-size="20px" fill="#1e1e1e" text-anchor="middle" style="white-space: pre;" direction="ltr" dominant-baseline="alphabetic">Logic Unit (ALU)</text></g><g transform="translate(442.4062320534544 216.3132238899185) rotate(0 43.623046875 11.5)"><text x="43.623046875" y="18.400390625" font-family="Helvetica, Segoe UI Emoji" font-size="20px" fill="#1e1e1e" text-anchor="middle" style="white-space: pre;" direction="ltr" dominant-baseline="alphabetic">+, -, *, / ...</text></g><g transform="translate(409.7243048959907 268.08134362100384) rotate(0 77.2314453125 11.5)"><text x="77.2314453125" y="18.400390625" font-family="Helvetica, Segoe UI Emoji" font-size="20px" fill="#1e1e1e" text-anchor="middle" style="white-space: pre;" direction="ltr" dominant-baseline="alphabetic">AND, OR, XOR...</text></g><g transform="translate(249.89226149786919 396.2352706841219) rotate(0 112.27050781250001 11.5)"><text x="112.2705078125" y="18.400390625" font-family="Helvetica, Segoe UI Emoji" font-size="20px" fill="#1e1e1e" text-anchor="middle" style="white-space: pre;" direction="ltr" dominant-baseline="alphabetic">Register (Speicherzellen)</text></g><g stroke-linecap="round" transform="translate(116.65561087284216 431.00505636155987) rotate(0 62.76648699113932 29.776062552216047)"><path d="M14.89 0 C35.17 0, 55.45 0, 110.64 0 C120.57 0, 125.53 4.96, 125.53 14.89 C125.53 23.47, 125.53 32.05, 125.53 44.66 C125.53 54.59, 120.57 59.55, 110.64 59.55 C87.61 59.55, 64.57 59.55, 14.89 59.55 C4.96 59.55, 0 54.59, 0 44.66 C0 35.55, 0 26.43, 0 14.89 C0 4.96, 4.96 0, 14.89 0" stroke="none" stroke-width="0" fill="#ffec99"/><path d="M14.89 0 C41.3 0, 67.71 0, 110.64 0 M14.89 0 C35.1 0, 55.31 0, 110.64 0 M110.64 0 C120.57 0, 125.53 4.96, 125.53 14.89 M110.64 0 C120.57 0, 125.53 4.96, 125.53 14.89 M125.53 14.89 C125.53 20.91, 125.53 26.93, 125.53 44.66 M125.53 14.89 C125.53 24.9, 125.53 34.91, 125.53 44.66 M125.53 44.66 C125.53 54.59, 120.57 59.55, 110.64 59.55 M125.53 44.66 C125.53 54.59, 120.57 59.55, 110.64 59.55 M110.64 59.55 C90.6 59.55, 70.56 59.55, 14.89 59.55 M110.64 59.55 C80.6 59.55, 50.55 59.55, 14.89 59.55 M14.89 59.55 C4.96 59.55, 0 54.59, 0 44.66 M14.89 59.55 C4.96 59.55, 0 54.59, 0 44.66 M0 44.66 C0 33.55, 0 22.44, 0 14.89 M0 44.66 C0 37.86, 0 31.05, 0 14.89 M0 14.89 C0 4.96, 4.96 0, 14.89 0 M0 14.89 C0 4.96, 4.96 0, 14.89 0" stroke="#1e1e1e" stroke-width="2" fill="none"/></g><g transform="translate(122.73752755148149 437.7811189137759) rotate(0 56.6845703125 23)"><text x="56.6845703125" y="18.400390625" font-family="Helvetica, Segoe UI Emoji" font-size="20px" fill="#1e1e1e" text-anchor="middle" style="white-space: pre;" direction="ltr" dominant-baseline="alphabetic">Program</text><text x="56.6845703125" y="41.400390625" font-family="Helvetica, Segoe UI Emoji" font-size="20px" fill="#1e1e1e" text-anchor="middle" style="white-space: pre;" direction="ltr" dominant-baseline="alphabetic">counter (PC)</text></g><g stroke-linecap="round" transform="translate(257.6600865326052 431.00505636155987) rotate(0 62.76648699113932 29.77606231324623)"><path d="M14.89 0 C52.61 0, 90.33 0, 110.64 0 C120.57 0, 125.53 4.96, 125.53 14.89 C125.53 23.04, 125.53 31.19, 125.53 44.66 C125.53 54.59, 120.57 59.55, 110.64 59.55 C75.72 59.55, 40.79 59.55, 14.89 59.55 C4.96 59.55, 0 54.59, 0 44.66 C0 37.04, 0 29.42, 0 14.89 C0 4.96, 4.96 0, 14.89 0" stroke="none" stroke-width="0" fill="#ffec99"/><path d="M14.89 0 C45 0, 75.12 0, 110.64 0 M14.89 0 C42.49 0, 70.08 0, 110.64 0 M110.64 0 C120.57 0, 125.53 4.96, 125.53 14.89 M110.64 0 C120.57 0, 125.53 4.96, 125.53 14.89 M125.53 14.89 C125.53 23.69, 125.53 32.48, 125.53 44.66 M125.53 14.89 C125.53 25.79, 125.53 36.7, 125.53 44.66 M125.53 44.66 C125.53 54.59, 120.57 59.55, 110.64 59.55 M125.53 44.66 C125.53 54.59, 120.57 59.55, 110.64 59.55 M110.64 59.55 C90.81 59.55, 70.97 59.55, 14.89 59.55 M110.64 59.55 C84.26 59.55, 57.87 59.55, 14.89 59.55 M14.89 59.55 C4.96 59.55, 0 54.59, 0 44.66 M14.89 59.55 C4.96 59.55, 0 54.59, 0 44.66 M0 44.66 C0 37.35, 0 30.03, 0 14.89 M0 44.66 C0 36.43, 0 28.2, 0 14.89 M0 14.89 C0 4.96, 4.96 0, 14.89 0 M0 14.89 C0 4.96, 4.96 0, 14.89 0" stroke="#1e1e1e" stroke-width="2" fill="none"/></g><g transform="translate(264.85040164874454 449.28111867480607) rotate(0 55.576171875000014 11.5)"><text x="55.576171875" y="18.400390625" font-family="Helvetica, Segoe UI Emoji" font-size="20px" fill="#1e1e1e" text-anchor="middle" style="white-space: pre;" direction="ltr" dominant-baseline="alphabetic">Akkumulator</text></g><g stroke-linecap="round" transform="translate(404.2805021923682 431.83770736155986) rotate(0 76.21721854445681 29.77606231324623)"><path d="M14.89 0 C47.24 0, 79.6 0, 137.55 0 C147.47 0, 152.43 4.96, 152.43 14.89 C152.43 22.55, 152.43 30.21, 152.43 44.66 C152.43 54.59, 147.47 59.55, 137.55 59.55 C100.43 59.55, 63.31 59.55, 14.89 59.55 C4.96 59.55, 0 54.59, 0 44.66 C0 36.53, 0 28.4, 0 14.89 C0 4.96, 4.96 0, 14.89 0" stroke="none" stroke-width="0" fill="#ffec99"/><path d="M14.89 0 C49.39 0, 83.9 0, 137.55 0 M14.89 0 C46.26 0, 77.64 0, 137.55 0 M137.55 0 C147.47 0, 152.43 4.96, 152.43 14.89 M137.55 0 C147.47 0, 152.43 4.96, 152.43 14.89 M152.43 14.89 C152.43 26.21, 152.43 37.54, 152.43 44.66 M152.43 14.89 C152.43 25.98, 152.43 37.07, 152.43 44.66 M152.43 44.66 C152.43 54.59, 147.47 59.55, 137.55 59.55 M152.43 44.66 C152.43 54.59, 147.47 59.55, 137.55 59.55 M137.55 59.55 C98.38 59.55, 59.21 59.55, 14.89 59.55 M137.55 59.55 C109.07 59.55, 80.59 59.55, 14.89 59.55 M14.89 59.55 C4.96 59.55, 0 54.59, 0 44.66 M14.89 59.55 C4.96 59.55, 0 54.59, 0 44.66 M0 44.66 C0 36.49, 0 28.31, 0 14.89 M0 44.66 C0 38.12, 0 31.58, 0 14.89 M0 14.89 C0 4.96, 4.96 0, 14.89 0 M0 14.89 C0 4.96, 4.96 0, 14.89 0" stroke="#1e1e1e" stroke-width="2" fill="none"/></g><g transform="translate(420.46842386182504 450.1137696748061) rotate(0 60.029296875 11.5)"><text x="60.029296875" y="18.400390625" font-family="Helvetica, Segoe UI Emoji" font-size="20px" fill="#1e1e1e" text-anchor="middle" style="white-space: pre;" direction="ltr" dominant-baseline="alphabetic">Aktuelle Zeile</text></g><g stroke-linecap="round" transform="translate(880.4278322852927 98.64593577966622) rotate(0 108.85346612032777 211.9063880916107)"><path d="M32 0 C71.69 0, 111.37 0, 185.71 0 C207.04 0, 217.71 10.67, 217.71 32 C217.71 173.55, 217.71 315.1, 217.71 391.81 C217.71 413.15, 207.04 423.81, 185.71 423.81 C143.55 423.81, 101.39 423.81, 32 423.81 C10.67 423.81, 0 413.15, 0 391.81 C0 256.04, 0 120.26, 0 32 C0 10.67, 10.67 0, 32 0" stroke="none" stroke-width="0" fill="#a5d8ff"/><path d="M32 0 C71.59 0, 111.18 0, 185.71 0 M32 0 C81.52 0, 131.04 0, 185.71 0 M185.71 0 C207.04 0, 217.71 10.67, 217.71 32 M185.71 0 C207.04 0, 217.71 10.67, 217.71 32 M217.71 32 C217.71 162.26, 217.71 292.53, 217.71 391.81 M217.71 32 C217.71 104.82, 217.71 177.65, 217.71 391.81 M217.71 391.81 C217.71 413.15, 207.04 423.81, 185.71 423.81 M217.71 391.81 C217.71 413.15, 207.04 423.81, 185.71 423.81 M185.71 423.81 C153.66 423.81, 121.61 423.81, 32 423.81 M185.71 423.81 C139.12 423.81, 92.53 423.81, 32 423.81 M32 423.81 C10.67 423.81, 0 413.15, 0 391.81 M32 423.81 C10.67 423.81, 0 413.15, 0 391.81 M0 391.81 C0 251.74, 0 111.66, 0 32 M0 391.81 C0 265.58, 0 139.34, 0 32 M0 32 C0 10.67, 10.67 0, 32 0 M0 32 C0 10.67, 10.67 0, 32 0" stroke="#1e1e1e" stroke-width="2" fill="none"/></g><g transform="translate(804.5997673474723 10) rotate(0 185.32641601562494 31.45225997663684)"><text x="0" y="50.32468431384097" font-family="Helvetica, Segoe UI Emoji" font-size="54.699582568064066px" fill="#1e1e1e" text-anchor="start" style="white-space: pre;" direction="ltr" dominant-baseline="alphabetic">Memory (RAM)</text></g><g transform="translate(912.5570432511731 128.13596027735974) rotate(0 36.6845703125 184)"><text x="36.6845703125" y="18.400390625" font-family="Helvetica, Segoe UI Emoji" font-size="20px" fill="#1e1e1e" text-anchor="middle" style="white-space: pre;" direction="ltr" dominant-baseline="alphabetic">Adresse</text><text x="36.6845703125" y="41.400390625" font-family="Helvetica, Segoe UI Emoji" font-size="20px" fill="#1e1e1e" text-anchor="middle" style="white-space: pre;" direction="ltr" dominant-baseline="alphabetic"/><text x="36.6845703125" y="64.400390625" font-family="Helvetica, Segoe UI Emoji" font-size="20px" fill="#1e1e1e" text-anchor="middle" style="white-space: pre;" direction="ltr" dominant-baseline="alphabetic">0</text><text x="36.6845703125" y="87.400390625" font-family="Helvetica, Segoe UI Emoji" font-size="20px" fill="#1e1e1e" text-anchor="middle" style="white-space: pre;" direction="ltr" dominant-baseline="alphabetic">1</text><text x="36.6845703125" y="110.400390625" font-family="Helvetica, Segoe UI Emoji" font-size="20px" fill="#1e1e1e" text-anchor="middle" style="white-space: pre;" direction="ltr" dominant-baseline="alphabetic">2</text><text x="36.6845703125" y="133.400390625" font-family="Helvetica, Segoe UI Emoji" font-size="20px" fill="#1e1e1e" text-anchor="middle" style="white-space: pre;" direction="ltr" dominant-baseline="alphabetic">3</text><text x="36.6845703125" y="156.400390625" font-family="Helvetica, Segoe UI Emoji" font-size="20px" fill="#1e1e1e" text-anchor="middle" style="white-space: pre;" direction="ltr" dominant-baseline="alphabetic">4</text><text x="36.6845703125" y="179.400390625" font-family="Helvetica, Segoe UI Emoji" font-size="20px" fill="#1e1e1e" text-anchor="middle" style="white-space: pre;" direction="ltr" dominant-baseline="alphabetic">5</text><text x="36.6845703125" y="202.400390625" font-family="Helvetica, Segoe UI Emoji" font-size="20px" fill="#1e1e1e" text-anchor="middle" style="white-space: pre;" direction="ltr" dominant-baseline="alphabetic">6</text><text x="36.6845703125" y="225.400390625" font-family="Helvetica, Segoe UI Emoji" font-size="20px" fill="#1e1e1e" text-anchor="middle" style="white-space: pre;" direction="ltr" dominant-baseline="alphabetic">7</text><text x="36.6845703125" y="248.400390625" font-family="Helvetica, Segoe UI Emoji" font-size="20px" fill="#1e1e1e" text-anchor="middle" style="white-space: pre;" direction="ltr" dominant-baseline="alphabetic">8</text><text x="36.6845703125" y="271.400390625" font-family="Helvetica, Segoe UI Emoji" font-size="20px" fill="#1e1e1e" text-anchor="middle" style="white-space: pre;" direction="ltr" dominant-baseline="alphabetic">9</text><text x="36.6845703125" y="294.400390625" font-family="Helvetica, Segoe UI Emoji" font-size="20px" fill="#1e1e1e" text-anchor="middle" style="white-space: pre;" direction="ltr" dominant-baseline="alphabetic">10</text><text x="36.6845703125" y="317.400390625" font-family="Helvetica, Segoe UI Emoji" font-size="20px" fill="#1e1e1e" text-anchor="middle" style="white-space: pre;" direction="ltr" dominant-baseline="alphabetic">11</text><text x="36.6845703125" y="340.400390625" font-family="Helvetica, Segoe UI Emoji" font-size="20px" fill="#1e1e1e" text-anchor="middle" style="white-space: pre;" direction="ltr" dominant-baseline="alphabetic">12</text><text x="36.6845703125" y="363.400390625" font-family="Helvetica, Segoe UI Emoji" font-size="20px" fill="#1e1e1e" text-anchor="middle" style="white-space: pre;" direction="ltr" dominant-baseline="alphabetic">...</text></g><g transform="translate(985.9261835299858 128.1359603539808) rotate(0 36.6845703125 184)"><text x="36.6845703125" y="18.400390625" font-family="Helvetica, Segoe UI Emoji" font-size="20px" fill="#1e1e1e" text-anchor="middle" style="white-space: pre;" direction="ltr" dominant-baseline="alphabetic">Daten</text><text x="36.6845703125" y="41.400390625" font-family="Helvetica, Segoe UI Emoji" font-size="20px" fill="#1e1e1e" text-anchor="middle" style="white-space: pre;" direction="ltr" dominant-baseline="alphabetic"/><text x="36.6845703125" y="64.400390625" font-family="Helvetica, Segoe UI Emoji" font-size="20px" fill="#1e1e1e" text-anchor="middle" style="white-space: pre;" direction="ltr" dominant-baseline="alphabetic">Befehl</text><text x="36.6845703125" y="87.400390625" font-family="Helvetica, Segoe UI Emoji" font-size="20px" fill="#1e1e1e" text-anchor="middle" style="white-space: pre;" direction="ltr" dominant-baseline="alphabetic">Wert</text><text x="36.6845703125" y="110.400390625" font-family="Helvetica, Segoe UI Emoji" font-size="20px" fill="#1e1e1e" text-anchor="middle" style="white-space: pre;" direction="ltr" dominant-baseline="alphabetic">Befehl</text><text x="36.6845703125" y="133.400390625" font-family="Helvetica, Segoe UI Emoji" font-size="20px" fill="#1e1e1e" text-anchor="middle" style="white-space: pre;" direction="ltr" dominant-baseline="alphabetic">Adresse</text><text x="36.6845703125" y="156.400390625" font-family="Helvetica, Segoe UI Emoji" font-size="20px" fill="#1e1e1e" text-anchor="middle" style="white-space: pre;" direction="ltr" dominant-baseline="alphabetic">Befehl</text><text x="36.6845703125" y="179.400390625" font-family="Helvetica, Segoe UI Emoji" font-size="20px" fill="#1e1e1e" text-anchor="middle" style="white-space: pre;" direction="ltr" dominant-baseline="alphabetic">Adresse</text><text x="36.6845703125" y="202.400390625" font-family="Helvetica, Segoe UI Emoji" font-size="20px" fill="#1e1e1e" text-anchor="middle" style="white-space: pre;" direction="ltr" dominant-baseline="alphabetic">Wert</text><text x="36.6845703125" y="225.400390625" font-family="Helvetica, Segoe UI Emoji" font-size="20px" fill="#1e1e1e" text-anchor="middle" style="white-space: pre;" direction="ltr" dominant-baseline="alphabetic">Wert</text><text x="36.6845703125" y="248.400390625" font-family="Helvetica, Segoe UI Emoji" font-size="20px" fill="#1e1e1e" text-anchor="middle" style="white-space: pre;" direction="ltr" dominant-baseline="alphabetic">Adresse</text><text x="36.6845703125" y="271.400390625" font-family="Helvetica, Segoe UI Emoji" font-size="20px" fill="#1e1e1e" text-anchor="middle" style="white-space: pre;" direction="ltr" dominant-baseline="alphabetic">Wert</text><text x="36.6845703125" y="294.400390625" font-family="Helvetica, Segoe UI Emoji" font-size="20px" fill="#1e1e1e" text-anchor="middle" style="white-space: pre;" direction="ltr" dominant-baseline="alphabetic">Befehl</text><text x="36.6845703125" y="317.400390625" font-family="Helvetica, Segoe UI Emoji" font-size="20px" fill="#1e1e1e" text-anchor="middle" style="white-space: pre;" direction="ltr" dominant-baseline="alphabetic">Adresse</text><text x="36.6845703125" y="340.400390625" font-family="Helvetica, Segoe UI Emoji" font-size="20px" fill="#1e1e1e" text-anchor="middle" style="white-space: pre;" direction="ltr" dominant-baseline="alphabetic">Wert</text><text x="36.6845703125" y="363.400390625" font-family="Helvetica, Segoe UI Emoji" font-size="20px" fill="#1e1e1e" text-anchor="middle" style="white-space: pre;" direction="ltr" dominant-baseline="alphabetic">...</text></g><g stroke-linecap="round" transform="translate(674.8868639363284 239.37505110887028) rotate(0 68.79184031528678 22.19091623073767)"><path d="M0 0 L137.58 0 L137.58 44.38 L0 44.38" stroke="none" stroke-width="0" fill="#ffec99"/><path d="M0 0 C49.62 0, 99.24 0, 137.58 0 M0 0 C39.83 0, 79.65 0, 137.58 0 M137.58 0 C137.58 9.98, 137.58 19.97, 137.58 44.38 M137.58 0 C137.58 9.9, 137.58 19.8, 137.58 44.38 M137.58 44.38 C98.48 44.38, 59.38 44.38, 0 44.38 M137.58 44.38 C100.8 44.38, 64.01 44.38, 0 44.38 M0 44.38 C0 34.88, 0 25.37, 0 0 M0 44.38 C0 28.02, 0 11.66, 0 0" stroke="transparent" stroke-width="1" fill="none"/></g><g stroke-linecap="round"><g transform="translate(808.032361320755 297.0714333087877) rotate(0 19.971824607663905 -35.50546596918027)" fill-rule="evenodd"><path d="M0 0 L39.94 -35.51 L0 -71.01 L0 0" stroke="none" stroke-width="0" fill="#ffec99" fill-rule="evenodd"/><path d="M0 0 C11.76 -10.46, 23.53 -20.92, 39.94 -35.51 M0 0 C14.45 -12.84, 28.89 -25.68, 39.94 -35.51 M39.94 -35.51 C25.53 -48.32, 11.11 -61.14, 0 -71.01 M39.94 -35.51 C30.47 -43.92, 21.01 -52.34, 0 -71.01 M0 -71.01 C0 -47.91, 0 -24.81, 0 0 M0 -71.01 C0 -42.7, 0 -14.38, 0 0 M0 0 C0 0, 0 0, 0 0 M0 0 C0 0, 0 0, 0 0" stroke="transparent" stroke-width="1" fill="none"/></g></g><mask/><g stroke-linecap="round"><g transform="translate(686.3032558772794 295.79442680074624) rotate(0 -19.971824607663905 -35.50546596918027)" fill-rule="evenodd"><path d="M0 0 L-39.94 -35.51 L0 -71.01 L0 0" stroke="none" stroke-width="0" fill="#ffec99" fill-rule="evenodd"/><path d="M0 0 C-13.88 -12.34, -27.76 -24.67, -39.94 -35.51 M0 0 C-9.66 -8.58, -19.31 -17.17, -39.94 -35.51 M-39.94 -35.51 C-28.04 -46.08, -16.14 -56.66, 0 -71.01 M-39.94 -35.51 C-31.62 -42.91, -23.29 -50.31, 0 -71.01 M0 -71.01 C0 -55.96, 0 -40.92, 0 0 M0 -71.01 C0 -45.87, 0 -20.73, 0 0 M0 0 C0 0, 0 0, 0 0 M0 0 C0 0, 0 0, 0 0" stroke="transparent" stroke-width="1" fill="none"/></g></g><mask/><g transform="translate(698.0221278614051 249.8890885259699) rotate(0 50.41535186767578 10.873090433233049)"><text x="0" y="17.39731402369031" font-family="Helvetica, Segoe UI Emoji" font-size="18.909722492579217px" fill="#1e1e1e" text-anchor="start" style="white-space: pre;" direction="ltr" dominant-baseline="alphabetic">System Bus</text></g><g stroke-linecap="round" transform="translate(567.3506535344383 456.6170857330204) rotate(89.99999999999994 184.1793288295491 9.970257102497328)"><path d="M0 0 L368.36 0 L368.36 19.94 L0 19.94" stroke="none" stroke-width="0" fill="#ffec99"/><path d="M0 0 C133.73 0, 267.45 0, 368.36 0 M0 0 C105.15 0, 210.29 0, 368.36 0 M368.36 0 C368.36 7.56, 368.36 15.12, 368.36 19.94 M368.36 0 C368.36 5.08, 368.36 10.16, 368.36 19.94 M368.36 19.94 C221.72 19.94, 75.09 19.94, 0 19.94 M368.36 19.94 C248.17 19.94, 127.98 19.94, 0 19.94 M0 19.94 C0 13.38, 0 6.81, 0 0 M0 19.94 C0 15.51, 0 11.08, 0 0" stroke="transparent" stroke-width="1" fill="none"/></g><g stroke-linecap="round"><g transform="translate(804.8373348588411 747.3145861236956) rotate(89.99999999999994 14.305877139144002 -25.203800459486303)" fill-rule="evenodd"><path d="M0 0 L28.61 -25.2 L0 -50.41 L0 0" stroke="none" stroke-width="0" fill="#ffec99" fill-rule="evenodd"/><path d="M0 0 C8.93 -7.87, 17.86 -15.73, 28.61 -25.2 M0 0 C8.58 -7.56, 17.16 -15.12, 28.61 -25.2 M28.61 -25.2 C19.1 -33.58, 9.59 -41.96, 0 -50.41 M28.61 -25.2 C19.56 -33.18, 10.5 -41.16, 0 -50.41 M0 -50.41 C0 -35.39, 0 -20.37, 0 0 M0 -50.41 C0 -30.9, 0 -11.39, 0 0 M0 0 C0 0, 0 0, 0 0 M0 0 C0 0, 0 0, 0 0" stroke="transparent" stroke-width="1" fill="none"/></g></g><mask/><g stroke-linecap="round" transform="translate(185.00871449768533 647.8965598011857) rotate(180 394.83954976732673 11.864203363355358)"><path d="M0 0 L789.68 0 L789.68 23.73 L0 23.73" stroke="none" stroke-width="0" fill="#ffec99"/><path d="M0 0 C240.43 0, 480.87 0, 789.68 0 M0 0 C168.65 0, 337.3 0, 789.68 0 M789.68 0 C789.68 9.1, 789.68 18.2, 789.68 23.73 M789.68 0 C789.68 6.73, 789.68 13.46, 789.68 23.73 M789.68 23.73 C528.21 23.73, 266.75 23.73, 0 23.73 M789.68 23.73 C566.06 23.73, 342.45 23.73, 0 23.73 M0 23.73 C0 18.11, 0 12.48, 0 0 M0 23.73 C0 14.89, 0 6.05, 0 0" stroke="transparent" stroke-width="1" fill="none"/></g><g stroke-linecap="round" transform="translate(485.1619553266155 601.9419525975604) rotate(0 68.16187949748962 60.98697265550021)"><path d="M30.49 0 C49.89 0, 69.3 0, 105.83 0 C126.16 0, 136.32 10.16, 136.32 30.49 C136.32 43.83, 136.32 57.16, 136.32 91.48 C136.32 111.81, 126.16 121.97, 105.83 121.97 C81.63 121.97, 57.42 121.97, 30.49 121.97 C10.16 121.97, 0 111.81, 0 91.48 C0 77.96, 0 64.43, 0 30.49 C0 10.16, 10.16 0, 30.49 0" stroke="none" stroke-width="0" fill="#a5d8ff"/><path d="M30.49 0 C56.35 0, 82.21 0, 105.83 0 M30.49 0 C49.99 0, 69.5 0, 105.83 0 M105.83 0 C126.16 0, 136.32 10.16, 136.32 30.49 M105.83 0 C126.16 0, 136.32 10.16, 136.32 30.49 M136.32 30.49 C136.32 54.41, 136.32 78.33, 136.32 91.48 M136.32 30.49 C136.32 53.13, 136.32 75.77, 136.32 91.48 M136.32 91.48 C136.32 111.81, 126.16 121.97, 105.83 121.97 M136.32 91.48 C136.32 111.81, 126.16 121.97, 105.83 121.97 M105.83 121.97 C83.74 121.97, 61.64 121.97, 30.49 121.97 M105.83 121.97 C90.58 121.97, 75.33 121.97, 30.49 121.97 M30.49 121.97 C10.16 121.97, 0 111.81, 0 91.48 M30.49 121.97 C10.16 121.97, 0 111.81, 0 91.48 M0 91.48 C0 70.52, 0 49.55, 0 30.49 M0 91.48 C0 74.49, 0 57.49, 0 30.49 M0 30.49 C0 10.16, 10.16 0, 30.49 0 M0 30.49 C0 10.16, 10.16 0, 30.49 0" stroke="#1e1e1e" stroke-width="2" fill="none"/></g><g transform="translate(519.4175848241051 651.4289252530606) rotate(0 33.90625 11.5)"><text x="33.90625" y="18.400390625" font-family="Helvetica, Segoe UI Emoji" font-size="20px" fill="#1e1e1e" text-anchor="middle" style="white-space: pre;" direction="ltr" dominant-baseline="alphabetic">Chipset</text></g><g transform="translate(771.6764307883725 744.9589271853039) rotate(0 48.9013671875 11.5)"><text x="48.9013671875" y="18.400390625" font-family="Helvetica, Segoe UI Emoji" font-size="20px" fill="#1e1e1e" text-anchor="middle" style="white-space: pre;" direction="ltr" dominant-baseline="alphabetic">Grafikkarte</text></g><g transform="translate(895.6162595000822 744.9589274733535) rotate(0 46.669921875 11.5)"><text x="46.669921875" y="18.400390625" font-family="Helvetica, Segoe UI Emoji" font-size="20px" fill="#1e1e1e" text-anchor="middle" style="white-space: pre;" direction="ltr" dominant-baseline="alphabetic">SSD (M.2)</text></g><g stroke-linecap="round" transform="translate(795.8092943550097 672.9383531686619) rotate(89.99999999999994 22.949401288733895 16.00993264401515)"><path d="M0 0 L45.9 0 L45.9 32.02 L0 32.02" stroke="none" stroke-width="0" fill="#ffec99"/><path d="M0 0 C9.56 0, 19.12 0, 45.9 0 M0 0 C15.77 0, 31.54 0, 45.9 0 M45.9 0 C45.9 10.26, 45.9 20.52, 45.9 32.02 M45.9 0 C45.9 9.39, 45.9 18.78, 45.9 32.02 M45.9 32.02 C35.21 32.02, 24.52 32.02, 0 32.02 M45.9 32.02 C34.81 32.02, 23.71 32.02, 0 32.02 M0 32.02 C0 20.85, 0 9.69, 0 0 M0 32.02 C0 20.02, 0 8.03, 0 0" stroke="transparent" stroke-width="1" fill="none"/></g><g stroke-linecap="round"><g transform="translate(931.5091879700453 747.3145861236957) rotate(89.99999999999994 14.305877139144002 -25.203800459486303)" fill-rule="evenodd"><path d="M0 0 L28.61 -25.2 L0 -50.41 L0 0" stroke="none" stroke-width="0" fill="#ffec99" fill-rule="evenodd"/><path d="M0 0 C9.61 -8.47, 19.23 -16.94, 28.61 -25.2 M0 0 C8.32 -7.33, 16.65 -14.66, 28.61 -25.2 M28.61 -25.2 C17.75 -34.77, 6.89 -44.34, 0 -50.41 M28.61 -25.2 C19.76 -33, 10.92 -40.79, 0 -50.41 M0 -50.41 C0 -39.78, 0 -29.15, 0 0 M0 -50.41 C0 -34.75, 0 -19.1, 0 0 M0 0 C0 0, 0 0, 0 0 M0 0 C0 0, 0 0, 0 0" stroke="transparent" stroke-width="1" fill="none"/></g></g><mask/><g stroke-linecap="round" transform="translate(922.481147466214 672.9383531686619) rotate(89.99999999999994 22.949401288733895 16.00993264401515)"><path d="M0 0 L45.9 0 L45.9 32.02 L0 32.02" stroke="none" stroke-width="0" fill="#ffec99"/><path d="M0 0 C11.71 0, 23.43 0, 45.9 0 M0 0 C17.83 0, 35.67 0, 45.9 0 M45.9 0 C45.9 7.03, 45.9 14.05, 45.9 32.02 M45.9 0 C45.9 7.69, 45.9 15.38, 45.9 32.02 M45.9 32.02 C29.97 32.02, 14.05 32.02, 0 32.02 M45.9 32.02 C32.84 32.02, 19.79 32.02, 0 32.02 M0 32.02 C0 21.09, 0 10.16, 0 0 M0 32.02 C0 20.7, 0 9.37, 0 0" stroke="transparent" stroke-width="1" fill="none"/></g><g stroke-linecap="round"><g transform="translate(201.01153000545742 747.3145861236956) rotate(89.99999999999994 14.305877139143988 -25.203800459486303)" fill-rule="evenodd"><path d="M0 0 L28.61 -25.2 L0 -50.41 L0 0" stroke="none" stroke-width="0" fill="#ffec99" fill-rule="evenodd"/><path d="M0 0 C7.02 -6.18, 14.04 -12.37, 28.61 -25.2 M0 0 C9.59 -8.45, 19.19 -16.9, 28.61 -25.2 M28.61 -25.2 C19.64 -33.11, 10.66 -41.02, 0 -50.41 M28.61 -25.2 C18.89 -33.77, 9.17 -42.33, 0 -50.41 M0 -50.41 C0 -33.55, 0 -16.7, 0 0 M0 -50.41 C0 -36.25, 0 -22.1, 0 0 M0 0 C0 0, 0 0, 0 0 M0 0 C0 0, 0 0, 0 0" stroke="transparent" stroke-width="1" fill="none"/></g></g><mask/><g transform="translate(196.19046968498878 742.6242524518398) rotate(0 20.5615234375 11.5)"><text x="20.5615234375" y="18.400390625" font-family="Helvetica, Segoe UI Emoji" font-size="20px" fill="#1e1e1e" text-anchor="middle" style="white-space: pre;" direction="ltr" dominant-baseline="alphabetic">USB</text></g><g transform="translate(303.82658745919844 742.6242527398895) rotate(0 54.6337890625 11.5)"><text x="54.6337890625" y="18.400390625" font-family="Helvetica, Segoe UI Emoji" font-size="20px" fill="#1e1e1e" text-anchor="middle" style="white-space: pre;" direction="ltr" dominant-baseline="alphabetic">SSD (SATA)</text></g><g stroke-linecap="round" transform="translate(191.98348950162608 672.9383531686619) rotate(89.99999999999994 22.949401288733895 16.00993264401515)"><path d="M0 0 L45.9 0 L45.9 32.02 L0 32.02" stroke="none" stroke-width="0" fill="#ffec99"/><path d="M0 0 C9.29 0, 18.58 0, 45.9 0 M0 0 C16.14 0, 32.27 0, 45.9 0 M45.9 0 C45.9 12.01, 45.9 24.03, 45.9 32.02 M45.9 0 C45.9 8.18, 45.9 16.36, 45.9 32.02 M45.9 32.02 C33.88 32.02, 21.85 32.02, 0 32.02 M45.9 32.02 C35.52 32.02, 25.14 32.02, 0 32.02 M0 32.02 C0 23, 0 13.99, 0 0 M0 32.02 C0 19.86, 0 7.71, 0 0" stroke="transparent" stroke-width="1" fill="none"/></g><g stroke-linecap="round"><g transform="translate(347.6833831166616 747.3145861236956) rotate(89.99999999999994 14.305877139143973 -25.203800459486303)" fill-rule="evenodd"><path d="M0 0 L28.61 -25.2 L0 -50.41 L0 0" stroke="none" stroke-width="0" fill="#ffec99" fill-rule="evenodd"/><path d="M0 0 C6.67 -5.88, 13.35 -11.76, 28.61 -25.2 M0 0 C7.11 -6.26, 14.22 -12.53, 28.61 -25.2 M28.61 -25.2 C19.78 -32.98, 10.95 -40.77, 0 -50.41 M28.61 -25.2 C18.53 -34.09, 8.44 -42.97, 0 -50.41 M0 -50.41 C0 -38.34, 0 -26.26, 0 0 M0 -50.41 C0 -37.9, 0 -25.38, 0 0 M0 0 C0 0, 0 0, 0 0 M0 0 C0 0, 0 0, 0 0" stroke="transparent" stroke-width="1" fill="none"/></g></g><mask/><g stroke-linecap="round" transform="translate(338.6553426128303 672.9383531686619) rotate(89.99999999999994 22.949401288733895 16.00993264401515)"><path d="M0 0 L45.9 0 L45.9 32.02 L0 32.02" stroke="none" stroke-width="0" fill="#ffec99"/><path d="M0 0 C13.62 0, 27.23 0, 45.9 0 M0 0 C12.13 0, 24.25 0, 45.9 0 M45.9 0 C45.9 10.82, 45.9 21.64, 45.9 32.02 M45.9 0 C45.9 9.83, 45.9 19.67, 45.9 32.02 M45.9 32.02 C29.04 32.02, 12.17 32.02, 0 32.02 M45.9 32.02 C29.4 32.02, 12.91 32.02, 0 32.02 M0 32.02 C0 23.85, 0 15.69, 0 0 M0 32.02 C0 20.27, 0 8.52, 0 0" stroke="transparent" stroke-width="1" fill="none"/></g><g transform="translate(571.513304064416 449.2811184239954) rotate(0 8.3349609375 11.5)"><text x="8.3349609375" y="18.400390625" font-family="Helvetica, Segoe UI Emoji" font-size="20px" fill="#1e1e1e" text-anchor="middle" style="white-space: pre;" direction="ltr" dominant-baseline="alphabetic">...</text></g><g stroke-linecap="round"><g transform="translate(685.7166937251235 747.3145861236956) rotate(89.99999999999994 14.305877139144002 -25.203800459486303)" fill-rule="evenodd"><path d="M0 0 L28.61 -25.2 L0 -50.41 L0 0" stroke="none" stroke-width="0" fill="#ffec99" fill-rule="evenodd"/><path d="M0 0 C8.72 -7.68, 17.43 -15.36, 28.61 -25.2 M0 0 C7.38 -6.5, 14.76 -13, 28.61 -25.2 M28.61 -25.2 C20.08 -32.72, 11.56 -40.23, 0 -50.41 M28.61 -25.2 C18.79 -33.86, 8.96 -42.51, 0 -50.41 M0 -50.41 C0 -37.6, 0 -24.79, 0 0 M0 -50.41 C0 -39.91, 0 -29.41, 0 0 M0 0 C0 0, 0 0, 0 0 M0 0 C0 0, 0 0, 0 0" stroke="transparent" stroke-width="1" fill="none"/></g></g><mask/><g transform="translate(680.8956334046549 742.6242518690099) rotate(0 20.5615234375 11.5)"><text x="20.5615234375" y="18.400390625" font-family="Helvetica, Segoe UI Emoji" font-size="20px" fill="#1e1e1e" text-anchor="middle" style="white-space: pre;" direction="ltr" dominant-baseline="alphabetic">USB</text></g><g stroke-linecap="round" transform="translate(676.6886532212922 672.9383531686619) rotate(89.99999999999994 22.949401288733895 16.00993264401515)"><path d="M0 0 L45.9 0 L45.9 32.02 L0 32.02" stroke="none" stroke-width="0" fill="#ffec99"/><path d="M0 0 C12.13 0, 24.26 0, 45.9 0 M0 0 C10.64 0, 21.28 0, 45.9 0 M45.9 0 C45.9 11.57, 45.9 23.14, 45.9 32.02 M45.9 0 C45.9 6.99, 45.9 13.98, 45.9 32.02 M45.9 32.02 C33.02 32.02, 20.15 32.02, 0 32.02 M45.9 32.02 C27.68 32.02, 9.46 32.02, 0 32.02 M0 32.02 C0 22.29, 0 12.55, 0 0 M0 32.02 C0 23.03, 0 14.05, 0 0" stroke="transparent" stroke-width="1" fill="none"/></g><g transform="translate(-101.03820312675741 291.34292560982703) rotate(270 144.5068359375 11.5)"><text x="0" y="18.400390625" font-family="Helvetica, Segoe UI Emoji" font-size="20px" fill="#1e1e1e" text-anchor="start" style="white-space: pre;" direction="ltr" dominant-baseline="alphabetic">Klassische Neumann Architektur</text></g><g transform="translate(-37.595703124999986 640.9973762660771) rotate(270 70.595703125 23)"><text x="70.595703125" y="18.400390625" font-family="Helvetica, Segoe UI Emoji" font-size="20px" fill="#1e1e1e" text-anchor="middle" style="white-space: pre;" direction="ltr" dominant-baseline="alphabetic">Moderne </text><text x="70.595703125" y="41.400390625" font-family="Helvetica, Segoe UI Emoji" font-size="20px" fill="#1e1e1e" text-anchor="middle" style="white-space: pre;" direction="ltr" dominant-baseline="alphabetic">Inputs / Outputs</text></g></svg>