<svg version="1.1" xmlns="http://www.w3.org/2000/svg" viewBox="0 0 221.4950496433769 283.22175861995316" width="221.4950496433769" height="283.22175861995316" class="excalidraw-svg">
  <!-- svg-source:excalidraw -->
  
  <defs>
    <style class="style-fonts">
      @font-face {
        font-family: "Virgil";
        src: url("https://excalidraw.com/Virgil.woff2");
      }
      @font-face {
        font-family: "Cascadia";
        src: url("https://excalidraw.com/Cascadia.woff2");
      }
      @font-face {
        font-family: "Assistant";
        src: url("https://excalidraw.com/Assistant-Regular.woff2");
      }
    </style>
    
  </defs>
  <g stroke-linecap="round"><g transform="translate(30.248458637671888 112.27137687360495) rotate(0 0 79.9499225153572)"><path d="M0 0 C0 26.65, 0 133.25, 0 159.9 M0 0 C0 26.65, 0 133.25, 0 159.9" stroke="#1e1e1e" stroke-width="2" fill="none"/></g></g><mask/><g stroke-linecap="round"><g transform="translate(30.795800809546904 273.22175861995316) rotate(0 81.72415730642214 0)"><path d="M0 0 C27.24 0, 136.21 0, 163.45 0 M0 0 C27.24 0, 136.21 0, 163.45 0" stroke="#1e1e1e" stroke-width="2" fill="none"/></g></g><mask/><g stroke-linecap="round"><g transform="translate(193.4815027604941 205.52927215980287) rotate(0 0 33.44624933359077)"><path d="M0 0 C0 11.15, 0 55.74, 0 66.89 M0 0 C0 11.15, 0 55.74, 0 66.89" stroke="#1e1e1e" stroke-width="2" fill="none"/></g></g><mask/><g stroke-linecap="round"><g transform="translate(30.248459498356624 103.7723362497191) rotate(0 0 -36.82062797384046)"><path d="M0 0 C0 -12.27, 0 -61.37, 0 -73.64 M0 0 C0 -12.27, 0 -61.37, 0 -73.64" stroke="#1e1e1e" stroke-width="2" fill="none"/></g></g><mask/><g stroke-linecap="round"><g transform="translate(121.88601140690389 30.06469270887726) rotate(0 35.2919664729514 0)"><path d="M0 0 C11.76 0, 58.82 0, 70.58 0 M0 0 C11.76 0, 58.82 0, 70.58 0" stroke="#1e1e1e" stroke-width="2" fill="none"/></g></g><mask/><g stroke-linecap="round"><g transform="translate(192.87464805711699 169.978984539272) rotate(0 0 -31.65127229065996)"><path d="M0 0 C0 -10.55, 0 -52.75, 0 -63.3 M0 0 C0 -10.55, 0 -52.75, 0 -63.3" stroke="#1e1e1e" stroke-width="2" fill="none"/></g></g><mask/><g stroke-linecap="round"><g transform="translate(192.13411237574485 30.047774642832096) rotate(0 0 21.583390997064264)"><path d="M0 0 C0 7.19, 0 35.97, 0 43.17 M0 0 C0 7.19, 0 35.97, 0 43.17" stroke="#1e1e1e" stroke-width="2" fill="none"/></g></g><mask/><g stroke-linecap="round"><g transform="translate(193.6472678429368 205.859781500946) rotate(0 8.923890900220044 -15.864687929211627)"><path d="M0 0 C2.97 -5.29, 14.87 -26.44, 17.85 -31.73 M0 0 C2.97 -5.29, 14.87 -26.44, 17.85 -31.73" stroke="#1e1e1e" stroke-width="2" fill="none"/></g></g><mask/><g stroke-linecap="round"><g transform="translate(193.08218610764783 106.75906098917632) rotate(0 8.923890900220044 -15.864687929211627)"><path d="M0 0 C2.97 -5.29, 14.87 -26.44, 17.85 -31.73 M0 0 C2.97 -5.29, 14.87 -26.44, 17.85 -31.73" stroke="#1e1e1e" stroke-width="2" fill="none"/></g></g><mask/><g transform="translate(164.6579919175183 78.58271098053461) rotate(0 6.669921875 11.5)"><text x="0" y="18.400390625" font-family="Helvetica, Segoe UI Emoji" font-size="20px" fill="#1e1e1e" text-anchor="start" style="white-space: pre;" direction="ltr" dominant-baseline="alphabetic">B</text></g><g transform="translate(166.43599029799424 175.7003850056129) rotate(0 6.669921875 11.5)"><text x="0" y="18.400390625" font-family="Helvetica, Segoe UI Emoji" font-size="20px" fill="#1e1e1e" text-anchor="start" style="white-space: pre;" direction="ltr" dominant-baseline="alphabetic">A</text></g><g stroke-linecap="round"><g transform="translate(19.36723028987899 111.54028042841333) rotate(0 12.017464490637138 0)"><path d="M0 0 C4.01 0, 20.03 0, 24.03 0 M0 0 C4.01 0, 20.03 0, 24.03 0" stroke="#1e1e1e" stroke-width="2" fill="none"/></g></g><mask/><g stroke-linecap="round"><g transform="translate(10 104.13788795847438) rotate(0 23.326679082109905 0)"><path d="M0 0 C7.78 0, 38.88 0, 46.65 0 M0 0 C7.78 0, 38.88 0, 46.65 0" stroke="#1e1e1e" stroke-width="2" fill="none"/></g></g><mask/><g stroke-linecap="round" transform="translate(81.74315420634684 10) rotate(0 19.84072596378347 19.725374645535943)"><path d="M39.68 19.73 C39.68 20.87, 39.58 22.03, 39.38 23.15 C39.18 24.28, 38.88 25.4, 38.48 26.47 C38.09 27.54, 37.6 28.6, 37.02 29.59 C36.45 30.58, 35.78 31.53, 35.04 32.4 C34.3 33.28, 33.47 34.1, 32.59 34.84 C31.71 35.57, 30.76 36.24, 29.76 36.81 C28.77 37.38, 27.71 37.87, 26.63 38.26 C25.55 38.65, 24.42 38.95, 23.29 39.15 C22.16 39.35, 20.99 39.45, 19.84 39.45 C18.69 39.45, 17.53 39.35, 16.4 39.15 C15.26 38.95, 14.13 38.65, 13.05 38.26 C11.98 37.87, 10.91 37.38, 9.92 36.81 C8.93 36.24, 7.97 35.57, 7.09 34.84 C6.21 34.1, 5.38 33.28, 4.64 32.4 C3.9 31.53, 3.23 30.58, 2.66 29.59 C2.08 28.6, 1.59 27.54, 1.2 26.47 C0.8 25.4, 0.5 24.28, 0.3 23.15 C0.1 22.03, 0 20.87, 0 19.73 C0 18.58, 0.1 17.42, 0.3 16.3 C0.5 15.18, 0.8 14.05, 1.2 12.98 C1.59 11.91, 2.08 10.85, 2.66 9.86 C3.23 8.87, 3.9 7.92, 4.64 7.05 C5.38 6.17, 6.21 5.35, 7.09 4.61 C7.97 3.88, 8.93 3.21, 9.92 2.64 C10.91 2.07, 11.98 1.58, 13.05 1.19 C14.13 0.8, 15.26 0.5, 16.4 0.3 C17.53 0.1, 18.69 0, 19.84 0 C20.99 0, 22.16 0.1, 23.29 0.3 C24.42 0.5, 25.55 0.8, 26.63 1.19 C27.71 1.58, 28.77 2.07, 29.76 2.64 C30.76 3.21, 31.71 3.88, 32.59 4.61 C33.47 5.35, 34.3 6.17, 35.04 7.05 C35.78 7.92, 36.45 8.87, 37.02 9.86 C37.6 10.85, 38.09 11.91, 38.48 12.98 C38.88 14.05, 39.18 15.18, 39.38 16.3 C39.58 17.42, 39.63 19.15, 39.68 19.73 C39.73 20.3, 39.73 19.15, 39.68 19.73" stroke="#1e1e1e" stroke-width="2" fill="none"/></g><g stroke-linecap="round"><g transform="translate(30.248458936451925 29.725374773609204) rotate(0 25.63702068082503 0)"><path d="M0 0 C8.55 0, 42.73 0, 51.27 0 M0 0 C8.55 0, 42.73 0, 51.27 0" stroke="#1e1e1e" stroke-width="2" fill="none"/></g></g><mask/><g stroke-linecap="round"><g transform="translate(116.41022772946474 17.21924321794961) rotate(0 -14.502745741913628 12.271554163711208)"><path d="M0 0 C-4.83 4.09, -24.17 20.45, -29.01 24.54 M0 0 C-4.83 4.09, -24.17 20.45, -29.01 24.54" stroke="#1e1e1e" stroke-width="2" fill="none"/></g></g><mask/><g stroke-linecap="round"><g transform="translate(86.79622707755675 17.675625094010172) rotate(0 14.502745741913628 12.271554163711208)"><path d="M0 0 C4.83 4.09, 24.17 20.45, 29.01 24.54 M0 0 C4.83 4.09, 24.17 20.45, 29.01 24.54" stroke="#1e1e1e" stroke-width="2" fill="none"/></g></g><mask/><g transform="translate(17.82810143806273 92.33596756665838) rotate(0 0.23116125146378863 3.3073760239937613)" stroke="none"><path fill="#1e1e1e" d="M 0.83,-0.05 Q 0.83,-0.05 1.00,0.58 1.16,1.21 1.13,3.78 1.10,6.34 1.11,6.45 1.13,6.55 1.11,6.66 1.09,6.76 1.03,6.85 0.98,6.95 0.90,7.02 0.82,7.09 0.72,7.13 0.63,7.17 0.52,7.18 0.41,7.19 0.31,7.16 0.21,7.14 0.12,7.08 0.03,7.02 -0.03,6.94 -0.09,6.85 -0.13,6.75 -0.17,6.66 -0.17,6.55 -0.17,6.44 -0.14,6.34 -0.11,6.24 -0.05,6.15 0.01,6.07 0.09,6.01 0.18,5.94 0.28,5.91 0.38,5.88 0.49,5.89 0.60,5.89 0.69,5.93 0.79,5.96 0.88,6.03 0.96,6.10 1.02,6.19 1.07,6.28 1.10,6.38 1.12,6.48 1.12,6.59 1.11,6.69 1.06,6.79 1.02,6.89 0.95,6.97 0.88,7.05 0.79,7.10 0.69,7.15 0.59,7.17 0.49,7.19 0.38,7.18 0.27,7.16 0.18,7.11 0.08,7.07 0.01,6.99 -0.05,6.91 -0.10,6.82 -0.15,6.72 -0.15,6.72 -0.15,6.72 -0.57,4.04 -1.00,1.35 -0.91,0.70 -0.83,0.05 -0.82,-0.04 -0.82,-0.14 -0.79,-0.24 -0.76,-0.34 -0.70,-0.42 -0.65,-0.51 -0.58,-0.58 -0.51,-0.65 -0.43,-0.70 -0.34,-0.75 -0.24,-0.78 -0.15,-0.82 -0.05,-0.82 0.04,-0.83 0.14,-0.81 0.24,-0.79 0.33,-0.75 0.42,-0.71 0.50,-0.65 0.58,-0.59 0.65,-0.51 0.71,-0.43 0.75,-0.34 0.79,-0.25 0.81,-0.15 0.83,-0.05 0.83,-0.05 L 0.83,-0.05 Z"/></g><g transform="translate(14.36288992484674 96.0831249693003) rotate(0 3.8586064918492866 -0.26672321646987385)" stroke="none"><path fill="#1e1e1e" d="M 0.03,-0.80 Q 0.03,-0.80 0.54,-0.90 1.06,-1.01 1.80,-1.02 2.55,-1.04 3.09,-1.09 3.64,-1.14 5.57,-1.19 7.51,-1.23 7.62,-1.23 7.72,-1.23 7.82,-1.19 7.92,-1.16 8.00,-1.09 8.09,-1.02 8.14,-0.93 8.20,-0.84 8.23,-0.74 8.25,-0.64 8.24,-0.53 8.24,-0.43 8.19,-0.33 8.15,-0.23 8.08,-0.15 8.01,-0.07 7.92,-0.02 7.82,0.02 7.72,0.04 7.62,0.06 7.51,0.05 7.40,0.03 7.31,-0.00 7.21,-0.05 7.14,-0.13 7.06,-0.20 7.02,-0.30 6.97,-0.39 6.96,-0.50 6.94,-0.60 6.96,-0.71 6.98,-0.81 7.03,-0.90 7.09,-1.00 7.17,-1.07 7.24,-1.14 7.34,-1.18 7.44,-1.22 7.55,-1.23 7.65,-1.24 7.76,-1.21 7.86,-1.19 7.95,-1.13 8.04,-1.07 8.10,-0.99 8.17,-0.91 8.21,-0.81 8.24,-0.71 8.25,-0.60 8.25,-0.49 8.22,-0.39 8.19,-0.29 8.12,-0.21 8.06,-0.12 7.98,-0.06 7.89,-0.00 7.79,0.03 7.69,0.06 7.69,0.06 7.69,0.06 5.72,0.60 3.75,1.15 3.13,1.15 2.52,1.15 1.75,1.12 0.98,1.09 0.47,0.94 -0.03,0.80 -0.12,0.78 -0.22,0.77 -0.31,0.73 -0.40,0.69 -0.47,0.63 -0.55,0.57 -0.61,0.50 -0.67,0.42 -0.72,0.34 -0.76,0.25 -0.78,0.15 -0.80,0.06 -0.79,-0.03 -0.79,-0.12 -0.76,-0.22 -0.73,-0.31 -0.69,-0.39 -0.64,-0.48 -0.57,-0.55 -0.50,-0.62 -0.42,-0.67 -0.34,-0.72 -0.25,-0.75 -0.16,-0.78 -0.06,-0.79 0.03,-0.80 0.03,-0.80 L 0.03,-0.80 Z"/></g><g transform="translate(14.709738539585942 119.41432149427683) rotate(0 3.1649191855618994 -0.3034875763012934)" stroke="none"><path fill="#1e1e1e" d="M -0.15,-1.16 Q -0.15,-1.16 0.46,-1.35 1.07,-1.55 1.85,-1.55 2.64,-1.55 4.61,-1.27 6.59,-0.99 6.69,-0.97 6.80,-0.95 6.89,-0.90 6.98,-0.85 7.06,-0.77 7.13,-0.70 7.17,-0.60 7.22,-0.50 7.23,-0.40 7.24,-0.29 7.21,-0.19 7.19,-0.08 7.13,0.00 7.08,0.09 7.00,0.16 6.92,0.22 6.82,0.26 6.72,0.30 6.61,0.31 6.51,0.31 6.40,0.28 6.30,0.25 6.21,0.19 6.13,0.13 6.06,0.05 6.00,-0.03 5.97,-0.13 5.93,-0.23 5.93,-0.34 5.93,-0.44 5.97,-0.54 6.00,-0.64 6.07,-0.73 6.13,-0.81 6.22,-0.87 6.31,-0.93 6.41,-0.96 6.52,-0.99 6.62,-0.98 6.73,-0.97 6.83,-0.93 6.93,-0.89 7.01,-0.82 7.09,-0.75 7.14,-0.66 7.19,-0.57 7.22,-0.47 7.24,-0.36 7.23,-0.26 7.21,-0.15 7.17,-0.05 7.12,0.03 7.05,0.11 6.97,0.18 6.88,0.23 6.79,0.28 6.68,0.30 6.58,0.31 6.58,0.31 6.58,0.31 4.60,0.66 2.62,1.01 1.82,1.00 1.02,0.99 0.41,0.77 -0.18,0.55 -0.29,0.53 -0.39,0.52 -0.48,0.48 -0.58,0.44 -0.66,0.38 -0.75,0.32 -0.81,0.24 -0.88,0.16 -0.93,0.07 -0.97,-0.01 -1.00,-0.11 -1.02,-0.21 -1.02,-0.32 -1.01,-0.42 -0.99,-0.52 -0.96,-0.62 -0.91,-0.71 -0.86,-0.80 -0.79,-0.88 -0.72,-0.95 -0.63,-1.01 -0.55,-1.07 -0.45,-1.10 -0.35,-1.14 -0.25,-1.15 -0.15,-1.16 -0.15,-1.16 L -0.15,-1.16 Z"/></g></svg>