<svg version="1.1" xmlns="http://www.w3.org/2000/svg" viewBox="0 0 302.66662639097973 290.81537019755046" width="302.66662639097973" height="290.81537019755046" filter="invert(93%) hue-rotate(180deg)" class="excalidraw-svg">
  <!-- svg-source:excalidraw -->
  
  <defs>
    <style class="style-fonts">
      @font-face {
        font-family: "Virgil";
        src: url("https://excalidraw.com/Virgil.woff2");
      }
      @font-face {
        font-family: "Cascadia";
        src: url("https://excalidraw.com/Cascadia.woff2");
      }
      @font-face {
        font-family: "Assistant";
        src: url("https://excalidraw.com/Assistant-Regular.woff2");
      }
    </style>
    
  </defs>
  <g stroke-linecap="round" transform="translate(10.00000038583903 10) rotate(0 141.33331298828125 28.5)"><path d="M14.25 0 C109.35 0, 204.46 0, 268.42 0 M14.25 0 C106.25 0, 198.25 0, 268.42 0 M268.42 0 C277.92 0, 282.67 4.75, 282.67 14.25 M268.42 0 C277.92 0, 282.67 4.75, 282.67 14.25 M282.67 14.25 C282.67 21.13, 282.67 28.02, 282.67 42.75 M282.67 14.25 C282.67 23.94, 282.67 33.62, 282.67 42.75 M282.67 42.75 C282.67 52.25, 277.92 57, 268.42 57 M282.67 42.75 C282.67 52.25, 277.92 57, 268.42 57 M268.42 57 C216.01 57, 163.6 57, 14.25 57 M268.42 57 C214.58 57, 160.74 57, 14.25 57 M14.25 57 C4.75 57, 0 52.25, 0 42.75 M14.25 57 C4.75 57, 0 52.25, 0 42.75 M0 42.75 C0 35.05, 0 27.36, 0 14.25 M0 42.75 C0 31.74, 0 20.72, 0 14.25 M0 14.25 C0 4.75, 4.75 0, 14.25 0 M0 14.25 C0 4.75, 4.75 0, 14.25 0" stroke="#1e1e1e" stroke-width="2" fill="none"/></g><g transform="translate(88.29229774912028 22.399999999999977) rotate(0 63.041015625 16.100000000000023)"><text x="63.041015625" y="25.760546874999996" font-family="Helvetica, Segoe UI Emoji" font-size="28px" fill="#1e1e1e" text-anchor="middle" style="white-space: pre;" direction="ltr" dominant-baseline="alphabetic">Anwender</text></g><g stroke-linecap="round" transform="translate(10.000000007068422 81.27179026884392) rotate(0 141.33331298828125 28.5)"><path d="M14.25 0 C91.76 0, 169.27 0, 268.42 0 M14.25 0 C80.01 0, 145.77 0, 268.42 0 M268.42 0 C277.92 0, 282.67 4.75, 282.67 14.25 M268.42 0 C277.92 0, 282.67 4.75, 282.67 14.25 M282.67 14.25 C282.67 21.49, 282.67 28.72, 282.67 42.75 M282.67 14.25 C282.67 20.46, 282.67 26.67, 282.67 42.75 M282.67 42.75 C282.67 52.25, 277.92 57, 268.42 57 M282.67 42.75 C282.67 52.25, 277.92 57, 268.42 57 M268.42 57 C214.12 57, 159.82 57, 14.25 57 M268.42 57 C168.03 57, 67.64 57, 14.25 57 M14.25 57 C4.75 57, 0 52.25, 0 42.75 M14.25 57 C4.75 57, 0 52.25, 0 42.75 M0 42.75 C0 36.01, 0 29.27, 0 14.25 M0 42.75 C0 33.76, 0 24.77, 0 14.25 M0 14.25 C0 4.75, 4.75 0, 14.25 0 M0 14.25 C0 4.75, 4.75 0, 14.25 0" stroke="#1e1e1e" stroke-width="2" fill="none"/></g><g transform="translate(77.38214112034967 93.67179026884389) rotate(0 73.951171875 16.100000000000023)"><text x="73.951171875" y="25.760546874999996" font-family="Helvetica, Segoe UI Emoji" font-size="28px" fill="#1e1e1e" text-anchor="middle" style="white-space: pre;" direction="ltr" dominant-baseline="alphabetic">Anwendung</text></g><g stroke-linecap="round" transform="translate(10.00000041441723 152.54358003972948) rotate(0 141.33331298828125 28.5)"><path d="M14.25 0 C103.92 0, 193.59 0, 268.42 0 M14.25 0 C109.81 0, 205.37 0, 268.42 0 M268.42 0 C277.92 0, 282.67 4.75, 282.67 14.25 M268.42 0 C277.92 0, 282.67 4.75, 282.67 14.25 M282.67 14.25 C282.67 24.93, 282.67 35.61, 282.67 42.75 M282.67 14.25 C282.67 22.51, 282.67 30.77, 282.67 42.75 M282.67 42.75 C282.67 52.25, 277.92 57, 268.42 57 M282.67 42.75 C282.67 52.25, 277.92 57, 268.42 57 M268.42 57 C175.18 57, 81.95 57, 14.25 57 M268.42 57 C194.86 57, 121.31 57, 14.25 57 M14.25 57 C4.75 57, 0 52.25, 0 42.75 M14.25 57 C4.75 57, 0 52.25, 0 42.75 M0 42.75 C0 32.9, 0 23.06, 0 14.25 M0 42.75 C0 35.23, 0 27.72, 0 14.25 M0 14.25 C0 4.75, 4.75 0, 14.25 0 M0 14.25 C0 4.75, 4.75 0, 14.25 0" stroke="#1e1e1e" stroke-width="2" fill="none"/></g><g transform="translate(62.63702434019848 164.94358003972945) rotate(0 88.6962890625 16.100000000000023)"><text x="88.6962890625" y="25.760546874999996" font-family="Helvetica, Segoe UI Emoji" font-size="28px" fill="#1e1e1e" text-anchor="middle" style="white-space: pre;" direction="ltr" dominant-baseline="alphabetic">Betriebsystem</text></g><g stroke-linecap="round" transform="translate(10 223.81537019755046) rotate(0 141.33331298828125 28.5)"><path d="M14.25 0 C69.9 0, 125.55 0, 268.42 0 M14.25 0 C69.44 0, 124.62 0, 268.42 0 M268.42 0 C277.92 0, 282.67 4.75, 282.67 14.25 M268.42 0 C277.92 0, 282.67 4.75, 282.67 14.25 M282.67 14.25 C282.67 23.98, 282.67 33.72, 282.67 42.75 M282.67 14.25 C282.67 24.24, 282.67 34.23, 282.67 42.75 M282.67 42.75 C282.67 52.25, 277.92 57, 268.42 57 M282.67 42.75 C282.67 52.25, 277.92 57, 268.42 57 M268.42 57 C196.95 57, 125.48 57, 14.25 57 M268.42 57 C196.02 57, 123.63 57, 14.25 57 M14.25 57 C4.75 57, 0 52.25, 0 42.75 M14.25 57 C4.75 57, 0 52.25, 0 42.75 M0 42.75 C0 31.85, 0 20.96, 0 14.25 M0 42.75 C0 31.8, 0 20.85, 0 14.25 M0 14.25 C0 4.75, 4.75 0, 14.25 0 M0 14.25 C0 4.75, 4.75 0, 14.25 0" stroke="#1e1e1e" stroke-width="2" fill="none"/></g><g transform="translate(90.64385986328125 236.21537019755044) rotate(0 60.689453125 16.100000000000023)"><text x="60.689453125" y="25.760546874999996" font-family="Helvetica, Segoe UI Emoji" font-size="28px" fill="#1e1e1e" text-anchor="middle" style="white-space: pre;" direction="ltr" dominant-baseline="alphabetic">Hardware</text></g></svg>