<svg version="1.1" xmlns="http://www.w3.org/2000/svg" viewBox="0 0 370.8043487277208 157.37971766459688" width="370.8043487277208" height="157.37971766459688" class="excalidraw-svg">
  <!-- svg-source:excalidraw -->
  
  <defs>
    <style class="style-fonts">
      @font-face {
        font-family: "Virgil";
        src: url("https://excalidraw.com/Virgil.woff2");
      }
      @font-face {
        font-family: "Cascadia";
        src: url("https://excalidraw.com/Cascadia.woff2");
      }
      @font-face {
        font-family: "Assistant";
        src: url("https://excalidraw.com/Assistant-Regular.woff2");
      }
    </style>
    
  </defs>
  <g transform="translate(10.000000000000028 11.56282593367905) rotate(0 9.49462890625 16.373099909978976)"><text x="0" y="26.197516007457878" font-family="Helvetica, Segoe UI Emoji" font-size="28.47495636518084px" fill="#e03131" text-anchor="start" style="white-space: pre;" direction="ltr" dominant-baseline="alphabetic">A</text></g><g transform="translate(10 107.14684931518724) rotate(0 9.49462890625 16.373099909978983)"><text x="0" y="26.197516007457878" font-family="Helvetica, Segoe UI Emoji" font-size="28.47495636518084px" fill="#2f9e44" text-anchor="start" style="white-space: pre;" direction="ltr" dominant-baseline="alphabetic">B</text></g><g transform="translate(306.97828366424426 16.966443212017964) rotate(0 21.35944366455078 16.373099909978976)"><text x="0" y="26.197516007457878" font-family="Helvetica, Segoe UI Emoji" font-size="28.47495636518084px" fill="#f08c00" text-anchor="start" style="white-space: pre;" direction="ltr" dominant-baseline="alphabetic">low</text></g><g transform="translate(306.97828366424426 102.78042054254021) rotate(0 26.91303253173828 16.37309990997899)"><text x="0" y="26.197516007457878" font-family="Helvetica, Segoe UI Emoji" font-size="28.47495636518084px" fill="#1971c2" text-anchor="start" style="white-space: pre;" direction="ltr" dominant-baseline="alphabetic">high</text></g><g stroke-linecap="round"><g transform="translate(121.36671716102623 56.131463319473625) rotate(0 -0.7208039657371046 -21.195537586472966)" fill-rule="evenodd"><path d="M0 0 L0 0 L-0.69 1.11 L-1.28 1.98 L-2.15 3.11 L-2.65 3.62 L-2.81 3.74 L-7.36 3.74 L-4.87 0.7 L-4.87 0.7 L-4.79 0.6 L-4.57 0.3 L-3.77 -0.87 L-2.64 -2.75 L-1.34 -5.31 L-0.05 -8.48 L1.08 -12.22 L1.88 -16.47 L2.18 -21.2 L1.88 -25.92 L1.08 -30.17 L-0.05 -33.91 L-1.34 -37.08 L-2.64 -39.64 L-3.77 -41.52 L-4.57 -42.69 L-4.79 -42.99 L-4.87 -43.09 L-7.36 -46.13 L-2.81 -46.13 L-2.81 -46.13 L-1.43 -44.45 L-0.04 -42.39 L0.89 -40.78 L1.88 -38.85 L2.87 -36.61 L3.82 -34.07 L4.65 -31.25 L5.32 -28.16 L5.76 -24.8 L5.92 -21.2 L5.76 -17.6 L5.32 -14.25 L4.66 -11.16 L3.83 -8.34 L2.89 -5.8 L1.9 -3.56 L0.92 -1.62 L0 0 L0 0" stroke="none" stroke-width="0" fill="black" fill-rule="evenodd"/><path d="M0 0 C0 0, 0 0, 0 0 M0 0 C0 0, 0 0, 0 0 M0 0 C-0.2 0.32, -0.4 0.64, -0.69 1.11 M0 0 C-0.14 0.23, -0.28 0.45, -0.69 1.11 M-0.69 1.11 C-0.83 1.31, -0.96 1.51, -1.28 1.98 M-0.69 1.11 C-0.83 1.31, -0.97 1.51, -1.28 1.98 M-1.28 1.98 C-1.62 2.42, -1.96 2.86, -2.15 3.11 M-1.28 1.98 C-1.57 2.35, -1.86 2.73, -2.15 3.11 M-2.15 3.11 C-2.33 3.3, -2.52 3.49, -2.65 3.62 M-2.15 3.11 C-2.25 3.21, -2.36 3.32, -2.65 3.62 M-2.65 3.62 C-2.68 3.64, -2.71 3.67, -2.81 3.74 M-2.65 3.62 C-2.71 3.67, -2.77 3.71, -2.81 3.74 M-2.81 3.74 C-3.72 3.74, -4.64 3.74, -7.36 3.74 M-2.81 3.74 C-3.8 3.74, -4.79 3.74, -7.36 3.74 M-7.36 3.74 C-6.53 2.72, -5.69 1.7, -4.87 0.7 M-7.36 3.74 C-6.53 2.72, -5.69 1.7, -4.87 0.7 M-4.87 0.7 C-4.87 0.7, -4.87 0.7, -4.87 0.7 M-4.87 0.7 C-4.87 0.7, -4.87 0.7, -4.87 0.7 M-4.87 0.7 C-4.84 0.67, -4.81 0.63, -4.79 0.6 M-4.87 0.7 C-4.85 0.68, -4.84 0.66, -4.79 0.6 M-4.79 0.6 C-4.74 0.53, -4.69 0.46, -4.57 0.3 M-4.79 0.6 C-4.7 0.48, -4.62 0.37, -4.57 0.3 M-4.57 0.3 C-4.33 -0.05, -4.09 -0.4, -3.77 -0.87 M-4.57 0.3 C-4.27 -0.14, -3.97 -0.57, -3.77 -0.87 M-3.77 -0.87 C-3.43 -1.44, -3.08 -2.01, -2.64 -2.75 M-3.77 -0.87 C-3.4 -1.49, -3.03 -2.1, -2.64 -2.75 M-2.64 -2.75 C-2.13 -3.76, -1.62 -4.77, -1.34 -5.31 M-2.64 -2.75 C-2.29 -3.45, -1.94 -4.14, -1.34 -5.31 M-1.34 -5.31 C-0.84 -6.54, -0.34 -7.77, -0.05 -8.48 M-1.34 -5.31 C-1 -6.14, -0.66 -6.97, -0.05 -8.48 M-0.05 -8.48 C0.32 -9.71, 0.69 -10.94, 1.08 -12.22 M-0.05 -8.48 C0.26 -9.52, 0.58 -10.56, 1.08 -12.22 M1.08 -12.22 C1.38 -13.82, 1.68 -15.43, 1.88 -16.47 M1.08 -12.22 C1.39 -13.86, 1.7 -15.51, 1.88 -16.47 M1.88 -16.47 C1.99 -18.21, 2.1 -19.95, 2.18 -21.2 M1.88 -16.47 C1.95 -17.55, 2.02 -18.64, 2.18 -21.2 M2.18 -21.2 C2.09 -22.55, 2.01 -23.91, 1.88 -25.92 M2.18 -21.2 C2.06 -23.06, 1.94 -24.93, 1.88 -25.92 M1.88 -25.92 C1.68 -26.97, 1.48 -28.03, 1.08 -30.17 M1.88 -25.92 C1.63 -27.22, 1.39 -28.53, 1.08 -30.17 M1.08 -30.17 C0.68 -31.5, 0.28 -32.82, -0.05 -33.91 M1.08 -30.17 C0.64 -31.62, 0.21 -33.06, -0.05 -33.91 M-0.05 -33.91 C-0.41 -34.8, -0.78 -35.69, -1.34 -37.08 M-0.05 -33.91 C-0.5 -35.01, -0.95 -36.11, -1.34 -37.08 M-1.34 -37.08 C-1.78 -37.95, -2.22 -38.82, -2.64 -39.64 M-1.34 -37.08 C-1.81 -38, -2.27 -38.92, -2.64 -39.64 M-2.64 -39.64 C-2.92 -40.11, -3.21 -40.59, -3.77 -41.52 M-2.64 -39.64 C-3.02 -40.27, -3.4 -40.91, -3.77 -41.52 M-3.77 -41.52 C-3.95 -41.79, -4.13 -42.05, -4.57 -42.69 M-3.77 -41.52 C-4.02 -41.89, -4.27 -42.25, -4.57 -42.69 M-4.57 -42.69 C-4.64 -42.79, -4.71 -42.88, -4.79 -42.99 M-4.57 -42.69 C-4.64 -42.79, -4.71 -42.88, -4.79 -42.99 M-4.79 -42.99 C-4.82 -43.02, -4.84 -43.06, -4.87 -43.09 M-4.79 -42.99 C-4.82 -43.03, -4.85 -43.06, -4.87 -43.09 M-4.87 -43.09 C-5.66 -44.06, -6.46 -45.02, -7.36 -46.13 M-4.87 -43.09 C-5.56 -43.93, -6.24 -44.77, -7.36 -46.13 M-7.36 -46.13 C-5.72 -46.13, -4.08 -46.13, -2.81 -46.13 M-7.36 -46.13 C-5.64 -46.13, -3.93 -46.13, -2.81 -46.13 M-2.81 -46.13 C-2.81 -46.13, -2.81 -46.13, -2.81 -46.13 M-2.81 -46.13 C-2.81 -46.13, -2.81 -46.13, -2.81 -46.13 M-2.81 -46.13 C-2.26 -45.47, -1.72 -44.81, -1.43 -44.45 M-2.81 -46.13 C-2.26 -45.47, -1.72 -44.8, -1.43 -44.45 M-1.43 -44.45 C-0.89 -43.64, -0.34 -42.84, -0.04 -42.39 M-1.43 -44.45 C-1.08 -43.93, -0.73 -43.42, -0.04 -42.39 M-0.04 -42.39 C0.24 -41.91, 0.51 -41.43, 0.89 -40.78 M-0.04 -42.39 C0.16 -42.04, 0.36 -41.7, 0.89 -40.78 M0.89 -40.78 C1.28 -40.01, 1.68 -39.24, 1.88 -38.85 M0.89 -40.78 C1.19 -40.19, 1.49 -39.6, 1.88 -38.85 M1.88 -38.85 C2.16 -38.22, 2.43 -37.6, 2.87 -36.61 M1.88 -38.85 C2.22 -38.08, 2.56 -37.32, 2.87 -36.61 M2.87 -36.61 C3.25 -35.6, 3.62 -34.6, 3.82 -34.07 M2.87 -36.61 C3.08 -36.05, 3.29 -35.5, 3.82 -34.07 M3.82 -34.07 C4.12 -33.06, 4.41 -32.05, 4.65 -31.25 M3.82 -34.07 C4.06 -33.26, 4.3 -32.45, 4.65 -31.25 M4.65 -31.25 C4.84 -30.37, 5.03 -29.5, 5.32 -28.16 M4.65 -31.25 C4.81 -30.52, 4.97 -29.79, 5.32 -28.16 M5.32 -28.16 C5.45 -27.2, 5.57 -26.25, 5.76 -24.8 M5.32 -28.16 C5.44 -27.28, 5.55 -26.4, 5.76 -24.8 M5.76 -24.8 C5.8 -23.97, 5.84 -23.13, 5.92 -21.2 M5.76 -24.8 C5.82 -23.51, 5.88 -22.22, 5.92 -21.2 M5.92 -21.2 C5.89 -20.37, 5.85 -19.54, 5.76 -17.6 M5.92 -21.2 C5.88 -20.19, 5.83 -19.17, 5.76 -17.6 M5.76 -17.6 C5.59 -16.3, 5.42 -15, 5.32 -14.25 M5.76 -17.6 C5.66 -16.81, 5.55 -16.01, 5.32 -14.25 M5.32 -14.25 C5.13 -13.35, 4.94 -12.46, 4.66 -11.16 M5.32 -14.25 C5.15 -13.46, 4.98 -12.66, 4.66 -11.16 M4.66 -11.16 C4.35 -10.12, 4.04 -9.07, 3.83 -8.34 M4.66 -11.16 C4.43 -10.38, 4.2 -9.61, 3.83 -8.34 M3.83 -8.34 C3.47 -7.37, 3.11 -6.4, 2.89 -5.8 M3.83 -8.34 C3.54 -7.56, 3.25 -6.78, 2.89 -5.8 M2.89 -5.8 C2.52 -4.97, 2.15 -4.13, 1.9 -3.56 M2.89 -5.8 C2.57 -5.07, 2.24 -4.34, 1.9 -3.56 M1.9 -3.56 C1.56 -2.88, 1.21 -2.21, 0.92 -1.62 M1.9 -3.56 C1.66 -3.08, 1.41 -2.6, 0.92 -1.62 M0.92 -1.62 C0.68 -1.2, 0.44 -0.78, 0 0 M0.92 -1.62 C0.55 -0.98, 0.19 -0.33, 0 0 M0 0 C0 0, 0 0, 0 0 M0 0 C0 0, 0 0, 0 0 M0 0 C0 0, 0 0, 0 0 M0 0 C0 0, 0 0, 0 0" stroke="#000000" stroke-width="0.5" fill="none"/></g></g><mask/><g stroke-linecap="round"><g transform="translate(121.17190527839458 10.000000000000028) rotate(0 30.215322996168872 24.935920976851165)" fill-rule="evenodd"><path d="M0 0 L2.49 3.04 L2.49 3.04 L2.57 3.14 L2.8 3.44 L3.6 4.61 L4.72 6.5 L6.02 9.05 L7.31 12.22 L8.44 15.96 L9.24 20.21 L9.55 24.94 L9.24 29.66 L8.44 33.91 L7.31 37.65 L6.02 40.82 L4.72 43.38 L3.6 45.26 L2.8 46.43 L2.57 46.73 L2.49 46.83 L0 49.87 L3.94 49.87 L21.39 49.87 L21.39 49.87 L22.68 49.87 L24.27 49.83 L26.13 49.72 L28.23 49.51 L30.54 49.15 L33.02 48.62 L35.65 47.87 L38.38 46.87 L41.19 45.58 L44.04 43.98 L46.91 42.02 L49.77 39.67 L52.58 36.91 L55.32 33.71 L57.94 30.02 L60.43 25.83 L58.79 24.94 L60.43 24.04 L60.43 24.04 L57.94 19.85 L55.31 16.18 L52.57 12.99 L49.75 10.26 L46.88 7.93 L44 5.99 L41.13 4.39 L38.32 3.11 L35.58 2.1 L32.96 1.34 L30.49 0.79 L28.19 0.41 L26.09 0.18 L24.24 0.06 L22.66 0.01 L21.39 0 L3.94 0 L0 0 L0 0" stroke="none" stroke-width="0" fill="black" fill-rule="evenodd"/><path d="M0 0 C0.51 0.63, 1.03 1.25, 2.49 3.04 M0 0 C0.89 1.09, 1.79 2.18, 2.49 3.04 M2.49 3.04 C2.49 3.04, 2.49 3.04, 2.49 3.04 M2.49 3.04 C2.49 3.04, 2.49 3.04, 2.49 3.04 M2.49 3.04 C2.51 3.07, 2.54 3.09, 2.57 3.14 M2.49 3.04 C2.51 3.07, 2.54 3.09, 2.57 3.14 M2.57 3.14 C2.65 3.25, 2.73 3.35, 2.8 3.44 M2.57 3.14 C2.64 3.22, 2.7 3.31, 2.8 3.44 M2.8 3.44 C3.01 3.75, 3.23 4.07, 3.6 4.61 M2.8 3.44 C3.08 3.86, 3.37 4.28, 3.6 4.61 M3.6 4.61 C3.97 5.24, 4.35 5.86, 4.72 6.5 M3.6 4.61 C4.02 5.32, 4.45 6.03, 4.72 6.5 M4.72 6.5 C5.11 7.26, 5.5 8.02, 6.02 9.05 M4.72 6.5 C5.01 7.05, 5.29 7.61, 6.02 9.05 M6.02 9.05 C6.33 9.8, 6.64 10.56, 7.31 12.22 M6.02 9.05 C6.49 10.21, 6.97 11.37, 7.31 12.22 M7.31 12.22 C7.66 13.37, 8.01 14.52, 8.44 15.96 M7.31 12.22 C7.72 13.56, 8.12 14.89, 8.44 15.96 M8.44 15.96 C8.62 16.9, 8.8 17.84, 9.24 20.21 M8.44 15.96 C8.75 17.58, 9.05 19.2, 9.24 20.21 M9.24 20.21 C9.31 21.27, 9.38 22.32, 9.55 24.94 M9.24 20.21 C9.35 21.84, 9.45 23.48, 9.55 24.94 M9.55 24.94 C9.44 26.63, 9.33 28.32, 9.24 29.66 M9.55 24.94 C9.47 26.15, 9.39 27.37, 9.24 29.66 M9.24 29.66 C9.05 30.7, 8.85 31.74, 8.44 33.91 M9.24 29.66 C9 30.95, 8.76 32.25, 8.44 33.91 M8.44 33.91 C8.05 35.22, 7.66 36.52, 7.31 37.65 M8.44 33.91 C8.18 34.77, 7.93 35.63, 7.31 37.65 M7.31 37.65 C6.86 38.76, 6.41 39.86, 6.02 40.82 M7.31 37.65 C7.04 38.31, 6.77 38.97, 6.02 40.82 M6.02 40.82 C5.74 41.37, 5.46 41.92, 4.72 43.38 M6.02 40.82 C5.72 41.42, 5.42 42.01, 4.72 43.38 M4.72 43.38 C4.3 44.09, 3.87 44.81, 3.6 45.26 M4.72 43.38 C4.29 44.1, 3.86 44.82, 3.6 45.26 M3.6 45.26 C3.43 45.5, 3.27 45.74, 2.8 46.43 M3.6 45.26 C3.43 45.5, 3.27 45.74, 2.8 46.43 M2.8 46.43 C2.72 46.54, 2.64 46.65, 2.57 46.73 M2.8 46.43 C2.75 46.49, 2.71 46.55, 2.57 46.73 M2.57 46.73 C2.55 46.76, 2.53 46.79, 2.49 46.83 M2.57 46.73 C2.54 46.77, 2.51 46.81, 2.49 46.83 M2.49 46.83 C1.53 48, 0.58 49.17, 0 49.87 M2.49 46.83 C1.51 48.03, 0.53 49.23, 0 49.87 M0 49.87 C1.02 49.87, 2.05 49.87, 3.94 49.87 M0 49.87 C0.88 49.87, 1.75 49.87, 3.94 49.87 M3.94 49.87 C9.52 49.87, 15.11 49.87, 21.39 49.87 M3.94 49.87 C9.87 49.87, 15.81 49.87, 21.39 49.87 M21.39 49.87 C21.39 49.87, 21.39 49.87, 21.39 49.87 M21.39 49.87 C21.39 49.87, 21.39 49.87, 21.39 49.87 M21.39 49.87 C21.79 49.87, 22.18 49.87, 22.68 49.87 M21.39 49.87 C21.87 49.87, 22.35 49.87, 22.68 49.87 M22.68 49.87 C23.24 49.85, 23.8 49.84, 24.27 49.83 M22.68 49.87 C23.02 49.86, 23.36 49.85, 24.27 49.83 M24.27 49.83 C24.76 49.8, 25.25 49.77, 26.13 49.72 M24.27 49.83 C24.77 49.8, 25.27 49.77, 26.13 49.72 M26.13 49.72 C26.72 49.66, 27.31 49.6, 28.23 49.51 M26.13 49.72 C26.9 49.64, 27.66 49.57, 28.23 49.51 M28.23 49.51 C29.1 49.38, 29.96 49.24, 30.54 49.15 M28.23 49.51 C29.08 49.38, 29.93 49.25, 30.54 49.15 M30.54 49.15 C31.3 48.99, 32.05 48.83, 33.02 48.62 M30.54 49.15 C31.4 48.97, 32.25 48.78, 33.02 48.62 M33.02 48.62 C33.55 48.47, 34.07 48.32, 35.65 47.87 M33.02 48.62 C33.69 48.43, 34.35 48.24, 35.65 47.87 M35.65 47.87 C36.28 47.64, 36.91 47.41, 38.38 46.87 M35.65 47.87 C36.48 47.57, 37.32 47.26, 38.38 46.87 M38.38 46.87 C39.44 46.38, 40.5 45.9, 41.19 45.58 M38.38 46.87 C39.12 46.53, 39.85 46.2, 41.19 45.58 M41.19 45.58 C42.05 45.1, 42.91 44.62, 44.04 43.98 M41.19 45.58 C42.32 44.94, 43.46 44.3, 44.04 43.98 M44.04 43.98 C44.95 43.36, 45.86 42.73, 46.91 42.02 M44.04 43.98 C45.15 43.22, 46.26 42.46, 46.91 42.02 M46.91 42.02 C47.68 41.39, 48.45 40.76, 49.77 39.67 M46.91 42.02 C47.7 41.38, 48.48 40.73, 49.77 39.67 M49.77 39.67 C50.61 38.85, 51.44 38.03, 52.58 36.91 M49.77 39.67 C50.79 38.67, 51.81 37.67, 52.58 36.91 M52.58 36.91 C53.44 35.9, 54.3 34.9, 55.32 33.71 M52.58 36.91 C53.64 35.68, 54.69 34.44, 55.32 33.71 M55.32 33.71 C56.3 32.33, 57.28 30.95, 57.94 30.02 M55.32 33.71 C56.33 32.29, 57.34 30.87, 57.94 30.02 M57.94 30.02 C58.8 28.58, 59.65 27.14, 60.43 25.83 M57.94 30.02 C58.66 28.81, 59.39 27.59, 60.43 25.83 M60.43 25.83 C59.98 25.58, 59.52 25.34, 58.79 24.94 M60.43 25.83 C59.78 25.48, 59.13 25.12, 58.79 24.94 M58.79 24.94 C59.26 24.68, 59.73 24.43, 60.43 24.04 M58.79 24.94 C59.36 24.63, 59.92 24.32, 60.43 24.04 M60.43 24.04 C60.43 24.04, 60.43 24.04, 60.43 24.04 M60.43 24.04 C60.43 24.04, 60.43 24.04, 60.43 24.04 M60.43 24.04 C59.46 22.41, 58.5 20.79, 57.94 19.85 M60.43 24.04 C59.92 23.18, 59.41 22.32, 57.94 19.85 M57.94 19.85 C57.3 18.96, 56.67 18.08, 55.31 16.18 M57.94 19.85 C57.1 18.68, 56.26 17.5, 55.31 16.18 M55.31 16.18 C54.4 15.13, 53.5 14.08, 52.57 12.99 M55.31 16.18 C54.39 15.12, 53.48 14.05, 52.57 12.99 M52.57 12.99 C51.92 12.37, 51.28 11.74, 49.75 10.26 M52.57 12.99 C51.5 11.96, 50.44 10.93, 49.75 10.26 M49.75 10.26 C48.87 9.54, 47.99 8.83, 46.88 7.93 M49.75 10.26 C48.91 9.58, 48.07 8.9, 46.88 7.93 M46.88 7.93 C46.04 7.37, 45.21 6.8, 44 5.99 M46.88 7.93 C45.98 7.32, 45.08 6.72, 44 5.99 M44 5.99 C43.02 5.44, 42.05 4.9, 41.13 4.39 M44 5.99 C43.3 5.6, 42.61 5.22, 41.13 4.39 M41.13 4.39 C40.51 4.11, 39.88 3.82, 38.32 3.11 M41.13 4.39 C40.21 3.97, 39.28 3.55, 38.32 3.11 M38.32 3.11 C37.29 2.73, 36.26 2.35, 35.58 2.1 M38.32 3.11 C37.64 2.86, 36.96 2.61, 35.58 2.1 M35.58 2.1 C34.81 1.88, 34.04 1.65, 32.96 1.34 M35.58 2.1 C34.59 1.81, 33.6 1.52, 32.96 1.34 M32.96 1.34 C32.01 1.13, 31.06 0.92, 30.49 0.79 M32.96 1.34 C32.03 1.13, 31.09 0.92, 30.49 0.79 M30.49 0.79 C29.68 0.66, 28.88 0.53, 28.19 0.41 M30.49 0.79 C29.87 0.69, 29.26 0.59, 28.19 0.41 M28.19 0.41 C27.65 0.35, 27.12 0.3, 26.09 0.18 M28.19 0.41 C27.35 0.32, 26.52 0.23, 26.09 0.18 M26.09 0.18 C25.53 0.14, 24.97 0.11, 24.24 0.06 M26.09 0.18 C25.45 0.14, 24.81 0.1, 24.24 0.06 M24.24 0.06 C23.77 0.04, 23.29 0.03, 22.66 0.01 M24.24 0.06 C23.8 0.04, 23.36 0.03, 22.66 0.01 M22.66 0.01 C22.35 0.01, 22.04 0, 21.39 0 M22.66 0.01 C22.37 0.01, 22.07 0, 21.39 0 M21.39 0 C14.95 0, 8.51 0, 3.94 0 M21.39 0 C16.29 0, 11.19 0, 3.94 0 M3.94 0 C2.6 0, 1.27 0, 0 0 M3.94 0 C2.85 0, 1.76 0, 0 0 M0 0 C0 0, 0 0, 0 0 M0 0 C0 0, 0 0, 0 0 M0 0 C0 0, 0 0, 0 0 M0 0 C0 0, 0 0, 0 0" stroke="#000000" stroke-width="1" fill="none"/></g></g><mask/><g stroke-linecap="round"><g transform="translate(128.49683206534462 13.740388146527721) rotate(0 24.4683724585352 21.195532830323486)" fill-rule="evenodd"><path d="M0 0 L14.07 0 L14.07 0 L15.29 0 L16.75 0.03 L20.28 0.31 L24.48 1.07 L26.78 1.72 L29.16 2.59 L31.63 3.7 L34.14 5.1 L36.68 6.82 L39.22 8.87 L41.74 11.31 L44.21 14.15 L46.62 17.44 L48.94 21.2 L46.65 24.9 L44.28 28.14 L41.83 30.96 L39.34 33.38 L36.82 35.42 L34.3 37.14 L31.8 38.54 L29.34 39.66 L26.89 40.57 L24.55 41.24 L20.32 42.05 L16.78 42.35 L14.07 42.39 L0.04 42.39 L0.04 42.39 L0.96 40.77 L1.95 38.84 L2.94 36.6 L3.88 34.06 L4.7 31.24 L5.36 28.14 L5.8 24.79 L5.96 21.2 L5.8 17.59 L5.36 14.23 L4.69 11.14 L3.86 8.32 L2.91 5.78 L1.92 3.54 L0.93 1.61 L0 0 L0 0" stroke="none" stroke-width="0" fill="#FFFFFF" fill-rule="evenodd"/><path d="M0 0 C5.45 0, 10.9 0, 14.07 0 M0 0 C3.14 0, 6.27 0, 14.07 0 M14.07 0 C14.07 0, 14.07 0, 14.07 0 M14.07 0 C14.07 0, 14.07 0, 14.07 0 M14.07 0 C14.32 0, 14.58 0, 15.29 0 M14.07 0 C14.44 0, 14.82 0, 15.29 0 M15.29 0 C15.74 0.01, 16.2 0.02, 16.75 0.03 M15.29 0 C15.75 0.01, 16.22 0.02, 16.75 0.03 M16.75 0.03 C17.89 0.12, 19.04 0.21, 20.28 0.31 M16.75 0.03 C17.9 0.12, 19.06 0.21, 20.28 0.31 M20.28 0.31 C21.86 0.6, 23.43 0.88, 24.48 1.07 M20.28 0.31 C21.49 0.53, 22.69 0.75, 24.48 1.07 M24.48 1.07 C25.14 1.26, 25.79 1.45, 26.78 1.72 M24.48 1.07 C25.07 1.24, 25.66 1.41, 26.78 1.72 M26.78 1.72 C27.6 2.02, 28.43 2.32, 29.16 2.59 M26.78 1.72 C27.45 1.97, 28.12 2.21, 29.16 2.59 M29.16 2.59 C30.11 3.02, 31.05 3.44, 31.63 3.7 M29.16 2.59 C30.07 3, 30.97 3.41, 31.63 3.7 M31.63 3.7 C32.47 4.17, 33.31 4.64, 34.14 5.1 M31.63 3.7 C32.54 4.21, 33.45 4.72, 34.14 5.1 M34.14 5.1 C34.96 5.66, 35.79 6.22, 36.68 6.82 M34.14 5.1 C34.99 5.68, 35.85 6.26, 36.68 6.82 M36.68 6.82 C37.25 7.28, 37.83 7.75, 39.22 8.87 M36.68 6.82 C37.31 7.33, 37.94 7.84, 39.22 8.87 M39.22 8.87 C40.08 9.71, 40.95 10.55, 41.74 11.31 M39.22 8.87 C40.08 9.7, 40.93 10.53, 41.74 11.31 M41.74 11.31 C42.67 12.38, 43.6 13.45, 44.21 14.15 M41.74 11.31 C42.24 11.89, 42.74 12.46, 44.21 14.15 M44.21 14.15 C44.93 15.13, 45.64 16.1, 46.62 17.44 M44.21 14.15 C45.08 15.33, 45.94 16.51, 46.62 17.44 M46.62 17.44 C47.35 18.63, 48.08 19.81, 48.94 21.2 M46.62 17.44 C47.41 18.72, 48.2 20, 48.94 21.2 M48.94 21.2 C48.11 22.54, 47.28 23.88, 46.65 24.9 M48.94 21.2 C48.32 22.2, 47.7 23.2, 46.65 24.9 M46.65 24.9 C46.07 25.7, 45.48 26.5, 44.28 28.14 M46.65 24.9 C45.86 25.98, 45.07 27.06, 44.28 28.14 M44.28 28.14 C43.44 29.11, 42.6 30.07, 41.83 30.96 M44.28 28.14 C43.4 29.15, 42.52 30.17, 41.83 30.96 M41.83 30.96 C40.96 31.8, 40.1 32.64, 39.34 33.38 M41.83 30.96 C41.08 31.68, 40.34 32.41, 39.34 33.38 M39.34 33.38 C38.42 34.12, 37.5 34.87, 36.82 35.42 M39.34 33.38 C38.82 33.8, 38.29 34.23, 36.82 35.42 M36.82 35.42 C36.14 35.89, 35.46 36.35, 34.3 37.14 M36.82 35.42 C36.03 35.96, 35.25 36.49, 34.3 37.14 M34.3 37.14 C33.35 37.67, 32.4 38.2, 31.8 38.54 M34.3 37.14 C33.3 37.7, 32.3 38.26, 31.8 38.54 M31.8 38.54 C31.22 38.8, 30.64 39.07, 29.34 39.66 M31.8 38.54 C31.08 38.87, 30.36 39.2, 29.34 39.66 M29.34 39.66 C28.7 39.9, 28.06 40.13, 26.89 40.57 M29.34 39.66 C28.79 39.87, 28.24 40.07, 26.89 40.57 M26.89 40.57 C26.09 40.8, 25.29 41.03, 24.55 41.24 M26.89 40.57 C26.15 40.78, 25.41 41, 24.55 41.24 M24.55 41.24 C23.28 41.49, 22.01 41.73, 20.32 42.05 M24.55 41.24 C23.01 41.54, 21.46 41.84, 20.32 42.05 M20.32 42.05 C19.4 42.13, 18.47 42.21, 16.78 42.35 M20.32 42.05 C19.22 42.15, 18.12 42.24, 16.78 42.35 M16.78 42.35 C15.9 42.36, 15.02 42.38, 14.07 42.39 M16.78 42.35 C16.19 42.36, 15.6 42.37, 14.07 42.39 M14.07 42.39 C9.33 42.39, 4.6 42.39, 0.04 42.39 M14.07 42.39 C9.12 42.39, 4.17 42.39, 0.04 42.39 M0.04 42.39 C0.04 42.39, 0.04 42.39, 0.04 42.39 M0.04 42.39 C0.04 42.39, 0.04 42.39, 0.04 42.39 M0.04 42.39 C0.31 41.92, 0.57 41.46, 0.96 40.77 M0.04 42.39 C0.38 41.79, 0.73 41.19, 0.96 40.77 M0.96 40.77 C1.17 40.36, 1.38 39.95, 1.95 38.84 M0.96 40.77 C1.27 40.17, 1.58 39.56, 1.95 38.84 M1.95 38.84 C2.25 38.15, 2.55 37.47, 2.94 36.6 M1.95 38.84 C2.2 38.28, 2.45 37.71, 2.94 36.6 M2.94 36.6 C3.16 36, 3.38 35.4, 3.88 34.06 M2.94 36.6 C3.26 35.72, 3.58 34.85, 3.88 34.06 M3.88 34.06 C4.17 33.06, 4.46 32.07, 4.7 31.24 M3.88 34.06 C4.14 33.15, 4.41 32.25, 4.7 31.24 M4.7 31.24 C4.94 30.14, 5.17 29.04, 5.36 28.14 M4.7 31.24 C4.87 30.44, 5.05 29.64, 5.36 28.14 M5.36 28.14 C5.48 27.25, 5.6 26.35, 5.8 24.79 M5.36 28.14 C5.48 27.26, 5.6 26.37, 5.8 24.79 M5.8 24.79 C5.85 23.69, 5.9 22.58, 5.96 21.2 M5.8 24.79 C5.84 23.88, 5.88 22.97, 5.96 21.2 M5.96 21.2 C5.92 20.25, 5.88 19.3, 5.8 17.59 M5.96 21.2 C5.93 20.4, 5.89 19.6, 5.8 17.59 M5.8 17.59 C5.64 16.4, 5.49 15.2, 5.36 14.23 M5.8 17.59 C5.7 16.82, 5.6 16.06, 5.36 14.23 M5.36 14.23 C5.21 13.54, 5.06 12.85, 4.69 11.14 M5.36 14.23 C5.17 13.38, 4.99 12.53, 4.69 11.14 M4.69 11.14 C4.37 10.06, 4.05 8.98, 3.86 8.32 M4.69 11.14 C4.45 10.34, 4.22 9.54, 3.86 8.32 M3.86 8.32 C3.66 7.8, 3.47 7.27, 2.91 5.78 M3.86 8.32 C3.51 7.39, 3.16 6.45, 2.91 5.78 M2.91 5.78 C2.52 4.9, 2.13 4.02, 1.92 3.54 M2.91 5.78 C2.69 5.29, 2.47 4.79, 1.92 3.54 M1.92 3.54 C1.58 2.88, 1.23 2.21, 0.93 1.61 M1.92 3.54 C1.53 2.8, 1.15 2.05, 0.93 1.61 M0.93 1.61 C0.72 1.25, 0.51 0.89, 0 0 M0.93 1.61 C0.7 1.22, 0.47 0.82, 0 0 M0 0 C0 0, 0 0, 0 0 M0 0 C0 0, 0 0, 0 0 M0 0 C0 0, 0 0, 0 0 M0 0 C0 0, 0 0, 0 0" stroke="#000000" stroke-width="1" fill="none"/></g></g><mask/><g stroke-linecap="round"><g transform="translate(179.50606744227645 34.92953390349183) rotate(0 0.25979223930595907 0.05196042994890604)"><path d="M0 0 C0.09 0.02, 0.43 0.09, 0.52 0.1 M0 0 C0.09 0.02, 0.43 0.09, 0.52 0.1" stroke="#000000" stroke-width="4" fill="none"/></g></g><mask/><g stroke-linecap="round"><g transform="translate(116.98210623198221 91.66017897867064) rotate(0 28.19143199851524 27.859769342963133)" fill-rule="evenodd"><path d="M0 0 L0 1.99 L0 53.73 L0 55.72 L1.99 55.72 L28.52 55.72 L28.52 55.72 L31.42 55.58 L34.23 55.15 L36.92 54.46 L39.5 53.52 L41.94 52.34 L44.24 50.94 L48.34 47.54 L51.71 43.41 L54.24 38.68 L55.16 36.12 L55.83 33.46 L56.24 30.7 L56.38 27.86 L56.24 25.02 L55.83 22.26 L55.16 19.6 L54.24 17.04 L51.71 12.31 L48.34 8.18 L44.24 4.77 L41.94 3.38 L39.5 2.2 L36.92 1.26 L34.23 0.57 L31.42 0.14 L28.52 0 L28.47 0 L28.11 0 L27.12 0 L26.3 0 L25.21 0 L23.8 0 L22.05 0 L19.9 0 L17.33 0 L14.29 0 L10.75 0 L6.66 0 L1.99 0 L0 0 L0 0" stroke="none" stroke-width="0" fill="black" fill-rule="evenodd"/><path d="M0 0 C0 0.5, 0 1.01, 0 1.99 M0 0 C0 0.66, 0 1.32, 0 1.99 M0 1.99 C0 14.61, 0 27.23, 0 53.73 M0 1.99 C0 18.83, 0 35.66, 0 53.73 M0 53.73 C0 54.46, 0 55.19, 0 55.72 M0 53.73 C0 54.22, 0 54.7, 0 55.72 M0 55.72 C0.68 55.72, 1.35 55.72, 1.99 55.72 M0 55.72 C0.75 55.72, 1.49 55.72, 1.99 55.72 M1.99 55.72 C8.09 55.72, 14.19 55.72, 28.52 55.72 M1.99 55.72 C8.17 55.72, 14.34 55.72, 28.52 55.72 M28.52 55.72 C28.52 55.72, 28.52 55.72, 28.52 55.72 M28.52 55.72 C28.52 55.72, 28.52 55.72, 28.52 55.72 M28.52 55.72 C29.41 55.68, 30.29 55.63, 31.42 55.58 M28.52 55.72 C29.31 55.68, 30.1 55.64, 31.42 55.58 M31.42 55.58 C32.38 55.43, 33.33 55.29, 34.23 55.15 M31.42 55.58 C32.48 55.41, 33.54 55.25, 34.23 55.15 M34.23 55.15 C34.9 54.98, 35.58 54.81, 36.92 54.46 M34.23 55.15 C35.06 54.94, 35.89 54.73, 36.92 54.46 M36.92 54.46 C37.93 54.09, 38.93 53.73, 39.5 53.52 M36.92 54.46 C37.45 54.27, 37.98 54.08, 39.5 53.52 M39.5 53.52 C40.06 53.25, 40.61 52.98, 41.94 52.34 M39.5 53.52 C40.4 53.09, 41.3 52.65, 41.94 52.34 M41.94 52.34 C42.45 52.03, 42.96 51.72, 44.24 50.94 M41.94 52.34 C42.71 51.88, 43.48 51.41, 44.24 50.94 M44.24 50.94 C45.06 50.26, 45.89 49.57, 48.34 47.54 M44.24 50.94 C45.24 50.11, 46.25 49.27, 48.34 47.54 M48.34 47.54 C49.14 46.55, 49.95 45.57, 51.71 43.41 M48.34 47.54 C49.4 46.24, 50.46 44.94, 51.71 43.41 M51.71 43.41 C52.3 42.3, 52.89 41.19, 54.24 38.68 M51.71 43.41 C52.23 42.42, 52.76 41.43, 54.24 38.68 M54.24 38.68 C54.6 37.68, 54.96 36.68, 55.16 36.12 M54.24 38.68 C54.52 37.88, 54.81 37.08, 55.16 36.12 M55.16 36.12 C55.42 35.07, 55.69 34.02, 55.83 33.46 M55.16 36.12 C55.36 35.32, 55.56 34.51, 55.83 33.46 M55.83 33.46 C55.95 32.67, 56.06 31.88, 56.24 30.7 M55.83 33.46 C55.92 32.85, 56.01 32.24, 56.24 30.7 M56.24 30.7 C56.28 30, 56.31 29.3, 56.38 27.86 M56.24 30.7 C56.28 30.01, 56.31 29.33, 56.38 27.86 M56.38 27.86 C56.34 27.08, 56.31 26.29, 56.24 25.02 M56.38 27.86 C56.33 26.86, 56.28 25.86, 56.24 25.02 M56.24 25.02 C56.09 24.02, 55.94 23.02, 55.83 22.26 M56.24 25.02 C56.11 24.15, 55.98 23.28, 55.83 22.26 M55.83 22.26 C55.58 21.27, 55.33 20.28, 55.16 19.6 M55.83 22.26 C55.59 21.33, 55.36 20.4, 55.16 19.6 M55.16 19.6 C54.96 19.05, 54.76 18.5, 54.24 17.04 M55.16 19.6 C54.89 18.86, 54.62 18.12, 54.24 17.04 M54.24 17.04 C53.4 15.47, 52.56 13.9, 51.71 12.31 M54.24 17.04 C53.55 15.76, 52.86 14.47, 51.71 12.31 M51.71 12.31 C50.79 11.19, 49.87 10.07, 48.34 8.18 M51.71 12.31 C50.7 11.08, 49.7 9.85, 48.34 8.18 M48.34 8.18 C46.83 6.93, 45.33 5.68, 44.24 4.77 M48.34 8.18 C47.08 7.14, 45.82 6.09, 44.24 4.77 M44.24 4.77 C43.52 4.34, 42.81 3.91, 41.94 3.38 M44.24 4.77 C43.43 4.28, 42.62 3.79, 41.94 3.38 M41.94 3.38 C41.36 3.09, 40.77 2.81, 39.5 2.2 M41.94 3.38 C41.3 3.07, 40.65 2.76, 39.5 2.2 M39.5 2.2 C38.71 1.91, 37.92 1.62, 36.92 1.26 M39.5 2.2 C38.9 1.98, 38.3 1.76, 36.92 1.26 M36.92 1.26 C35.95 1.01, 34.97 0.76, 34.23 0.57 M36.92 1.26 C36.19 1.07, 35.45 0.88, 34.23 0.57 M34.23 0.57 C33.29 0.43, 32.35 0.29, 31.42 0.14 M34.23 0.57 C33.11 0.4, 31.99 0.23, 31.42 0.14 M31.42 0.14 C30.55 0.1, 29.67 0.06, 28.52 0 M31.42 0.14 C30.57 0.1, 29.72 0.06, 28.52 0 M28.52 0 C28.51 0, 28.49 0, 28.47 0 M28.52 0 C28.51 0, 28.49 0, 28.47 0 M28.47 0 C28.37 0, 28.27 0, 28.11 0 M28.47 0 C28.4 0, 28.32 0, 28.11 0 M28.11 0 C27.8 0, 27.5 0, 27.12 0 M28.11 0 C27.73 0, 27.36 0, 27.12 0 M27.12 0 C26.92 0, 26.71 0, 26.3 0 M27.12 0 C26.87 0, 26.62 0, 26.3 0 M26.3 0 C26.06 0, 25.83 0, 25.21 0 M26.3 0 C25.89 0, 25.47 0, 25.21 0 M25.21 0 C24.86 0, 24.51 0, 23.8 0 M25.21 0 C24.89 0, 24.58 0, 23.8 0 M23.8 0 C23.3 0, 22.81 0, 22.05 0 M23.8 0 C23.41 0, 23.02 0, 22.05 0 M22.05 0 C21.53 0, 21.02 0, 19.9 0 M22.05 0 C21.59 0, 21.14 0, 19.9 0 M19.9 0 C18.89 0, 17.89 0, 17.33 0 M19.9 0 C19.29 0, 18.68 0, 17.33 0 M17.33 0 C16.58 0, 15.82 0, 14.29 0 M17.33 0 C16.6 0, 15.86 0, 14.29 0 M14.29 0 C13.12 0, 11.95 0, 10.75 0 M14.29 0 C13.51 0, 12.72 0, 10.75 0 M10.75 0 C9.73 0, 8.71 0, 6.66 0 M10.75 0 C9.48 0, 8.22 0, 6.66 0 M6.66 0 C5.32 0, 3.99 0, 1.99 0 M6.66 0 C5.06 0, 3.46 0, 1.99 0 M1.99 0 C1.46 0, 0.92 0, 0 0 M1.99 0 C1.32 0, 0.65 0, 0 0 M0 0 C0 0, 0 0, 0 0 M0 0 C0 0, 0 0, 0 0 M0 0 C0 0, 0 0, 0 0 M0 0 C0 0, 0 0, 0 0" stroke="#000000" stroke-width="1" fill="none"/></g></g><mask/><g stroke-linecap="round"><g transform="translate(120.96207404009542 95.64014612255517) rotate(0 23.879804191764578 23.879801866964257)" fill-rule="evenodd"><path d="M0 0 L0 0 L3.98 0 L7.58 0 L10.8 0 L13.64 0 L16.11 0 L18.19 0 L19.9 0 L21.23 0 L22.32 0 L23.14 0 L24.13 0 L24.5 0 L24.54 0 L29.44 0.48 L33.91 1.87 L37.86 4.07 L41.25 6.98 L44 10.51 L46.04 14.56 L47.32 19.05 L47.76 23.88 L47.29 28.71 L45.94 33.2 L43.79 37.25 L40.92 40.78 L37.41 43.69 L33.35 45.89 L28.81 47.28 L23.88 47.76 L0 47.76 L0 0 L0 0" stroke="none" stroke-width="0" fill="#FFFFFF" fill-rule="evenodd"/><path d="M0 0 C0 0, 0 0, 0 0 M0 0 C0 0, 0 0, 0 0 M0 0 C1.28 0, 2.56 0, 3.98 0 M0 0 C1.09 0, 2.17 0, 3.98 0 M3.98 0 C5.14 0, 6.31 0, 7.58 0 M3.98 0 C4.87 0, 5.75 0, 7.58 0 M7.58 0 C8.84 0, 10.1 0, 10.8 0 M7.58 0 C8.73 0, 9.87 0, 10.8 0 M10.8 0 C11.79 0, 12.79 0, 13.64 0 M10.8 0 C11.64 0, 12.47 0, 13.64 0 M13.64 0 C14.49 0, 15.34 0, 16.11 0 M13.64 0 C14.16 0, 14.68 0, 16.11 0 M16.11 0 C16.77 0, 17.43 0, 18.19 0 M16.11 0 C16.89 0, 17.67 0, 18.19 0 M18.19 0 C18.85 0, 19.5 0, 19.9 0 M18.19 0 C18.82 0, 19.44 0, 19.9 0 M19.9 0 C20.32 0, 20.73 0, 21.23 0 M19.9 0 C20.32 0, 20.75 0, 21.23 0 M21.23 0 C21.57 0, 21.91 0, 22.32 0 M21.23 0 C21.58 0, 21.94 0, 22.32 0 M22.32 0 C22.56 0, 22.79 0, 23.14 0 M22.32 0 C22.55 0, 22.79 0, 23.14 0 M23.14 0 C23.37 0, 23.6 0, 24.13 0 M23.14 0 C23.41 0, 23.69 0, 24.13 0 M24.13 0 C24.25 0, 24.37 0, 24.5 0 M24.13 0 C24.22 0, 24.31 0, 24.5 0 M24.5 0 C24.51 0, 24.52 0, 24.54 0 M24.5 0 C24.52 0, 24.53 0, 24.54 0 M24.54 0 C26.36 0.18, 28.18 0.36, 29.44 0.48 M24.54 0 C26.02 0.15, 27.5 0.29, 29.44 0.48 M29.44 0.48 C31.19 1.03, 32.94 1.57, 33.91 1.87 M29.44 0.48 C30.39 0.78, 31.33 1.07, 33.91 1.87 M33.91 1.87 C35.21 2.59, 36.51 3.31, 37.86 4.07 M33.91 1.87 C35.42 2.71, 36.93 3.55, 37.86 4.07 M37.86 4.07 C38.7 4.78, 39.53 5.5, 41.25 6.98 M37.86 4.07 C38.62 4.72, 39.38 5.37, 41.25 6.98 M41.25 6.98 C42.19 8.19, 43.13 9.4, 44 10.51 M41.25 6.98 C42.17 8.15, 43.08 9.33, 44 10.51 M44 10.51 C44.68 11.85, 45.35 13.19, 46.04 14.56 M44 10.51 C44.55 11.61, 45.11 12.71, 46.04 14.56 M46.04 14.56 C46.44 15.97, 46.84 17.38, 47.32 19.05 M46.04 14.56 C46.33 15.59, 46.62 16.61, 47.32 19.05 M47.32 19.05 C47.48 20.79, 47.64 22.54, 47.76 23.88 M47.32 19.05 C47.5 20.98, 47.67 22.91, 47.76 23.88 M47.76 23.88 C47.58 25.77, 47.39 27.66, 47.29 28.71 M47.76 23.88 C47.64 25.13, 47.52 26.38, 47.29 28.71 M47.29 28.71 C46.82 30.28, 46.35 31.85, 45.94 33.2 M47.29 28.71 C46.85 30.18, 46.41 31.65, 45.94 33.2 M45.94 33.2 C45.34 34.34, 44.73 35.48, 43.79 37.25 M45.94 33.2 C45.41 34.2, 44.88 35.2, 43.79 37.25 M43.79 37.25 C42.89 38.36, 41.99 39.47, 40.92 40.78 M43.79 37.25 C42.79 38.48, 41.79 39.72, 40.92 40.78 M40.92 40.78 C39.74 41.76, 38.56 42.74, 37.41 43.69 M40.92 40.78 C39.75 41.75, 38.59 42.72, 37.41 43.69 M37.41 43.69 C35.9 44.51, 34.39 45.33, 33.35 45.89 M37.41 43.69 C36.48 44.2, 35.55 44.7, 33.35 45.89 M33.35 45.89 C32.16 46.25, 30.97 46.62, 28.81 47.28 M33.35 45.89 C32.07 46.28, 30.8 46.67, 28.81 47.28 M28.81 47.28 C27.62 47.39, 26.42 47.51, 23.88 47.76 M28.81 47.28 C27.29 47.43, 25.77 47.57, 23.88 47.76 M23.88 47.76 C18.68 47.76, 13.49 47.76, 0 47.76 M23.88 47.76 C14.74 47.76, 5.61 47.76, 0 47.76 M0 47.76 C0 31.25, 0 14.73, 0 0 M0 47.76 C0 28.69, 0 9.62, 0 0 M0 0 C0 0, 0 0, 0 0 M0 0 C0 0, 0 0, 0 0 M0 0 C0 0, 0 0, 0 0 M0 0 C0 0, 0 0, 0 0" stroke="#000000" stroke-width="1" fill="none"/></g></g><mask/><g transform="translate(133.46556163247703 115.12721657969897) rotate(0 11.928993225097656 6.502729939670672)"><text x="0" y="10.404588784245487" font-family="Helvetica, Segoe UI Emoji" font-size="11.30909554725335px" fill="#1971c2" text-anchor="start" style="white-space: pre;" direction="ltr" dominant-baseline="alphabetic">AND</text></g><g transform="translate(139.50477595260634 27.805889804401062) rotate(0 13.597862243652344 7.2177017209967005)"><text x="0" y="11.548567920093388" font-family="Helvetica, Segoe UI Emoji" font-size="12.552524732168168px" fill="#f08c00" text-anchor="start" style="white-space: pre;" direction="ltr" dominant-baseline="alphabetic">XOR</text></g><g stroke-linecap="round"><g transform="translate(36.72739625010166 26.7333536439603) rotate(0 39.92152850764954 40.185463402701316)"><path d="M0 0 C13.31 13.4, 66.54 66.98, 79.84 80.37 M0 0 C13.31 13.4, 66.54 66.98, 79.84 80.37" stroke="#e03131" stroke-width="2" fill="none"/></g><g transform="translate(36.72739625010166 26.7333536439603) rotate(0 39.92152850764954 40.185463402701316)"><path d="M79.84 80.37 L65.76 75.19 L74.76 66.26 L79.84 80.37" stroke="none" stroke-width="0" fill="#e03131" fill-rule="evenodd"/><path d="M79.84 80.37 C76.91 79.29, 73.97 78.21, 65.76 75.19 M79.84 80.37 C74.77 78.51, 69.7 76.64, 65.76 75.19 M65.76 75.19 C67.83 73.14, 69.9 71.09, 74.76 66.26 M65.76 75.19 C69.33 71.66, 72.89 68.12, 74.76 66.26 M74.76 66.26 C75.87 69.33, 76.98 72.41, 79.84 80.37 M74.76 66.26 C76.02 69.76, 77.28 73.26, 79.84 80.37 M79.84 80.37 C79.84 80.37, 79.84 80.37, 79.84 80.37 M79.84 80.37 C79.84 80.37, 79.84 80.37, 79.84 80.37" stroke="#e03131" stroke-width="2" fill="none"/></g></g><mask/><g stroke-linecap="round"><g transform="translate(36.62841625941732 26.865329901566184) rotate(0 42.874398000858804 0)"><path d="M0 0 C14.29 0, 71.46 0, 85.75 0 M0 0 C14.29 0, 71.46 0, 85.75 0" stroke="#e03131" stroke-width="2" fill="none"/></g><g transform="translate(36.62841625941732 26.865329901566184) rotate(0 42.874398000858804 0)"><path d="M85.75 0 L72.15 6.34 L72.15 -6.34 L85.75 0" stroke="none" stroke-width="0" fill="#e03131" fill-rule="evenodd"/><path d="M85.75 0 C81.98 1.76, 78.2 3.52, 72.15 6.34 M85.75 0 C82.44 1.54, 79.14 3.08, 72.15 6.34 M72.15 6.34 C72.15 3.04, 72.15 -0.26, 72.15 -6.34 M72.15 6.34 C72.15 1.71, 72.15 -2.92, 72.15 -6.34 M72.15 -6.34 C76.54 -4.3, 80.92 -2.25, 85.75 0 M72.15 -6.34 C76.06 -4.52, 79.96 -2.7, 85.75 0 M85.75 0 C85.75 0, 85.75 0, 85.75 0 M85.75 0 C85.75 0, 85.75 0, 85.75 0" stroke="#e03131" stroke-width="2" fill="none"/></g></g><mask/><g stroke-linecap="round"><g transform="translate(36.74903828399255 120.83717665754963) rotate(0 39.843402724779665 0)"><path d="M0 0 C13.28 0, 66.41 0, 79.69 0 M0 0 C13.28 0, 66.41 0, 79.69 0" stroke="#2f9e44" stroke-width="2" fill="none"/></g><g transform="translate(36.74903828399255 120.83717665754963) rotate(0 39.843402724779665 0)"><path d="M79.69 0 L66.09 6.34 L66.09 -6.34 L79.69 0" stroke="none" stroke-width="0" fill="#2f9e44" fill-rule="evenodd"/><path d="M79.69 0 C74.48 2.43, 69.27 4.86, 66.09 6.34 M79.69 0 C75.25 2.07, 70.81 4.14, 66.09 6.34 M66.09 6.34 C66.09 2.84, 66.09 -0.65, 66.09 -6.34 M66.09 6.34 C66.09 3.43, 66.09 0.51, 66.09 -6.34 M66.09 -6.34 C70.68 -4.2, 75.27 -2.06, 79.69 0 M66.09 -6.34 C69.39 -4.8, 72.68 -3.27, 79.69 0 M79.69 0 C79.69 0, 79.69 0, 79.69 0 M79.69 0 C79.69 0, 79.69 0, 79.69 0" stroke="#2f9e44" stroke-width="2" fill="none"/></g></g><mask/><g stroke-linecap="round" transform="translate(82.76854813559152 73.11961562408564) rotate(0 1.670548922545649 1.75622019294849)"><path d="M3.34 1.76 C3.34 1.86, 3.33 1.96, 3.32 2.06 C3.3 2.16, 3.27 2.26, 3.24 2.36 C3.21 2.45, 3.17 2.55, 3.12 2.63 C3.07 2.72, 3.01 2.81, 2.95 2.89 C2.89 2.96, 2.82 3.04, 2.74 3.1 C2.67 3.17, 2.59 3.23, 2.51 3.28 C2.42 3.33, 2.33 3.37, 2.24 3.41 C2.15 3.44, 2.06 3.47, 1.96 3.49 C1.87 3.5, 1.77 3.51, 1.67 3.51 C1.57 3.51, 1.48 3.5, 1.38 3.49 C1.29 3.47, 1.19 3.44, 1.1 3.41 C1.01 3.37, 0.92 3.33, 0.84 3.28 C0.75 3.23, 0.67 3.17, 0.6 3.1 C0.52 3.04, 0.45 2.96, 0.39 2.89 C0.33 2.81, 0.27 2.72, 0.22 2.63 C0.18 2.55, 0.13 2.45, 0.1 2.36 C0.07 2.26, 0.04 2.16, 0.03 2.06 C0.01 1.96, 0 1.86, 0 1.76 C0 1.65, 0.01 1.55, 0.03 1.45 C0.04 1.35, 0.07 1.25, 0.1 1.16 C0.13 1.06, 0.18 0.97, 0.22 0.88 C0.27 0.79, 0.33 0.71, 0.39 0.63 C0.45 0.55, 0.52 0.48, 0.6 0.41 C0.67 0.35, 0.75 0.29, 0.84 0.24 C0.92 0.18, 1.01 0.14, 1.1 0.11 C1.19 0.07, 1.29 0.04, 1.38 0.03 C1.48 0.01, 1.57 0, 1.67 0 C1.77 0, 1.87 0.01, 1.96 0.03 C2.06 0.04, 2.15 0.07, 2.24 0.11 C2.33 0.14, 2.42 0.18, 2.51 0.24 C2.59 0.29, 2.67 0.35, 2.74 0.41 C2.82 0.48, 2.89 0.55, 2.95 0.63 C3.01 0.71, 3.07 0.79, 3.12 0.88 C3.17 0.97, 3.21 1.06, 3.24 1.16 C3.27 1.25, 3.3 1.35, 3.32 1.45 C3.33 1.55, 3.34 1.71, 3.34 1.76 C3.35 1.81, 3.35 1.71, 3.34 1.76" stroke="none" stroke-width="0" fill="#FFFFFF"/><path d="M3.34 1.76 C3.34 1.86, 3.33 1.96, 3.32 2.06 C3.3 2.16, 3.27 2.26, 3.24 2.36 C3.21 2.45, 3.17 2.55, 3.12 2.63 C3.07 2.72, 3.01 2.81, 2.95 2.89 C2.89 2.96, 2.82 3.04, 2.74 3.1 C2.67 3.17, 2.59 3.23, 2.51 3.28 C2.42 3.33, 2.33 3.37, 2.24 3.41 C2.15 3.44, 2.06 3.47, 1.96 3.49 C1.87 3.5, 1.77 3.51, 1.67 3.51 C1.57 3.51, 1.48 3.5, 1.38 3.49 C1.29 3.47, 1.19 3.44, 1.1 3.41 C1.01 3.37, 0.92 3.33, 0.84 3.28 C0.75 3.23, 0.67 3.17, 0.6 3.1 C0.52 3.04, 0.45 2.96, 0.39 2.89 C0.33 2.81, 0.27 2.72, 0.22 2.63 C0.18 2.55, 0.13 2.45, 0.1 2.36 C0.07 2.26, 0.04 2.16, 0.03 2.06 C0.01 1.96, 0 1.86, 0 1.76 C0 1.65, 0.01 1.55, 0.03 1.45 C0.04 1.35, 0.07 1.25, 0.1 1.16 C0.13 1.06, 0.18 0.97, 0.22 0.88 C0.27 0.79, 0.33 0.71, 0.39 0.63 C0.45 0.55, 0.52 0.48, 0.6 0.41 C0.67 0.35, 0.75 0.29, 0.84 0.24 C0.92 0.18, 1.01 0.14, 1.1 0.11 C1.19 0.07, 1.29 0.04, 1.38 0.03 C1.48 0.01, 1.57 0, 1.67 0 C1.77 0, 1.87 0.01, 1.96 0.03 C2.06 0.04, 2.15 0.07, 2.24 0.11 C2.33 0.14, 2.42 0.18, 2.51 0.24 C2.59 0.29, 2.67 0.35, 2.74 0.41 C2.82 0.48, 2.89 0.55, 2.95 0.63 C3.01 0.71, 3.07 0.79, 3.12 0.88 C3.17 0.97, 3.21 1.06, 3.24 1.16 C3.27 1.25, 3.3 1.35, 3.32 1.45 C3.33 1.55, 3.34 1.71, 3.34 1.76 C3.35 1.81, 3.35 1.71, 3.34 1.76" stroke="#ffffff" stroke-width="2" fill="none"/></g><g stroke-linecap="round"><g transform="translate(36.71266044610127 120.80079881965835) rotate(0 42.77119711624388 -41.17091632621147)"><path d="M0 0 C14.26 -13.72, 71.29 -68.62, 85.54 -82.34 M0 0 C14.26 -13.72, 71.29 -68.62, 85.54 -82.34" stroke="#2f9e44" stroke-width="2" fill="none"/></g><g transform="translate(36.71266044610127 120.80079881965835) rotate(0 42.77119711624388 -41.17091632621147)"><path d="M85.54 -82.34 L80.14 -68.35 L71.35 -77.48 L85.54 -82.34" stroke="none" stroke-width="0" fill="#2f9e44" fill-rule="evenodd"/><path d="M85.54 -82.34 C83.45 -76.92, 81.36 -71.49, 80.14 -68.35 M85.54 -82.34 C83.45 -76.91, 81.35 -71.49, 80.14 -68.35 M80.14 -68.35 C77.3 -71.3, 74.46 -74.26, 71.35 -77.48 M80.14 -68.35 C76.78 -71.84, 73.42 -75.33, 71.35 -77.48 M71.35 -77.48 C75.04 -78.74, 78.73 -80.01, 85.54 -82.34 M71.35 -77.48 C74.8 -78.66, 78.25 -79.84, 85.54 -82.34 M85.54 -82.34 C85.54 -82.34, 85.54 -82.34, 85.54 -82.34 M85.54 -82.34 C85.54 -82.34, 85.54 -82.34, 85.54 -82.34" stroke="#2f9e44" stroke-width="2" fill="none"/></g></g><mask/><g stroke-linecap="round"><g transform="translate(180.82770292978736 34.38454554715207) rotate(0 61.653298079296334 0)"><path d="M0 0 C20.55 0, 102.76 0, 123.31 0 M0 0 C20.55 0, 102.76 0, 123.31 0" stroke="#f08c00" stroke-width="2" fill="none"/></g><g transform="translate(180.82770292978736 34.38454554715207) rotate(0 61.653298079296334 0)"><path d="M123.31 0 L109.71 6.34 L109.71 -6.34 L123.31 0" stroke="none" stroke-width="0" fill="#f08c00" fill-rule="evenodd"/><path d="M123.31 0 C119.44 1.8, 115.57 3.61, 109.71 6.34 M123.31 0 C120.18 1.46, 117.06 2.91, 109.71 6.34 M109.71 6.34 C109.71 3.34, 109.71 0.33, 109.71 -6.34 M109.71 6.34 C109.71 3.78, 109.71 1.23, 109.71 -6.34 M109.71 -6.34 C112.97 -4.82, 116.23 -3.3, 123.31 0 M109.71 -6.34 C113.69 -4.48, 117.67 -2.63, 123.31 0 M123.31 0 C123.31 0, 123.31 0, 123.31 0 M123.31 0 C123.31 0, 123.31 0, 123.31 0" stroke="#f08c00" stroke-width="2" fill="none"/></g></g><mask/><g stroke-linecap="round"><g transform="translate(173.36870903693833 118.76449620936128) rotate(0 66.08208348351978 0)"><path d="M0 0 C22.03 0, 110.14 0, 132.16 0 M0 0 C22.03 0, 110.14 0, 132.16 0" stroke="#1971c2" stroke-width="2" fill="none"/></g><g transform="translate(173.36870903693833 118.76449620936128) rotate(0 66.08208348351978 0)"><path d="M132.16 0 L118.57 6.34 L118.57 -6.34 L132.16 0" stroke="none" stroke-width="0" fill="#1971c2" fill-rule="evenodd"/><path d="M132.16 0 C128.34 1.79, 124.51 3.57, 118.57 6.34 M132.16 0 C127.59 2.13, 123.01 4.27, 118.57 6.34 M118.57 6.34 C118.57 2.17, 118.57 -2.01, 118.57 -6.34 M118.57 6.34 C118.57 2.1, 118.57 -2.15, 118.57 -6.34 M118.57 -6.34 C121.98 -4.75, 125.4 -3.15, 132.16 0 M118.57 -6.34 C123.38 -4.1, 128.19 -1.85, 132.16 0 M132.16 0 C132.16 0, 132.16 0, 132.16 0 M132.16 0 C132.16 0, 132.16 0, 132.16 0" stroke="#1971c2" stroke-width="2" fill="none"/></g></g><mask/></svg>