<svg version="1.1" xmlns="http://www.w3.org/2000/svg" viewBox="0 0 524.7408883722103 170.27081627353414" width="524.7408883722103" height="170.27081627353414" filter="invert(93%) hue-rotate(180deg)" class="excalidraw-svg">
  <!-- svg-source:excalidraw -->
  
  <defs>
    <style class="style-fonts">
      @font-face {
        font-family: "Virgil";
        src: url("https://excalidraw.com/Virgil.woff2");
      }
      @font-face {
        font-family: "Cascadia";
        src: url("https://excalidraw.com/Cascadia.woff2");
      }
      @font-face {
        font-family: "Assistant";
        src: url("https://excalidraw.com/Assistant-Regular.woff2");
      }
    </style>
    
  </defs>
  <g stroke-linecap="round"><g transform="translate(110.21145952656764 54.39559697337188) rotate(0 48.65188746018288 52.93760965008113)" fill-rule="evenodd"><path d="M0 0 L0 5.69 L0 100.19 L0 105.88 L4.98 103.36 L97.3 57.36 L96.49 48.11 L4.98 2.51 L0 0 L0 0" stroke="none" stroke-width="0" fill="black" fill-rule="evenodd"/><path d="M0 0 C0 2.24, 0 4.49, 0 5.69 M0 0 C0 1.8, 0 3.6, 0 5.69 M0 5.69 C0 38.42, 0 71.16, 0 100.19 M0 5.69 C0 39.9, 0 74.11, 0 100.19 M0 100.19 C0 102.04, 0 103.9, 0 105.88 M0 100.19 C0 102.1, 0 104.01, 0 105.88 M0 105.88 C1.33 105.2, 2.67 104.53, 4.98 103.36 M0 105.88 C1.42 105.16, 2.84 104.44, 4.98 103.36 M4.98 103.36 C32.7 89.55, 60.42 75.74, 97.3 57.36 M4.98 103.36 C26.78 92.5, 48.58 81.64, 97.3 57.36 M97.3 57.36 C97.12 55.29, 96.94 53.22, 96.49 48.11 M97.3 57.36 C97.09 54.89, 96.87 52.42, 96.49 48.11 M96.49 48.11 C70.09 34.95, 43.68 21.79, 4.98 2.51 M96.49 48.11 C70.86 35.34, 45.22 22.56, 4.98 2.51 M4.98 2.51 C3.62 1.82, 2.26 1.14, 0 0 M4.98 2.51 C3.63 1.83, 2.28 1.15, 0 0 M0 0 C0 0, 0 0, 0 0 M0 0 C0 0, 0 0, 0 0 M0 0 C0 0, 0 0, 0 0 M0 0 C0 0, 0 0, 0 0" stroke="#000000" stroke-width="1" fill="none"/></g></g><mask/><g stroke-linecap="round"><g transform="translate(117.5569234680072 65.7657390739472) rotate(0 41.53386817971288 41.56746754950582)" fill-rule="evenodd"><path d="M0 0 L83.07 41.57 L0 83.13 L0 0 L0 0" stroke="none" stroke-width="0" fill="#FFFFFF" fill-rule="evenodd"/><path d="M0 0 C26.47 13.25, 52.94 26.49, 83.07 41.57 M0 0 C25.32 12.67, 50.65 25.34, 83.07 41.57 M83.07 41.57 C50.52 57.86, 17.97 74.14, 0 83.13 M83.07 41.57 C54.2 56.01, 25.34 70.46, 0 83.13 M0 83.13 C0 52.82, 0 22.5, 0 0 M0 83.13 C0 56.53, 0 29.93, 0 0 M0 0 C0 0, 0 0, 0 0 M0 0 C0 0, 0 0, 0 0 M0 0 C0 0, 0 0, 0 0 M0 0 C0 0, 0 0, 0 0" stroke="#000000" stroke-width="1" fill="none"/></g></g><mask/><g stroke-linecap="round"><g transform="translate(224.69613880249926 107.33320662345301) rotate(0 -9.450507719958694 0)"><path d="M0 0 C0 0, 0 0, 0 0 M0 0 C0 0, 0 0, 0 0 M0 0 C-0.08 0.57, -0.15 1.14, -0.35 2.59 M0 0 C-0.1 0.74, -0.2 1.48, -0.35 2.59 M-0.35 2.59 C-0.73 3.46, -1.1 4.34, -1.33 4.86 M-0.35 2.59 C-0.67 3.33, -0.99 4.06, -1.33 4.86 M-1.33 4.86 C-1.85 5.51, -2.36 6.17, -2.82 6.75 M-1.33 4.86 C-1.82 5.48, -2.31 6.1, -2.82 6.75 M-2.82 6.75 C-3.36 7.15, -3.9 7.56, -4.73 8.18 M-2.82 6.75 C-3.4 7.18, -3.97 7.61, -4.73 8.18 M-4.73 8.18 C-5.48 8.5, -6.23 8.82, -6.92 9.11 M-4.73 8.18 C-5.39 8.46, -6.05 8.74, -6.92 9.11 M-6.92 9.11 C-7.43 9.19, -7.94 9.26, -9.3 9.46 M-6.92 9.11 C-7.45 9.19, -7.98 9.27, -9.3 9.46 M-9.3 9.46 C-9.81 9.4, -10.31 9.35, -11.76 9.18 M-9.3 9.46 C-9.93 9.39, -10.56 9.32, -11.76 9.18 M-11.76 9.18 C-12.32 8.95, -12.87 8.72, -14.18 8.18 M-11.76 9.18 C-12.4 8.91, -13.05 8.65, -14.18 8.18 M-14.18 8.18 C-14.73 7.76, -15.28 7.34, -16.15 6.67 M-14.18 8.18 C-14.7 7.78, -15.23 7.37, -16.15 6.67 M-16.15 6.67 C-16.74 5.9, -17.33 5.12, -17.63 4.73 M-16.15 6.67 C-16.72 5.92, -17.29 5.18, -17.63 4.73 M-17.63 4.73 C-17.98 3.9, -18.32 3.08, -18.57 2.47 M-17.63 4.73 C-17.95 3.97, -18.26 3.22, -18.57 2.47 M-18.57 2.47 C-18.66 1.79, -18.75 1.11, -18.9 0 M-18.57 2.47 C-18.7 1.5, -18.83 0.53, -18.9 0 M-18.9 0 C-18.83 -0.55, -18.75 -1.09, -18.55 -2.59 M-18.9 0 C-18.81 -0.71, -18.71 -1.42, -18.55 -2.59 M-18.55 -2.59 C-18.33 -3.1, -18.11 -3.61, -17.57 -4.86 M-18.55 -2.59 C-18.27 -3.25, -17.98 -3.91, -17.57 -4.86 M-17.57 -4.86 C-17.25 -5.27, -16.92 -5.68, -16.08 -6.75 M-17.57 -4.86 C-17.22 -5.3, -16.87 -5.75, -16.08 -6.75 M-16.08 -6.75 C-15.48 -7.2, -14.88 -7.65, -14.18 -8.18 M-16.08 -6.75 C-15.41 -7.25, -14.75 -7.75, -14.18 -8.18 M-14.18 -8.18 C-13.43 -8.5, -12.68 -8.82, -11.98 -9.11 M-14.18 -8.18 C-13.32 -8.54, -12.47 -8.9, -11.98 -9.11 M-11.98 -9.11 C-11.49 -9.18, -11 -9.26, -9.6 -9.46 M-11.98 -9.11 C-11.48 -9.18, -10.99 -9.26, -9.6 -9.46 M-9.6 -9.46 C-8.66 -9.35, -7.72 -9.24, -7.14 -9.18 M-9.6 -9.46 C-9.05 -9.4, -8.51 -9.34, -7.14 -9.18 M-7.14 -9.18 C-6.49 -8.91, -5.83 -8.64, -4.73 -8.18 M-7.14 -9.18 C-6.21 -8.79, -5.28 -8.41, -4.73 -8.18 M-4.73 -8.18 C-4.14 -7.73, -3.55 -7.28, -2.75 -6.67 M-4.73 -8.18 C-4.23 -7.8, -3.73 -7.42, -2.75 -6.67 M-2.75 -6.67 C-2.34 -6.13, -1.93 -5.59, -1.27 -4.73 M-2.75 -6.67 C-2.21 -5.95, -1.66 -5.24, -1.27 -4.73 M-1.27 -4.73 C-0.99 -4.05, -0.71 -3.38, -0.33 -2.47 M-1.27 -4.73 C-0.97 -4, -0.66 -3.28, -0.33 -2.47 M-0.33 -2.47 C-0.23 -1.73, -0.13 -1, 0 0 M-0.33 -2.47 C-0.22 -1.67, -0.12 -0.87, 0 0 M0 0 C0 0, 0 0, 0 0 M0 0 C0 0, 0 0, 0 0" stroke="#000000" stroke-width="3" fill="none"/></g></g><mask/><g stroke-linecap="round"><g transform="translate(293.6630990834533 10) rotate(0 63.956581051872625 63.204153523082496)" fill-rule="evenodd"><path d="M0 0 L0 4.51 L0 121.89 L0 126.41 L4.51 126.41 L64.71 126.41 L64.71 126.41 L71.29 126.08 L77.65 125.12 L83.76 123.55 L89.61 121.42 L95.15 118.75 L100.36 115.58 L109.66 107.84 L117.3 98.48 L123.05 87.75 L125.13 81.95 L126.66 75.9 L127.59 69.64 L127.91 63.2 L127.59 56.77 L126.66 50.51 L125.13 44.46 L123.05 38.66 L117.3 27.93 L109.66 18.57 L100.36 10.83 L95.15 7.66 L89.61 4.99 L83.76 2.85 L77.65 1.29 L71.29 0.33 L64.71 0 L64.59 0 L63.77 0 L61.53 0 L59.67 0 L57.18 0 L54 0 L50.01 0 L45.15 0 L39.31 0 L32.42 0 L24.38 0 L15.11 0 L4.51 0 L0 0 L0 0" stroke="none" stroke-width="0" fill="black" fill-rule="evenodd"/><path d="M0 0 C0 1.53, 0 3.05, 0 4.51 M0 0 C0 1.49, 0 2.98, 0 4.51 M0 4.51 C0 35.6, 0 66.68, 0 121.89 M0 4.51 C0 30.89, 0 57.26, 0 121.89 M0 121.89 C0 123.61, 0 125.33, 0 126.41 M0 121.89 C0 122.81, 0 123.72, 0 126.41 M0 126.41 C1.12 126.41, 2.24 126.41, 4.51 126.41 M0 126.41 C1.8 126.41, 3.6 126.41, 4.51 126.41 M4.51 126.41 C23.48 126.41, 42.45 126.41, 64.71 126.41 M4.51 126.41 C27.93 126.41, 51.34 126.41, 64.71 126.41 M64.71 126.41 C64.71 126.41, 64.71 126.41, 64.71 126.41 M64.71 126.41 C64.71 126.41, 64.71 126.41, 64.71 126.41 M64.71 126.41 C66.22 126.33, 67.73 126.26, 71.29 126.08 M64.71 126.41 C67.16 126.29, 69.61 126.16, 71.29 126.08 M71.29 126.08 C73.18 125.79, 75.07 125.51, 77.65 125.12 M71.29 126.08 C73.56 125.74, 75.83 125.39, 77.65 125.12 M77.65 125.12 C79.26 124.71, 80.86 124.3, 83.76 123.55 M77.65 125.12 C79.86 124.55, 82.07 123.99, 83.76 123.55 M83.76 123.55 C85.32 122.99, 86.88 122.42, 89.61 121.42 M83.76 123.55 C85.7 122.85, 87.64 122.14, 89.61 121.42 M89.61 121.42 C91.3 120.61, 92.99 119.79, 95.15 118.75 M89.61 121.42 C91.74 120.39, 93.88 119.36, 95.15 118.75 M95.15 118.75 C96.21 118.1, 97.27 117.46, 100.36 115.58 M95.15 118.75 C97.15 117.53, 99.15 116.31, 100.36 115.58 M100.36 115.58 C103.13 113.27, 105.91 110.96, 109.66 107.84 M100.36 115.58 C102.23 114.02, 104.1 112.47, 109.66 107.84 M109.66 107.84 C111.29 105.85, 112.92 103.86, 117.3 98.48 M109.66 107.84 C111.92 105.08, 114.17 102.32, 117.3 98.48 M117.3 98.48 C119.24 94.87, 121.17 91.26, 123.05 87.75 M117.3 98.48 C119.51 94.35, 121.72 90.23, 123.05 87.75 M123.05 87.75 C123.47 86.57, 123.89 85.4, 125.13 81.95 M123.05 87.75 C123.5 86.49, 123.95 85.24, 125.13 81.95 M125.13 81.95 C125.69 79.74, 126.24 77.54, 126.66 75.9 M125.13 81.95 C125.49 80.51, 125.86 79.07, 126.66 75.9 M126.66 75.9 C127.01 73.53, 127.37 71.16, 127.59 69.64 M126.66 75.9 C127.01 73.57, 127.35 71.25, 127.59 69.64 M127.59 69.64 C127.68 67.85, 127.77 66.05, 127.91 63.2 M127.59 69.64 C127.69 67.81, 127.78 65.97, 127.91 63.2 M127.91 63.2 C127.8 60.93, 127.69 58.65, 127.59 56.77 M127.91 63.2 C127.8 60.87, 127.68 58.54, 127.59 56.77 M127.59 56.77 C127.38 55.34, 127.17 53.91, 126.66 50.51 M127.59 56.77 C127.24 54.42, 126.89 52.07, 126.66 50.51 M126.66 50.51 C126.29 49.07, 125.93 47.63, 125.13 44.46 M126.66 50.51 C126.26 48.94, 125.87 47.37, 125.13 44.46 M125.13 44.46 C124.48 42.65, 123.83 40.84, 123.05 38.66 M125.13 44.46 C124.34 42.26, 123.54 40.05, 123.05 38.66 M123.05 38.66 C121.06 34.95, 119.08 31.25, 117.3 27.93 M123.05 38.66 C121.27 35.34, 119.49 32.02, 117.3 27.93 M117.3 27.93 C115.15 25.29, 112.99 22.65, 109.66 18.57 M117.3 27.93 C115.05 25.17, 112.81 22.42, 109.66 18.57 M109.66 18.57 C106.96 16.32, 104.26 14.08, 100.36 10.83 M109.66 18.57 C107.51 16.78, 105.36 14.99, 100.36 10.83 M100.36 10.83 C99.1 10.07, 97.84 9.3, 95.15 7.66 M100.36 10.83 C98.6 9.76, 96.85 8.69, 95.15 7.66 M95.15 7.66 C93.55 6.89, 91.96 6.12, 89.61 4.99 M95.15 7.66 C93.38 6.81, 91.62 5.96, 89.61 4.99 M89.61 4.99 C87.6 4.25, 85.59 3.52, 83.76 2.85 M89.61 4.99 C88.15 4.46, 86.7 3.93, 83.76 2.85 M83.76 2.85 C82.19 2.45, 80.61 2.05, 77.65 1.29 M83.76 2.85 C81.71 2.33, 79.65 1.8, 77.65 1.29 M77.65 1.29 C75.77 1.01, 73.89 0.72, 71.29 0.33 M77.65 1.29 C75.13 0.91, 72.61 0.53, 71.29 0.33 M71.29 0.33 C69.2 0.22, 67.11 0.12, 64.71 0 M71.29 0.33 C69.81 0.25, 68.33 0.18, 64.71 0 M64.71 0 C64.68 0, 64.65 0, 64.59 0 M64.71 0 C64.68 0, 64.65 0, 64.59 0 M64.59 0 C64.35 0, 64.12 0, 63.77 0 M64.59 0 C64.26 0, 63.94 0, 63.77 0 M63.77 0 C63.03 0, 62.29 0, 61.53 0 M63.77 0 C62.93 0, 62.09 0, 61.53 0 M61.53 0 C60.8 0, 60.06 0, 59.67 0 M61.53 0 C61.09 0, 60.64 0, 59.67 0 M59.67 0 C58.96 0, 58.26 0, 57.18 0 M59.67 0 C58.78 0, 57.9 0, 57.18 0 M57.18 0 C56.04 0, 54.89 0, 54 0 M57.18 0 C56.51 0, 55.84 0, 54 0 M54 0 C53.09 0, 52.19 0, 50.01 0 M54 0 C52.93 0, 51.86 0, 50.01 0 M50.01 0 C48.52 0, 47.02 0, 45.15 0 M50.01 0 C48.32 0, 46.64 0, 45.15 0 M45.15 0 C43.27 0, 41.39 0, 39.31 0 M45.15 0 C43.43 0, 41.72 0, 39.31 0 M39.31 0 C37.48 0, 35.65 0, 32.42 0 M39.31 0 C36.88 0, 34.44 0, 32.42 0 M32.42 0 C30.12 0, 27.81 0, 24.38 0 M32.42 0 C30.49 0, 28.57 0, 24.38 0 M24.38 0 C21.93 0, 19.48 0, 15.11 0 M24.38 0 C21.51 0, 18.63 0, 15.11 0 M15.11 0 C12.06 0, 9.01 0, 4.51 0 M15.11 0 C12.62 0, 10.13 0, 4.51 0 M4.51 0 C3.46 0, 2.41 0, 0 0 M4.51 0 C2.84 0, 1.17 0, 0 0 M0 0 C0 0, 0 0, 0 0 M0 0 C0 0, 0 0, 0 0 M0 0 C0 0, 0 0, 0 0 M0 0 C0 0, 0 0, 0 0" stroke="#000000" stroke-width="1" fill="none"/></g></g><mask/><g stroke-linecap="round"><g transform="translate(302.6922655946415 19.02916500428387) rotate(0 54.174993039511996 54.17498776534643)" fill-rule="evenodd"><path d="M0 0 L0 0 L9.02 0 L17.19 0 L24.5 0 L30.95 0 L36.54 0 L41.27 0 L45.15 0 L48.16 0 L50.64 0 L52.51 0 L54.74 0 L55.59 0 L55.68 0 L66.8 1.1 L76.92 4.24 L85.9 9.22 L93.58 15.83 L99.82 23.84 L104.46 33.04 L107.35 43.22 L108.35 54.17 L107.29 65.13 L104.22 75.31 L99.34 84.51 L92.83 92.52 L84.87 99.13 L75.65 104.11 L65.36 107.25 L54.17 108.35 L0 108.35 L0 0 L0 0" stroke="none" stroke-width="0" fill="#FFFFFF" fill-rule="evenodd"/><path d="M0 0 C0 0, 0 0, 0 0 M0 0 C0 0, 0 0, 0 0 M0 0 C2.11 0, 4.21 0, 9.02 0 M0 0 C1.92 0, 3.84 0, 9.02 0 M9.02 0 C11.45 0, 13.87 0, 17.19 0 M9.02 0 C11.29 0, 13.56 0, 17.19 0 M17.19 0 C19.55 0, 21.9 0, 24.5 0 M17.19 0 C19.81 0, 22.43 0, 24.5 0 M24.5 0 C26.14 0, 27.77 0, 30.95 0 M24.5 0 C26.58 0, 28.67 0, 30.95 0 M30.95 0 C32.6 0, 34.24 0, 36.54 0 M30.95 0 C32.65 0, 34.34 0, 36.54 0 M36.54 0 C37.89 0, 39.23 0, 41.27 0 M36.54 0 C37.8 0, 39.06 0, 41.27 0 M41.27 0 C42.75 0, 44.22 0, 45.15 0 M41.27 0 C42.39 0, 43.5 0, 45.15 0 M45.15 0 C45.84 0, 46.54 0, 48.16 0 M45.15 0 C46.11 0, 47.08 0, 48.16 0 M48.16 0 C48.81 0, 49.46 0, 50.64 0 M48.16 0 C48.84 0, 49.52 0, 50.64 0 M50.64 0 C51.09 0, 51.55 0, 52.51 0 M50.64 0 C51.34 0, 52.05 0, 52.51 0 M52.51 0 C53.35 0, 54.19 0, 54.74 0 M52.51 0 C53.07 0, 53.64 0, 54.74 0 M54.74 0 C54.96 0, 55.19 0, 55.59 0 M54.74 0 C54.99 0, 55.24 0, 55.59 0 M55.59 0 C55.61 0, 55.62 0, 55.68 0 M55.59 0 C55.62 0, 55.65 0, 55.68 0 M55.68 0 C59.56 0.38, 63.44 0.77, 66.8 1.1 M55.68 0 C58.02 0.23, 60.36 0.46, 66.8 1.1 M66.8 1.1 C70.75 2.32, 74.7 3.55, 76.92 4.24 M66.8 1.1 C69.33 1.88, 71.86 2.67, 76.92 4.24 M76.92 4.24 C80 5.95, 83.08 7.66, 85.9 9.22 M76.92 4.24 C78.99 5.39, 81.06 6.54, 85.9 9.22 M85.9 9.22 C87.57 10.66, 89.24 12.09, 93.58 15.83 M85.9 9.22 C87.89 10.93, 89.88 12.64, 93.58 15.83 M93.58 15.83 C96.07 19.02, 98.56 22.22, 99.82 23.84 M93.58 15.83 C95.69 18.53, 97.8 21.24, 99.82 23.84 M99.82 23.84 C101.34 26.85, 102.86 29.86, 104.46 33.04 M99.82 23.84 C100.94 26.06, 102.06 28.29, 104.46 33.04 M104.46 33.04 C105.25 35.81, 106.03 38.59, 107.35 43.22 M104.46 33.04 C105.29 35.97, 106.12 38.9, 107.35 43.22 M107.35 43.22 C107.56 45.56, 107.78 47.89, 108.35 54.17 M107.35 43.22 C107.56 45.46, 107.76 47.7, 108.35 54.17 M108.35 54.17 C108.12 56.55, 107.89 58.93, 107.29 65.13 M108.35 54.17 C108.02 57.55, 107.7 60.92, 107.29 65.13 M107.29 65.13 C106.31 68.36, 105.34 71.6, 104.22 75.31 M107.29 65.13 C106.14 68.92, 105 72.72, 104.22 75.31 M104.22 75.31 C102.8 77.99, 101.38 80.67, 99.34 84.51 M104.22 75.31 C103.24 77.17, 102.25 79.02, 99.34 84.51 M99.34 84.51 C97.15 87.21, 94.96 89.9, 92.83 92.52 M99.34 84.51 C97.39 86.91, 95.44 89.31, 92.83 92.52 M92.83 92.52 C90.82 94.19, 88.82 95.85, 84.87 99.13 M92.83 92.52 C90.89 94.14, 88.94 95.75, 84.87 99.13 M84.87 99.13 C81.96 100.7, 79.05 102.27, 75.65 104.11 M84.87 99.13 C81.56 100.92, 78.25 102.7, 75.65 104.11 M75.65 104.11 C72.97 104.93, 70.29 105.75, 65.36 107.25 M75.65 104.11 C72.73 105, 69.8 105.9, 65.36 107.25 M65.36 107.25 C61.4 107.64, 57.44 108.03, 54.17 108.35 M65.36 107.25 C62.57 107.53, 59.78 107.8, 54.17 108.35 M54.17 108.35 C33.73 108.35, 13.28 108.35, 0 108.35 M54.17 108.35 C40.92 108.35, 27.66 108.35, 0 108.35 M0 108.35 C0 75.68, 0 43.02, 0 0 M0 108.35 C0 76.64, 0 44.93, 0 0 M0 0 C0 0, 0 0, 0 0 M0 0 C0 0, 0 0, 0 0 M0 0 C0 0, 0 0, 0 0 M0 0 C0 0, 0 0, 0 0" stroke="#000000" stroke-width="1" fill="none"/></g></g><mask/><g transform="translate(11.664590960176156 26.015020886601235) rotate(0 9.49462890625 16.373099909978976)"><text x="0" y="26.197516007457878" font-family="Helvetica, Segoe UI Emoji" font-size="28.47495636518084px" fill="#1e1e1e" text-anchor="start" style="white-space: pre;" direction="ltr" dominant-baseline="alphabetic">A</text></g><g transform="translate(10 91.8337123944275) rotate(0 9.49462890625 16.373099909978983)"><text x="0" y="26.197516007457878" font-family="Helvetica, Segoe UI Emoji" font-size="28.47495636518084px" fill="#1e1e1e" text-anchor="start" style="white-space: pre;" direction="ltr" dominant-baseline="alphabetic">B</text></g><g transform="translate(475.16372467592123 56.142484420503024) rotate(0 19.78858184814453 16.373099909978983)"><text x="0" y="26.197516007457878" font-family="Helvetica, Segoe UI Emoji" font-size="28.47495636518084px" fill="#1e1e1e" text-anchor="start" style="white-space: pre;" direction="ltr" dominant-baseline="alphabetic">out</text></g><g stroke-linecap="round"><g transform="translate(44.46619990704244 107.51221775844084) rotate(0 33.766703256151516 0)"><path d="M0 0 C11.26 0, 56.28 0, 67.53 0 M0 0 C11.26 0, 56.28 0, 67.53 0" stroke="#000000" stroke-width="4" fill="none"/></g></g><mask/><g stroke-linecap="round"><g transform="translate(41.571918417072425 40.87857606844807) rotate(0 126.62515561196105 0)"><path d="M0 0 C42.21 0, 211.04 0, 253.25 0 M0 0 C42.21 0, 211.04 0, 253.25 0" stroke="#000000" stroke-width="4" fill="none"/></g></g><mask/><g stroke-linecap="round"><g transform="translate(225.84166398231355 107.51221775844084) rotate(0 34.49028282934049 0)"><path d="M0 0 C11.5 0, 57.48 0, 68.98 0 M0 0 C11.5 0, 57.48 0, 68.98 0" stroke="#000000" stroke-width="4" fill="none"/></g></g><mask/><g stroke-linecap="round"><g transform="translate(419.75900224652634 72.51558433048206) rotate(0 24.119073754393924 0)"><path d="M0 0 C8.04 0, 40.2 0, 48.24 0 M0 0 C8.04 0, 40.2 0, 48.24 0" stroke="#000000" stroke-width="4" fill="none"/></g></g><mask/></svg>