<svg version="1.1" xmlns="http://www.w3.org/2000/svg" viewBox="0 0 675.1193114915841 266.5579194497314" width="675.1193114915841" height="266.5579194497314" class="excalidraw-svg">
  <!-- svg-source:excalidraw -->
  
  <defs>
    <style class="style-fonts">
      @font-face {
        font-family: "Virgil";
        src: url("https://excalidraw.com/Virgil.woff2");
      }
      @font-face {
        font-family: "Cascadia";
        src: url("https://excalidraw.com/Cascadia.woff2");
      }
      @font-face {
        font-family: "Assistant";
        src: url("https://excalidraw.com/Assistant-Regular.woff2");
      }
    </style>
    
  </defs>
  <g transform="translate(173.94743649158414 14.600000000000023) rotate(0 245.5859375 11.5)"><text x="0" y="18.400390625" font-family="Helvetica, Segoe UI Emoji" font-size="20px" fill="#1e1e1e" text-anchor="start" style="white-space: pre;" direction="ltr" dominant-baseline="alphabetic">A B C D E F G H I J K L M N O P Q R S T U V W X Y Z</text></g><g transform="translate(173.9474361986154 115.30001179296877) rotate(0 245.5859375 11.5)"><text x="0" y="18.400390625" font-family="Helvetica, Segoe UI Emoji" font-size="20px" fill="#1e1e1e" text-anchor="start" style="white-space: pre;" direction="ltr" dominant-baseline="alphabetic">A B C D E F G H I J K L M N O P Q R S T U V W X Y Z</text></g><g transform="translate(19.547411698615406 10) rotate(0 53.6962890625 16.099999999999994)"><text x="0" y="25.760546874999996" font-family="Helvetica, Segoe UI Emoji" font-size="28px" fill="#1e1e1e" text-anchor="start" style="white-space: pre;" direction="ltr" dominant-baseline="alphabetic">Plaintext</text></g><g transform="translate(32.002489823615406 110.70001179296875) rotate(0 41.2412109375 16.099999999999994)"><text x="0" y="25.760546874999996" font-family="Helvetica, Segoe UI Emoji" font-size="28px" fill="#1e1e1e" text-anchor="start" style="white-space: pre;" direction="ltr" dominant-baseline="alphabetic">Cipher</text></g><g stroke-linecap="round"><g transform="translate(266.3953277775231 41.0475384407747) rotate(0 38.456725340351284 37.81576524793559)"><path d="M0 0 C12.82 12.61, 64.09 63.03, 76.91 75.63 M0 0 C12.82 12.61, 64.09 63.03, 76.91 75.63" stroke="#1e1e1e" stroke-width="2" fill="none"/></g><g transform="translate(266.3953277775231 41.0475384407747) rotate(0 38.456725340351284 37.81576524793559)"><path d="M54.17 65.26 C61.09 68.41, 68.01 71.57, 76.91 75.63 M54.17 65.26 C60.09 67.96, 66 70.65, 76.91 75.63" stroke="#1e1e1e" stroke-width="2" fill="none"/></g><g transform="translate(266.3953277775231 41.0475384407747) rotate(0 38.456725340351284 37.81576524793559)"><path d="M66.16 53.06 C69.43 59.93, 72.71 66.8, 76.91 75.63 M66.16 53.06 C68.96 58.93, 71.75 64.81, 76.91 75.63" stroke="#1e1e1e" stroke-width="2" fill="none"/></g></g><mask/><g transform="translate(336.8992753345788 224.3579194497314) rotate(0 15.9619140625 16.099999999999998)"><text x="0" y="25.760546874999996" font-family="Helvetica, Segoe UI Emoji" font-size="28px" fill="#1e1e1e" text-anchor="start" style="white-space: pre;" direction="ltr" dominant-baseline="alphabetic">+5</text></g><g transform="translate(10 57.79599133565807) rotate(0 53.6962890625 16.099999999999994)"><text x="0" y="25.760546874999996" font-family="Helvetica, Segoe UI Emoji" font-size="28px" fill="#1e1e1e" text-anchor="start" style="white-space: pre;" direction="ltr" dominant-baseline="alphabetic">Plaintext</text></g></svg>